<svg width="40" height="40" viewBox="0 0 40 40" fill="none" xmlns="http://www.w3.org/2000/svg">
<g clip-path="url(#clip0_2312_181)">
<path d="M38.3525 16.738L36.3706 15.6631L34.6409 11.4889L35.2828 9.32636C35.382 8.99222 35.389 8.63751 35.3033 8.29967C35.2176 7.96184 35.0422 7.65343 34.7957 7.40701L32.5912 5.20249C32.3448 4.956 32.0364 4.78063 31.6985 4.6949C31.3607 4.60916 31.006 4.61624 30.6719 4.71539L28.5093 5.36055L24.3351 3.62765L23.2602 1.64572C23.0941 1.33935 22.8484 1.08353 22.5489 0.905248C22.2495 0.726966 21.9074 0.632842 21.5589 0.632812H18.4402C18.0917 0.632842 17.7497 0.726966 17.4503 0.905248C17.1508 1.08353 16.9051 1.33935 16.7389 1.64572L15.6641 3.62765L11.4899 5.35733L9.32734 4.71217C8.9932 4.61302 8.63848 4.60594 8.30065 4.69167C7.96282 4.77741 7.65441 4.95278 7.40798 5.19926L5.20347 7.40701C4.95698 7.65343 4.78161 7.96184 4.69587 8.29967C4.61014 8.63751 4.61722 8.99222 4.71637 9.32636L5.36153 11.4889L3.62863 15.6631L1.64669 16.738C1.34033 16.9041 1.08451 17.1498 0.906224 17.4493C0.727942 17.7487 0.633818 18.0908 0.633789 18.4393V21.558C0.633818 21.9065 0.727942 22.2485 0.906224 22.5479C1.08451 22.8474 1.34033 23.0931 1.64669 23.2593L3.62863 24.3341L5.3583 28.5083L4.71314 30.6709C4.61399 31.005 4.60691 31.3597 4.69265 31.6976C4.77838 32.0354 4.95375 32.3438 5.20024 32.5902L7.40476 34.7947C7.65118 35.0412 7.95959 35.2166 8.29742 35.3023C8.63526 35.3881 8.98997 35.381 9.32411 35.2818L11.4867 34.6399L15.6609 36.3696L16.7357 38.3515C16.9018 38.6579 17.1476 38.9137 17.447 39.092C17.7465 39.2703 18.0885 39.3644 18.437 39.3644H21.5557C21.9042 39.3644 22.2463 39.2703 22.5457 39.092C22.8451 38.9137 23.0909 38.6579 23.257 38.3515L24.3319 36.3696L28.506 34.6399L30.6686 35.2818C31.0028 35.381 31.3575 35.3881 31.6953 35.3023C32.0331 35.2166 32.3416 35.0412 32.588 34.7947L34.7925 32.5902C35.039 32.3438 35.2144 32.0354 35.3001 31.6976C35.3858 31.3597 35.3787 31.005 35.2796 30.6709L34.6377 28.5083L36.3673 24.3341L38.3493 23.2593C38.6556 23.0931 38.9115 22.8474 39.0897 22.5479C39.268 22.2485 39.3621 21.9065 39.3622 21.558V18.4393C39.3625 18.0911 39.2688 17.7493 39.0911 17.4499C38.9134 17.1505 38.6583 16.9045 38.3525 16.738ZM38.0751 21.558C38.0751 21.6741 38.0437 21.7881 37.9844 21.8879C37.925 21.9877 37.8397 22.0697 37.7377 22.1251L35.5544 23.3089C35.424 23.3801 35.3222 23.494 35.266 23.6315L33.3615 28.2283C33.3048 28.3651 33.2968 28.5173 33.3389 28.6593L34.0486 31.0399C34.0818 31.1514 34.0842 31.2698 34.0556 31.3826C34.027 31.4954 33.9684 31.5984 33.886 31.6806L31.677 33.8825C31.5949 33.9647 31.492 34.0232 31.3794 34.0519C31.2667 34.0805 31.1484 34.0781 31.037 34.0451L28.6557 33.3354C28.5137 33.2932 28.3616 33.3012 28.2248 33.358L23.628 35.2625C23.4905 35.3186 23.3765 35.4205 23.3054 35.5509L22.1286 37.7367C22.0733 37.8387 21.9914 37.9238 21.8918 37.9832C21.7921 38.0426 21.6782 38.074 21.5622 38.0741H18.4402C18.3241 38.0741 18.2101 38.0428 18.1103 37.9834C18.0105 37.924 17.9285 37.8388 17.8731 37.7367L16.6893 35.5535C16.6181 35.4231 16.5042 35.3212 16.3667 35.2651L11.7699 33.3605C11.6331 33.3038 11.4809 33.2958 11.339 33.338L8.9583 34.0476C8.84678 34.0808 8.72836 34.0833 8.61558 34.0546C8.5028 34.026 8.39986 33.9674 8.31766 33.8851L6.11572 31.676C6.03349 31.5939 5.97497 31.4911 5.94635 31.3784C5.91773 31.2658 5.92008 31.1475 5.95314 31.036L6.66282 28.6547C6.70499 28.5128 6.69702 28.3606 6.64024 28.2238L4.73314 23.6289C4.67701 23.4914 4.57515 23.3775 4.44476 23.3064L2.26153 22.1276C2.15955 22.0723 2.07438 21.9905 2.015 21.8908C1.95561 21.7911 1.92422 21.6772 1.92411 21.5612V18.4393C1.9241 18.3231 1.95544 18.2091 2.01483 18.1093C2.07422 18.0095 2.15945 17.9276 2.26153 17.8722L4.44476 16.6883C4.57515 16.6172 4.67701 16.5032 4.73314 16.3657L6.63766 11.7689C6.69443 11.6321 6.70241 11.48 6.66024 11.338L5.95056 8.95733C5.91857 8.84622 5.91702 8.72857 5.94607 8.61666C5.97513 8.50475 6.03372 8.4027 6.11572 8.3212L8.32218 6.11475C8.40431 6.03251 8.50715 5.97399 8.6198 5.94537C8.73245 5.91675 8.85075 5.9191 8.96218 5.95217L11.3435 6.66184C11.4855 6.70401 11.6376 6.69604 11.7744 6.63926L16.3712 4.73475C16.5087 4.67862 16.6227 4.57676 16.6938 4.44636L17.8783 2.26313C17.9337 2.16115 18.0155 2.07598 18.1152 2.0166C18.2149 1.95722 18.3287 1.92582 18.4448 1.92572H21.5635C21.6796 1.9257 21.7936 1.95705 21.8934 2.01644C21.9932 2.07582 22.0752 2.16105 22.1306 2.26313L23.3099 4.44378C23.381 4.57418 23.495 4.67604 23.6325 4.73217L28.2293 6.63668C28.3661 6.69346 28.5182 6.70143 28.6602 6.65926L31.0409 5.94959C31.1524 5.9164 31.2708 5.91399 31.3836 5.94261C31.4964 5.97123 31.5993 6.02982 31.6815 6.11217L33.8835 8.3212C33.9657 8.40334 34.0242 8.50617 34.0528 8.61882C34.0815 8.73148 34.0791 8.84977 34.046 8.9612L33.3364 11.3425C33.2942 11.4845 33.3022 11.6367 33.3589 11.7735L35.2635 16.3702C35.3196 16.5077 35.4215 16.6217 35.5518 16.6928L37.7351 17.8773C37.8371 17.9327 37.9222 18.0145 37.9816 18.1142C38.041 18.2139 38.0724 18.3277 38.0725 18.4438L38.0751 21.558Z" fill="#50AF9B"/>
<path d="M19.9996 6.44922C12.517 6.44922 6.45117 12.515 6.45117 19.9976C6.45117 27.4802 12.517 33.546 19.9996 33.546C27.4821 33.546 33.5479 27.4802 33.5479 19.9976C33.5396 12.5183 27.4789 6.45761 19.9996 6.44922ZM19.9996 32.2557C13.2299 32.2557 7.74149 26.7673 7.74149 19.9976C7.74149 13.2279 13.2299 7.73954 19.9996 7.73954C26.7692 7.73954 32.2576 13.2279 32.2576 19.9976C32.2499 26.7647 26.7667 32.2479 19.9996 32.2557Z" fill="#50AF9B"/>
<path fill-rule="evenodd" clip-rule="evenodd" d="M16.3974 19.6185C17.1686 19.5561 17.8929 19.2226 18.4419 18.6772C18.5594 18.5556 18.6244 18.3926 18.6229 18.2234C18.6215 18.0543 18.5536 17.8925 18.434 17.7728C18.3144 17.6532 18.1526 17.5854 17.9834 17.5839C17.8143 17.5824 17.6513 17.6475 17.5296 17.765C17.1305 18.1415 16.599 18.3452 16.0505 18.3319C15.502 18.3186 14.9809 18.0894 14.6006 17.694C14.4851 17.569 14.325 17.4947 14.1551 17.4872C13.9851 17.4797 13.819 17.5396 13.693 17.654C13.5671 17.7683 13.4913 17.9278 13.4823 18.0977C13.4734 18.2676 13.5319 18.4341 13.6451 18.5611C14.025 18.9775 14.5045 19.2906 15.0386 19.4708C14.9113 19.6611 14.7322 19.811 14.5225 19.903C14.4439 19.9359 14.3726 19.9839 14.3126 20.0444C14.2527 20.105 14.2053 20.1768 14.1733 20.2557C14.1413 20.3346 14.1252 20.4191 14.1259 20.5043C14.1267 20.5894 14.1443 20.6736 14.1778 20.752C14.2113 20.8303 14.26 20.9012 14.321 20.9606C14.382 21.0201 14.4542 21.0668 14.5334 21.0982C14.6126 21.1296 14.6972 21.145 14.7824 21.1435C14.8675 21.142 14.9516 21.1236 15.0296 21.0895C15.3473 20.9528 15.633 20.7514 15.8684 20.4981C16.1039 20.2448 16.2841 19.9453 16.3974 19.6185ZM25.3999 19.903C25.1901 19.8112 25.011 19.6612 24.8838 19.4708C25.4177 19.2906 25.897 18.9775 26.2767 18.5611C26.3365 18.4989 26.3832 18.4254 26.4141 18.3448C26.445 18.2642 26.4594 18.1783 26.4565 18.0921C26.4535 18.0059 26.4334 17.9211 26.3971 17.8428C26.3609 17.7645 26.3093 17.6943 26.2454 17.6363C26.1815 17.5783 26.1067 17.5337 26.0253 17.5051C25.9439 17.4766 25.8575 17.4646 25.7714 17.47C25.6853 17.4754 25.6012 17.498 25.524 17.5365C25.4467 17.5749 25.378 17.6285 25.3219 17.694C24.9414 18.0894 24.4202 18.3187 23.8716 18.332C23.323 18.3453 22.7914 18.1415 22.3922 17.765C22.2705 17.6475 22.1075 17.5824 21.9384 17.5839C21.7692 17.5854 21.6074 17.6532 21.4878 17.7728C21.3682 17.8925 21.3003 18.0543 21.2988 18.2234C21.2974 18.3926 21.3624 18.5556 21.4799 18.6772C22.0289 19.2225 22.7532 19.5559 23.5244 19.6185C23.638 19.9453 23.8183 20.2449 24.0541 20.4982C24.2898 20.7514 24.5756 20.9528 24.8935 21.0895C25.0508 21.1568 25.2284 21.1589 25.3873 21.0953C25.5462 21.0316 25.6732 20.9075 25.7406 20.7501C25.8079 20.5928 25.81 20.4152 25.7463 20.2563C25.6827 20.0974 25.5586 19.9704 25.4012 19.903H25.3999ZM18.0638 21.2888C17.9367 21.2888 17.8103 21.2953 17.6838 21.3095C17.1751 21.3506 16.689 21.5371 16.2835 21.8469C15.8779 22.1567 15.5701 22.5766 15.3967 23.0566C15.2229 23.5548 15.1941 24.092 15.3135 24.606C15.433 25.1199 15.6958 25.5894 16.0715 25.9598C16.3748 26.2605 16.547 26.6682 16.5509 27.0953C16.5509 27.2664 16.6189 27.4305 16.7399 27.5515C16.8609 27.6725 17.025 27.7405 17.1961 27.7405C17.3672 27.7405 17.5313 27.6725 17.6523 27.5515C17.7732 27.4305 17.8412 27.2664 17.8412 27.0953C17.8378 26.3304 17.5327 25.5978 16.9922 25.0566C16.7873 24.8583 16.6428 24.6061 16.5755 24.3291C16.5081 24.0521 16.5206 23.7616 16.6115 23.4914C16.7042 23.2401 16.8681 23.0212 17.0831 22.8615C17.2982 22.7017 17.5551 22.6081 17.8225 22.5921C17.9025 22.5837 17.9838 22.5792 18.0638 22.5792C18.2349 22.5792 18.399 22.5112 18.52 22.3902C18.641 22.2692 18.709 22.1051 18.709 21.934C18.709 21.7629 18.641 21.5988 18.52 21.4778C18.399 21.3568 18.2349 21.2888 18.0638 21.2888ZM22.0715 21.3101C21.9451 21.2964 21.8181 21.2895 21.6909 21.2895C21.5198 21.2895 21.3557 21.3575 21.2347 21.4785C21.1137 21.5994 21.0457 21.7635 21.0457 21.9347C21.0457 22.1058 21.1137 22.2699 21.2347 22.3908C21.3557 22.5118 21.5198 22.5798 21.6909 22.5798C21.7715 22.5798 21.8522 22.5843 21.9328 22.5927C22.2001 22.6089 22.4569 22.7026 22.6718 22.8623C22.8868 23.022 23.0505 23.2408 23.1432 23.4921C23.2342 23.7623 23.2467 24.0527 23.1794 24.3297C23.112 24.6068 22.9675 24.859 22.7625 25.0572C22.2221 25.5983 21.917 26.3306 21.9135 27.0953C21.9135 27.2664 21.9815 27.4305 22.1024 27.5515C22.2234 27.6725 22.3875 27.7405 22.5586 27.7405C22.7297 27.7405 22.8938 27.6725 23.0148 27.5515C23.1358 27.4305 23.2038 27.2664 23.2038 27.0953C23.2079 26.6685 23.3802 26.2605 23.6832 25.9598C24.059 25.5894 24.3219 25.12 24.4414 24.606C24.5609 24.0921 24.5319 23.5548 24.358 23.0566C24.1846 22.5768 23.8768 22.157 23.4714 21.8474C23.066 21.5377 22.58 21.3512 22.0715 21.3101Z" fill="#50AF9B"/>
<path d="M26.7339 13.6076C26.8728 13.0336 26.7999 12.4288 26.5286 11.9044C26.2573 11.3799 25.8058 10.9709 25.2571 10.7527C23.1132 9.19336 21.5436 8.69917 20.4597 9.24691C20.2889 9.33558 20.1336 9.45127 19.9997 9.58949C19.8658 9.45127 19.7105 9.33558 19.5397 9.24691C18.4571 8.69852 16.8842 9.19401 14.7378 10.7559C14.1901 10.9744 13.7397 11.383 13.4693 11.9069C13.1988 12.4308 13.1264 13.0346 13.2655 13.6076C12.5732 13.8325 11.9834 14.296 11.6011 14.9154C11.2189 15.5348 11.0691 16.2699 11.1784 16.9895C10.6825 17.5369 10.3843 18.2346 10.3313 18.9713C10.2784 19.7081 10.4737 20.4413 10.8861 21.054C10.5202 21.5243 10.3218 22.1033 10.3223 22.6992C10.3244 23.2383 10.4873 23.7645 10.7901 24.2106C11.093 24.6566 11.522 25.0022 12.0223 25.203C11.944 25.59 11.9456 25.9889 12.0268 26.3753C12.1079 26.7616 12.2671 27.1274 12.4944 27.4501C12.7218 27.7729 13.0126 28.0459 13.3491 28.2525C13.6855 28.459 14.0606 28.5948 14.4513 28.6514C14.7244 29.1324 15.1139 29.5371 15.5841 29.8284C16.0543 30.1197 16.5901 30.2883 17.1423 30.3186C17.6946 30.3489 18.2457 30.24 18.7449 30.0019C19.2442 29.7638 19.6756 29.4042 19.9997 28.9559C20.3238 29.4042 20.7552 29.7638 21.2545 30.0019C21.7537 30.24 22.3047 30.3489 22.857 30.3186C23.4093 30.2883 23.9451 30.1197 24.4153 29.8284C24.8855 29.5371 25.275 29.1324 25.5481 28.6514C25.9388 28.5948 26.314 28.4592 26.6505 28.2526C26.9871 28.0461 27.2779 27.7731 27.5054 27.4503C27.7328 27.1276 27.892 26.7618 27.9732 26.3754C28.0544 25.989 28.056 25.5901 27.9778 25.203C28.4779 25.0021 28.9068 24.6565 29.2095 24.2104C29.5122 23.7644 29.675 23.2382 29.6771 22.6992C29.6771 22.1037 29.479 21.525 29.1139 21.0553C29.526 20.4424 29.7211 19.7092 29.668 18.9726C29.6149 18.2359 29.3167 17.5382 28.821 16.9908C28.9303 16.2712 28.7805 15.5361 28.3982 14.9167C28.016 14.2973 27.4261 13.8338 26.7339 13.6088V13.6076ZM17.3313 29.0321C16.9311 29.0333 16.5396 28.9156 16.2065 28.6939C15.8734 28.4722 15.6137 28.1565 15.4603 27.7869C15.4113 27.6694 15.3286 27.569 15.2226 27.4984C15.1167 27.4278 14.9922 27.3901 14.8648 27.3901C14.4371 27.3901 14.0268 27.2202 13.7244 26.9177C13.4219 26.6152 13.2519 26.205 13.2519 25.7772C13.251 25.5226 13.3123 25.2717 13.4307 25.0463C13.4812 24.9515 13.5073 24.8457 13.5066 24.7384C13.5059 24.631 13.4784 24.5255 13.4267 24.4315C13.3749 24.3374 13.3005 24.2578 13.2101 24.1997C13.1198 24.1417 13.0164 24.1071 12.9094 24.0992C12.557 24.071 12.2281 23.9114 11.9879 23.6521C11.7477 23.3928 11.6137 23.0526 11.6126 22.6992C11.6145 22.445 11.6861 22.1959 11.8197 21.9798C12.359 22.3347 12.99 22.5237 13.6358 22.523C13.8069 22.523 13.971 22.4551 14.092 22.3341C14.213 22.2131 14.281 22.049 14.281 21.8779C14.281 21.7068 14.213 21.5427 14.092 21.4217C13.971 21.3007 13.8069 21.2327 13.6358 21.2327C13.2236 21.2333 12.8211 21.108 12.482 20.8735C12.143 20.639 11.8837 20.3066 11.7388 19.9206C11.594 19.5347 11.5704 19.1138 11.6713 18.7141C11.7722 18.3145 11.9928 17.9552 12.3036 17.6843C12.4784 17.5147 12.5532 17.2663 12.501 17.0282C12.4577 16.8684 12.436 16.7035 12.4365 16.5379C12.4364 16.1178 12.5819 15.7106 12.8481 15.3856C13.1144 15.0606 13.485 14.8378 13.8969 14.7552C14.3088 14.6726 14.7366 14.7351 15.1076 14.9323C15.4786 15.1294 15.7699 15.449 15.9319 15.8366C15.964 15.9157 16.0115 15.9877 16.0716 16.0483C16.1317 16.109 16.2033 16.1571 16.2821 16.1898C16.3609 16.2226 16.4455 16.2394 16.5309 16.2393C16.6163 16.2391 16.7008 16.222 16.7795 16.189C16.8582 16.156 16.9296 16.1076 16.9895 16.0468C17.0494 15.9859 17.0967 15.9138 17.1285 15.8346C17.1603 15.7554 17.1761 15.6706 17.1749 15.5852C17.1737 15.4998 17.1556 15.4156 17.1216 15.3372C16.9054 14.8217 16.5537 14.3743 16.1038 14.0425C15.6539 13.7107 15.1225 13.5069 14.5661 13.4527C14.5174 13.3233 14.4914 13.1865 14.4894 13.0482C14.4896 12.7738 14.5837 12.5078 14.7559 12.2942C14.9282 12.0806 15.1682 11.9323 15.4363 11.8738C15.7044 11.8154 15.9844 11.8503 16.2299 11.9729C16.4754 12.0954 16.6717 12.2982 16.7861 12.5476C16.8601 12.6987 16.9901 12.8149 17.1485 12.8716C17.3069 12.9282 17.4812 12.9207 17.6342 12.8507C17.7871 12.7807 17.9067 12.6537 17.9674 12.4968C18.0281 12.3399 18.0251 12.1655 17.959 12.0108C17.7393 11.5347 17.3743 11.1406 16.9165 10.885C18.2319 10.1714 18.7874 10.3114 18.9545 10.3927C19.3358 10.5817 19.3571 11.1998 19.3571 11.2005V13.5353C19.1685 13.4694 18.9704 13.4345 18.7707 13.4321C18.5995 13.4321 18.4354 13.5 18.3145 13.621C18.1935 13.742 18.1255 13.9061 18.1255 14.0772C18.1255 14.2483 18.1935 14.4124 18.3145 14.5334C18.4354 14.6544 18.5995 14.7224 18.7707 14.7224C18.9261 14.7226 19.0752 14.7844 19.1851 14.8944C19.2951 15.0043 19.3569 15.1534 19.3571 15.3088V27.0095C19.3564 27.5463 19.1427 28.0608 18.7628 28.4401C18.383 28.8193 17.8681 29.0322 17.3313 29.0321ZM27.0874 24.0992C26.9804 24.1071 26.877 24.1417 26.7867 24.1997C26.6963 24.2578 26.6219 24.3374 26.5701 24.4315C26.5184 24.5255 26.4909 24.631 26.4902 24.7384C26.4895 24.8457 26.5156 24.9515 26.5661 25.0463C26.6842 25.2721 26.7461 25.5224 26.7448 25.7772C26.7448 25.989 26.7031 26.1988 26.6221 26.3945C26.541 26.5902 26.4222 26.768 26.2724 26.9177C26.1227 27.0675 25.9449 27.1863 25.7492 27.2674C25.5535 27.3484 25.3438 27.3901 25.1319 27.3901C25.0046 27.3901 24.8801 27.4278 24.7742 27.4984C24.6682 27.569 24.5855 27.6694 24.5365 27.7869C24.3564 28.2184 24.0324 28.5743 23.6196 28.794C23.2069 29.0137 22.7308 29.0837 22.2722 28.9921C21.8137 28.9005 21.401 28.6529 21.1044 28.2915C20.8077 27.9301 20.6453 27.4771 20.6448 27.0095V17.3617C20.6448 17.0379 20.9074 16.7753 21.2313 16.7747C21.4024 16.7747 21.5665 16.7067 21.6875 16.5857C21.8085 16.4647 21.8765 16.3006 21.8765 16.1295C21.8765 15.9584 21.8085 15.7943 21.6875 15.6733C21.5665 15.5523 21.4024 15.4843 21.2313 15.4843C21.0313 15.4869 20.8332 15.5217 20.6448 15.5876V11.2088C20.6448 11.2024 20.6661 10.5843 21.0474 10.3953C21.2113 10.314 21.77 10.174 23.0855 10.8876C22.6277 11.1432 22.2627 11.5373 22.0429 12.0134C22.0051 12.0907 21.9831 12.1749 21.9783 12.2609C21.9735 12.3469 21.986 12.4329 22.0149 12.514C22.0439 12.5951 22.0889 12.6696 22.1471 12.7331C22.2053 12.7965 22.2757 12.8477 22.354 12.8835C22.4323 12.9193 22.517 12.9391 22.6031 12.9417C22.6891 12.9443 22.7749 12.9296 22.8552 12.8986C22.9355 12.8675 23.0088 12.8207 23.0707 12.7608C23.1327 12.701 23.182 12.6293 23.2158 12.5501C23.3449 12.2788 23.5695 12.0647 23.8466 11.9488C24.1238 11.8328 24.434 11.8232 24.7178 11.9217C24.8671 11.9732 25.0045 12.0542 25.1219 12.1598C25.2393 12.2654 25.3344 12.3935 25.4013 12.5366C25.4683 12.6796 25.5059 12.8346 25.5118 12.9924C25.5177 13.1502 25.4919 13.3077 25.4358 13.4553C24.8794 13.5095 24.3481 13.7133 23.8982 14.0451C23.4482 14.3769 23.0965 14.8243 22.8803 15.3398C22.8165 15.4971 22.8173 15.6732 22.8825 15.83C22.9477 15.9867 23.072 16.1115 23.2285 16.1772C23.385 16.2429 23.5611 16.2442 23.7187 16.181C23.8762 16.1177 24.0024 15.9949 24.07 15.8392C24.232 15.4515 24.5233 15.132 24.8943 14.9349C25.2653 14.7377 25.6931 14.6751 26.1051 14.7578C26.517 14.8404 26.8876 15.0632 27.1538 15.3882C27.42 15.7132 27.5655 16.1203 27.5655 16.5405C27.5655 16.7063 27.5442 16.8708 27.501 17.0308C27.4532 17.2688 27.5268 17.5147 27.6984 17.6869C28.0098 17.9574 28.2311 18.3168 28.3324 18.7167C28.4338 19.1165 28.4104 19.5379 28.2654 19.9241C28.1204 20.3103 27.8607 20.6429 27.5212 20.8773C27.1817 21.1117 26.7787 21.2366 26.3661 21.2353C26.195 21.2353 26.0309 21.3033 25.9099 21.4243C25.7889 21.5453 25.721 21.7094 25.721 21.8805C25.721 22.0516 25.7889 22.2157 25.9099 22.3367C26.0309 22.4576 26.195 22.5256 26.3661 22.5256C27.0118 22.5264 27.6434 22.3373 28.1823 21.9817C28.3145 22.1979 28.3848 22.4463 28.3868 22.6992C28.3857 23.0532 28.2515 23.3938 28.0107 23.6533C27.77 23.9129 27.4404 24.0716 27.0874 24.0992Z" fill="#50AF9B"/>
</g>
<defs>
<clipPath id="clip0_2312_181">
<rect width="40" height="40" fill="white"/>
</clipPath>
</defs>
</svg>
