<svg width="40" height="40" viewBox="0 0 40 40" fill="none" xmlns="http://www.w3.org/2000/svg">
<g clip-path="url(#clip0_2312_188)">
<path fill-rule="evenodd" clip-rule="evenodd" d="M28.0007 35.3353H12.0007C11.8238 35.3353 11.6543 35.4055 11.5292 35.5305C11.4042 35.6556 11.334 35.8251 11.334 36.002C11.334 36.1788 11.4042 36.3483 11.5292 36.4734C11.6543 36.5984 11.8238 36.6686 12.0007 36.6686H28.0007C28.1775 36.6686 28.347 36.5984 28.4721 36.4734C28.5971 36.3483 28.6673 36.1788 28.6673 36.002C28.6673 35.8251 28.5971 35.6556 28.4721 35.5305C28.347 35.4055 28.1775 35.3353 28.0007 35.3353ZM14.6007 21.1833C14.6907 21.1832 14.7799 21.1648 14.8627 21.1293C15.1911 20.9882 15.4866 20.7801 15.7302 20.5184C15.9738 20.2567 16.1601 19.9471 16.2773 19.6093C17.0743 19.5447 17.8227 19.2002 18.39 18.6366C18.5114 18.5109 18.5786 18.3425 18.5771 18.1677C18.5756 17.9929 18.5055 17.8257 18.3819 17.7021C18.2583 17.5785 18.0911 17.5084 17.9163 17.5068C17.7415 17.5053 17.5731 17.5725 17.4473 17.694C17.0349 18.0828 16.4856 18.2933 15.9189 18.2795C15.3522 18.2658 14.8138 18.029 14.4207 17.6206C14.3014 17.4915 14.1359 17.4147 13.9603 17.4069C13.7846 17.3991 13.6131 17.4611 13.4829 17.5792C13.3527 17.6974 13.2744 17.8622 13.2651 18.0377C13.2559 18.2133 13.3163 18.3854 13.4333 18.5166C13.8259 18.9469 14.3214 19.2704 14.8733 19.4566C14.7417 19.6532 14.5567 19.8082 14.34 19.9033C14.1986 19.9635 14.0823 20.0708 14.0109 20.2069C13.9395 20.3431 13.9173 20.4997 13.9481 20.6503C13.979 20.8009 14.0609 20.9362 14.18 21.0334C14.2992 21.1305 14.4483 21.1835 14.602 21.1833H14.6007ZM18.0007 21.3353C17.8693 21.3353 17.7387 21.342 17.608 21.3566C17.0824 21.3991 16.58 21.5918 16.161 21.912C15.7419 22.2321 15.4238 22.666 15.2447 23.162C15.0651 23.6767 15.0353 24.2319 15.1587 24.763C15.2822 25.294 15.5538 25.7791 15.942 26.162C16.2553 26.4726 16.4333 26.894 16.4373 27.3353C16.4373 27.5121 16.5076 27.6817 16.6326 27.8067C16.7576 27.9317 16.9272 28.002 17.104 28.002C17.2808 28.002 17.4504 27.9317 17.5754 27.8067C17.7004 27.6817 17.7707 27.5121 17.7707 27.3353C17.7671 26.5449 17.4519 25.7879 16.8933 25.2286C16.6816 25.0238 16.5323 24.7631 16.4627 24.4769C16.3931 24.1906 16.406 23.8905 16.5 23.6113C16.5957 23.3516 16.7651 23.1254 16.9873 22.9603C17.2095 22.7953 17.475 22.6985 17.7513 22.682C17.834 22.6733 17.918 22.6686 18.0007 22.6686C18.1775 22.6686 18.347 22.5984 18.4721 22.4734C18.5971 22.3483 18.6673 22.1788 18.6673 22.002C18.6673 21.8251 18.5971 21.6556 18.4721 21.5305C18.347 21.4055 18.1775 21.3353 18.0007 21.3353ZM22.142 21.3573C22.0114 21.3431 21.8801 21.336 21.7487 21.336C21.5718 21.336 21.4023 21.4062 21.2772 21.5312C21.1522 21.6562 21.082 21.8258 21.082 22.0026C21.082 22.1794 21.1522 22.349 21.2772 22.474C21.4023 22.599 21.5718 22.6693 21.7487 22.6693C21.832 22.6693 21.9153 22.674 21.9987 22.6826C22.2748 22.6993 22.5402 22.7961 22.7623 22.9612C22.9844 23.1262 23.1536 23.3523 23.2493 23.612C23.3434 23.8911 23.3563 24.1913 23.2867 24.4775C23.2171 24.7638 23.0678 25.0245 22.856 25.2293C22.2976 25.7884 21.9823 26.5451 21.9787 27.3353C21.9787 27.5121 22.0489 27.6817 22.1739 27.8067C22.2989 27.9317 22.4685 28.002 22.6453 28.002C22.8221 28.002 22.9917 27.9317 23.1167 27.8067C23.2417 27.6817 23.312 27.5121 23.312 27.3353C23.3163 26.8942 23.4942 26.4726 23.8073 26.162C24.1957 25.7792 24.4674 25.2941 24.5908 24.763C24.7143 24.2319 24.6844 23.6767 24.5047 23.162C24.3255 22.6662 24.0075 22.2324 23.5885 21.9124C23.1696 21.5924 22.6674 21.3997 22.142 21.3573ZM25.6613 19.9033C25.4446 19.8082 25.2596 19.6532 25.128 19.4566C25.6799 19.2704 26.1754 18.9469 26.568 18.5166C26.685 18.3854 26.7454 18.2133 26.7362 18.0377C26.7269 17.8622 26.6486 17.6974 26.5184 17.5792C26.3882 17.4611 26.2167 17.3991 26.041 17.4069C25.8654 17.4147 25.6999 17.4915 25.5807 17.6206C25.1875 18.029 24.6491 18.2658 24.0824 18.2795C23.5157 18.2933 22.9664 18.0828 22.554 17.694C22.4283 17.5725 22.2598 17.5053 22.0851 17.5068C21.9103 17.5084 21.743 17.5785 21.6194 17.7021C21.4958 17.8257 21.4257 17.9929 21.4242 18.1677C21.4227 18.3425 21.4899 18.5109 21.6113 18.6366C22.1786 19.2002 22.927 19.5447 23.724 19.6093C23.8412 19.9471 24.0275 20.2567 24.2711 20.5184C24.5147 20.7801 24.8102 20.9882 25.1387 21.1293C25.2193 21.1646 25.3061 21.1835 25.3941 21.1851C25.4821 21.1866 25.5696 21.1707 25.6514 21.1383C25.7332 21.1058 25.8078 21.0575 25.8709 20.9961C25.934 20.9347 25.9842 20.8614 26.0188 20.7805C26.0534 20.6996 26.0716 20.6126 26.0724 20.5246C26.0732 20.4365 26.0566 20.3492 26.0235 20.2677C25.9904 20.1861 25.9415 20.1119 25.8795 20.0494C25.8176 19.9869 25.7439 19.9372 25.6627 19.9033H25.6613Z" fill="#50AF9B"/>
<path d="M38.0005 18.6667C38.3675 18.6682 38.7278 18.5687 39.0421 18.3791C39.3563 18.1894 39.6123 17.917 39.782 17.5916C39.9518 17.2662 40.0287 16.9003 40.0044 16.5341C39.98 16.1679 39.8554 15.8155 39.6441 15.5154C39.4329 15.2153 39.1431 14.9791 38.8065 14.8327C38.47 14.6863 38.0996 14.6353 37.736 14.6854C37.3725 14.7354 37.0297 14.8845 36.7452 15.1164C36.4607 15.3483 36.2455 15.654 36.1231 16H29.1091C29.0491 15.5245 28.8825 15.0688 28.6218 14.6667H35.3338C35.6874 14.6667 36.0266 14.5262 36.2766 14.2761C36.5267 14.0261 36.6671 13.687 36.6671 13.3333V12.544C37.1119 12.3867 37.4868 12.0773 37.7256 11.6703C37.9643 11.2634 38.0514 10.7852 37.9717 10.3202C37.8919 9.85518 37.6503 9.43336 37.2896 9.12926C36.9289 8.82517 36.4723 8.65838 36.0005 8.65838C35.5287 8.65838 35.0721 8.82517 34.7114 9.12926C34.3507 9.43336 34.1091 9.85518 34.0293 10.3202C33.9495 10.7852 34.0367 11.2634 34.2754 11.6703C34.5141 12.0773 34.889 12.3867 35.3338 12.544V13.3333H32.6671V4C32.6661 2.93946 32.2443 1.92266 31.4944 1.17274C30.7445 0.422826 29.7277 0.00105895 28.6671 0L11.3338 0C10.2733 0.00105895 9.25646 0.422826 8.50655 1.17274C7.75663 1.92266 7.33486 2.93946 7.33381 4V13.3333H4.66714V12.544C5.11195 12.3867 5.48684 12.0773 5.72556 11.6703C5.96428 11.2634 6.05145 10.7852 5.97167 10.3202C5.89189 9.85518 5.65029 9.43336 5.28958 9.12926C4.92887 8.82517 4.47226 8.65838 4.00047 8.65838C3.52868 8.65838 3.07208 8.82517 2.71137 9.12926C2.35065 9.43336 2.10906 9.85518 2.02927 10.3202C1.94949 10.7852 2.03667 11.2634 2.27538 11.6703C2.5141 12.0773 2.889 12.3867 3.33381 12.544V13.3333C3.33381 13.687 3.47428 14.0261 3.72433 14.2761C3.97438 14.5262 4.31352 14.6667 4.66714 14.6667H11.3791C11.1184 15.0688 10.9518 15.5245 10.8918 16H3.87781C3.72054 15.5552 3.41109 15.1803 3.00415 14.9416C2.59721 14.7029 2.11898 14.6157 1.65398 14.6955C1.18899 14.7753 0.767164 15.0168 0.463069 15.3776C0.158974 15.7383 -0.0078125 16.1949 -0.0078125 16.6667C-0.0078125 17.1385 0.158974 17.5951 0.463069 17.9558C0.767164 18.3165 1.18899 18.5581 1.65398 18.6379C2.11898 18.7176 2.59721 18.6305 3.00415 18.3918C3.41109 18.153 3.72054 17.7781 3.87781 17.3333H10.5491C10.1849 17.8936 9.9939 18.5489 9.99994 19.2171C10.006 19.8854 10.2088 20.537 10.5831 21.0907C10.3765 21.3627 10.2211 21.6707 10.1278 22H3.87781C3.72054 21.5552 3.41109 21.1803 3.00415 20.9416C2.59721 20.7029 2.11898 20.6157 1.65398 20.6955C1.18899 20.7753 0.767164 21.0168 0.463069 21.3776C0.158974 21.7383 -0.0078125 22.1949 -0.0078125 22.6667C-0.0078125 23.1385 0.158974 23.5951 0.463069 23.9558C0.767164 24.3165 1.18899 24.5581 1.65398 24.6379C2.11898 24.7176 2.59721 24.6305 3.00415 24.3918C3.41109 24.153 3.72054 23.7781 3.87781 23.3333H10.0611C10.1602 23.8306 10.3927 24.2915 10.7338 24.6667H4.66714C4.31352 24.6667 3.97438 24.8071 3.72433 25.0572C3.47428 25.3072 3.33381 25.6464 3.33381 26V26.7893C2.889 26.9466 2.5141 27.256 2.27538 27.663C2.03667 28.0699 1.94949 28.5482 2.02927 29.0132C2.10906 29.4782 2.35065 29.9 2.71137 30.2041C3.07208 30.5082 3.52868 30.675 4.00047 30.675C4.47226 30.675 4.92887 30.5082 5.28958 30.2041C5.65029 29.9 5.89189 29.4782 5.97167 29.0132C6.05145 28.5482 5.96428 28.0699 5.72556 27.663C5.48684 27.256 5.11195 26.9466 4.66714 26.7893V26H7.33381V36C7.33486 37.0605 7.75663 38.0773 8.50655 38.8273C9.25646 39.5772 10.2733 39.9989 11.3338 40H28.6671C29.7277 39.9989 30.7445 39.5772 31.4944 38.8273C32.2443 38.0773 32.6661 37.0605 32.6671 36V26H35.3338V26.7893C34.889 26.9466 34.5141 27.256 34.2754 27.663C34.0367 28.0699 33.9495 28.5482 34.0293 29.0132C34.1091 29.4782 34.3507 29.9 34.7114 30.2041C35.0721 30.5082 35.5287 30.675 36.0005 30.675C36.4723 30.675 36.9289 30.5082 37.2896 30.2041C37.6503 29.9 37.8919 29.4782 37.9717 29.0132C38.0514 28.5482 37.9643 28.0699 37.7256 27.663C37.4868 27.256 37.1119 26.9466 36.6671 26.7893V26C36.6671 25.6464 36.5267 25.3072 36.2766 25.0572C36.0266 24.8071 35.6874 24.6667 35.3338 24.6667H29.2671C29.6087 24.2917 29.8417 23.8307 29.9411 23.3333H36.1245C36.2817 23.7781 36.5912 24.153 36.9981 24.3918C37.4051 24.6305 37.8833 24.7176 38.3483 24.6379C38.8133 24.5581 39.2351 24.3165 39.5392 23.9558C39.8433 23.5951 40.0101 23.1385 40.0101 22.6667C40.0101 22.1949 39.8433 21.7383 39.5392 21.3776C39.2351 21.0168 38.8133 20.7753 38.3483 20.6955C37.8833 20.6157 37.4051 20.7029 36.9981 20.9416C36.5912 21.1803 36.2817 21.5552 36.1245 22H29.8731C29.7798 21.6711 29.6256 21.3627 29.4185 21.0907C29.7921 20.5367 29.9945 19.8851 30.0004 19.217C30.0063 18.5489 29.8155 17.8938 29.4518 17.3333H36.1231C36.2605 17.7219 36.5146 18.0586 36.8507 18.2973C37.1867 18.5359 37.5883 18.665 38.0005 18.6667ZM36.0005 10C36.1773 10 36.3469 10.0702 36.4719 10.1953C36.5969 10.3203 36.6671 10.4899 36.6671 10.6667C36.6671 10.8435 36.5969 11.013 36.4719 11.1381C36.3469 11.2631 36.1773 11.3333 36.0005 11.3333C35.8237 11.3333 35.6541 11.2631 35.5291 11.1381C35.404 11.013 35.3338 10.8435 35.3338 10.6667C35.3338 10.4899 35.404 10.3203 35.5291 10.1953C35.6541 10.0702 35.8237 10 36.0005 10ZM4.00047 10C4.17728 10 4.34685 10.0702 4.47188 10.1953C4.5969 10.3203 4.66714 10.4899 4.66714 10.6667C4.66714 10.8435 4.5969 11.013 4.47188 11.1381C4.34685 11.2631 4.17728 11.3333 4.00047 11.3333C3.82366 11.3333 3.65409 11.2631 3.52907 11.1381C3.40404 11.013 3.33381 10.8435 3.33381 10.6667C3.33381 10.4899 3.40404 10.3203 3.52907 10.1953C3.65409 10.0702 3.82366 10 4.00047 10ZM4.00047 29.3333C3.82366 29.3333 3.65409 29.2631 3.52907 29.1381C3.40404 29.013 3.33381 28.8435 3.33381 28.6667C3.33381 28.4899 3.40404 28.3203 3.52907 28.1953C3.65409 28.0702 3.82366 28 4.00047 28C4.17728 28 4.34685 28.0702 4.47188 28.1953C4.5969 28.3203 4.66714 28.4899 4.66714 28.6667C4.66714 28.8435 4.5969 29.013 4.47188 29.1381C4.34685 29.2631 4.17728 29.3333 4.00047 29.3333ZM36.0005 29.3333C35.8237 29.3333 35.6541 29.2631 35.5291 29.1381C35.404 29.013 35.3338 28.8435 35.3338 28.6667C35.3338 28.4899 35.404 28.3203 35.5291 28.1953C35.6541 28.0702 35.8237 28 36.0005 28C36.1773 28 36.3469 28.0702 36.4719 28.1953C36.5969 28.3203 36.6671 28.4899 36.6671 28.6667C36.6671 28.8435 36.5969 29.013 36.4719 29.1381C36.3469 29.2631 36.1773 29.3333 36.0005 29.3333ZM38.0005 16C38.1773 16 38.3469 16.0702 38.4719 16.1953C38.5969 16.3203 38.6671 16.4899 38.6671 16.6667C38.6671 16.8435 38.5969 17.013 38.4719 17.1381C38.3469 17.2631 38.1773 17.3333 38.0005 17.3333C37.8237 17.3333 37.6541 17.2631 37.5291 17.1381C37.404 17.013 37.3338 16.8435 37.3338 16.6667C37.3338 16.4899 37.404 16.3203 37.5291 16.1953C37.6541 16.0702 37.8237 16 38.0005 16ZM28.6671 22.7893C28.6661 23.1551 28.5273 23.5071 28.2786 23.7753C28.0298 24.0435 27.6892 24.2082 27.3245 24.2367C27.2138 24.2449 27.107 24.2806 27.0137 24.3406C26.9203 24.4005 26.8434 24.4828 26.7899 24.58C26.7364 24.6772 26.708 24.7862 26.7073 24.8972C26.7066 25.0081 26.7336 25.1175 26.7858 25.2153C26.9078 25.4487 26.9718 25.7073 26.9705 25.9707C26.9705 26.4127 26.7949 26.8366 26.4823 27.1492C26.1698 27.4617 25.7458 27.6373 25.3038 27.6373C25.1722 27.6373 25.0436 27.6762 24.9341 27.7492C24.8246 27.8222 24.7391 27.9259 24.6885 28.0473C24.5024 28.4933 24.1675 28.861 23.741 29.0881C23.3144 29.3151 22.8223 29.3874 22.3485 29.2926C21.8746 29.1979 21.4482 28.942 21.1417 28.5684C20.8351 28.1948 20.6675 27.7266 20.6671 27.2433V17.274C20.6671 16.9393 20.9385 16.668 21.2731 16.6673C21.4499 16.6673 21.6195 16.5971 21.7445 16.4721C21.8696 16.347 21.9398 16.1775 21.9398 16.0007C21.9398 15.8239 21.8696 15.6543 21.7445 15.5293C21.6195 15.4042 21.4499 15.334 21.2731 15.334C21.0665 15.3367 20.8618 15.3727 20.6671 15.4407V10.916C20.6671 10.9093 20.6891 10.2707 21.0831 10.0753C21.2525 9.99133 21.8298 9.84667 23.1885 10.584C22.7159 10.8485 22.339 11.2557 22.1118 11.7473C22.0727 11.8273 22.05 11.9142 22.045 12.0031C22.0401 12.0919 22.0529 12.1809 22.0829 12.2647C22.1129 12.3485 22.1593 12.4254 22.2195 12.491C22.2796 12.5566 22.3523 12.6094 22.4332 12.6465C22.5142 12.6835 22.6017 12.704 22.6906 12.7066C22.7796 12.7093 22.8682 12.6942 22.9512 12.662C23.0342 12.6299 23.1099 12.5815 23.1739 12.5197C23.2379 12.4579 23.2889 12.3838 23.3238 12.302C23.4564 12.0108 23.6964 11.7822 23.9937 11.664C24.291 11.5457 24.6224 11.547 24.9188 11.6676C25.2151 11.7881 25.4534 12.0186 25.5837 12.3108C25.7139 12.6031 25.7262 12.9343 25.6178 13.2353C25.0429 13.2914 24.4938 13.502 24.0289 13.8448C23.564 14.1877 23.2005 14.65 22.9771 15.1827C22.9112 15.3452 22.912 15.5272 22.9794 15.6892C23.0467 15.8511 23.1752 15.98 23.3369 16.0479C23.4987 16.1158 23.6806 16.1172 23.8434 16.0518C24.0062 15.9865 24.1366 15.8596 24.2065 15.6987C24.3739 15.2981 24.6749 14.9679 25.0582 14.7642C25.4416 14.5605 25.8837 14.4958 26.3094 14.5812C26.735 14.6666 27.1179 14.8968 27.3931 15.2326C27.6682 15.5685 27.8185 15.9892 27.8185 16.4233C27.8185 16.5947 27.7965 16.7647 27.7518 16.93C27.7025 17.176 27.7785 17.43 27.9558 17.608C28.2776 17.8876 28.5062 18.2589 28.611 18.6721C28.7157 19.0853 28.6915 19.5207 28.5417 19.9197C28.3918 20.3188 28.1235 20.6625 27.7727 20.9047C27.4219 21.1469 27.0054 21.276 26.5791 21.2747C26.4023 21.2747 26.2328 21.3449 26.1077 21.4699C25.9827 21.595 25.9125 21.7645 25.9125 21.9413C25.9125 22.1181 25.9827 22.2877 26.1077 22.4127C26.2328 22.5378 26.4023 22.608 26.5791 22.608C27.2463 22.6088 27.8989 22.4134 28.4558 22.046C28.5925 22.27 28.6658 22.5267 28.6671 22.7893ZM13.2151 25.2153C13.2674 25.1175 13.2943 25.0081 13.2936 24.8972C13.2929 24.7862 13.2645 24.6772 13.211 24.58C13.1575 24.4828 13.0806 24.4005 12.9873 24.3406C12.8939 24.2806 12.7871 24.2449 12.6765 24.2367C12.3118 24.2082 11.9712 24.0435 11.7224 23.7753C11.4736 23.5071 11.3349 23.1551 11.3338 22.7893C11.3358 22.5267 11.4098 22.2693 11.5478 22.046C12.1051 22.4127 12.7571 22.608 13.4245 22.6073C13.6013 22.6073 13.7709 22.5371 13.8959 22.4121C14.0209 22.287 14.0911 22.1175 14.0911 21.9407C14.0911 21.7639 14.0209 21.5943 13.8959 21.4693C13.7709 21.3442 13.6013 21.274 13.4245 21.274C12.9985 21.2746 12.5826 21.1451 12.2322 20.9028C11.8819 20.6605 11.614 20.317 11.4643 19.9182C11.3145 19.5194 11.2902 19.0844 11.3945 18.6715C11.4988 18.2585 11.7267 17.8872 12.0478 17.6073C12.2285 17.432 12.3058 17.1753 12.2518 16.9293C12.2071 16.7642 12.1847 16.5938 12.1851 16.4227C12.1851 15.9885 12.3354 15.5678 12.6105 15.232C12.8857 14.8961 13.2686 14.666 13.6943 14.5806C14.1199 14.4952 14.562 14.5598 14.9454 14.7635C15.3287 14.9673 15.6297 15.2975 15.7971 15.698C15.8303 15.7798 15.8794 15.8541 15.9415 15.9168C16.0036 15.9794 16.0775 16.0292 16.159 16.063C16.2404 16.0969 16.3278 16.1143 16.416 16.1141C16.5043 16.114 16.5916 16.0963 16.673 16.0622C16.7543 16.028 16.8281 15.9781 16.89 15.9152C16.9519 15.8523 17.0007 15.7778 17.0336 15.6959C17.0664 15.6141 17.0828 15.5265 17.0815 15.4383C17.0803 15.35 17.0616 15.2629 17.0265 15.182C16.8031 14.6493 16.4396 14.187 15.9747 13.8441C15.5098 13.5013 14.9607 13.2907 14.3858 13.2347C14.3354 13.101 14.3086 12.9595 14.3065 12.8167C14.3068 12.5331 14.404 12.2582 14.5819 12.0375C14.7599 11.8168 15.008 11.6635 15.285 11.6032C15.562 11.5428 15.8514 11.5789 16.1051 11.7055C16.3587 11.8321 16.5615 12.0416 16.6798 12.2993C16.7562 12.4555 16.8906 12.5756 17.0542 12.6342C17.2179 12.6927 17.398 12.6849 17.5561 12.6126C17.7142 12.5403 17.8377 12.409 17.9004 12.2469C17.9631 12.0848 17.9601 11.9045 17.8918 11.7447C17.6647 11.2528 17.2875 10.8455 16.8145 10.5813C18.1745 9.844 18.7478 9.98867 18.9205 10.0727C19.3145 10.268 19.3365 10.9067 19.3365 10.9073V13.32C19.1416 13.2519 18.9369 13.2158 18.7305 13.2133C18.5537 13.2133 18.3841 13.2836 18.2591 13.4086C18.134 13.5336 18.0638 13.7032 18.0638 13.88C18.0638 14.0568 18.134 14.2264 18.2591 14.3514C18.3841 14.4764 18.5537 14.5467 18.7305 14.5467C18.8911 14.5468 19.0452 14.6107 19.1588 14.7244C19.2724 14.838 19.3363 14.992 19.3365 15.1527V27.2433C19.3361 27.7266 19.1685 28.1948 18.8619 28.5684C18.5554 28.942 18.129 29.1979 17.6552 29.2926C17.1813 29.3874 16.6892 29.3151 16.2627 29.0881C15.8361 28.861 15.5013 28.4933 15.3151 28.0473C15.2645 27.9259 15.179 27.8222 15.0695 27.7492C14.96 27.6762 14.8314 27.6373 14.6998 27.6373C14.4148 27.6372 14.1347 27.5639 13.8861 27.4246C13.6375 27.2853 13.4288 27.0846 13.2799 26.8417C13.131 26.5988 13.0468 26.3217 13.0355 26.037C13.0241 25.7522 13.086 25.4693 13.2151 25.2153ZM27.2805 1.33333L26.0805 2.83333C25.9558 2.98975 25.7974 3.11597 25.617 3.20255C25.4367 3.28914 25.2392 3.33384 25.0391 3.33333H14.9618C14.7618 3.33384 14.5642 3.28914 14.3839 3.20255C14.2036 3.11597 14.0451 2.98975 13.9205 2.83333L12.7205 1.33333H27.2805ZM8.66714 4C8.66914 3.34597 8.91197 2.71558 9.34926 2.22923C9.78655 1.74287 10.3877 1.43462 11.0378 1.36333L12.8791 3.66667C13.1285 3.97954 13.4453 4.23201 13.806 4.40518C14.1666 4.57834 14.5617 4.66774 14.9618 4.66667H25.0391C25.4392 4.66774 25.8343 4.57834 26.195 4.40518C26.5556 4.23201 26.8725 3.97954 27.1218 3.66667L28.9631 1.364C29.6132 1.43527 30.2142 1.74343 30.6515 2.22964C31.0887 2.71586 31.3316 3.34608 31.3338 4V13.3333H26.9731C27.0091 13.1647 27.0285 12.992 27.0305 12.8193C27.0298 12.3094 26.8772 11.8112 26.5923 11.3882C26.3073 10.9653 25.9029 10.6368 25.4305 10.4447C23.2151 8.834 21.5925 8.322 20.4738 8.88867C20.2973 8.9803 20.1368 9.09984 19.9985 9.24267C19.8601 9.09984 19.6996 8.9803 19.5231 8.88867C18.4038 8.32133 16.7798 8.834 14.5611 10.448C14.0056 10.6699 13.5468 11.0816 13.266 11.6098C12.9853 12.1381 12.9009 12.7487 13.0278 13.3333H8.66714V4ZM2.00047 17.3333C1.82366 17.3333 1.65409 17.2631 1.52907 17.1381C1.40404 17.013 1.33381 16.8435 1.33381 16.6667C1.33381 16.4899 1.40404 16.3203 1.52907 16.1953C1.65409 16.0702 1.82366 16 2.00047 16C2.17728 16 2.34685 16.0702 2.47188 16.1953C2.5969 16.3203 2.66714 16.4899 2.66714 16.6667C2.66714 16.8435 2.5969 17.013 2.47188 17.1381C2.34685 17.2631 2.17728 17.3333 2.00047 17.3333ZM2.00047 23.3333C1.82366 23.3333 1.65409 23.2631 1.52907 23.1381C1.40404 23.013 1.33381 22.8435 1.33381 22.6667C1.33381 22.4899 1.40404 22.3203 1.52907 22.1953C1.65409 22.0702 1.82366 22 2.00047 22C2.17728 22 2.34685 22.0702 2.47188 22.1953C2.5969 22.3203 2.66714 22.4899 2.66714 22.6667C2.66714 22.8435 2.5969 23.013 2.47188 23.1381C2.34685 23.2631 2.17728 23.3333 2.00047 23.3333ZM31.3338 36C31.3338 36.7072 31.0529 37.3855 30.5528 37.8856C30.0527 38.3857 29.3744 38.6667 28.6671 38.6667H11.3338C10.6266 38.6667 9.94828 38.3857 9.44819 37.8856C8.94809 37.3855 8.66714 36.7072 8.66714 36V26H11.6998C11.7075 26.7155 11.9703 27.4048 12.4409 27.9438C12.9116 28.4828 13.5592 28.836 14.2671 28.94C14.5493 29.437 14.9518 29.8552 15.4377 30.1562C15.9235 30.4572 16.4772 30.6314 17.0479 30.6627C17.6186 30.694 18.188 30.5815 18.7039 30.3355C19.2198 30.0895 19.6656 29.7178 20.0005 29.2547C20.3353 29.7178 20.7812 30.0895 21.2971 30.3355C21.813 30.5815 22.3824 30.694 22.9531 30.6627C23.5237 30.6314 24.0774 30.4572 24.5633 30.1562C25.0491 29.8552 25.4516 29.437 25.7338 28.94C26.4418 28.836 27.0894 28.4828 27.56 27.9438C28.0307 27.4048 28.2935 26.7155 28.3011 26H31.3338V36ZM38.0005 22C38.1773 22 38.3469 22.0702 38.4719 22.1953C38.5969 22.3203 38.6671 22.4899 38.6671 22.6667C38.6671 22.8435 38.5969 23.013 38.4719 23.1381C38.3469 23.2631 38.1773 23.3333 38.0005 23.3333C37.8237 23.3333 37.6541 23.2631 37.5291 23.1381C37.404 23.013 37.3338 22.8435 37.3338 22.6667C37.3338 22.4899 37.404 22.3203 37.5291 22.1953C37.6541 22.0702 37.8237 22 38.0005 22Z" fill="#50AF9B"/>
</g>
<defs>
<clipPath id="clip0_2312_188">
<rect width="40" height="40" fill="white"/>
</clipPath>
</defs>
</svg>
