<svg width="40" height="40" viewBox="0 0 40 40" fill="none" xmlns="http://www.w3.org/2000/svg">
<g clip-path="url(#clip0_2312_175)">
<path d="M3.95744 17.5849C3.85581 18.3851 3.49287 19.1403 2.91448 19.7549C0.588552 22.0136 -0.0736704 22.7922 0.00632962 23.6009C0.0688234 23.8774 0.197824 24.1383 0.384272 24.3652C0.57072 24.5921 0.810096 24.7795 1.08559 24.9142C1.573 25.2416 2.69003 25.6169 2.74633 25.8862C2.77154 26.1031 2.74893 26.3224 2.67978 26.5314C2.61063 26.7404 2.4963 26.9351 2.34337 27.1042C2.05448 27.5649 1.61966 28.2609 2.30189 28.7802C2.46189 28.9076 2.73596 29.1016 2.98633 29.2742C2.80114 29.5676 2.71818 29.9042 2.74781 30.2409C2.78781 30.5009 2.94485 30.7356 3.18263 30.8889C3.71818 31.2329 4.26633 31.3756 4.36189 31.7136C4.41596 31.9636 4.39448 32.2222 4.3004 32.4622C4.05377 33.2458 4.09508 34.0801 4.41818 34.8409C4.60323 35.4496 5.04052 35.9714 5.64005 36.2988C6.23958 36.6262 6.95573 36.7343 7.64114 36.6009C9.75058 36.1411 11.8309 35.5792 13.873 34.9176C14.8945 35.4662 15.8656 36.8009 16.5671 38.6362C16.7162 39.0329 16.9994 39.3776 17.377 39.6223C17.7546 39.867 18.2077 39.9994 18.673 40.0009H33.6115C33.99 40.0009 34.3623 39.9138 34.693 39.748C35.0237 39.5822 35.3018 39.3432 35.501 39.0535C35.7002 38.7638 35.8139 38.4331 35.8313 38.0928C35.8487 37.7525 35.7692 37.4138 35.6004 37.1089C34.6756 35.2552 34.0998 33.276 33.8967 31.2522C33.6337 29.2566 33.9661 27.2339 34.8597 25.3922C35.3916 24.395 36.0482 23.4556 36.8167 22.5922C38.2826 20.8082 39.9434 18.7869 39.9967 15.3496C40.0951 12.4869 39.3357 9.65311 37.7982 7.14555C34.6671 2.26155 28.1486 -0.332448 19.8693 0.0342186C16.7802 0.129941 13.7471 0.803812 10.9634 2.01289C8.01609 3.36785 5.76144 5.69187 4.66707 8.50289C4.36716 9.29279 4.12346 10.0991 3.93744 10.9169C3.77343 11.4552 3.55447 11.9788 3.28337 12.4809C2.88875 13.0879 2.6785 13.7776 2.67374 14.4809C2.82361 15.0766 3.20638 15.604 3.75226 15.9669C4.11448 16.2669 4.35226 16.4776 4.35448 16.6702C4.32337 16.7789 4.27522 16.8836 4.21226 16.9802C4.09226 17.1684 4.00625 17.3725 3.95744 17.5849ZM4.75151 14.9849C4.45522 14.7376 4.17077 14.5042 4.13892 14.2982C4.22872 13.8533 4.3957 13.4238 4.63374 13.0256C4.94485 12.4456 5.19374 11.8409 5.37892 11.2189C5.55151 10.4549 5.77744 9.70155 6.05522 8.96355C7.0237 6.4691 9.02147 4.40566 11.6345 3.20089C14.2323 2.0776 17.0614 1.45281 19.9419 1.36622C23.5811 1.20489 32.4782 1.51022 36.5167 7.81422C37.9215 10.1139 38.6131 12.7113 38.5189 15.3342C38.473 18.3429 37.0915 20.0236 35.63 21.8009C34.7944 22.744 34.0819 23.7702 33.5063 24.8596C32.5061 26.9185 32.1333 29.18 32.4263 31.4116C32.6494 33.5891 33.2753 35.7178 34.2782 37.7096C34.3329 37.8112 34.358 37.9237 34.3512 38.0364C34.3444 38.1492 34.3058 38.2586 34.2392 38.3543C34.1726 38.45 34.08 38.5288 33.9702 38.5835C33.8604 38.6382 33.737 38.6669 33.6115 38.6669H18.673C18.5167 38.6657 18.3647 38.6205 18.2384 38.5376C18.1121 38.4548 18.0177 38.3384 17.9686 38.2049C17.4859 36.7882 16.6541 35.4879 15.5352 34.4009C16.3219 34.1529 16.993 33.9382 17.2567 33.8629C20.4256 32.9649 22.0108 31.6629 21.9671 29.9962C21.9658 29.9084 21.9452 29.8217 21.9062 29.7412C21.8672 29.6607 21.8108 29.5881 21.7402 29.5274C21.6697 29.4668 21.5863 29.4195 21.4952 29.3883C21.404 29.3571 21.3068 29.3425 21.2093 29.3456C21.112 29.3475 21.0161 29.3668 20.9271 29.4021C20.8381 29.4375 20.7576 29.4883 20.6904 29.5516C20.6232 29.6149 20.5705 29.6896 20.5354 29.7712C20.5003 29.8529 20.4833 29.94 20.4856 30.0276C20.5041 30.7162 19.8811 31.7196 16.81 32.5889C14.6619 33.2036 10.4248 34.7176 7.3404 35.2956C7.0074 35.3523 6.66293 35.2908 6.37917 35.124C6.0954 34.9572 5.89437 34.6981 5.81818 34.4009C5.58653 33.8792 5.56039 33.3018 5.74411 32.7649C5.89681 32.3161 5.91621 31.8392 5.8004 31.3816C5.57818 30.6036 4.97744 30.3036 4.27892 29.9336C4.35892 29.7869 4.45374 29.6482 4.56337 29.5182C4.62413 29.4482 4.66871 29.3679 4.69449 29.2821C4.72026 29.1962 4.72672 29.1067 4.71346 29.0186C4.70021 28.9305 4.66753 28.8457 4.61732 28.7692C4.56712 28.6926 4.50042 28.6259 4.42114 28.5729C4.24337 28.4542 3.81966 28.1676 3.5167 27.9489C3.66485 27.7009 3.82855 27.4636 4.00485 27.1262C4.24189 26.6596 4.31077 26.1389 4.20411 25.6349C4.03151 24.8176 3.16707 24.4182 2.53374 24.1269C2.14507 23.9666 1.78942 23.7482 1.48189 23.4809C1.49448 23.0956 3.12485 21.5122 4.0004 20.6609C4.77968 19.8582 5.27355 18.8635 5.41818 17.8056C5.64337 17.4516 5.78485 17.0589 5.83374 16.6536C5.79699 16.3217 5.68132 16.0009 5.49458 15.7128C5.30785 15.4248 5.05442 15.177 4.75151 14.9849Z" fill="#50AF9B"/>
<path d="M11.5194 21.5553C11.4129 21.9909 11.408 22.4417 11.505 22.8791C11.6019 23.3165 11.7986 23.7311 12.0826 24.0966C12.3667 24.4621 12.7318 24.7706 13.1551 25.0027C13.5783 25.2347 14.0504 25.3852 14.5416 25.4447C14.8352 25.9177 15.2409 26.3267 15.7301 26.6426C16.2192 26.9584 16.7796 27.1734 17.3715 27.2723C17.9634 27.3711 18.5723 27.3514 19.1547 27.2144C19.7372 27.0775 20.279 26.8268 20.7416 26.48V28C20.7416 28.1768 20.8196 28.3464 20.9585 28.4714C21.0975 28.5964 21.2859 28.6667 21.4823 28.6667C21.6788 28.6667 21.8672 28.5964 22.0061 28.4714C22.145 28.3464 22.2231 28.1768 22.2231 28V27.3333H22.549C22.8389 27.3337 23.1235 27.2635 23.3727 27.1302C23.6219 26.9969 23.8264 26.8054 23.9646 26.576L24.6312 25.4587L27.2334 24.4927L28.5846 24.8527C28.8618 24.9282 29.1567 24.9339 29.4373 24.869C29.7179 24.8041 29.9732 24.6712 30.1757 24.4847L31.6571 23.1513C31.8611 22.9669 32.0061 22.7363 32.0767 22.484C32.1474 22.2316 32.1411 21.9668 32.0586 21.7173L31.6586 20.5033L32.7416 18.154L33.9897 17.5467C34.2393 17.4198 34.4471 17.2358 34.5921 17.0134C34.7372 16.7909 34.8143 16.5379 34.8157 16.28V14.3867C34.8137 14.1264 34.7348 13.8712 34.587 13.6475C34.4393 13.4237 34.228 13.2393 33.9749 13.1133L32.7401 12.5133L31.6594 10.164L32.0601 8.948C32.1422 8.6988 32.1481 8.43431 32.0774 8.18232C32.0066 7.93033 31.8617 7.70016 31.6579 7.516L30.1853 6.19C29.9821 6.00127 29.7252 5.86639 29.4427 5.80009C29.1601 5.73378 28.8628 5.73859 28.5831 5.814L27.2342 6.174L24.632 5.208L23.9653 4.08933C23.8271 3.85995 23.6224 3.66854 23.3731 3.53543C23.1237 3.40232 22.8389 3.33248 22.549 3.33333H22.2231V2.66667C22.2231 2.48986 22.145 2.32029 22.0061 2.19526C21.8672 2.07024 21.6788 2 21.4823 2C21.2859 2 21.0975 2.07024 20.9585 2.19526C20.8196 2.32029 20.7416 2.48986 20.7416 2.66667V3.52733C19.4083 3.00333 17.4934 3.574 14.8934 5.278C14.2069 5.52281 13.6438 5.98564 13.3109 6.57891C12.9779 7.17218 12.8982 7.85472 13.0868 8.49733C12.3103 8.71702 11.6317 9.1533 11.149 9.74307C10.6663 10.3328 10.4045 11.0455 10.4016 11.778C10.4031 11.9547 10.4194 12.1307 10.4505 12.3047C9.82123 12.919 9.44306 13.7078 9.37817 14.5413C9.31328 15.3748 9.56553 16.2034 10.0934 16.8907C9.62226 17.4203 9.36639 18.0789 9.36825 18.7573C9.37055 19.3647 9.57734 19.9573 9.96136 20.4568C10.3454 20.9563 10.8886 21.3393 11.5194 21.5553ZM22.2231 9.37267C23.8485 9.541 25.3484 10.2414 26.4372 11.3406C27.526 12.4397 28.1276 13.8608 28.1276 15.3333C28.1276 16.8059 27.526 18.227 26.4372 19.3261C25.3484 20.4253 23.8485 21.1257 22.2231 21.294V9.37267ZM22.549 4.66667C22.5934 4.66667 22.6357 4.688 22.6594 4.722L23.452 6.04933C23.5332 6.18483 23.6641 6.29083 23.8223 6.34933L26.9112 7.496C27.0675 7.55467 27.2416 7.56267 27.4038 7.51933L29.0016 7.09333C29.024 7.08735 29.0477 7.08711 29.0703 7.09265C29.0928 7.09818 29.1131 7.10927 29.129 7.12467L30.6105 8.458C30.6409 8.48867 30.652 8.53133 30.6386 8.57067L30.1646 10.0107C30.1165 10.157 30.1256 10.3137 30.1905 10.4547L31.472 13.2413C31.5368 13.3836 31.6543 13.5014 31.8046 13.5747L33.2601 14.2793C33.2814 14.2903 33.2992 14.3059 33.3122 14.3246C33.3251 14.3433 33.3327 14.3647 33.3342 14.3867V16.28C33.3333 16.3001 33.327 16.3196 33.3159 16.337C33.3049 16.3544 33.2893 16.3692 33.2705 16.38L31.8046 17.0933C31.6543 17.1666 31.5368 17.2844 31.472 17.4267L30.1905 20.2133C30.1256 20.3543 30.1165 20.511 30.1646 20.6573L30.6379 22.0953C30.6447 22.1149 30.6458 22.1358 30.641 22.1559C30.6362 22.176 30.6257 22.1947 30.6105 22.21L29.1208 23.5513C29.1056 23.5645 29.0867 23.5737 29.066 23.578C29.0454 23.5822 29.0239 23.5813 29.0038 23.5753L27.4038 23.1487C27.2414 23.1059 27.0677 23.1141 26.9112 23.172L23.8223 24.3187C23.6641 24.3772 23.5332 24.4832 23.452 24.6187L22.6608 25.944C22.6489 25.961 22.6324 25.975 22.6128 25.9848C22.5933 25.9946 22.5713 25.9998 22.549 26H22.2231V22.6327C24.2488 22.4691 26.1331 21.6292 27.5055 20.2783C28.8779 18.9273 29.6389 17.1631 29.6389 15.3327C29.6389 13.5022 28.8779 11.738 27.5055 10.3871C26.1331 9.03614 24.2488 8.19627 22.2231 8.03267V4.66667H22.549ZM14.2446 9.65267C14.7104 9.6523 15.166 9.77616 15.5537 10.0086C15.9414 10.241 16.2439 10.5716 16.4231 10.9587C16.5007 11.1196 16.6456 11.2465 16.8265 11.3118C17.0073 11.3772 17.2095 11.3758 17.3892 11.3079C17.569 11.24 17.7117 11.1111 17.7865 10.9492C17.8614 10.7872 17.8622 10.6052 17.789 10.4427C17.5191 9.86355 17.0785 9.36183 16.5147 8.99172C15.951 8.6216 15.2856 8.39717 14.5905 8.34267C14.437 7.99754 14.4398 7.61204 14.5983 7.26875C14.7568 6.92546 15.0583 6.65167 15.4383 6.50602C15.8184 6.36038 16.2466 6.35445 16.6315 6.48952C17.0163 6.6246 17.327 6.88992 17.4971 7.22867C17.536 7.31051 17.5926 7.38454 17.6637 7.44638C17.7348 7.50821 17.819 7.55661 17.9112 7.58872C18.0034 7.62082 18.1018 7.63598 18.2007 7.63331C18.2995 7.63063 18.3968 7.61018 18.4867 7.57314C18.5766 7.53611 18.6573 7.48325 18.7242 7.41768C18.791 7.35211 18.8426 7.27516 18.8759 7.19136C18.9092 7.10756 18.9235 7.01861 18.918 6.92976C18.9125 6.8409 18.8873 6.75394 18.8438 6.674C18.555 6.11041 18.0629 5.65131 17.4475 5.37133C19.1512 4.512 19.9179 4.63267 20.1957 4.75667C20.7231 4.99267 20.7416 5.72733 20.7416 5.72933V8.46267C20.4833 8.37175 20.2086 8.3243 19.9312 8.32267C19.7348 8.32267 19.5464 8.39291 19.4074 8.51793C19.2685 8.64295 19.1905 8.81252 19.1905 8.98933C19.1905 9.16614 19.2685 9.33571 19.4074 9.46074C19.5464 9.58576 19.7348 9.656 19.9312 9.656C20.1453 9.65704 20.3503 9.73385 20.5019 9.86983C20.6536 10.0058 20.7396 10.19 20.7416 10.3827V23.6433C20.7407 24.1879 20.5305 24.7154 20.1466 25.1362C19.7627 25.5571 19.2287 25.8454 18.6354 25.9522C18.0421 26.059 17.426 25.9777 16.8918 25.7221C16.3575 25.4665 15.938 25.0524 15.7046 24.55C15.6483 24.4286 15.5533 24.3248 15.4316 24.2519C15.31 24.1789 15.167 24.14 15.0208 24.14C14.4634 24.1395 13.9289 23.9399 13.5347 23.585C13.1406 23.2302 12.919 22.7491 12.9186 22.2473C12.9174 21.9483 12.9975 21.6535 13.152 21.3887C13.21 21.2907 13.24 21.1813 13.2391 21.0703C13.2383 20.9594 13.2067 20.8503 13.1472 20.7531C13.0876 20.6559 13.0021 20.5736 12.8983 20.5137C12.7945 20.4538 12.6757 20.4181 12.5527 20.41C12.09 20.3777 11.6579 20.1897 11.3422 19.8836C11.0265 19.5775 10.8504 19.1757 10.849 18.758C10.8512 18.4353 10.9592 18.1204 11.1594 17.8527C11.8394 18.2714 12.6443 18.4949 13.4683 18.494C13.6647 18.494 13.8531 18.4238 13.992 18.2987C14.131 18.1737 14.209 18.0041 14.209 17.8273C14.209 17.6505 14.131 17.481 13.992 17.3559C13.8531 17.2309 13.6647 17.1607 13.4683 17.1607C12.935 17.1608 12.4144 17.0145 11.976 16.7414C11.5376 16.4682 11.2022 16.0811 11.0147 15.6319C10.8272 15.1826 10.7965 14.6925 10.9266 14.2272C11.0568 13.7618 11.3416 13.3432 11.7431 13.0273C11.9438 12.852 12.0297 12.5953 11.9697 12.3493C11.8724 12.0336 11.8575 11.7018 11.926 11.38C11.9946 11.0581 12.1448 10.7549 12.365 10.4939C12.5852 10.2329 12.8693 10.0212 13.1954 9.87527C13.5214 9.72935 13.8804 9.65317 14.2446 9.65267Z" fill="#50AF9B"/>
<path fill-rule="evenodd" clip-rule="evenodd" d="M15.3386 15.0671C15.1712 15.3271 14.9164 15.5318 14.612 15.6531C14.4313 15.7227 14.2888 15.854 14.2157 16.0181C14.1427 16.1823 14.145 16.3659 14.2223 16.5284C14.2997 16.691 14.4456 16.8193 14.628 16.8851C14.8103 16.9508 15.0143 16.9487 15.1949 16.8791C15.5928 16.725 15.9498 16.4968 16.2426 16.2095C16.5353 15.9223 16.7572 15.5824 16.8935 15.2124C17.8651 15.1517 18.78 14.778 19.4705 14.1598C19.6054 14.034 19.6801 13.8656 19.6784 13.6908C19.6767 13.516 19.5988 13.3488 19.4615 13.2252C19.3241 13.1016 19.1383 13.0315 18.9441 13.03C18.7499 13.0285 18.5628 13.0957 18.4231 13.2171C18.1723 13.4428 17.8732 13.6203 17.544 13.7389C17.2147 13.8574 16.8622 13.9146 16.5077 13.907C16.1531 13.8993 15.804 13.8269 15.4815 13.6943C15.1589 13.5616 14.8697 13.3714 14.6312 13.1351C14.5668 13.0674 14.4879 13.0121 14.3992 12.9723C14.3105 12.9326 14.2139 12.9092 14.1151 12.9036C14.0162 12.8981 13.9171 12.9104 13.8236 12.9399C13.7302 12.9695 13.6442 13.0155 13.5709 13.0755C13.4976 13.1354 13.4383 13.208 13.3967 13.2889C13.3551 13.3698 13.3319 13.4574 13.3285 13.5465C13.3252 13.6356 13.3417 13.7244 13.3772 13.8076C13.4126 13.8908 13.4663 13.9668 13.5349 14.0311C14.0238 14.5138 14.6461 14.8711 15.3386 15.0671ZM19.0453 17.2271C18.8877 17.2271 18.7302 17.2349 18.5735 17.2504C17.9465 17.2957 17.3472 17.5024 16.8472 17.8459C16.3473 18.1895 15.9678 18.6553 15.7542 19.1878C15.54 19.741 15.5045 20.3375 15.652 20.9081C15.7996 21.4787 16.124 21.9999 16.5875 22.4111C16.9827 22.7641 17.2068 23.2434 17.2112 23.7444C17.2112 23.9213 17.2893 24.0908 17.4282 24.2158C17.5671 24.3409 17.7555 24.4111 17.952 24.4111C18.1484 24.4111 18.3368 24.3409 18.4758 24.2158C18.6147 24.0908 18.6927 23.9213 18.6927 23.7444C18.6884 22.8942 18.3118 22.0798 17.6446 21.4778C17.377 21.2447 17.1883 20.9481 17.1005 20.6224C17.0126 20.2968 17.0292 19.9553 17.1483 19.6378C17.2691 19.3415 17.4833 19.0833 17.7645 18.8949C18.0458 18.7064 18.382 18.5957 18.732 18.5764C18.8357 18.5664 18.9409 18.5611 19.0453 18.5611C19.2418 18.5611 19.4302 18.4909 19.5691 18.3658C19.708 18.2408 19.7861 18.0713 19.7861 17.8944C19.7861 17.7176 19.708 17.5481 19.5691 17.423C19.4302 17.298 19.2418 17.2271 19.0453 17.2271Z" fill="#50AF9B"/>
</g>
<defs>
<clipPath id="clip0_2312_175">
<rect width="40" height="40" fill="white"/>
</clipPath>
</defs>
</svg>
