<svg width="50" height="50" viewBox="0 0 50 50" fill="none" xmlns="http://www.w3.org/2000/svg">
<g clip-path="url(#clip0_2054_796)">
<path d="M31.1392 40.5087C31.1392 35.3002 35.3616 31.0779 40.5701 31.0779C40.9293 31.0779 41.2837 31.0987 41.6324 31.1377C42.0322 30.1264 42.3427 29.0819 42.5602 28.0163C42.5733 27.9505 42.6088 27.8913 42.6605 27.8487C42.7123 27.8061 42.7773 27.7827 42.8443 27.7826H46.952C47.7421 27.7826 48.3825 27.1422 48.3825 26.3521V22.1479C48.3825 21.3579 47.7421 20.7175 46.9521 20.7175H42.8443C42.7773 20.7174 42.7123 20.694 42.6606 20.6514C42.6088 20.6088 42.5733 20.5496 42.5602 20.4838C42.0829 18.1435 41.1603 15.9168 39.8426 13.9247C39.8054 13.8689 39.7886 13.802 39.7951 13.7353C39.8017 13.6686 39.8311 13.6062 39.8785 13.5587L42.7835 10.6536C43.3421 10.0949 43.3421 9.18925 42.7835 8.63064L39.8107 5.65783C39.2521 5.09922 38.3463 5.09922 37.7876 5.65783L34.8826 8.56277C34.8351 8.61012 34.7727 8.63956 34.7059 8.64609C34.6392 8.65263 34.5723 8.63585 34.5165 8.59861C32.5244 7.28092 30.2977 6.35832 27.9574 5.88098C27.8916 5.86791 27.8324 5.83248 27.7898 5.78069C27.7472 5.7289 27.7239 5.66395 27.7237 5.59689V1.48909C27.7237 0.699037 27.0833 0.0585938 26.2932 0.0585938H22.089C21.299 0.0585938 20.6585 0.699037 20.6585 1.48909V5.59679C20.6584 5.66385 20.635 5.72878 20.5924 5.78057C20.5498 5.83236 20.4906 5.8678 20.4248 5.88088C18.0846 6.35823 15.8579 7.28084 13.8658 8.59851C13.8101 8.63575 13.7431 8.65253 13.6764 8.646C13.6097 8.63946 13.5473 8.61002 13.4998 8.56267L10.5949 5.65763C10.0362 5.09903 9.13056 5.09903 8.57195 5.65763L5.59904 8.63045C5.04044 9.18915 5.04044 10.0948 5.59904 10.6534L8.50408 13.5585C8.55143 13.606 8.58087 13.6684 8.5874 13.7351C8.59394 13.8018 8.57716 13.8687 8.53992 13.9245C7.22223 15.9166 6.29963 18.1433 5.82229 20.4836C5.80921 20.5494 5.77376 20.6086 5.72198 20.6512C5.67019 20.6938 5.60526 20.7172 5.5382 20.7173H1.4305C0.640443 20.7174 0 21.3579 0 22.1479V26.352C0 27.1421 0.640443 27.7825 1.4305 27.7825H5.5383C5.60535 27.7827 5.67029 27.806 5.72207 27.8486C5.77386 27.8912 5.8093 27.9504 5.82239 28.0162C6.29975 30.3565 7.22235 32.5832 8.54002 34.5753C8.57726 34.6311 8.59403 34.698 8.5875 34.7647C8.58097 34.8315 8.55152 34.8939 8.50418 34.9413L5.59914 37.8464C5.04053 38.4051 5.04053 39.3108 5.59914 39.8694L8.57195 42.8422C9.13056 43.4009 10.0363 43.4009 10.5949 42.8422L13.5 39.9371C13.5475 39.8898 13.6099 39.8604 13.6766 39.8538C13.7433 39.8473 13.8103 39.8641 13.866 39.9013C15.8581 41.219 18.0848 42.1416 20.425 42.6189C20.4908 42.632 20.55 42.6674 20.5926 42.7192C20.6352 42.771 20.6586 42.836 20.6587 42.903V47.0108C20.6587 47.8009 21.2992 48.4413 22.0892 48.4413H26.2934C27.0835 48.4413 27.7239 47.8009 27.7239 47.0108V42.903C27.7241 42.836 27.7474 42.771 27.79 42.7192C27.8326 42.6675 27.8918 42.632 27.9576 42.6189C29.0683 42.3921 30.1559 42.0643 31.207 41.6395C31.162 41.2643 31.1393 40.8867 31.1392 40.5087Z" fill="#E4EAF8"/>
<path d="M8.50408 13.558C8.55143 13.6054 8.58087 13.6678 8.5874 13.7346C8.59394 13.8013 8.57716 13.8682 8.53992 13.924C7.22227 15.9161 6.29967 18.1428 5.82229 20.4831C5.80921 20.5489 5.77376 20.6081 5.72198 20.6507C5.67019 20.6933 5.60526 20.7166 5.5382 20.7168H7.55045C7.6175 20.7166 7.68242 20.6933 7.73421 20.6507C7.78599 20.6081 7.82144 20.5489 7.83454 20.4831C8.31192 18.1428 9.23452 15.9161 10.5522 13.924C10.5894 13.8682 10.6062 13.8013 10.5997 13.7346C10.5931 13.6678 10.5637 13.6054 10.5163 13.558L7.61129 10.6529C7.05268 10.0943 7.05268 9.18863 7.61129 8.62993L10.5841 5.65712C10.5859 5.65536 10.5877 5.65399 10.5895 5.65223C10.0304 5.0988 9.1287 5.10017 8.57186 5.65712L5.59904 8.62993C5.04044 9.18863 5.04044 10.0943 5.59904 10.6529L8.50408 13.558ZM2.01225 26.3516V22.1475C2.01225 21.3574 2.65269 20.717 3.44275 20.717H1.4305C0.640443 20.7169 0 21.3573 0 22.1474V26.3515C0 27.1415 0.640443 27.782 1.4305 27.782H3.44275C2.65269 27.7821 2.01225 27.1415 2.01225 26.3516ZM10.5841 42.8417L7.61129 39.8689C7.05268 39.3102 7.05268 38.4045 7.61129 37.8459L10.5163 34.9408C10.5637 34.8933 10.5931 34.8309 10.5997 34.7642C10.6062 34.6975 10.5894 34.6306 10.5522 34.5748C9.23451 32.5827 8.3119 30.356 7.83454 28.0157C7.82145 27.9499 7.78601 27.8907 7.73423 27.8481C7.68244 27.8055 7.6175 27.7821 7.55045 27.782H5.5383C5.60535 27.7821 5.67029 27.8055 5.72207 27.8481C5.77386 27.8907 5.8093 27.9499 5.82239 28.0157C6.29975 30.356 7.22235 32.5827 8.54002 34.5748C8.57726 34.6306 8.59403 34.6975 8.5875 34.7642C8.58097 34.8309 8.55152 34.8933 8.50418 34.9408L5.59914 37.8459C5.04053 38.4046 5.04053 39.3102 5.59914 39.8689L8.57195 42.8417C9.1289 43.3986 10.0305 43.4 10.5896 42.8466C10.5878 42.8449 10.5859 42.8434 10.5841 42.8417Z" fill="#D8DCE5"/>
<path d="M34.0751 29.8647C33.8181 29.7164 33.7278 29.3928 33.8642 29.1293C34.6336 27.643 35.0696 25.9575 35.0717 24.1719C35.0697 22.1963 34.5365 20.343 33.6084 18.7465C32.9023 17.3344 30.8734 15.4008 29.6231 14.7755H29.6229C28.0311 13.8578 26.186 13.332 24.2204 13.332C24.2106 13.332 24.201 13.3323 24.1913 13.3324C22.2186 13.3376 20.3679 13.8719 18.7741 14.8006C17.1327 15.758 15.7691 17.1267 14.8178 18.7717C13.844 20.4561 13.3735 22.3067 13.3688 24.1715C13.3732 25.8721 13.7651 27.5609 14.5728 29.1226C14.7038 29.3758 14.616 29.6868 14.3691 29.8293L12.1367 31.1886C14.5396 35.4014 19.0331 38.2014 24.2205 38.2014C27.4054 38.2014 30.3437 37.1275 32.6944 35.3241C33.3901 34.2701 34.2895 33.3658 35.3395 32.6643C35.7007 32.1881 36.0313 31.6877 36.3301 31.1667L34.0751 29.8647Z" fill="#576574"/>
<path d="M13.6581 30.2617L12.1367 31.1881C14.5396 35.401 19.0331 38.2009 24.2205 38.2009C24.5595 38.2009 24.8956 38.1881 25.2287 38.1641C20.1131 37.7969 15.7622 34.6688 13.6581 30.2617Z" fill="#3E4B5A"/>
<path d="M31.1672 12.1595C29.1196 10.9777 26.7456 10.3008 24.2163 10.3008C24.2066 10.3008 24.1972 10.3011 24.1875 10.3012V13.5056C24.1972 13.5056 24.2066 13.5052 24.2163 13.5052C26.1625 13.5052 27.9892 14.0259 29.5652 14.9345L29.5651 14.9344L31.1672 12.1595Z" fill="#ACD6FC"/>
<path d="M12.1367 17.2913L14.9115 18.8933C15.8534 17.2648 17.2033 15.9097 18.8284 14.9618L17.2267 12.1875C15.121 13.413 13.3569 15.1811 12.1367 17.2913Z" fill="#54A0FF"/>
<path d="M36.2907 17.2647C35.0614 15.1489 33.3416 13.4299 31.1724 12.1602L29.5703 14.9351C30.8082 15.5541 32.817 17.4685 33.516 18.8666L36.2907 17.2647Z" fill="#8AC2FF"/>
<path d="M33.5196 18.8675C34.4404 20.4512 34.9687 22.29 34.9686 24.2503H38.173C38.173 21.707 37.4875 19.3213 36.2933 17.2661L33.5196 18.8675ZM36.2943 17.2656L36.2933 17.2661L36.2934 17.266L36.2943 17.2656Z" fill="#54A0FF"/>
<path d="M24.1947 10.3008C21.6585 10.306 19.2799 10.9928 17.2305 12.1857L18.3925 14.1984L18.8316 14.9589C20.4096 14.0393 22.2418 13.5104 24.1949 13.5052V10.3008H24.1947Z" fill="#338DEF"/>
<path d="M12.1376 17.293C10.9239 19.383 10.2734 21.8033 10.2734 24.2529H13.4776C13.4802 22.4026 13.9462 20.5662 14.9125 18.895L12.1376 17.293Z" fill="#8AC2FF"/>
<path d="M12.1376 17.293C10.9239 19.383 10.2734 21.8033 10.2734 24.2529H13.4776C13.4802 22.4026 13.9462 20.5662 14.9125 18.895L12.1376 17.293Z" fill="#8AC2FF"/>
<path d="M34.9653 24.2266C34.9654 25.9994 34.5334 27.6728 33.7697 29.1481C33.6346 29.4089 33.7241 29.7292 33.9785 29.8761L36.2902 31.2108C37.4843 29.1556 38.1699 26.7699 38.1699 24.2266H34.9653ZM36.291 31.2114L36.2901 31.2109H36.2902L36.291 31.2114Z" fill="#338DEF"/>
<path d="M14.6699 29.1413C13.8681 27.5912 13.48 25.9146 13.4776 24.2266H10.2734C10.2734 26.6762 10.9239 29.0965 12.1376 31.1865L14.4681 29.841C14.7126 29.6997 14.7996 29.3919 14.6699 29.1413Z" fill="#ACD6FC"/>
<path d="M14.6699 29.1413C13.8681 27.5912 13.48 25.9146 13.4776 24.2266H10.2734C10.2734 26.6762 10.9239 29.0965 12.1376 31.1865L14.4681 29.841C14.7126 29.6997 14.7996 29.3919 14.6699 29.1413Z" fill="#ACD6FC"/>
<path d="M12.2861 24.2514H12.2857L12.2859 24.239L12.2857 24.2266H10.2734C10.2734 26.6762 10.9239 29.0965 12.1376 31.1866L13.6783 30.2971C12.7729 28.4306 12.2899 26.3525 12.2861 24.2514Z" fill="#8AC2FF"/>
<path d="M12.2857 24.2281H12.2861C12.2899 22.1271 12.7729 20.0489 13.6783 18.1824L12.1376 17.293C10.9239 19.383 10.2734 21.8033 10.2734 24.2529H12.2857L12.2859 24.2405L12.2857 24.2281Z" fill="#54A0FF"/>
<path d="M14.149 17.2913C15.0768 15.6866 16.3199 14.2805 17.7879 13.1596L17.2267 12.1875C15.121 13.413 13.3569 15.1812 12.1367 17.2913L13.6774 18.1808C13.8235 17.8785 13.9808 17.5818 14.149 17.2913Z" fill="#338DEF"/>
<path d="M19.2421 12.1847L19.2427 12.1857C20.7679 11.2975 22.4488 10.709 24.1949 10.4517V10.3008H24.1947C21.6585 10.306 19.2799 10.9928 17.2305 12.1857L17.7911 13.1568C18.2541 12.8028 18.7387 12.4782 19.2421 12.1847Z" fill="#1F82DB"/>
<path d="M30.1287 28.8022L25.1434 25.7248C25.0591 25.6727 24.9858 25.6046 24.9278 25.5242C24.8698 25.4439 24.8282 25.3529 24.8054 25.2565C24.7826 25.16 24.779 25.0601 24.7948 24.9622C24.8107 24.8644 24.8456 24.7707 24.8977 24.6864C24.9497 24.602 25.0179 24.5288 25.0982 24.4708C25.1786 24.4128 25.2696 24.3712 25.366 24.3484C25.4624 24.3256 25.5624 24.322 25.6602 24.3378C25.758 24.3536 25.8518 24.3886 25.9361 24.4407L30.9214 27.5181C31.0917 27.6232 31.2133 27.7916 31.2594 27.9864C31.3054 28.1811 31.2723 28.3862 31.1671 28.5565C31.062 28.7267 30.8936 28.8483 30.6988 28.8944C30.5041 28.9405 30.299 28.9073 30.1287 28.8022Z" fill="#E4EAF8"/>
<path d="M40.4689 49.9418C45.733 49.9418 50.0004 45.6744 50.0004 40.4104C50.0004 35.1463 45.733 30.8789 40.4689 30.8789C35.2049 30.8789 30.9375 35.1463 30.9375 40.4104C30.9375 45.6744 35.2049 49.9418 40.4689 49.9418Z" fill="#1DD1A1"/>
<path d="M38.6755 43.2944L36.6297 41.2893C36.1819 40.8504 36.1747 40.1317 36.6136 39.6838C37.0523 39.236 37.7712 39.2287 38.2191 39.6677L39.4724 40.8961L42.7183 37.7324C43.1672 37.2949 43.8861 37.304 44.3237 37.7529C44.7613 38.202 44.7521 38.9207 44.3031 39.3584L40.2626 43.2967C39.8208 43.7272 39.1161 43.7264 38.6755 43.2944Z" fill="#E4EAF8"/>
<path d="M32.9497 40.4025C32.9497 35.4783 36.6839 31.4266 41.475 30.9239C41.1408 30.8888 40.805 30.8712 40.4689 30.8711C35.2049 30.8711 30.9375 35.1385 30.9375 40.4025C30.9375 45.6666 35.2049 49.934 40.4689 49.934C40.8088 49.934 41.1444 49.9158 41.475 49.8811C36.6839 49.3784 32.9497 45.3268 32.9497 40.4025Z" fill="#15BA8B"/>
<path d="M40.111 42.6421L38.0652 40.637C37.7296 40.3081 37.6415 39.8218 37.8032 39.4103C37.4002 39.2686 36.934 39.3602 36.6154 39.6854C36.1764 40.1332 36.1837 40.852 36.6315 41.2909L38.6773 43.296C39.1176 43.7276 39.8224 43.729 40.2645 43.2983L40.6387 42.9335C40.4396 42.886 40.2573 42.7853 40.111 42.6421ZM24.1914 26.5822C22.9775 26.5822 21.9692 25.6693 21.8459 24.4588C21.7139 23.1715 22.6602 22.0144 23.9554 21.88C25.3276 21.7398 26.5482 22.8244 26.5482 24.2253C26.5483 25.525 25.4909 26.5822 24.1914 26.5822ZM24.1095 23.3815C23.5865 23.4357 23.3061 23.9034 23.3474 24.3055C23.392 24.7434 23.7549 25.0732 24.1915 25.0732C24.6589 25.0732 25.0392 24.6928 25.0392 24.2254C25.0391 23.7116 24.5876 23.3333 24.1095 23.3815ZM22.321 5.60343C22.5157 5.59611 22.6708 5.43829 22.6708 5.24347V1.48909C22.6708 0.699037 23.3114 0.0585938 24.1014 0.0585938H22.0891C21.299 0.0585938 20.6585 0.699037 20.6585 1.48919V5.59689C20.6585 5.73088 20.5664 5.84485 20.4375 5.87727C20.5393 5.84748 21.274 5.64299 22.321 5.60343ZM22.6707 47.0107V43.3746C22.6707 43.1173 22.4679 42.9042 22.2107 42.8945C21.2254 42.8575 20.6851 42.7081 20.4996 42.6461C20.5473 42.67 20.5873 42.7067 20.6154 42.752C20.6434 42.7974 20.6584 42.8496 20.6585 42.9029V47.0107C20.6585 47.8008 21.2989 48.4412 22.089 48.4412H24.1012C23.3113 48.4414 22.6707 47.8008 22.6707 47.0107Z" fill="#D8DCE5"/>
</g>
<defs>
<clipPath id="clip0_2054_796">
<rect width="50" height="50" fill="white"/>
</clipPath>
</defs>
</svg>
