<svg width="50" height="50" viewBox="0 0 50 50" fill="none" xmlns="http://www.w3.org/2000/svg">
<g clip-path="url(#clip0_2054_821)">
<path d="M38.1156 3.76562H1.90763C0.855765 3.76562 0 4.62139 0 5.67325V11.3112C0 12.363 0.855765 13.2188 1.90763 13.2188H38.1156C39.1674 13.2188 40.0232 12.363 40.0232 11.3112V5.67325C40.0232 4.62139 39.1674 3.76562 38.1156 3.76562Z" fill="#576574"/>
<path d="M36.3402 9.24669H20.0472C19.8471 9.24669 19.6553 9.16723 19.5139 9.02579C19.3724 8.88435 19.293 8.69251 19.293 8.49248C19.293 8.29246 19.3724 8.10062 19.5139 7.95918C19.6553 7.81774 19.8471 7.73828 20.0472 7.73828H36.3402C36.5402 7.73828 36.7321 7.81774 36.8735 7.95918C37.0149 8.10062 37.0944 8.29246 37.0944 8.49248C37.0944 8.69251 37.0149 8.88435 36.8735 9.02579C36.7321 9.16723 36.5402 9.24669 36.3402 9.24669Z" fill="#3E4B5A"/>
<path d="M38.1156 13.1719H1.90763C0.855765 13.1719 0 14.0276 0 15.0794V20.7174C0 21.7693 0.855765 22.625 1.90763 22.625H38.1156C39.1674 22.625 40.0232 21.7693 40.0232 20.7174V15.0794C40.0232 14.0276 39.1674 13.1719 38.1156 13.1719Z" fill="#576574"/>
<path d="M36.3363 18.649H20.0433C19.8432 18.649 19.6514 18.5696 19.51 18.4281C19.3685 18.2867 19.2891 18.0949 19.2891 17.8948C19.2891 17.6948 19.3685 17.503 19.51 17.3615C19.6514 17.2201 19.8432 17.1406 20.0433 17.1406H36.3363C36.5363 17.1406 36.7282 17.2201 36.8696 17.3615C37.011 17.503 37.0905 17.6948 37.0905 17.8948C37.0905 18.0949 37.011 18.2867 36.8696 18.4281C36.7282 18.5696 36.5363 18.649 36.3363 18.649Z" fill="#3E4B5A"/>
<path d="M38.1156 22.5664H1.90763C0.855765 22.5664 0 23.4222 0 24.4739V30.1118C0 31.1637 0.855765 32.0195 1.90763 32.0195H38.1156C39.1674 32.0195 40.0232 31.1637 40.0232 30.1118V24.4739C40.0232 23.4222 39.1674 22.5664 38.1156 22.5664Z" fill="#576574"/>
<path d="M36.3402 28.0553H20.0472C19.8471 28.0553 19.6553 27.9758 19.5139 27.8344C19.3724 27.6929 19.293 27.5011 19.293 27.3011C19.293 27.101 19.3724 26.9092 19.5139 26.7678C19.6553 26.6263 19.8471 26.5469 20.0472 26.5469H36.3402C36.5402 26.5469 36.7321 26.6263 36.8735 26.7678C37.0149 26.9092 37.0944 27.101 37.0944 27.3011C37.0944 27.5011 37.0149 27.6929 36.8735 27.8344C36.7321 27.9758 36.5402 28.0553 36.3402 28.0553Z" fill="#3E4B5A"/>
<path d="M38.1156 31.9727H1.90763C0.855765 31.9727 0 32.8284 0 33.8803V39.5182C0 40.5701 0.855765 41.4258 1.90763 41.4258H38.1156C39.1674 41.4258 40.0232 40.5701 40.0232 39.5182V33.8803C40.0232 32.8284 39.1674 31.9727 38.1156 31.9727Z" fill="#576574"/>
<path d="M38.1156 11.2045H1.90763C0.855765 11.2045 0 10.3487 0 9.29688V11.3081C0 12.36 0.855765 13.2157 1.90763 13.2157H38.1156C39.1674 13.2157 40.0232 12.36 40.0232 11.3081V9.29688C40.0232 10.3487 39.1674 11.2045 38.1156 11.2045ZM38.1156 20.6074H1.90763C0.855765 20.6074 0 19.7516 0 18.6997V20.711C0 21.7628 0.855765 22.6186 1.90763 22.6186H38.1156C39.1674 22.6186 40.0232 21.7628 40.0232 20.711V18.6997C40.0232 19.7516 39.1674 20.6074 38.1156 20.6074ZM38.1156 30.01H1.90763C0.855765 30.01 0 29.1544 0 28.1025V30.1138C0 31.1656 0.855765 32.0214 1.90763 32.0214H38.1156C39.1674 32.0214 40.0232 31.1656 40.0232 30.1138V28.1025C40.0232 29.1544 39.1674 30.01 38.1156 30.01ZM38.1156 39.4129H1.90763C0.855765 39.4129 0 38.5571 0 37.5053V39.5165C0 40.5684 0.855765 41.4242 1.90763 41.4242H38.1156C39.1674 41.4242 40.0232 40.5684 40.0232 39.5165V37.5053C40.0232 38.5571 39.1674 39.4129 38.1156 39.4129ZM36.3414 37.4518H20.0483C19.8483 37.4518 19.6565 37.3723 19.515 37.2309C19.3736 37.0894 19.2941 36.8976 19.2941 36.6976C19.2941 36.4975 19.3736 36.3057 19.515 36.1643C19.6565 36.0228 19.8483 35.9434 20.0483 35.9434H36.3414C36.5414 35.9434 36.7332 36.0228 36.8747 36.1643C37.0161 36.3057 37.0956 36.4975 37.0956 36.6976C37.0956 36.8976 37.0161 37.0894 36.8747 37.2309C36.7332 37.3723 36.5414 37.4518 36.3414 37.4518Z" fill="#3E4B5A"/>
<path d="M4.88848 37.9879C5.59923 37.9879 6.1754 37.4117 6.1754 36.701C6.1754 35.9902 5.59923 35.4141 4.88848 35.4141C4.17774 35.4141 3.60156 35.9902 3.60156 36.701C3.60156 37.4117 4.17774 37.9879 4.88848 37.9879Z" fill="#54A0FF"/>
<path d="M5.30274 36.7011C5.30274 36.3168 5.47208 35.9729 5.73907 35.737C5.50464 35.5289 5.20199 35.4139 4.88848 35.4141C4.17774 35.4141 3.60156 35.9902 3.60156 36.701C3.60156 37.4117 4.17774 37.9879 4.88848 37.9879C5.21495 37.9879 5.51212 37.8653 5.73907 37.665C5.47208 37.4293 5.30274 37.0854 5.30274 36.7011Z" fill="#338DEF"/>
<path d="M39.9981 46.2305C45.522 46.2305 50.0001 41.7525 50.0001 36.2286C50.0001 30.7046 45.522 26.2266 39.9981 26.2266C34.4741 26.2266 29.9961 30.7046 29.9961 36.2286C29.9961 41.7525 34.4741 46.2305 39.9981 46.2305Z" fill="#1DD1A1"/>
<path d="M32.0324 36.2288C32.0324 31.0485 35.9706 26.788 41.0165 26.2778C40.6781 26.2436 40.3383 26.2265 39.9983 26.2266C34.4742 26.2266 29.9961 30.7047 29.9961 36.2288C29.9961 41.7528 34.4742 46.2309 39.9983 46.2309C40.342 46.2309 40.6817 46.2136 41.0165 46.1797C35.9706 45.6695 32.0324 41.409 32.0324 36.2288Z" fill="#15BA8B"/>
<path d="M38.1215 39.2569L35.9747 37.1528C35.5047 36.6922 35.4971 35.9379 35.9578 35.468C36.4182 34.9981 37.1726 34.9905 37.6425 35.4511L38.9578 36.7402L42.3639 33.4202C42.835 32.9611 43.5893 32.9706 44.0486 33.4417C44.5079 33.9129 44.4982 34.6672 44.027 35.1265L39.787 39.2592C39.3235 39.7109 38.5839 39.7102 38.1215 39.2569Z" fill="#E4EAF8"/>
<path d="M10.033 37.9879C10.7438 37.9879 11.3199 37.4117 11.3199 36.701C11.3199 35.9902 10.7438 35.4141 10.033 35.4141C9.32227 35.4141 8.74609 35.9902 8.74609 36.701C8.74609 37.4117 9.32227 37.9879 10.033 37.9879Z" fill="#54A0FF"/>
<path d="M10.4473 36.7011C10.4473 36.3168 10.6166 35.9729 10.8836 35.737C10.6492 35.5289 10.3465 35.4139 10.033 35.4141C9.32227 35.4141 8.74609 35.9902 8.74609 36.701C8.74609 37.4117 9.32227 37.9879 10.033 37.9879C10.3595 37.9879 10.6566 37.8653 10.8836 37.665C10.6166 37.4293 10.4473 37.0854 10.4473 36.7011Z" fill="#338DEF"/>
<path d="M15.2986 37.9879C16.0094 37.9879 16.5856 37.4117 16.5856 36.701C16.5856 35.9902 16.0094 35.4141 15.2986 35.4141C14.5879 35.4141 14.0117 35.9902 14.0117 36.701C14.0117 37.4117 14.5879 37.9879 15.2986 37.9879Z" fill="#54A0FF"/>
<path d="M15.7129 36.7011C15.7129 36.3168 15.8822 35.9729 16.1492 35.737C15.9148 35.5289 15.6121 35.4139 15.2986 35.4141C14.5879 35.4141 14.0117 35.9902 14.0117 36.701C14.0117 37.4117 14.5879 37.9879 15.2986 37.9879C15.6251 37.9879 15.9223 37.8653 16.1492 37.665C15.8822 37.4293 15.7129 37.0854 15.7129 36.7011Z" fill="#338DEF"/>
<path d="M4.88848 28.5856C5.59923 28.5856 6.1754 28.0094 6.1754 27.2986C6.1754 26.5879 5.59923 26.0117 4.88848 26.0117C4.17774 26.0117 3.60156 26.5879 3.60156 27.2986C3.60156 28.0094 4.17774 28.5856 4.88848 28.5856Z" fill="#54A0FF"/>
<path d="M5.30274 27.2987C5.30274 26.9145 5.47208 26.5705 5.73907 26.3347C5.50464 26.1265 5.20199 26.0116 4.88848 26.0117C4.17774 26.0117 3.60156 26.5879 3.60156 27.2986C3.60156 28.0094 4.17774 28.5856 4.88848 28.5856C5.21495 28.5856 5.51212 28.463 5.73907 28.2626C5.47208 28.027 5.30274 27.683 5.30274 27.2987Z" fill="#338DEF"/>
<path d="M10.033 28.5856C10.7438 28.5856 11.3199 28.0094 11.3199 27.2986C11.3199 26.5879 10.7438 26.0117 10.033 26.0117C9.32227 26.0117 8.74609 26.5879 8.74609 27.2986C8.74609 28.0094 9.32227 28.5856 10.033 28.5856Z" fill="#54A0FF"/>
<path d="M10.4473 27.2987C10.4473 26.9145 10.6166 26.5705 10.8836 26.3347C10.6492 26.1265 10.3465 26.0116 10.033 26.0117C9.32227 26.0117 8.74609 26.5879 8.74609 27.2986C8.74609 28.0094 9.32227 28.5856 10.033 28.5856C10.3595 28.5856 10.6566 28.463 10.8836 28.2626C10.6166 28.027 10.4473 27.683 10.4473 27.2987Z" fill="#338DEF"/>
<path d="M15.2986 28.5856C16.0094 28.5856 16.5856 28.0094 16.5856 27.2986C16.5856 26.5879 16.0094 26.0117 15.2986 26.0117C14.5879 26.0117 14.0117 26.5879 14.0117 27.2986C14.0117 28.0094 14.5879 28.5856 15.2986 28.5856Z" fill="#54A0FF"/>
<path d="M15.7129 27.2987C15.7129 26.9145 15.8822 26.5705 16.1492 26.3347C15.9148 26.1265 15.6121 26.0116 15.2986 26.0117C14.5879 26.0117 14.0117 26.5879 14.0117 27.2986C14.0117 28.0094 14.5879 28.5856 15.2986 28.5856C15.6251 28.5856 15.9223 28.463 16.1492 28.2626C15.8822 28.027 15.7129 27.683 15.7129 27.2987Z" fill="#338DEF"/>
<path d="M4.88848 19.1598C5.59923 19.1598 6.1754 18.5836 6.1754 17.8729C6.1754 17.1621 5.59923 16.5859 4.88848 16.5859C4.17774 16.5859 3.60156 17.1621 3.60156 17.8729C3.60156 18.5836 4.17774 19.1598 4.88848 19.1598Z" fill="#54A0FF"/>
<path d="M5.30274 17.873C5.30274 17.4887 5.47208 17.1447 5.73907 16.9089C5.50464 16.7007 5.20199 16.5858 4.88848 16.5859C4.17774 16.5859 3.60156 17.1621 3.60156 17.8729C3.60156 18.5836 4.17774 19.1598 4.88848 19.1598C5.21495 19.1598 5.51212 19.0372 5.73907 18.8368C5.47208 18.6012 5.30274 18.2572 5.30274 17.873Z" fill="#338DEF"/>
<path d="M10.033 19.1598C10.7438 19.1598 11.3199 18.5836 11.3199 17.8729C11.3199 17.1621 10.7438 16.5859 10.033 16.5859C9.32227 16.5859 8.74609 17.1621 8.74609 17.8729C8.74609 18.5836 9.32227 19.1598 10.033 19.1598Z" fill="#54A0FF"/>
<path d="M10.4473 17.873C10.4473 17.4887 10.6166 17.1447 10.8836 16.9089C10.6492 16.7007 10.3465 16.5858 10.033 16.5859C9.32227 16.5859 8.74609 17.1621 8.74609 17.8729C8.74609 18.5836 9.32227 19.1598 10.033 19.1598C10.3595 19.1598 10.6566 19.0372 10.8836 18.8368C10.6166 18.6012 10.4473 18.2572 10.4473 17.873Z" fill="#338DEF"/>
<path d="M15.2986 19.1598C16.0094 19.1598 16.5856 18.5836 16.5856 17.8729C16.5856 17.1621 16.0094 16.5859 15.2986 16.5859C14.5879 16.5859 14.0117 17.1621 14.0117 17.8729C14.0117 18.5836 14.5879 19.1598 15.2986 19.1598Z" fill="#54A0FF"/>
<path d="M15.7129 17.873C15.7129 17.4887 15.8822 17.1447 16.1492 16.9089C15.9148 16.7007 15.6121 16.5858 15.2986 16.5859C14.5879 16.5859 14.0117 17.1621 14.0117 17.8729C14.0117 18.5836 14.5879 19.1598 15.2986 19.1598C15.6251 19.1598 15.9223 19.0372 16.1492 18.8368C15.8822 18.6012 15.7129 18.2572 15.7129 17.873Z" fill="#338DEF"/>
<path d="M4.88848 9.75353C5.59923 9.75353 6.1754 9.17735 6.1754 8.46661C6.1754 7.75586 5.59923 7.17969 4.88848 7.17969C4.17774 7.17969 3.60156 7.75586 3.60156 8.46661C3.60156 9.17735 4.17774 9.75353 4.88848 9.75353Z" fill="#54A0FF"/>
<path d="M5.30274 8.4667C5.30274 8.08243 5.47208 7.73848 5.73907 7.50264C5.50464 7.29448 5.20199 7.17957 4.88848 7.17969C4.17774 7.17969 3.60156 7.75586 3.60156 8.46661C3.60156 9.17735 4.17774 9.75353 4.88848 9.75353C5.21495 9.75353 5.51212 9.63097 5.73907 9.43057C5.47208 9.19493 5.30274 8.85098 5.30274 8.4667Z" fill="#338DEF"/>
<path d="M10.033 9.75353C10.7438 9.75353 11.3199 9.17735 11.3199 8.46661C11.3199 7.75586 10.7438 7.17969 10.033 7.17969C9.32227 7.17969 8.74609 7.75586 8.74609 8.46661C8.74609 9.17735 9.32227 9.75353 10.033 9.75353Z" fill="#54A0FF"/>
<path d="M10.4473 8.4667C10.4473 8.08243 10.6166 7.73848 10.8836 7.50264C10.6492 7.29448 10.3465 7.17957 10.033 7.17969C9.32227 7.17969 8.74609 7.75586 8.74609 8.46661C8.74609 9.17735 9.32227 9.75353 10.033 9.75353C10.3595 9.75353 10.6566 9.63097 10.8836 9.43057C10.6166 9.19493 10.4473 8.85098 10.4473 8.4667Z" fill="#338DEF"/>
<path d="M15.2986 9.75353C16.0094 9.75353 16.5856 9.17735 16.5856 8.46661C16.5856 7.75586 16.0094 7.17969 15.2986 7.17969C14.5879 7.17969 14.0117 7.75586 14.0117 8.46661C14.0117 9.17735 14.5879 9.75353 15.2986 9.75353Z" fill="#54A0FF"/>
<path d="M15.7129 8.4667C15.7129 8.08243 15.8822 7.73848 16.1492 7.50264C15.9148 7.29448 15.6121 7.17957 15.2986 7.17969C14.5879 7.17969 14.0117 7.75586 14.0117 8.46661C14.0117 9.17735 14.5879 9.75353 15.2986 9.75353C15.6251 9.75353 15.9223 9.63097 16.1492 9.43057C15.8822 9.19493 15.7129 8.85098 15.7129 8.4667Z" fill="#338DEF"/>
</g>
<defs>
<clipPath id="clip0_2054_821">
<rect width="50" height="50" fill="white"/>
</clipPath>
</defs>
</svg>
