<svg width="40" height="40" viewBox="0 0 40 40" fill="none" xmlns="http://www.w3.org/2000/svg">
<g clip-path="url(#clip0_2312_127)">
<path fill-rule="evenodd" clip-rule="evenodd" d="M27.9549 18.5456C27.447 18.5468 26.944 18.4472 26.4748 18.2527C26.0056 18.0581 25.5797 17.7725 25.2216 17.4123C25.0959 17.2909 24.9275 17.2237 24.7527 17.2252C24.5779 17.2267 24.4107 17.2968 24.2871 17.4204C24.1635 17.544 24.0933 17.7112 24.0918 17.886C24.0903 18.0608 24.1575 18.2292 24.2789 18.355C25.2077 19.2862 26.457 19.8275 27.7716 19.8683C27.9757 20.6014 28.3938 21.257 28.9726 21.7511C29.5513 22.2453 30.2642 22.5556 31.0203 22.6423C31.1947 22.6589 31.3686 22.6062 31.5045 22.4955C31.6403 22.3848 31.7271 22.2251 31.7462 22.051C31.7652 21.8768 31.7148 21.7021 31.6061 21.5648C31.4973 21.4274 31.3388 21.3384 31.1649 21.317C30.7143 21.2649 30.2866 21.0902 29.9284 20.8118C29.5702 20.5334 29.2953 20.1621 29.1336 19.7383C30.2748 19.4714 31.2925 18.8269 32.0214 17.9091C32.7504 16.9914 33.1479 15.8543 33.1496 14.6823C33.1496 14.5055 33.0794 14.3359 32.9543 14.2109C32.8293 14.0859 32.6597 14.0156 32.4829 14.0156C32.3061 14.0156 32.1366 14.0859 32.0115 14.2109C31.8865 14.3359 31.8163 14.5055 31.8163 14.6823C31.8154 15.7063 31.4084 16.6881 30.6845 17.4124C29.9606 18.1367 28.9789 18.5442 27.9549 18.5456ZM30.3583 29.0616C30.3583 29.031 30.3636 29.001 30.3636 28.9703C30.3624 27.6848 29.8512 26.4524 28.9423 25.5434C28.0334 24.6344 26.8011 24.123 25.5156 24.1216C25.3388 24.1216 25.1692 24.1919 25.0442 24.3169C24.9192 24.4419 24.8489 24.6115 24.8489 24.7883C24.8489 24.9651 24.9192 25.1347 25.0442 25.2597C25.1692 25.3847 25.3388 25.455 25.5156 25.455C26.4475 25.456 27.341 25.8267 27.9999 26.4858C28.6588 27.1448 29.0294 28.0384 29.0303 28.9703C29.0289 29.1436 29.0143 29.317 28.9869 29.4876C28.166 29.8834 27.4732 30.5024 26.9878 31.2737C26.5025 32.0451 26.2444 32.9376 26.2429 33.849C26.2429 34.0258 26.3132 34.1953 26.4382 34.3204C26.5632 34.4454 26.7328 34.5156 26.9096 34.5156C27.0864 34.5156 27.256 34.4454 27.381 34.3204C27.506 34.1953 27.5763 34.0258 27.5763 33.849C27.5772 32.917 27.9477 32.0235 28.6066 31.3645C29.2655 30.7054 30.159 30.3347 31.0909 30.3336C31.2678 30.3336 31.4373 30.2634 31.5623 30.1384C31.6874 30.0133 31.7576 29.8438 31.7576 29.667C31.7576 29.4901 31.6874 29.3206 31.5623 29.1956C31.4373 29.0705 31.2678 29.0003 31.0909 29.0003C30.8455 29.0021 30.6006 29.0226 30.3583 29.0616Z" fill="#50AF9B"/>
<path d="M36.6667 9.33381C37.1971 9.33381 37.7058 9.12309 38.0809 8.74802C38.456 8.37295 38.6667 7.86424 38.6667 7.33381V7.21114C39.1115 7.05388 39.4864 6.74443 39.7251 6.33749C39.9638 5.93054 40.051 5.45231 39.9712 4.98732C39.8914 4.52232 39.6498 4.1005 39.2891 3.7964C38.9284 3.49231 38.4718 3.32552 38 3.32552C37.5282 3.32552 37.0716 3.49231 36.7109 3.7964C36.3502 4.1005 36.1086 4.52232 36.0288 4.98732C35.949 5.45231 36.0362 5.93054 36.2749 6.33749C36.5136 6.74443 36.8885 7.05388 37.3333 7.21114V7.33381C37.3333 7.51062 37.2631 7.68019 37.1381 7.80521C37.0131 7.93023 36.8435 8.00047 36.6667 8.00047H32.2853C32.1331 7.5112 31.8837 7.05769 31.552 6.66714H33.3333C33.8638 6.66714 34.3725 6.45643 34.7475 6.08135C35.1226 5.70628 35.3333 5.19757 35.3333 4.66714V3.87781C35.7781 3.72054 36.153 3.41109 36.3918 3.00415C36.6305 2.59721 36.7176 2.11898 36.6379 1.65398C36.5581 1.18899 36.3165 0.767164 35.9558 0.463069C35.5951 0.158974 35.1385 -0.0078125 34.6667 -0.0078125C34.1949 -0.0078125 33.7383 0.158974 33.3776 0.463069C33.0168 0.767164 32.7753 1.18899 32.6955 1.65398C32.6157 2.11898 32.7029 2.59721 32.9416 3.00415C33.1803 3.41109 33.5552 3.72054 34 3.87781V4.66714C34 4.84395 33.9298 5.01352 33.8047 5.13854C33.6797 5.26357 33.5101 5.33381 33.3333 5.33381H29.704C26.3627 2.96047 23.9387 2.20047 22.308 3.03114C22.2013 3.0857 22.0984 3.1474 22 3.21581V2.00047C22 1.47004 21.7893 0.961331 21.4142 0.586259C21.0391 0.211186 20.5304 0.00047225 20 0.00047225C19.4696 0.00047225 18.9609 0.211186 18.5858 0.586259C18.2107 0.961331 18 1.47004 18 2.00047V2.66714H2.66667C1.95942 2.66714 1.28115 2.94809 0.781049 3.44819C0.280952 3.94828 0 4.62656 0 5.33381L0 34.6671C0 35.3744 0.280952 36.0527 0.781049 36.5528C1.28115 37.0529 1.95942 37.3338 2.66667 37.3338H18V38.0005C18 38.5309 18.2107 39.0396 18.5858 39.4147C18.9609 39.7898 19.4696 40.0005 20 40.0005C20.5304 40.0005 21.0391 39.7898 21.4142 39.4147C21.7893 39.0396 22 38.5309 22 38.0005V36.2671C22.5601 36.8948 23.2644 37.3768 24.0523 37.6716C24.8402 37.9664 25.6879 38.0651 26.5224 37.9593C27.357 37.8535 28.1532 37.5462 28.8426 37.0641C29.5319 36.582 30.0937 35.9394 30.4793 35.1918C31.0769 35.1337 31.6566 34.9552 32.1833 34.6671H33.3333C33.5101 34.6671 33.6797 34.7374 33.8047 34.8624C33.9298 34.9874 34 35.157 34 35.3338V36.1231C33.5552 36.2804 33.1803 36.5899 32.9416 36.9968C32.7029 37.4037 32.6157 37.882 32.6955 38.347C32.7753 38.812 33.0168 39.2338 33.3776 39.5379C33.7383 39.842 34.1949 40.0088 34.6667 40.0088C35.1385 40.0088 35.5951 39.842 35.9558 39.5379C36.3165 39.2338 36.5581 38.812 36.6379 38.347C36.7176 37.882 36.6305 37.4037 36.3918 36.9968C36.153 36.5899 35.7781 36.2804 35.3333 36.1231V35.3338C35.332 34.8632 35.1647 34.4081 34.861 34.0486C34.5573 33.6892 34.1365 33.4483 33.6727 33.3685C33.9773 32.955 34.2086 32.4923 34.3567 32.0005H36.6667C36.8435 32.0005 37.0131 32.0707 37.1381 32.1957C37.2631 32.3208 37.3333 32.4903 37.3333 32.6671V32.7898C36.8885 32.9471 36.5136 33.2565 36.2749 33.6635C36.0362 34.0704 35.949 34.5486 36.0288 35.0136C36.1086 35.4786 36.3502 35.9005 36.7109 36.2045C37.0716 36.5086 37.5282 36.6754 38 36.6754C38.4718 36.6754 38.9284 36.5086 39.2891 36.2045C39.6498 35.9005 39.8914 35.4786 39.9712 35.0136C40.051 34.5486 39.9638 34.0704 39.7251 33.6635C39.4864 33.2565 39.1115 32.9471 38.6667 32.7898V32.6671C38.6667 32.1367 38.456 31.628 38.0809 31.2529C37.7058 30.8779 37.1971 30.6671 36.6667 30.6671H34.5427C34.5393 30.259 34.4803 29.8533 34.3673 29.4611C35.2224 29.2036 35.9722 28.6782 36.5062 27.9624C37.0402 27.2466 37.3301 26.3782 37.3333 25.4851C37.3355 24.4607 36.9551 23.4724 36.2667 22.7138C37.0273 21.7228 37.4039 20.4902 37.3268 19.2433C37.2497 17.9965 36.7242 16.8196 35.8473 15.9298C36.0942 14.7119 35.8566 13.4457 35.1851 12.4002C34.5135 11.3546 33.4609 10.6119 32.2507 10.3298C32.3573 10.0078 32.42 9.67247 32.438 9.33381H36.6667ZM38 4.66714C38.1768 4.66714 38.3464 4.73738 38.4714 4.8624C38.5964 4.98743 38.6667 5.15699 38.6667 5.33381C38.6667 5.51062 38.5964 5.68019 38.4714 5.80521C38.3464 5.93023 38.1768 6.00047 38 6.00047C37.8232 6.00047 37.6536 5.93023 37.5286 5.80521C37.4036 5.68019 37.3333 5.51062 37.3333 5.33381C37.3333 5.15699 37.4036 4.98743 37.5286 4.8624C37.6536 4.73738 37.8232 4.66714 38 4.66714ZM34.6667 1.33381C34.8435 1.33381 35.0131 1.40404 35.1381 1.52907C35.2631 1.65409 35.3333 1.82366 35.3333 2.00047C35.3333 2.17728 35.2631 2.34685 35.1381 2.47188C35.0131 2.5969 34.8435 2.66714 34.6667 2.66714C34.4899 2.66714 34.3203 2.5969 34.1953 2.47188C34.0702 2.34685 34 2.17728 34 2.00047C34 1.82366 34.0702 1.65409 34.1953 1.52907C34.3203 1.40404 34.4899 1.33381 34.6667 1.33381ZM34.6667 38.6671C34.4899 38.6671 34.3203 38.5969 34.1953 38.4719C34.0702 38.3469 34 38.1773 34 38.0005C34 37.8237 34.0702 37.6541 34.1953 37.5291C34.3203 37.404 34.4899 37.3338 34.6667 37.3338C34.8435 37.3338 35.0131 37.404 35.1381 37.5291C35.2631 37.6541 35.3333 37.8237 35.3333 38.0005C35.3333 38.1773 35.2631 38.3469 35.1381 38.4719C35.0131 38.5969 34.8435 38.6671 34.6667 38.6671ZM38 35.3338C37.8232 35.3338 37.6536 35.2636 37.5286 35.1385C37.4036 35.0135 37.3333 34.844 37.3333 34.6671C37.3333 34.4903 37.4036 34.3208 37.5286 34.1957C37.6536 34.0707 37.8232 34.0005 38 34.0005C38.1768 34.0005 38.3464 34.0707 38.4714 34.1957C38.5964 34.3208 38.6667 34.4903 38.6667 34.6671C38.6667 34.844 38.5964 35.0135 38.4714 35.1385C38.3464 35.2636 38.1768 35.3338 38 35.3338ZM2.66667 36.0005C2.31304 36.0005 1.97391 35.86 1.72386 35.61C1.47381 35.3599 1.33333 35.0208 1.33333 34.6671V5.33381C1.33333 4.98018 1.47381 4.64105 1.72386 4.391C1.97391 4.14095 2.31304 4.00047 2.66667 4.00047H18V36.0005H2.66667ZM20.6667 38.0005C20.6667 38.1773 20.5964 38.3469 20.4714 38.4719C20.3464 38.5969 20.1768 38.6671 20 38.6671C19.8232 38.6671 19.6536 38.5969 19.5286 38.4719C19.4036 38.3469 19.3333 38.1773 19.3333 38.0005V2.00047C19.3333 1.82366 19.4036 1.65409 19.5286 1.52907C19.6536 1.40404 19.8232 1.33381 20 1.33381C20.1768 1.33381 20.3464 1.40404 20.4714 1.52907C20.5964 1.65409 20.6667 1.82366 20.6667 2.00047V38.0005ZM34.606 15.0305C34.6053 15.3499 34.5618 15.6679 34.4767 15.9758C34.4273 16.2225 34.5033 16.4758 34.6807 16.6545C35.2736 17.1717 35.6943 17.8577 35.8865 18.6206C36.0788 19.3836 36.0333 20.187 35.7562 20.9234C35.4791 21.6598 34.9837 22.2939 34.3362 22.7409C33.6887 23.1879 32.9201 23.4264 32.1333 23.4245C31.9565 23.4245 31.787 23.4947 31.6619 23.6197C31.5369 23.7448 31.4667 23.9143 31.4667 24.0911C31.4667 24.268 31.5369 24.4375 31.6619 24.5625C31.787 24.6876 31.9565 24.7578 32.1333 24.7578C33.288 24.7604 34.4102 24.3764 35.3213 23.6671C35.7581 24.1723 35.9989 24.8174 36 25.4851C35.998 26.1939 35.7296 26.876 35.2479 27.396C34.7662 27.916 34.1066 28.2357 33.4 28.2918C33.2893 28.2999 33.1825 28.3355 33.089 28.3953C32.9956 28.4551 32.9186 28.5373 32.865 28.6345C32.8113 28.7316 32.7828 28.8406 32.7819 28.9515C32.7811 29.0625 32.8079 29.1719 32.86 29.2698C33.094 29.7145 33.216 30.2098 33.214 30.7125C33.2131 31.5521 32.8792 32.357 32.2855 32.9507C31.6919 33.5443 30.8869 33.8783 30.0473 33.8791C29.9159 33.8793 29.7874 33.9182 29.678 33.9912C29.5686 34.0642 29.4833 34.1678 29.4327 34.2891C29.1641 34.9359 28.725 35.4976 28.1622 35.9143C27.5993 36.3309 26.9339 36.5869 26.2369 36.6549C25.5399 36.7229 24.8376 36.6003 24.2048 36.3002C23.5721 36.0002 23.0327 35.5339 22.6442 34.9512C22.2558 34.3685 22.0329 33.6913 21.9993 32.9918C21.9658 32.2923 22.1228 31.5969 22.4537 30.9797C22.7845 30.3624 23.2768 29.8467 23.8779 29.4874C24.479 29.1282 25.1664 28.9389 25.8667 28.9398C26.0435 28.9398 26.213 28.8696 26.3381 28.7445C26.4631 28.6195 26.5333 28.45 26.5333 28.2731C26.5333 28.0963 26.4631 27.9268 26.3381 27.8017C26.213 27.6767 26.0435 27.6065 25.8667 27.6065C25.1364 27.6065 24.4144 27.761 23.748 28.0597C23.0816 28.3585 22.4859 28.7947 22 29.3398V16.4245C22.0004 16.0469 22.1505 15.6849 22.4175 15.4179C22.6844 15.151 23.0464 15.0008 23.424 15.0005C23.6008 15.0005 23.7704 14.9302 23.8954 14.8052C24.0204 14.6802 24.0907 14.5106 24.0907 14.3338C24.0907 14.157 24.0204 13.9874 23.8954 13.8624C23.7704 13.7374 23.6008 13.6671 23.424 13.6671C22.9208 13.6695 22.4281 13.8107 22 14.0751V5.97314C22 5.96047 22.0233 4.66447 22.9167 4.21781C23.4753 3.93781 24.7713 3.81247 27.5087 5.47981C26.7377 5.72367 26.0644 6.20656 25.5862 6.85858C25.108 7.51059 24.8497 8.29788 24.8487 9.10647C24.8487 9.28328 24.9189 9.45285 25.0439 9.57788C25.169 9.7029 25.3385 9.77314 25.5153 9.77314C25.6921 9.77314 25.8617 9.7029 25.9867 9.57788C26.1118 9.45285 26.182 9.28328 26.182 9.10647C26.1832 8.73582 26.2679 8.37021 26.4299 8.0368C26.5918 7.7034 26.8268 7.41078 27.1174 7.18068C27.408 6.95059 27.7467 6.78894 28.1083 6.70775C28.47 6.62657 28.8453 6.62792 29.2064 6.71172C29.5674 6.79553 29.9049 6.95962 30.1939 7.19181C30.4828 7.424 30.7156 7.71831 30.8752 8.05288C31.0347 8.38745 31.1168 8.75366 31.1153 9.12431C31.1138 9.49496 31.0288 9.86052 30.8667 10.1938C29.6219 10.2514 28.447 10.7858 27.5857 11.6863C26.7244 12.5869 26.2428 13.7844 26.2407 15.0305C26.2407 15.2073 26.3109 15.3769 26.4359 15.5019C26.561 15.6269 26.7305 15.6971 26.9073 15.6971C27.0841 15.6971 27.2537 15.6269 27.3787 15.5019C27.5038 15.3769 27.574 15.2073 27.574 15.0305C27.5867 14.1066 27.9627 13.2249 28.6205 12.5761C29.2783 11.9273 30.1651 11.5635 31.089 11.5635C32.0129 11.5635 32.8997 11.9273 33.5575 12.5761C34.2153 13.2249 34.5913 14.1066 34.604 15.0305H34.606Z" fill="#50AF9B"/>
<path fill-rule="evenodd" clip-rule="evenodd" d="M3.73366 5.46536C3.66362 5.41284 3.58392 5.37462 3.49912 5.35289C3.41431 5.33116 3.32605 5.32635 3.23938 5.33873C3.15271 5.35111 3.06933 5.38044 2.994 5.42505C2.91867 5.46965 2.85286 5.52866 2.80033 5.5987C2.7478 5.66874 2.70958 5.74843 2.68785 5.83324C2.66612 5.91805 2.66131 6.00631 2.6737 6.09298C2.68608 6.17965 2.71541 6.26303 2.76001 6.33836C2.80462 6.41369 2.86362 6.4795 2.93366 6.53203L4.889 7.9987L2.93366 9.46536C2.79221 9.57145 2.6987 9.72938 2.6737 9.90442C2.64869 10.0795 2.69424 10.2572 2.80033 10.3987C2.90641 10.5401 3.06435 10.6337 3.23938 10.6587C3.41441 10.6837 3.59221 10.6381 3.73366 10.532L6.40033 8.53203C6.48313 8.46993 6.55033 8.38941 6.59661 8.29684C6.6429 8.20427 6.667 8.10219 6.667 7.9987C6.667 7.8952 6.6429 7.79313 6.59661 7.70056C6.55033 7.60799 6.48313 7.52746 6.40033 7.46536L3.73366 5.46536ZM8.667 10.6654H11.3337C11.5105 10.6654 11.68 10.5951 11.8051 10.4701C11.9301 10.3451 12.0003 10.1755 12.0003 9.9987C12.0003 9.82189 11.9301 9.65232 11.8051 9.52729C11.68 9.40227 11.5105 9.33203 11.3337 9.33203H8.667C8.49018 9.33203 8.32062 9.40227 8.19559 9.52729C8.07057 9.65232 8.00033 9.82189 8.00033 9.9987C8.00033 10.1755 8.07057 10.3451 8.19559 10.4701C8.32062 10.5951 8.49018 10.6654 8.667 10.6654ZM5.33366 13.332H3.33366C3.15685 13.332 2.98728 13.4023 2.86226 13.5273C2.73723 13.6523 2.667 13.8219 2.667 13.9987C2.667 14.1755 2.73723 14.3451 2.86226 14.4701C2.98728 14.5951 3.15685 14.6654 3.33366 14.6654H5.33366C5.51047 14.6654 5.68004 14.5951 5.80507 14.4701C5.93009 14.3451 6.00033 14.1755 6.00033 13.9987C6.00033 13.8219 5.93009 13.6523 5.80507 13.5273C5.68004 13.4023 5.51047 13.332 5.33366 13.332ZM5.33366 15.9987H3.33366C3.15685 15.9987 2.98728 16.0689 2.86226 16.194C2.73723 16.319 2.667 16.4886 2.667 16.6654C2.667 16.8422 2.73723 17.0117 2.86226 17.1368C2.98728 17.2618 3.15685 17.332 3.33366 17.332H5.33366C5.51047 17.332 5.68004 17.2618 5.80507 17.1368C5.93009 17.0117 6.00033 16.8422 6.00033 16.6654C6.00033 16.4886 5.93009 16.319 5.80507 16.194C5.68004 16.0689 5.51047 15.9987 5.33366 15.9987ZM5.33366 18.6654H3.33366C3.15685 18.6654 2.98728 18.7356 2.86226 18.8606C2.73723 18.9857 2.667 19.1552 2.667 19.332C2.667 19.5088 2.73723 19.6784 2.86226 19.8034C2.98728 19.9285 3.15685 19.9987 3.33366 19.9987H5.33366C5.51047 19.9987 5.68004 19.9285 5.80507 19.8034C5.93009 19.6784 6.00033 19.5088 6.00033 19.332C6.00033 19.1552 5.93009 18.9857 5.80507 18.8606C5.68004 18.7356 5.51047 18.6654 5.33366 18.6654ZM5.33366 21.332H3.33366C3.15685 21.332 2.98728 21.4023 2.86226 21.5273C2.73723 21.6523 2.667 21.8219 2.667 21.9987C2.667 22.1755 2.73723 22.3451 2.86226 22.4701C2.98728 22.5951 3.15685 22.6654 3.33366 22.6654H5.33366C5.51047 22.6654 5.68004 22.5951 5.80507 22.4701C5.93009 22.3451 6.00033 22.1755 6.00033 21.9987C6.00033 21.8219 5.93009 21.6523 5.80507 21.5273C5.68004 21.4023 5.51047 21.332 5.33366 21.332ZM5.33366 23.9987H3.33366C3.15685 23.9987 2.98728 24.0689 2.86226 24.194C2.73723 24.319 2.667 24.4886 2.667 24.6654C2.667 24.8422 2.73723 25.0117 2.86226 25.1368C2.98728 25.2618 3.15685 25.332 3.33366 25.332H5.33366C5.51047 25.332 5.68004 25.2618 5.80507 25.1368C5.93009 25.0117 6.00033 24.8422 6.00033 24.6654C6.00033 24.4886 5.93009 24.319 5.80507 24.194C5.68004 24.0689 5.51047 23.9987 5.33366 23.9987ZM5.33366 26.6654H3.33366C3.15685 26.6654 2.98728 26.7356 2.86226 26.8606C2.73723 26.9857 2.667 27.1552 2.667 27.332C2.667 27.5088 2.73723 27.6784 2.86226 27.8034C2.98728 27.9285 3.15685 27.9987 3.33366 27.9987H5.33366C5.51047 27.9987 5.68004 27.9285 5.80507 27.8034C5.93009 27.6784 6.00033 27.5088 6.00033 27.332C6.00033 27.1552 5.93009 26.9857 5.80507 26.8606C5.68004 26.7356 5.51047 26.6654 5.33366 26.6654ZM5.33366 29.332H3.33366C3.15685 29.332 2.98728 29.4023 2.86226 29.5273C2.73723 29.6523 2.667 29.8219 2.667 29.9987C2.667 30.1755 2.73723 30.3451 2.86226 30.4701C2.98728 30.5951 3.15685 30.6654 3.33366 30.6654H5.33366C5.51047 30.6654 5.68004 30.5951 5.80507 30.4701C5.93009 30.3451 6.00033 30.1755 6.00033 29.9987C6.00033 29.8219 5.93009 29.6523 5.80507 29.5273C5.68004 29.4023 5.51047 29.332 5.33366 29.332ZM5.33366 31.9987H3.33366C3.15685 31.9987 2.98728 32.0689 2.86226 32.194C2.73723 32.319 2.667 32.4886 2.667 32.6654C2.667 32.8422 2.73723 33.0117 2.86226 33.1368C2.98728 33.2618 3.15685 33.332 3.33366 33.332H5.33366C5.51047 33.332 5.68004 33.2618 5.80507 33.1368C5.93009 33.0117 6.00033 32.8422 6.00033 32.6654C6.00033 32.4886 5.93009 32.319 5.80507 32.194C5.68004 32.0689 5.51047 31.9987 5.33366 31.9987ZM16.0003 13.332H8.00033C7.82352 13.332 7.65395 13.4023 7.52892 13.5273C7.4039 13.6523 7.33366 13.8219 7.33366 13.9987C7.33366 14.1755 7.4039 14.3451 7.52892 14.4701C7.65395 14.5951 7.82352 14.6654 8.00033 14.6654H16.0003C16.1771 14.6654 16.3467 14.5951 16.4717 14.4701C16.5968 14.3451 16.667 14.1755 16.667 13.9987C16.667 13.8219 16.5968 13.6523 16.4717 13.5273C16.3467 13.4023 16.1771 13.332 16.0003 13.332ZM14.667 17.332C14.8438 17.332 15.0134 17.2618 15.1384 17.1368C15.2634 17.0117 15.3337 16.8422 15.3337 16.6654C15.3337 16.4886 15.2634 16.319 15.1384 16.194C15.0134 16.0689 14.8438 15.9987 14.667 15.9987H9.33366C9.15685 15.9987 8.98728 16.0689 8.86226 16.194C8.73723 16.319 8.667 16.4886 8.667 16.6654C8.667 16.8422 8.73723 17.0117 8.86226 17.1368C8.98728 17.2618 9.15685 17.332 9.33366 17.332H14.667ZM16.0003 18.6654H8.00033C7.82352 18.6654 7.65395 18.7356 7.52892 18.8606C7.4039 18.9857 7.33366 19.1552 7.33366 19.332C7.33366 19.5088 7.4039 19.6784 7.52892 19.8034C7.65395 19.9285 7.82352 19.9987 8.00033 19.9987H16.0003C16.1771 19.9987 16.3467 19.9285 16.4717 19.8034C16.5968 19.6784 16.667 19.5088 16.667 19.332C16.667 19.1552 16.5968 18.9857 16.4717 18.8606C16.3467 18.7356 16.1771 18.6654 16.0003 18.6654ZM14.667 22.6654C14.8438 22.6654 15.0134 22.5951 15.1384 22.4701C15.2634 22.3451 15.3337 22.1755 15.3337 21.9987C15.3337 21.8219 15.2634 21.6523 15.1384 21.5273C15.0134 21.4023 14.8438 21.332 14.667 21.332H9.33366C9.15685 21.332 8.98728 21.4023 8.86226 21.5273C8.73723 21.6523 8.667 21.8219 8.667 21.9987C8.667 22.1755 8.73723 22.3451 8.86226 22.4701C8.98728 22.5951 9.15685 22.6654 9.33366 22.6654H14.667ZM16.0003 23.9987H8.00033C7.82352 23.9987 7.65395 24.0689 7.52892 24.194C7.4039 24.319 7.33366 24.4886 7.33366 24.6654C7.33366 24.8422 7.4039 25.0117 7.52892 25.1368C7.65395 25.2618 7.82352 25.332 8.00033 25.332H16.0003C16.1771 25.332 16.3467 25.2618 16.4717 25.1368C16.5968 25.0117 16.667 24.8422 16.667 24.6654C16.667 24.4886 16.5968 24.319 16.4717 24.194C16.3467 24.0689 16.1771 23.9987 16.0003 23.9987ZM14.667 27.9987C14.8438 27.9987 15.0134 27.9285 15.1384 27.8034C15.2634 27.6784 15.3337 27.5088 15.3337 27.332C15.3337 27.1552 15.2634 26.9857 15.1384 26.8606C15.0134 26.7356 14.8438 26.6654 14.667 26.6654H9.33366C9.15685 26.6654 8.98728 26.7356 8.86226 26.8606C8.73723 26.9857 8.667 27.1552 8.667 27.332C8.667 27.5088 8.73723 27.6784 8.86226 27.8034C8.98728 27.9285 9.15685 27.9987 9.33366 27.9987H14.667ZM16.0003 29.332H8.00033C7.82352 29.332 7.65395 29.4023 7.52892 29.5273C7.4039 29.6523 7.33366 29.8219 7.33366 29.9987C7.33366 30.1755 7.4039 30.3451 7.52892 30.4701C7.65395 30.5951 7.82352 30.6654 8.00033 30.6654H16.0003C16.1771 30.6654 16.3467 30.5951 16.4717 30.4701C16.5968 30.3451 16.667 30.1755 16.667 29.9987C16.667 29.8219 16.5968 29.6523 16.4717 29.5273C16.3467 29.4023 16.1771 29.332 16.0003 29.332ZM14.667 31.9987H9.33366C9.15685 31.9987 8.98728 32.0689 8.86226 32.194C8.73723 32.319 8.667 32.4886 8.667 32.6654C8.667 32.8422 8.73723 33.0117 8.86226 33.1368C8.98728 33.2618 9.15685 33.332 9.33366 33.332H14.667C14.8438 33.332 15.0134 33.2618 15.1384 33.1368C15.2634 33.0117 15.3337 32.8422 15.3337 32.6654C15.3337 32.4886 15.2634 32.319 15.1384 32.194C15.0134 32.0689 14.8438 31.9987 14.667 31.9987Z" fill="#50AF9B"/>
</g>
<defs>
<clipPath id="clip0_2312_127">
<rect width="40" height="40" fill="white"/>
</clipPath>
</defs>
</svg>
