<svg width="40" height="40" viewBox="0 0 40 40" fill="none" xmlns="http://www.w3.org/2000/svg">
<g clip-path="url(#clip0_2312_133)">
<path fill-rule="evenodd" clip-rule="evenodd" d="M16.655 4.63242C16.9985 4.49972 17.1693 4.11376 17.0366 3.7703C16.9039 3.42685 16.5179 3.25604 16.1744 3.38874C12.0708 4.99063 9.36161 8.93637 9.34082 13.3416C9.34082 13.7097 9.63921 14.0081 10.0073 14.0081C10.3755 14.0081 10.6738 13.7097 10.6738 13.3416C10.6925 9.48652 13.0637 6.03392 16.655 4.63242Z" fill="#50AF9B"/>
<path d="M17.2872 9.08572C17.2365 8.96432 17.1511 8.86061 17.0416 8.78766C16.9322 8.71471 16.8036 8.67578 16.672 8.67578C16.5405 8.67578 16.4119 8.71471 16.3024 8.78766C16.1929 8.86061 16.1075 8.96432 16.0569 9.08572L12.7244 17.0837C12.5827 17.4235 12.7432 17.8138 13.083 17.9555C13.4228 18.0972 13.8131 17.9367 13.9547 17.5969L14.8945 15.3408H18.4497L19.3894 17.5969C19.4401 17.7183 19.5255 17.822 19.635 17.8949C19.7444 17.9679 19.873 18.0068 20.0046 18.0068C20.1143 18.0068 20.2224 17.9797 20.3192 17.928C20.4159 17.8762 20.4984 17.8013 20.5593 17.71C20.6202 17.6186 20.6575 17.5137 20.6681 17.4044C20.6786 17.2952 20.662 17.185 20.6197 17.0837L17.2872 9.08572ZM15.4503 14.0078L16.672 11.0752L17.8937 14.0078H15.4503Z" fill="#50AF9B"/>
<path fill-rule="evenodd" clip-rule="evenodd" d="M26.0034 10.0088C26.3715 10.0088 26.6699 9.71041 26.6699 9.34229C26.6699 8.97417 26.3715 8.67578 26.0034 8.67578H22.0044C21.6363 8.67578 21.3379 8.97417 21.3379 9.34229C21.3379 9.71041 21.6363 10.0088 22.0044 10.0088H23.3374V16.6738H22.0044C21.6363 16.6738 21.3379 16.9722 21.3379 17.3403C21.3379 17.7084 21.6363 18.0068 22.0044 18.0068H26.0034C26.3715 18.0068 26.6699 17.7084 26.6699 17.3403C26.6699 16.9722 26.3715 16.6738 26.0034 16.6738H24.6704V10.0088H26.0034Z" fill="#50AF9B"/>
<path d="M37.334 10.674C36.122 10.6785 35.0657 11.4999 34.7626 12.6734H33.317C33.3047 12.4121 33.2851 12.1512 33.2583 11.8909C33.1404 10.7908 32.8835 9.71001 32.4939 8.67442H34.668C35.7723 8.67442 36.6675 7.77925 36.6675 6.67495V5.24734C37.9674 4.91169 38.8149 3.66191 38.6458 2.33007C38.4766 0.998291 37.3435 0 36.001 0C34.6585 0 33.5254 0.998291 33.3563 2.33007C33.1871 3.66191 34.0347 4.91169 35.3346 5.24734V6.67495C35.3346 7.04307 35.0362 7.34146 34.668 7.34146H31.9047C29.6424 2.84512 25.0388 0.007937 20.0054 0.007937C14.9719 0.007937 10.3684 2.84512 8.10598 7.34146H5.342C4.97388 7.34146 4.67549 7.04307 4.67549 6.67495V5.24734C5.97538 4.91169 6.82287 3.66191 6.65377 2.33007C6.48466 0.998226 5.35151 0 4.00904 0C2.66657 0 1.53348 0.998291 1.36431 2.33007C1.19514 3.66184 2.0427 4.91169 3.34259 5.24734V6.67495C3.34259 7.77925 4.23777 8.67442 5.34206 8.67442H7.52349C7.04275 9.95681 6.76265 11.3057 6.69306 12.6734H5.24734C4.91169 11.3735 3.66191 10.526 2.33007 10.6951C0.998226 10.8642 0 11.9975 0 13.34C0 14.6825 0.998291 15.8156 2.33007 15.9847C3.66184 16.1539 4.91176 15.3063 5.24734 14.0065H6.69299C6.76168 15.3743 7.04135 16.7232 7.52211 18.0055H5.342C4.2377 18.0055 3.34253 18.9007 3.34253 20.005V21.4326C2.04263 21.7682 1.19514 23.018 1.36425 24.3499C1.53342 25.6816 2.6665 26.6799 4.00897 26.6799C5.35144 26.6799 6.48453 25.6816 6.6537 24.3499C6.82287 23.018 5.97532 21.7682 4.67542 21.4326V20.005C4.67542 19.6369 4.97381 19.3385 5.34193 19.3385H8.1046C8.88263 20.8863 9.95532 22.2673 11.2625 23.4041C12.1415 24.1913 12.8413 25.1579 13.3147 26.2387C13.7881 27.3196 14.024 28.4894 14.0064 29.6692V30.669H12.6734C11.5691 30.669 10.674 31.5641 10.674 32.6684C10.674 33.7727 11.5691 34.6679 12.6734 34.6679H14.0064C14.0091 35.9071 14.8652 36.9811 16.0726 37.2599C16.4099 38.8155 18.0428 39.9999 20.005 39.9999C21.9671 39.9999 23.6001 38.8155 23.9373 37.2599C25.1448 36.9811 26.0009 35.9071 26.0035 34.6679H27.3365C28.4408 34.6679 29.336 33.7727 29.336 32.6684C29.336 31.5641 28.4408 30.669 27.3365 30.669H26.0035V29.6026C25.9861 28.4389 26.2195 27.2852 26.688 26.2198C27.1564 25.1545 27.8489 24.2025 28.7182 23.4288C30.0364 22.2875 31.1167 20.8976 31.8974 19.3385H34.668C35.0362 19.3385 35.3346 19.6369 35.3346 20.005V21.4326C34.0347 21.7682 33.1872 23.018 33.3563 24.3499C33.5254 25.6816 34.6585 26.6799 36.001 26.6799C37.3435 26.6799 38.4766 25.6816 38.6457 24.3499C38.8149 23.018 37.9673 21.7682 36.6674 21.4326V20.005C36.6674 18.9007 35.7723 18.0055 34.668 18.0055H32.4805C32.9593 16.7227 33.2387 15.374 33.309 14.0065H34.7626C35.1113 15.3446 36.4267 16.1927 37.7894 15.9581C39.1521 15.7235 40.1082 14.4844 39.9894 13.1068C39.8707 11.7291 38.7168 10.6719 37.334 10.674ZM34.668 2.67602C34.668 1.93984 35.2648 1.34299 36.0011 1.34299C36.7373 1.34299 37.3341 1.93978 37.3341 2.67602C37.3341 3.41226 36.7373 4.00904 36.0011 4.00904C35.2648 4.00904 34.668 3.41219 34.668 2.67602ZM2.67602 2.67602C2.67602 1.93984 3.2728 1.34299 4.00904 1.34299C4.74528 1.34299 5.34206 1.93978 5.34206 2.67602C5.34206 3.41226 4.74528 4.00904 4.00904 4.00904C3.6555 4.00904 3.31644 3.8686 3.06645 3.61861C2.81646 3.36862 2.67602 3.02956 2.67602 2.67602ZM5.342 24.004C5.342 24.7402 4.74521 25.337 4.00897 25.337C3.27273 25.337 2.67602 24.7402 2.67602 24.004C2.67602 23.2678 3.2728 22.671 4.00904 22.671C4.74528 22.671 5.342 23.2678 5.342 24.004ZM37.334 24.004C37.334 24.7402 36.7372 25.337 36.001 25.337C35.2648 25.337 34.668 24.7402 34.668 24.004C34.668 23.2677 35.2648 22.671 36.001 22.671C36.7372 22.671 37.334 23.2678 37.334 24.004ZM2.67602 14.673C1.93984 14.673 1.34299 14.0762 1.34299 13.3399C1.34299 12.6038 1.93978 12.0069 2.67602 12.0069C3.41226 12.0069 4.00904 12.6037 4.00904 13.3399C4.00904 14.0762 3.41219 14.673 2.67602 14.673ZM24.6705 30.0025V32.0019H15.3395V30.0025H24.6705ZM12.6735 33.335C12.3054 33.335 12.007 33.0366 12.007 32.6684C12.007 32.3003 12.3054 32.0019 12.6735 32.0019H14.0065V33.335H12.6735ZM20.005 38.667C19.5057 38.696 19.0081 38.587 18.5668 38.3518C18.1254 38.1167 17.7573 37.7645 17.5029 37.334H22.507C22.2526 37.7645 21.8846 38.1167 21.4432 38.3518C21.0018 38.587 20.5042 38.696 20.005 38.667ZM24.6705 34.668C24.6705 35.4041 24.0737 36.001 23.3375 36.001H16.6725C15.9363 36.001 15.3395 35.4042 15.3395 34.668V33.335H24.6705V34.668ZM27.3365 32.002C27.7047 32.002 28.0031 32.3004 28.0031 32.6685C28.0031 33.0366 27.7047 33.335 27.3365 33.335H26.0035V32.002H27.3365ZM27.8477 22.417C26.0341 24.0172 24.9123 26.2587 24.7185 28.6695H15.2888C15.0808 26.2513 13.9523 24.0053 12.1363 22.3951C10.8513 21.2787 9.81864 19.9018 9.10682 18.3556C8.39501 16.8094 8.02035 15.1295 8.00774 13.4274C7.99513 11.7253 8.34487 10.04 9.0337 8.4835C9.72254 6.92697 10.7347 5.53484 12.003 4.39959C14.192 2.42307 17.039 1.33328 19.9883 1.34299C20.4497 1.34291 20.9107 1.36827 21.3693 1.41895C25.5095 1.89648 29.1064 4.48546 30.8736 8.25993L30.8803 8.27593C31.4384 9.46044 31.795 10.7298 31.9354 12.0316C32.356 15.954 30.829 19.8337 27.8477 22.417ZM37.334 14.673C36.5978 14.673 36.001 14.0762 36.001 13.3399C36.001 12.6038 36.5978 12.0069 37.334 12.0069C38.0703 12.0069 38.667 12.6037 38.667 13.3399C38.667 14.0762 38.0702 14.673 37.334 14.673Z" fill="#50AF9B"/>
</g>
<defs>
<clipPath id="clip0_2312_133">
<rect width="40" height="40" fill="white"/>
</clipPath>
</defs>
</svg>
