<svg width="40" height="40" viewBox="0 0 40 40" fill="none" xmlns="http://www.w3.org/2000/svg">
<g clip-path="url(#clip0_2312_199)">
<path d="M3.33367 33.6693C3.70187 33.6693 4.00035 33.3708 4.00035 33.0026C4.00035 32.6344 3.70187 32.3359 3.33367 32.3359C2.96547 32.3359 2.66699 32.6344 2.66699 33.0026C2.66699 33.3708 2.96547 33.6693 3.33367 33.6693Z" fill="#50AF9B"/>
<path d="M6.00066 33.6693C6.36886 33.6693 6.66734 33.3708 6.66734 33.0026C6.66734 32.6344 6.36886 32.3359 6.00066 32.3359C5.63247 32.3359 5.33398 32.6344 5.33398 33.0026C5.33398 33.3708 5.63247 33.6693 6.00066 33.6693Z" fill="#50AF9B"/>
<path fill-rule="evenodd" clip-rule="evenodd" d="M10 32.3359H8.66668C8.29847 32.3359 8 32.6344 8 33.0026C8 33.3708 8.29847 33.6693 8.66668 33.6693H10C10.3682 33.6693 10.6667 33.3708 10.6667 33.0026C10.6667 32.6344 10.3682 32.3359 10 32.3359Z" fill="#50AF9B"/>
<path d="M38.6667 29.7906V6.33462C38.6667 4.86184 37.4728 3.66797 36.0001 3.66797H4.00001C2.52722 3.66797 1.33336 4.8619 1.33336 6.33462V29.7906C0.944749 29.928 0.608079 30.1821 0.369406 30.5181C0.130732 30.8542 0.00171375 31.2558 0 31.6679L0 32.3346C0.00223079 34.5428 1.79179 36.3324 4.00001 36.3346H36.0001C38.2083 36.3324 39.9978 34.5428 40.0001 32.3346V31.6679C39.9983 31.2558 39.8693 30.8542 39.6306 30.5182C39.392 30.1821 39.0553 29.928 38.6667 29.7906ZM2.66665 6.33462C2.66665 5.59826 3.26358 5.00126 4.00001 5.00126H36.0001C36.7364 5.00126 37.3334 5.59819 37.3334 6.33462V29.668H20.6667V29.0013C20.6667 27.5285 19.4728 26.3347 18.0001 26.3347H17.3334V25.0013H21.3334C22.8062 25.0013 24 23.8074 24 22.3346V15.0013C24 13.5285 22.8061 12.3347 21.3334 12.3347H14.6667V10.212C15.585 9.88729 16.1359 8.94819 15.9712 7.98816C15.8065 7.02813 14.9741 6.32635 14.0001 6.32635C13.026 6.32635 12.1936 7.02813 12.0289 7.98816C11.8642 8.94819 12.4151 9.88729 13.3334 10.212V12.3347H6.66666C5.19387 12.3347 4.00001 13.5286 4.00001 15.0013V22.3346C4.00001 23.8074 5.19394 25.0013 6.66666 25.0013H10.6667V26.3347H9.99998C8.5272 26.3347 7.33333 27.5286 7.33333 29.0013V29.668H2.66665V6.33462ZM8.66669 29.668V29.0013C8.66669 28.2649 9.26363 27.6679 10 27.6679H18.0001C18.7364 27.6679 19.3334 28.2649 19.3334 29.0013V29.668H8.66669ZM14 9.00127C13.6318 9.00127 13.3333 8.7028 13.3333 8.33459C13.3333 7.96638 13.6318 7.66791 14 7.66791C14.3682 7.66791 14.6667 7.96638 14.6667 8.33459C14.6667 8.7028 14.3682 9.00127 14 9.00127ZM21.3333 13.668C22.0697 13.668 22.6667 14.2649 22.6667 15.0013V22.3346C22.6667 23.071 22.0697 23.668 21.3333 23.668H6.66666C5.9303 23.668 5.3333 23.0711 5.3333 22.3346V15.0013C5.3333 14.265 5.93023 13.668 6.66666 13.668H21.3333ZM12 25.0013H16V26.3347H12V25.0013ZM27.0573 31.0013L26.1147 31.9439C25.8643 32.1933 25.5255 32.3337 25.1721 32.3346H14.828C14.4746 32.3337 14.1358 32.1933 13.8854 31.9439L12.9427 31.0013H27.0573ZM38.6667 32.3346C38.6667 33.8074 37.4728 35.0013 36.0001 35.0013H4.00001C2.52722 35.0013 1.33336 33.8073 1.33336 32.3346V31.6679C1.33336 31.2997 1.63182 31.0013 2.00004 31.0013H11.0574L12.9427 32.8866C13.4436 33.3854 14.1212 33.6662 14.8281 33.6679H25.1721C25.8789 33.6661 26.5565 33.3854 27.0574 32.8866L28.9428 31.0013H38.0001C38.3683 31.0013 38.6668 31.2997 38.6668 31.6679L38.6667 32.3346Z" fill="#50AF9B"/>
<path fill-rule="evenodd" clip-rule="evenodd" d="M10.8004 20.7347C11.173 21.2314 11.6561 21.6346 12.2115 21.9123C12.767 22.19 13.3794 22.3346 14.0004 22.3346C14.6214 22.3346 15.2338 22.19 15.7892 21.9123C16.3447 21.6346 16.8278 21.2314 17.2004 20.7347C17.3065 20.5932 17.352 20.4154 17.327 20.2404C17.302 20.0653 17.2085 19.9074 17.067 19.8013C16.9256 19.6952 16.7478 19.6497 16.5727 19.6747C16.3977 19.6997 16.2398 19.7932 16.1337 19.9347C15.8853 20.2659 15.5632 20.5347 15.1929 20.7198C14.8226 20.9049 14.4143 21.0013 14.0003 21.0013C13.5863 21.0013 13.178 20.9049 12.8077 20.7198C12.4375 20.5347 12.1154 20.2659 11.867 19.9347C11.6461 19.6401 11.2282 19.5804 10.9336 19.8013C10.6391 20.0223 10.5795 20.4401 10.8004 20.7347Z" fill="#50AF9B"/>
<path d="M9.00034 19.6692C10.289 19.6692 11.3337 18.6246 11.3337 17.3359C11.3337 16.0472 10.289 15.0026 9.00034 15.0026C7.71166 15.0026 6.66699 16.0472 6.66699 17.3359C6.66699 18.6246 7.71166 19.6692 9.00034 19.6692ZM9.00034 16.3359C9.55265 16.3359 10.0003 16.7837 10.0003 17.3359C10.0003 17.8882 9.55259 18.3359 9.00034 18.3359C8.44808 18.3359 8.00035 17.8882 8.00035 17.3359C8.00035 16.7837 8.44808 16.3359 9.00034 16.3359ZM19.0003 19.6692C20.289 19.6692 21.3337 18.6246 21.3337 17.3359C21.3337 16.0472 20.289 15.0026 19.0003 15.0026C17.7116 15.0026 16.667 16.0472 16.667 17.3359C16.667 18.6246 17.7117 19.6692 19.0003 19.6692ZM19.0003 16.3359C19.5526 16.3359 20.0003 16.7837 20.0003 17.3359C20.0003 17.8882 19.5526 18.3359 19.0003 18.3359C18.4481 18.3359 18.0003 17.8882 18.0003 17.3359C18.0003 16.7837 18.4481 16.3359 19.0003 16.3359ZM26.4184 17.4453C26.7028 17.5922 27.0182 17.669 27.3384 17.6693C27.7494 17.6694 28.1503 17.5412 28.4851 17.3026L30.8737 15.6693H34.0004C35.1049 15.6693 36.0003 14.7739 36.0003 13.6693V8.33591C36.0003 7.23134 35.1049 6.33594 34.0004 6.33594H27.3337C26.2291 6.33594 25.3337 7.23134 25.3337 8.33591V15.6692C25.3334 16.0365 25.4345 16.3966 25.6259 16.71C25.8173 17.0234 26.0915 17.2779 26.4184 17.4453ZM26.667 8.33591C26.667 7.9677 26.9655 7.66923 27.3337 7.66923H34.0004C34.3686 7.66923 34.667 7.9677 34.667 8.33591V13.6693C34.667 14.0375 34.3686 14.336 34.0004 14.336H30.667C30.5329 14.3359 30.4018 14.3763 30.291 14.452L27.721 16.2099C27.6215 16.281 27.5043 16.3233 27.3823 16.3322C27.2603 16.3411 27.1383 16.3163 27.0295 16.2604C26.9206 16.2046 26.8293 16.12 26.7654 16.0157C26.7014 15.9114 26.6674 15.7916 26.667 15.6693V8.33591Z" fill="#50AF9B"/>
<path fill-rule="evenodd" clip-rule="evenodd" d="M28.6667 10.3334H32.6667C33.0349 10.3334 33.3334 10.0349 33.3334 9.66668C33.3334 9.29847 33.0349 9 32.6667 9H28.6667C28.2985 9 28 9.29847 28 9.66668C28.0001 10.0349 28.2985 10.3334 28.6667 10.3334ZM28.6667 13H32.6667C33.0349 13 33.3334 12.7015 33.3334 12.3333C33.3334 11.9651 33.0349 11.6666 32.6667 11.6666H28.6667C28.2985 11.6666 28 11.9651 28 12.3333C28.0001 12.7015 28.2985 13 28.6667 13Z" fill="#50AF9B"/>
<path d="M27.333 28.3334H33.9996C35.1042 28.3334 35.9996 27.438 35.9996 26.3335V19.0001C35.9996 18.6338 35.899 18.2745 35.7088 17.9614C35.5186 17.6483 35.246 17.3935 34.9209 17.2248C34.5957 17.0561 34.2305 16.9799 33.865 17.0045C33.4995 17.0292 33.1478 17.1538 32.8483 17.3647L30.4596 19H27.333C26.2284 19 25.333 19.8954 25.333 21V26.3333C25.3329 27.4381 26.2284 28.3334 27.333 28.3334ZM26.6663 21.0001C26.6663 20.6319 26.9648 20.3334 27.333 20.3334H30.6663C30.8005 20.3335 30.9315 20.2931 31.0423 20.2174L33.6123 18.4594C33.7119 18.3884 33.8291 18.3461 33.951 18.3372C34.073 18.3283 34.1951 18.3531 34.3039 18.409C34.4127 18.4648 34.5041 18.5494 34.568 18.6537C34.6319 18.758 34.6659 18.8778 34.6663 19.0001V26.3334C34.6663 26.7016 34.3678 27.0001 33.9996 27.0001H27.333C26.9648 27.0001 26.6663 26.7016 26.6663 26.3334V21.0001Z" fill="#50AF9B"/>
<path fill-rule="evenodd" clip-rule="evenodd" d="M28.6667 25.668H32.6667C33.0349 25.668 33.3334 25.3696 33.3334 25.0014C33.3334 24.6331 33.0349 24.3347 32.6667 24.3347H28.6667C28.2985 24.3347 28 24.6331 28 25.0014C28 25.3696 28.2985 25.668 28.6667 25.668ZM28.6667 23.0013H32.6667C33.0349 23.0013 33.3334 22.7029 33.3334 22.3346C33.3334 21.9664 33.0349 21.668 32.6667 21.668H28.6667C28.2985 21.668 28 21.9664 28 22.3346C28 22.7029 28.2985 23.0013 28.6667 23.0013Z" fill="#50AF9B"/>
</g>
<defs>
<clipPath id="clip0_2312_199">
<rect width="40" height="40" fill="white"/>
</clipPath>
</defs>
</svg>
