<svg width="54" height="40" viewBox="0 0 54 40" fill="none" xmlns="http://www.w3.org/2000/svg">
<path opacity="0.1" d="M40 32C40 36.4183 36.4183 40 32 40L16 40C7.16344 40 6.26248e-07 32.8366 1.39876e-06 24L1.99823e-06 17.1429C2.82593e-06 7.67512 7.67512 -2.82593e-06 17.1429 -1.99823e-06C29.7665 -8.9464e-07 40 10.2335 40 22.8571L40 32Z" fill="#246BFD"/>
<path d="M44.5691 2.58333V37.4167C44.5691 37.8521 44.391 38.2479 44.104 38.5349C43.8171 38.8219 43.4212 39 42.9858 39H25.015C24.1417 39 23.4316 38.29 23.4316 37.4167V2.58333C23.4316 2.14792 23.6098 1.75208 23.8967 1.4651C24.1837 1.17812 24.5796 1 25.015 1H42.9833C43.8566 1 44.5691 1.71003 44.5691 2.58333ZM43.3816 37.4167V33.6315H24.6191V37.4167C24.6191 37.6344 24.7973 37.8125 25.015 37.8125H42.9833C43.2035 37.8125 43.3816 37.6344 43.3816 37.4167ZM43.3816 32.444V6.35859H24.6191V32.444H43.3816ZM43.3816 5.17109V2.58333C43.3816 2.36563 43.2035 2.1875 42.9858 2.1875H25.015C24.7973 2.1875 24.6191 2.36563 24.6191 2.58333V5.17109H43.3816Z" fill="#246BFD"/>
<path d="M41.1932 9.00391C41.5223 9.00391 41.787 9.27109 41.787 9.59766C41.787 9.92669 41.5223 10.1914 41.1932 10.1914H36.6387C36.3096 10.1914 36.0449 9.92669 36.0449 9.59766C36.0449 9.26862 36.3121 9.00391 36.6387 9.00391H41.1932Z" fill="#246BFD"/>
<path d="M41.1932 11.8086C41.5223 11.8086 41.787 12.0733 41.787 12.4023C41.787 12.7314 41.5223 12.9961 41.1932 12.9961H36.6387C36.3096 12.9961 36.0449 12.7289 36.0449 12.4023C36.0449 12.0733 36.3121 11.8086 36.6387 11.8086H41.1932Z" fill="#246BFD"/>
<path d="M41.1932 14.6172C41.5223 14.6172 41.787 14.8819 41.787 15.2109C41.787 15.54 41.5223 15.8047 41.1932 15.8047H36.6387C36.3096 15.8047 36.0449 15.5375 36.0449 15.2109C36.0449 14.8819 36.3121 14.6172 36.6387 14.6172H41.1932Z" fill="#246BFD"/>
<path d="M41.1931 18.2539C41.5221 18.2539 41.7868 18.5186 41.7868 18.8477C41.7868 19.1767 41.5221 19.4414 41.1931 19.4414H37.3164C36.9874 19.4414 36.7227 19.1742 36.7227 18.8477C36.7227 18.5186 36.9874 18.2539 37.3164 18.2539H41.1931Z" fill="#246BFD"/>
<path d="M41.1924 21.0625C41.5215 21.0625 41.7862 21.3272 41.7862 21.6562C41.7862 21.9853 41.5215 22.25 41.1924 22.25H34.5449C34.2159 22.25 33.9512 21.9828 33.9512 21.6562C33.9512 21.3272 34.2159 21.0625 34.5449 21.0625H41.1924Z" fill="#246BFD"/>
<path d="M41.1937 23.8672C41.5228 23.8672 41.7875 24.1319 41.7875 24.4609C41.7875 24.79 41.5228 25.0547 41.1937 25.0547H37.2676C36.9385 25.0547 36.6738 24.7875 36.6738 24.4609C36.6738 24.1319 36.9385 23.8672 37.2676 23.8672H41.1937Z" fill="#246BFD"/>
<path d="M41.1931 26.6758C41.5221 26.6758 41.7868 26.9405 41.7868 27.2695C41.7868 27.5986 41.5221 27.8633 41.1931 27.8633H34.1992C33.8702 27.8633 33.6055 27.5961 33.6055 27.2695C33.6055 26.9405 33.8702 26.6758 34.1992 26.6758H41.1931Z" fill="#246BFD"/>
<path d="M41.1931 29.4805C41.5221 29.4805 41.7868 29.7452 41.7868 30.0742C41.7868 30.4033 41.5221 30.668 41.1931 30.668H38.207C37.878 30.668 37.6133 30.4008 37.6133 30.0742C37.6133 29.7452 37.8805 29.4805 38.207 29.4805H41.1931Z" fill="#246BFD"/>
<path d="M36.1594 35.125C36.4884 35.125 36.7531 35.3922 36.7531 35.7188C36.7531 36.0453 36.4884 36.3125 36.1594 36.3125H31.8398C31.5108 36.3125 31.2461 36.0453 31.2461 35.7188C31.2461 35.3922 31.5108 35.125 31.8398 35.125H36.1594Z" fill="#246BFD"/>
<path d="M35.9796 29.4805C36.3086 29.4805 36.5733 29.7452 36.5733 30.0742C36.5733 30.4033 36.3061 30.668 35.9796 30.668H26.8086C26.4796 30.668 26.2148 30.4008 26.2148 30.0742C26.2148 29.7452 26.4796 29.4805 26.8086 29.4805H35.9796Z" fill="#246BFD"/>
<path d="M35.1879 18.2539C35.5169 18.2539 35.7816 18.5186 35.7816 18.8477C35.7816 19.1767 35.5145 19.4414 35.1879 19.4414H26.8086C26.4796 19.4414 26.2148 19.1742 26.2148 18.8477C26.2148 18.5186 26.4796 18.2539 26.8086 18.2539H35.1879Z" fill="#246BFD"/>
<path d="M35.1384 23.8672C35.4674 23.8672 35.7322 24.1319 35.7322 24.4609C35.7322 24.79 35.465 25.0547 35.1384 25.0547H26.8086C26.4796 25.0547 26.2148 24.7875 26.2148 24.4609C26.2148 24.1319 26.4796 23.8672 26.8086 23.8672H35.1384Z" fill="#246BFD"/>
<path d="M33.9221 14.7062C34.1102 14.9759 34.0458 15.3445 33.7762 15.5325L31.8267 16.8981C31.7253 16.9699 31.6065 17.0045 31.4853 17.0045C31.3962 17.0045 31.3072 16.9847 31.2255 16.9427C30.4042 16.5394 29.5902 15.9333 28.8728 15.1862C28.5116 14.8101 28.1727 14.397 27.8659 13.9591C27.5715 13.5385 27.3068 13.0957 27.0841 12.6479C26.6264 11.73 26.3271 10.7677 26.2207 9.86219C26.196 9.64449 26.29 9.43173 26.4706 9.30555L28.4497 7.92014C28.7169 7.73212 29.088 7.79644 29.276 8.0661L30.7753 10.2085C30.8668 10.3372 30.9014 10.498 30.8742 10.6514C30.847 10.8072 30.7579 10.9433 30.6293 11.0349L30.1023 11.4059C30.2359 11.6385 30.3819 11.8661 30.5378 12.0888C30.706 12.3287 30.8841 12.5613 31.0721 12.7815L31.5966 12.4153C31.8663 12.2273 32.2349 12.2916 32.4229 12.5613L33.9221 14.7062ZM32.6085 14.9016L31.7896 13.7315L31.322 14.058C31.082 14.2263 30.7555 14.1941 30.5526 13.9813C30.1988 13.6102 29.8648 13.2045 29.563 12.774C29.276 12.3634 29.0163 11.9304 28.7961 11.4925C28.665 11.2278 28.7441 10.9087 28.9866 10.738L29.4616 10.4065L28.6427 9.23876L27.4503 10.075C27.569 10.7429 27.8065 11.4455 28.1454 12.1234C28.3434 12.5192 28.5759 12.9101 28.8381 13.2837C29.1103 13.6721 29.4096 14.0382 29.7288 14.3697C30.2607 14.9214 30.8445 15.3841 31.4408 15.7205L32.6085 14.9016Z" fill="#246BFD"/>
<path d="M32.4171 21.0625C32.7461 21.0625 33.0108 21.3272 33.0108 21.6562C33.0108 21.9853 32.7436 22.25 32.4171 22.25H26.8086C26.4796 22.25 26.2148 21.9828 26.2148 21.6562C26.2148 21.3272 26.4796 21.0625 26.8086 21.0625H32.4171Z" fill="#246BFD"/>
<path d="M32.0212 26.6758C32.3503 26.6758 32.615 26.9405 32.615 27.2695C32.615 27.5986 32.3478 27.8633 32.0212 27.8633H26.8086C26.4796 27.8633 26.2148 27.5961 26.2148 27.2695C26.2148 26.9405 26.4796 26.6758 26.8086 26.6758H32.0212Z" fill="#246BFD"/>
</svg>
