<svg width="54" height="40" viewBox="0 0 54 40" fill="none" xmlns="http://www.w3.org/2000/svg">
<path opacity="0.1" d="M40 32C40 36.4183 36.4183 40 32 40L16 40C7.16344 40 6.26248e-07 32.8366 1.39876e-06 24L1.99823e-06 17.1429C2.82593e-06 7.67512 7.67512 -2.82593e-06 17.1429 -1.99823e-06C29.7665 -8.9464e-07 40 10.2335 40 22.8571L40 32Z" fill="#246BFD"/>
<path d="M45.6475 4.54611V38.409C45.6475 38.7365 45.3816 39 45.0565 39H41.3873C41.0597 39 40.7963 38.734 40.7963 38.409V34.8235H27.2028V38.409C27.2028 38.7365 26.9369 39 26.6118 39H22.9426C22.6151 39 22.3516 38.734 22.3516 38.409V4.54611C22.3516 2.59082 23.9424 1 25.8977 1H42.1014C44.0567 1 45.6475 2.59082 45.6475 4.54611ZM44.4655 37.8155V34.821H41.9783V37.8155H44.4655ZM44.4655 33.639V10.4883H23.5336V33.6414L44.4655 33.639ZM44.4655 9.30627V8.22273H23.5336V9.30627H44.4655ZM44.4655 7.0407V4.54611C44.4655 3.24341 43.4041 2.18204 42.1014 2.18204H25.8977C24.595 2.18204 23.5336 3.24341 23.5336 4.54611V7.0407H44.4655ZM26.0208 37.8155V34.821H23.5336V37.8155H26.0208Z" fill="#246BFD"/>
<path d="M41.4775 29.3281C41.4873 29.6507 41.2017 29.9192 40.8864 29.9192H27.1108C26.7956 29.9192 26.5099 29.6507 26.5198 29.3281V20.091C26.5198 19.7684 26.7882 19.5 27.1108 19.5H40.8864C41.209 19.5 41.4775 19.7684 41.4775 20.091V29.3281ZM40.2954 28.1609V21.438L36.2371 25.1762L40.2954 28.1609ZM34.9122 24.7921L39.372 20.682H28.6253L33.085 24.7921C33.0899 24.7945 33.0924 24.7995 33.0949 24.8019L33.9986 25.6343L34.9024 24.8019C34.9048 24.797 34.9098 24.7945 34.9122 24.7921ZM28.9134 28.7371H39.0863L35.353 25.9938L34.4025 26.8705C34.1759 27.0798 33.8238 27.0798 33.5972 26.8705L32.6467 25.9938L28.9134 28.7371ZM27.7018 28.1609L31.7601 25.1762L27.7018 21.438V28.1609Z" fill="#246BFD"/>
<path d="M41.4772 14.802V17.0774C41.4772 17.4049 41.2137 17.6684 40.8862 17.6684H27.1105C26.783 17.6684 26.5195 17.4049 26.5195 17.0774V14.802C26.5195 14.4744 26.783 14.2109 27.1105 14.2109H40.8862C41.2113 14.2109 41.4772 14.4744 41.4772 14.802ZM40.2952 16.4864V15.393H27.7016V16.4864H40.2952Z" fill="#246BFD"/>
</svg>
