<svg width="56" height="40" viewBox="0 0 56 40" fill="none" xmlns="http://www.w3.org/2000/svg">
<path opacity="0.1" d="M40 32C40 36.4183 36.4183 40 32 40L16 40C7.16344 40 6.26248e-07 32.8366 1.39876e-06 24L1.99823e-06 17.1429C2.82593e-06 7.67512 7.67512 -2.82593e-06 17.1429 -1.99823e-06C29.7665 -8.9464e-07 40 10.2335 40 22.8571L40 32Z" fill="#246BFD"/>
<path d="M46.14 12.43V18.0894C46.14 19.2636 45.9413 20.4145 45.5465 21.5113C45.1646 22.5694 44.6123 23.5552 43.9026 24.4352C42.5865 26.0713 40.7826 27.2661 38.78 27.839V35.0649H40.8781C43.0717 35.0649 44.8575 36.8507 44.8575 39.0442C44.8729 39.4158 44.6665 39.8158 44.2381 39.8158H27.7633C27.3478 39.8158 27.1155 39.4184 27.1439 39.0442C27.1439 36.8507 28.9297 35.0649 31.1233 35.0649H33.2213V27.8339C31.2239 27.2532 29.42 26.0455 28.0987 24.3939C27.3891 23.5061 26.8368 22.5178 26.4549 21.4545C26.06 20.3526 25.8613 19.2016 25.8613 18.0274V12.43C25.8613 12.0868 26.1375 11.8107 26.4807 11.8107H29.1026V6.8042C29.1026 5.04162 29.7942 3.37969 31.0484 2.12549C32.3026 0.871301 33.9646 0.179688 35.7271 0.179688H36.2768C38.0394 0.179688 39.7013 0.871301 40.9555 2.12549C42.2097 3.37969 42.9013 5.04162 42.9013 6.8042V11.8107H45.5233C45.8639 11.8107 46.14 12.0894 46.14 12.43ZM44.9013 18.0919V13.0494H42.8987V18.3655C42.8987 20.1281 42.2071 21.79 40.9529 23.0442C39.6987 24.2984 38.0368 24.99 36.2742 24.99H35.7246C33.962 24.99 32.3 24.2984 31.0458 23.0442C29.7917 21.79 29.1 20.1281 29.1 18.3655V13.0494H27.0975V18.0274C27.0975 22.141 29.9929 25.8107 33.9826 26.7552C34.6536 26.9152 35.3426 26.9926 36.0368 26.99C36.7026 26.9874 37.3633 26.91 38.0058 26.7629C38.011 26.7603 38.0187 26.7603 38.0265 26.7578C42.0755 25.8132 44.9013 22.2494 44.9013 18.0919ZM28.4213 38.5797H43.5775C43.3555 37.2894 42.2278 36.3061 40.8781 36.3061H38.1658C38.1633 36.3061 38.1633 36.3061 38.1607 36.3061C38.1581 36.3061 38.1555 36.3061 38.1555 36.3061H33.8458C33.8433 36.3061 33.8407 36.3061 33.8407 36.3061C33.8381 36.3061 33.8355 36.3061 33.8355 36.3061H31.1233C29.771 36.3061 28.6433 37.2894 28.4213 38.5797ZM30.3491 18.6494H33.6523C33.9955 18.6494 34.2717 18.9281 34.2717 19.2687C34.2717 19.6094 33.9955 19.8881 33.6523 19.8881H30.5607C31.2187 22.1178 33.2858 23.7513 35.7271 23.7513H36.2768C38.7181 23.7513 40.7852 22.1178 41.4433 19.8881H38.3723C38.0291 19.8881 37.7529 19.6094 37.7529 19.2687C37.7529 18.9281 38.0317 18.6494 38.3723 18.6494H41.6523C41.6575 18.5539 41.66 18.461 41.66 18.3655V15.4313H38.3697C38.0265 15.4313 37.7504 15.1526 37.7504 14.8119C37.7504 14.4687 38.0291 14.1926 38.3697 14.1926H41.66V10.9745H38.3697C38.0265 10.9745 37.7504 10.6958 37.7504 10.3552C37.7504 10.0145 38.0291 9.73582 38.3697 9.73582H41.66L41.6523 6.51775H38.3697C38.0265 6.51775 37.7504 6.23904 37.7504 5.8984C37.7504 5.55775 38.0291 5.27904 38.3697 5.27904H41.4407C40.7826 3.04937 38.7155 1.41582 36.2742 1.41582H35.7246C33.2833 1.41582 31.2162 3.04937 30.5581 5.27904H33.6523C33.9955 5.27904 34.2717 5.55775 34.2717 5.8984C34.2717 6.23904 33.9955 6.51775 33.6523 6.51775H30.3491L30.3413 9.73582H33.6523C33.9955 9.73582 34.2717 10.0145 34.2717 10.3552C34.2717 10.6958 33.9955 10.9745 33.6523 10.9745H30.3413V14.1926H33.6523C33.9955 14.1926 34.2717 14.4687 34.2717 14.8119C34.2717 15.1552 33.9955 15.4313 33.6523 15.4313H30.3413L30.3491 18.6494ZM37.5413 35.0674V28.1126C37.0458 28.1874 36.5452 28.2287 36.042 28.2287C36.0291 28.2287 36.0136 28.2287 36.0007 28.2287C35.4846 28.2287 34.9684 28.19 34.4575 28.11V35.0674H37.5413Z" fill="#246BFD"/>
</svg>
