<svg width="50" height="50" viewBox="0 0 50 50" fill="none" xmlns="http://www.w3.org/2000/svg">
<rect width="50" height="50" rx="5" fill="#246BFD"/>
<path d="M30.7121 34.6406C30.3966 34.6406 30.1406 34.9031 30.1406 35.2266C30.1406 35.55 30.3966 35.8125 30.7121 35.8125C31.0275 35.8125 31.2835 35.55 31.2835 35.2266C31.2835 34.9031 31.0275 34.6406 30.7121 34.6406Z" fill="white"/>
<path d="M19.2863 34.6406C18.9708 34.6406 18.7148 34.9031 18.7148 35.2266C18.7148 35.55 18.9708 35.8125 19.2863 35.8125C19.6017 35.8125 19.8577 35.55 19.8577 35.2266C19.8577 34.9031 19.6017 34.6406 19.2863 34.6406Z" fill="white"/>
<path d="M35.9511 31.6068C35.3079 30.5862 34.4239 29.7753 33.3885 29.2515C33.3011 29.1684 33.1889 29.1127 33.064 29.0985C32.315 28.7726 31.5255 28.6072 30.7143 28.6072H29V27.0618C29.9921 26.1893 30.7053 25.0336 31.0511 23.7455H31.2857C32.5461 23.7455 33.5714 22.6944 33.5714 21.4025C33.5714 20.7902 33.3409 20.2324 32.9645 19.8145C33.0004 19.7832 33.0355 19.7507 33.0692 19.7162C33.3931 19.3841 33.5714 18.9429 33.5714 18.4737C33.5714 17.7027 33.0842 17.0465 32.409 16.8104C32.2071 14.1169 30.3629 11.8151 27.8238 11.0937C27.6733 10.2882 27.0248 9.51172 26.1429 9.51172H23.8571C22.9752 9.51172 22.3267 10.2882 22.1762 11.0937C19.6373 11.8151 17.7933 14.1164 17.5911 16.8096C17.3453 16.8951 17.1198 17.0376 16.9308 17.2313C16.6069 17.5633 16.4286 18.0045 16.4286 18.4737C16.4286 19.0104 16.6648 19.4915 17.036 19.814C16.6593 20.2319 16.4286 20.79 16.4286 21.4025C16.4286 22.6944 17.4539 23.7455 18.7143 23.7455H18.9473C19.236 24.8207 19.7834 25.8079 20.547 26.6233C20.6905 26.7767 20.8426 26.9228 21 27.0614V28.6072H19.2857C18.4744 28.6072 17.6849 28.7726 16.936 29.0984C16.8112 29.1127 16.6989 29.1684 16.6116 29.2515C15.576 29.7753 14.6921 30.5862 14.0489 31.6068C13.3627 32.6955 13 33.9471 13 35.2262V38.9164C13 39.2399 13.2558 39.5022 13.5714 39.5022H36.4286C36.7442 39.5022 37 39.2399 37 38.9164V35.2262C37 33.9471 36.6373 32.6955 35.9511 31.6068ZM16.4286 38.3307H14.1429V35.2262C14.1429 33.4445 15.0333 31.7368 16.4286 30.7231V38.3307ZM31.2857 22.574H31.2597C31.2767 22.3791 31.2857 22.1835 31.2857 21.9882V20.231C31.9159 20.231 32.4286 20.7565 32.4286 21.4025C32.4286 22.0484 31.9159 22.574 31.2857 22.574ZM22.1429 12.3315V14.9592C22.1429 15.2827 22.3987 15.545 22.7143 15.545C23.0299 15.545 23.2857 15.2827 23.2857 14.9592V11.5655C23.2857 11.564 23.2857 11.5625 23.2857 11.561V11.4447C23.2857 11.0818 23.5848 10.6832 23.8571 10.6832H26.1429C26.4152 10.6832 26.7143 11.0818 26.7143 11.4447V11.561C26.7143 11.5625 26.7143 11.564 26.7143 11.5655V14.9592C26.7143 15.2827 26.9701 15.545 27.2857 15.545C27.6013 15.545 27.8571 15.2827 27.8571 14.9592V12.3315C29.7023 13.0008 31.0343 14.7124 31.2538 16.7165H18.7462C18.9657 14.7124 20.2977 13.0008 22.1429 12.3315ZM18.7143 22.574C18.0841 22.574 17.5714 22.0484 17.5714 21.4025C17.5714 20.7565 18.0841 20.231 18.7143 20.231V21.9882C18.7143 22.1835 18.7233 22.3792 18.7403 22.574H18.7143ZM18.7143 19.0595H18.1429C17.8278 19.0595 17.5714 18.7967 17.5714 18.4737C17.5714 18.3174 17.6309 18.1704 17.7389 18.0597C17.847 17.9489 17.9904 17.888 18.1429 17.888H31.8571C32.1722 17.888 32.4286 18.1507 32.4286 18.4737C32.4286 18.63 32.3691 18.7771 32.2611 18.8877C32.1531 18.9985 32.0096 19.0595 31.8571 19.0595H31.2857H30.7143H19.2857H18.7143ZM19.961 23.0533C19.9598 23.0469 19.9587 23.0406 19.9574 23.0343C19.891 22.6905 19.8571 22.3387 19.8571 21.9882V20.231H30.1429V21.9882C30.1429 22.3384 30.109 22.69 30.0426 23.0341C30.0413 23.0404 30.0402 23.0468 30.039 23.0532C29.7837 24.3598 29.0769 25.5294 28.0478 26.3475C27.1537 27.0594 26.0998 27.4357 25 27.4357C23.9002 27.4357 22.8463 27.0594 21.9514 26.3469C21.7465 26.1844 21.5515 26.0046 21.3717 25.8123C20.6508 25.0425 20.1633 24.0888 19.961 23.0533ZM24.4286 38.3307H19.8571V36.9835C19.8571 36.6599 19.6013 36.3977 19.2857 36.3977C18.9701 36.3977 18.7143 36.6599 18.7143 36.9835V38.3307H17.5714V30.0994C17.9423 29.956 18.3243 29.8605 18.7143 29.8134V33.4689C18.7143 33.7925 18.9701 34.0547 19.2857 34.0547C19.6013 34.0547 19.8571 33.7925 19.8571 33.4689V29.7787H21.3266L24.4286 33.1175V38.3307ZM22.1429 28.9587V27.8676C23.0246 28.3535 23.9958 28.6072 25 28.6072C26.0042 28.6072 26.9755 28.3535 27.8571 27.8677V28.9587L25 32.0339L22.1429 28.9587ZM32.4286 38.3307H31.2857V36.9835C31.2857 36.6599 31.0299 36.3977 30.7143 36.3977C30.3987 36.3977 30.1429 36.6599 30.1429 36.9835V38.3307H25.5714V33.1175L28.6734 29.7787H30.1429V33.4689C30.1429 33.7925 30.3987 34.0547 30.7143 34.0547C31.0299 34.0547 31.2857 33.7925 31.2857 33.4689V29.8134C31.6757 29.8605 32.0577 29.9561 32.4286 30.0994V38.3307ZM35.8571 38.3307H33.5714V30.723C34.9667 31.7368 35.8571 33.4445 35.8571 35.2262V38.3307Z" fill="white"/>
</svg>
