<svg width="50" height="50" viewBox="0 0 50 50" fill="none" xmlns="http://www.w3.org/2000/svg">
<rect width="50" height="50" rx="5" fill="#246BFD"/>
<g clip-path="url(#clip0_115_50)">
<path d="M38.4615 15H11.5385C10.6923 15 10 15.6923 10 16.5384V33.4615C10 34.3076 10.6923 35 11.5385 35H38.4616C39.3077 35 40.0001 34.3078 40.0001 33.4615V16.5384C40 15.6923 39.3077 15 38.4615 15ZM37.8842 16.1538L25.885 25.1539C25.6693 25.3181 25.3381 25.4208 24.9999 25.4193C24.6619 25.4208 24.3307 25.3181 24.1149 25.1539L12.1158 16.1538H37.8842ZM31.4746 25.7477L38.0131 33.8247C38.0196 33.8328 38.0277 33.8389 38.0346 33.8463H11.9654C11.9723 33.8386 11.9804 33.8328 11.9869 33.8247L18.5254 25.7477C18.7257 25.5001 18.6878 25.137 18.4396 24.9362C18.1919 24.7358 17.8288 24.7738 17.6284 25.0215L11.1538 33.0196V16.8749L23.423 26.0769C23.8842 26.4203 24.4453 26.5715 24.9999 26.573C25.5537 26.5719 26.1153 26.4207 26.5768 26.0769L38.8459 16.8749V33.0195L32.3715 25.0215C32.1711 24.7738 31.8077 24.7358 31.5603 24.9362C31.3122 25.1365 31.2742 25.5001 31.4746 25.7477Z" fill="white"/>
</g>
<defs>
<clipPath id="clip0_115_50">
<rect width="30" height="30" fill="white" transform="translate(10 10)"/>
</clipPath>
</defs>
</svg>
