<svg width="50" height="50" viewBox="0 0 50 50" fill="none" xmlns="http://www.w3.org/2000/svg">
<rect width="50" height="50" rx="5" fill="#246BFD"/>
<path d="M30.3306 37.1312H11.4464C11.2232 37.1312 11 36.9526 11 36.6847C11 36.4169 11.1786 36.2383 11.4464 36.2383H30.3306C30.5538 36.2383 30.7771 36.4169 30.7771 36.6847C30.7771 36.9526 30.5538 37.1312 30.3306 37.1312Z" fill="white"/>
<path d="M30.3339 37.1285H14.173C13.9498 37.1285 13.7266 36.95 13.7266 36.6822V25.3018C13.7266 25.0786 13.9051 24.8555 14.173 24.8555C14.4409 24.8555 14.6194 25.034 14.6194 25.3018V36.2359H30.3339C30.5571 36.2359 30.7804 36.4145 30.7804 36.6822C30.7804 36.95 30.5571 37.1285 30.3339 37.1285Z" fill="white"/>
<path d="M13.009 26.1948C12.4732 26.1948 11.9822 26.0162 11.5804 25.6146C11.2232 25.2575 11 24.722 11 24.1864C11 23.6955 11.2232 23.2046 11.5357 22.8029L21.7591 12.5828C23.1877 11.1547 25.4645 11.1547 26.8931 12.5828L31.2681 16.9565C31.4467 17.135 31.4467 17.4028 31.2681 17.5813C31.0896 17.7598 30.8217 17.7598 30.6431 17.5813L26.2681 13.2076C25.1966 12.1365 23.4555 12.1365 22.3841 13.2076L12.2054 23.3831C12.0268 23.6063 11.8929 23.9187 11.8929 24.1864C11.8929 24.4096 11.9375 24.722 12.2054 24.9898C12.6518 25.4361 13.4107 25.4361 13.8572 24.9898L24.0359 14.8143C24.2145 14.6358 24.4823 14.6358 24.6609 14.8143L28.3663 18.5185C28.5449 18.697 28.5449 18.9648 28.3663 19.1433C28.1877 19.3218 27.9199 19.3218 27.7413 19.1433L24.3484 15.7515L14.4822 25.6146C14.0804 26.0162 13.5447 26.1948 13.009 26.1948Z" fill="white"/>
<path d="M25.6882 37.1304H19.3488C19.1256 37.1304 18.9023 36.9518 18.9023 36.6841V28.5615C18.9023 27.8475 19.4827 27.2227 20.2416 27.2227H24.8399C25.5542 27.2227 26.1346 27.8475 26.1346 28.5615V36.6841C26.1346 36.9072 25.9114 37.1304 25.6882 37.1304ZM19.7952 36.2378H25.2417V28.5615C25.2417 28.2938 25.0185 28.1152 24.8399 28.1152H20.2416C19.9738 28.1152 19.7952 28.3384 19.7952 28.5615V36.2378Z" fill="white"/>
<path d="M33.0961 37.0819C32.5157 37.0819 31.98 36.7695 31.6675 36.2786C30.105 33.6901 26.5781 27.442 26.5781 24.7642C26.5781 21.1939 29.48 18.293 33.0514 18.293C36.6229 18.293 39.5694 21.1939 39.5694 24.7642C39.5694 26.6386 37.8729 30.4768 34.5693 36.2786C34.2122 36.7695 33.6764 37.0819 33.0961 37.0819ZM33.0514 19.1856C29.971 19.1856 27.471 21.6848 27.471 24.7642C27.471 27.2635 31.2657 33.8686 32.4264 35.8323C32.5603 36.0554 32.8282 36.2339 33.1407 36.2339C33.4532 36.2339 33.6764 36.1 33.855 35.8323C37.8283 28.8255 38.6765 25.9246 38.6765 24.7642C38.6765 21.6848 36.1765 19.1856 33.0514 19.1856Z" fill="white"/>
<path d="M33.1011 28.9143C30.8242 28.9143 28.9492 27.0399 28.9492 24.7638C28.9492 22.4877 30.8242 20.6133 33.1011 20.6133C35.3779 20.6133 37.2529 22.4877 37.2529 24.7638C37.2529 27.0399 35.3779 28.9143 33.1011 28.9143ZM33.1011 21.5059C31.3153 21.5059 29.8421 22.9786 29.8421 24.7638C29.8421 26.549 31.3153 28.0217 33.1011 28.0217C34.8868 28.0217 36.36 26.549 36.36 24.7638C36.36 22.9786 34.8868 21.5059 33.1011 21.5059Z" fill="white"/>
<path d="M20.6886 32.9771C20.4654 32.9771 20.2422 32.7986 20.2422 32.5307V31.9503C20.2422 31.7271 20.4208 31.5039 20.6886 31.5039C20.9565 31.5039 21.1351 31.6825 21.1351 31.9503V32.5307C21.1351 32.7539 20.9118 32.9771 20.6886 32.9771Z" fill="white"/>
</svg>
