<svg width="65" height="65" viewBox="0 0 65 65" fill="none" xmlns="http://www.w3.org/2000/svg">
<path d="M40.1142 65H11.0258C7.99604 65 5.53125 62.5352 5.53125 59.5056V5.49453C5.53125 2.46479 7.99617 0 11.0258 0H40.114C43.1438 0 45.6086 2.46479 45.6086 5.49453V59.5055C45.6086 62.5352 43.1438 65 40.1142 65Z" fill="#E4EAF8"/>
<path d="M8.14712 59.5056V5.49453C8.14712 2.46479 10.612 0 13.6417 0H11.0258C7.99617 0 5.53125 2.46479 5.53125 5.49453V59.5055C5.53125 62.5351 7.99604 64.9999 11.0258 64.9999H13.6417C10.612 65 8.14712 62.5352 8.14712 59.5056Z" fill="#D8DCE5"/>
<path d="M9.83984 13.3906V54.5215C9.83984 55.1748 10.3714 55.7064 11.0248 55.7064H40.1131C40.7665 55.7064 41.2981 55.1748 41.2981 54.5215V13.3906H9.83984Z" fill="#1DD1A1"/>
<path d="M12.2547 54.5215V13.3906H9.83984V54.5215C9.83984 55.1748 10.3714 55.7064 11.0248 55.7064H13.4397C12.7863 55.7064 12.2547 55.1748 12.2547 54.5215Z" fill="#15BA8B"/>
<path d="M26.7043 61.6107H24.4312C23.6379 61.6107 22.9947 60.9674 22.9947 60.1742C22.9947 59.381 23.6379 58.7377 24.4312 58.7377H26.7043C27.4976 58.7377 28.1408 59.381 28.1408 60.1742C28.1408 60.9674 27.4976 61.6107 26.7043 61.6107ZM25.3163 4.91506H22.0122C21.752 4.91506 21.5025 4.81171 21.3186 4.62774C21.1346 4.44377 21.0312 4.19426 21.0312 3.93409C21.0312 3.67392 21.1346 3.42441 21.3186 3.24044C21.5025 3.05648 21.752 2.95312 22.0122 2.95312H25.3163C25.5765 2.95313 25.826 3.05648 26.0099 3.24044C26.1939 3.42441 26.2973 3.67392 26.2973 3.93409C26.2973 4.19426 26.1939 4.44377 26.0099 4.62774C25.826 4.81171 25.5765 4.91506 25.3163 4.91506ZM29.1231 4.91506H28.7101C28.45 4.91506 28.2005 4.81171 28.0165 4.62774C27.8325 4.44377 27.7292 4.19426 27.7292 3.93409C27.7292 3.67392 27.8325 3.42441 28.0165 3.24044C28.2005 3.05648 28.45 2.95312 28.7101 2.95312H29.1231C29.3833 2.95313 29.6328 3.05648 29.8168 3.24044C30.0007 3.42441 30.1041 3.67392 30.1041 3.93409C30.1041 4.19426 30.0007 4.44377 29.8168 4.62774C29.6328 4.81171 29.3833 4.91506 29.1231 4.91506Z" fill="#D8DCE5"/>
<path d="M9.83984 8.92326V13.5131H41.2981V8.92326C41.2981 8.26983 40.7665 7.73828 40.1131 7.73828H11.0247C10.3714 7.73828 9.83984 8.26983 9.83984 8.92326Z" fill="#338DEF"/>
<path d="M15.8955 7.73828H11.0248C10.3714 7.73828 9.83984 8.26983 9.83984 8.92326V13.5131H15.8954L15.8955 7.73828Z" fill="#FF6B6B"/>
<path d="M13.4418 7.73828H11.0248C10.3715 7.73828 9.83984 8.26983 9.83984 8.92326V13.5131H12.2568V8.92326C12.2569 8.26983 12.7885 7.73828 13.4418 7.73828Z" fill="#EE5253"/>
<path d="M57.8699 10.7461H39.2057C38.322 10.7461 37.6055 11.4625 37.6055 12.3463V26.1426C37.6055 27.0263 38.3219 27.7428 39.2057 27.7428H41.1085C41.3578 27.7428 41.5394 27.9793 41.4739 28.22C41.2003 29.2259 40.6972 30.4353 39.7736 31.6087C39.3658 32.1269 39.8647 32.8582 40.4944 32.6624C42.4496 32.0544 45.1751 30.7425 46.5482 27.992C46.6236 27.8412 46.7745 27.743 46.9431 27.743H57.8697C58.7535 27.743 59.4698 27.0266 59.4698 26.1428V12.3462C59.47 11.4626 58.7536 10.7461 57.8699 10.7461Z" fill="#FECA57"/>
<path d="M42.3893 31.6086C43.3128 30.4351 43.816 29.2258 44.0896 28.2199C44.1551 27.9792 43.9736 27.7427 43.7242 27.7427H41.8215C40.9377 27.7427 40.2213 27.0263 40.2213 26.1426V12.3463C40.2213 11.4626 40.9377 10.7461 41.8215 10.7461H39.2056C38.3219 10.7461 37.6055 11.4625 37.6055 12.3463V26.1426C37.6055 27.0263 38.3219 27.7427 39.2056 27.7427H41.1084C41.3577 27.7427 41.5392 27.9792 41.4737 28.2199C41.2001 29.2258 40.697 30.4351 39.7734 31.6086C39.3657 32.1268 39.8646 32.858 40.4943 32.6623C41.0338 32.4944 41.6323 32.2726 42.2446 31.9822C42.2532 31.8457 42.3038 31.7152 42.3893 31.6086Z" fill="#F4B537"/>
<path d="M48.3045 21.9184C47.6847 21.9184 47.1806 22.4283 47.1806 23.0552C47.1806 23.6821 47.6847 24.1921 48.3045 24.1921C48.9208 24.1921 49.4413 23.6714 49.4413 23.0552C49.4413 22.439 48.9208 21.9184 48.3045 21.9184ZM48.4743 14.3008C46.6291 14.3008 45.7695 15.4237 45.7695 16.1825C45.7695 16.7511 46.2408 17.0579 46.6844 17.0579C47.5014 17.0579 47.1635 16.0518 48.4353 16.0518C48.6804 16.0518 49.4804 16.1066 49.4804 16.8095C49.4804 18.001 47.4421 17.9149 47.4421 20.272C47.4421 21.0056 47.6724 21.2783 48.2916 21.2783C49.0762 21.2783 49.1933 20.8607 49.1933 20.6117C49.1933 19.9686 49.1933 19.6143 49.8747 19.0815C52.6037 16.9588 51.3555 14.3008 48.4743 14.3008Z" fill="#E4EAF8"/>
<path d="M25.4948 15.1289C20.9973 15.1289 17.3516 18.7747 17.3516 23.2722V26.4946C17.8958 25.9901 18.6701 25.716 19.4259 25.817V25.4112C19.4259 25.0886 19.7013 24.8338 20.0206 24.8581C23.1691 25.0843 26.3732 24.0838 28.7959 22.5012C28.9053 22.4297 29.0366 22.3991 29.1664 22.4149C29.2962 22.4307 29.4162 22.4919 29.5053 22.5877C31.5765 24.814 31.564 24.7278 31.564 25.0186V25.8153C32.3925 25.6912 33.1273 25.9472 33.6379 26.4219V23.2723C33.638 18.7747 29.9924 15.1289 25.4948 15.1289Z" fill="#576574"/>
<path d="M19.5373 23.2722C19.5373 19.1456 22.6073 15.7383 26.5877 15.2041C26.2255 15.1547 25.8604 15.1296 25.4948 15.1289C20.9973 15.1289 17.3516 18.7746 17.3516 23.2722V26.4946C17.8958 25.9901 18.6701 25.716 19.4259 25.817V25.4112C19.4259 25.2859 19.4677 25.1713 19.5373 25.0787V23.2722Z" fill="#3E4B5A"/>
<path d="M31.4565 25.5039V29.9647C31.4565 30.0131 31.4539 30.0608 31.4528 30.1091C33.0313 30.3481 34.2677 29.2075 34.2677 27.8067C34.2678 26.4029 33.0304 25.2679 31.4565 25.5039ZM19.534 29.9647V25.5056C18.1598 25.3221 16.7227 26.3768 16.7227 27.8067C16.7227 29.2057 17.9563 30.3483 19.5375 30.109C19.5364 30.0608 19.534 30.0129 19.534 29.9647Z" fill="#FFBEAB"/>
<path d="M33.4312 26.0235C32.9267 25.6051 32.2326 25.3875 31.4563 25.5038V29.9647C31.4563 30.013 31.4538 30.0608 31.4526 30.109C32.2314 30.2269 32.9263 30.0087 33.4312 29.5895V26.0235ZM19.5339 29.5898C19.2716 29.3726 19.0607 29.1001 18.9161 28.7918C18.7715 28.4835 18.6968 28.1471 18.6975 27.8066C18.6975 27.1163 19.0329 26.5141 19.5339 26.0958V25.5056C18.1596 25.322 16.7227 26.3768 16.7227 27.8066C16.7227 29.2056 17.9563 30.3482 19.5375 30.1089C19.5363 30.0608 19.5339 30.0128 19.5339 29.9647V29.5898Z" fill="#F7AF9F"/>
<path d="M25.5814 35.8406C24.2658 35.8406 23.1096 35.4795 22.1641 34.8753V38.0712L25.5668 42.2713L28.9695 38.0712V34.7852C27.9738 35.4735 26.7918 35.8417 25.5814 35.8406Z" fill="#FFBEAB"/>
<path d="M24.3432 35.7199C23.532 35.5694 22.8002 35.2736 22.1641 34.8672V38.0631L24.3432 40.753V35.7199Z" fill="#F7AF9F"/>
<path d="M37.9685 41.3299L28.9667 37.8438L25.5641 42.0439L22.1614 37.8438L13.1692 41.3299C13.1692 41.3299 9.83984 42.6987 9.83984 46.4941V54.9174C9.83984 55.1228 9.92145 55.3199 10.0667 55.4651C10.212 55.6104 10.409 55.692 10.6144 55.692H40.5303C40.7339 55.692 40.9292 55.6111 41.0732 55.4671C41.2172 55.3231 41.2981 55.1278 41.2981 54.9242V46.4941C41.2978 42.6987 37.9685 41.3299 37.9685 41.3299Z" fill="#54A0FF"/>
<path d="M12.019 54.9158V45.5117C12.019 42.9077 13.586 41.4462 14.5699 40.7852L13.1692 41.3283C13.1692 41.3283 9.83984 42.6969 9.83984 46.4925V54.9158C9.83988 55.1212 9.92149 55.3182 10.0667 55.4634C10.212 55.6087 10.409 55.6903 10.6144 55.6903H12.7935C12.6918 55.6904 12.5911 55.6703 12.4971 55.6314C12.4031 55.5925 12.3177 55.5354 12.2458 55.4635C12.1739 55.3916 12.1168 55.3062 12.0779 55.2122C12.039 55.1182 12.019 55.0175 12.019 54.9158Z" fill="#338DEF"/>
<path d="M29.5091 22.3878C29.4201 22.292 29.3 22.2308 29.1702 22.215C29.0404 22.1992 28.9092 22.2298 28.7997 22.3013C26.3771 23.8839 23.1729 24.8845 20.0245 24.6582C19.7052 24.634 19.4297 24.8888 19.4297 25.2114V30.0762C19.4297 33.2029 21.8796 36.0586 25.5854 36.0586C28.8841 36.0586 31.5679 33.3748 31.5679 30.0762V24.8186C31.5677 24.528 31.5802 24.614 29.5091 22.3878Z" fill="#FFCDBF"/>
<path d="M21.6088 30.0603V24.6548C21.0817 24.6828 20.5523 24.6801 20.0245 24.6422C19.7052 24.618 19.4297 24.8728 19.4297 25.1954V30.0602C19.4297 33.1869 21.8796 36.0426 25.5854 36.0426C25.9273 36.0426 26.2621 36.0123 26.5883 35.9569C23.7656 35.4783 21.6088 33.0172 21.6088 30.0603Z" fill="#FFBEAB"/>
<path d="M29.671 44.2019L32.2155 39.1025L28.9652 37.8438L25.5625 42.0439L28.88 44.4C28.9432 44.4448 29.0153 44.4755 29.0915 44.4898C29.1676 44.5041 29.2459 44.5018 29.3211 44.483C29.3962 44.4642 29.4664 44.4293 29.5268 44.3808C29.5872 44.3323 29.6364 44.2713 29.671 44.2019Z" fill="#338DEF"/>
<path d="M21.4664 44.2019L18.9219 39.1025L22.1721 37.8438L25.5749 42.0439L22.2573 44.4C22.1941 44.4448 22.122 44.4754 22.0459 44.4898C21.9698 44.5041 21.8914 44.5018 21.8163 44.4829C21.7411 44.4641 21.671 44.4293 21.6106 44.3808C21.5502 44.3323 21.501 44.2713 21.4664 44.2019Z" fill="#338DEF"/>
<path d="M25.5693 42.0459V42.043L25.5672 42.0445L25.5652 42.043V42.0459L23.1523 43.7596L24.2929 45.4762H26.8417L27.9823 43.7596L25.5693 42.0459Z" fill="#FF6B6B"/>
<path d="M22.5703 55.7032H28.577L26.848 45.4883H24.2992L22.5703 55.7032Z" fill="#FC8686"/>
<path d="M26.7747 42.9021L25.5693 42.0459V42.043L25.5672 42.0445L25.5652 42.043V42.0459L23.1523 43.7596L24.2929 45.4763H26.7078L25.7713 44.0669C25.7166 43.9845 25.6961 43.8841 25.7141 43.787C25.7321 43.6898 25.7873 43.6034 25.8679 43.5462L26.7747 42.9021Z" fill="#EE5253"/>
<path d="M24.2993 45.4883L22.5703 55.7032H24.9853L26.7142 45.4883H24.2993Z" fill="#FF6B6B"/>
<path d="M16.4854 55.6985V47.8052C16.4854 47.545 16.382 47.2955 16.1981 47.1115C16.0141 46.9276 15.7646 46.8242 15.5044 46.8242C15.2442 46.8242 14.9947 46.9276 14.8108 47.1115C14.6268 47.2955 14.5234 47.545 14.5234 47.8052V55.6985H16.4854ZM36.6107 55.6985V47.8052C36.6107 47.545 36.5074 47.2955 36.3234 47.1115C36.1395 46.9276 35.8899 46.8242 35.6298 46.8242C35.3696 46.8242 35.1201 46.9276 34.9361 47.1115C34.7522 47.2955 34.6488 47.545 34.6488 47.8052V55.6985H36.6107Z" fill="#338DEF"/>
</svg>
