<svg width="65" height="62" viewBox="0 0 65 62" fill="none" xmlns="http://www.w3.org/2000/svg">
<path d="M65 37.6944V4.15873C65 1.86558 63.1343 6.47858e-09 60.8413 6.47858e-09H4.15873C1.8657 -0.000126947 0 1.86558 0 4.15873V37.6944H65Z" fill="#576574"/>
<path d="M6.7746 0H4.15873C1.8657 0 0 1.8657 0 4.15886V37.6945H2.61587V4.15886C2.61587 1.8657 4.48157 0 6.7746 0Z" fill="#3E4B5A"/>
<path d="M27.8789 46.6367H37.1206V58.0815H27.8789V46.6367Z" fill="#D8DCE5"/>
<path d="M27.8789 46.6367H30.4948V58.0815H27.8789V46.6367Z" fill="#C3C8D1"/>
<path d="M0 37.4297V43.5869C0 45.8801 1.86558 47.7456 4.15873 47.7456H60.8411C63.1343 47.7456 64.9999 45.8801 64.9999 43.5869V37.4297H0Z" fill="#E4EAF8"/>
<path d="M2.60495 43.5869V37.4297H0V43.5869C0 45.8801 1.86558 47.7456 4.15873 47.7456H6.76368C4.47065 47.7458 2.60495 45.8802 2.60495 43.5869Z" fill="#D8DCE5"/>
<path d="M59.1667 4.625H5.51738C5.27967 4.625 5.0517 4.71943 4.88361 4.88752C4.71552 5.0556 4.62109 5.28358 4.62109 5.52129V37.4369H60.3794V5.83766C60.3794 5.51604 60.2516 5.2076 60.0242 4.98018C59.7968 4.75276 59.4884 4.625 59.1667 4.625Z" fill="#54A0FF"/>
<path d="M8.13325 4.625H5.51738C5.27967 4.625 5.0517 4.71943 4.88361 4.88752C4.71552 5.0556 4.62109 5.28358 4.62109 5.52129V37.4369H7.23696V5.52129C7.23696 5.28358 7.33139 5.0556 7.49948 4.88752C7.66757 4.71943 7.89554 4.625 8.13325 4.625Z" fill="#338DEF"/>
<path d="M46.9758 56.9961H18.0152C17.1654 56.9961 16.4766 57.6851 16.4766 58.5349V60.2283C16.4766 61.0781 17.1655 61.7671 18.0152 61.7671H46.9758C47.8256 61.7671 48.5146 61.0781 48.5146 60.2283V58.5349C48.5145 57.6849 47.8255 56.9961 46.9758 56.9961Z" fill="#E4EAF8"/>
<path d="M46.9758 59.1491H18.0152C17.3261 59.1491 16.743 58.696 16.547 58.0715C16.5002 58.2207 16.4765 58.3763 16.4766 58.5327V60.2263C16.4766 61.0761 17.1655 61.7649 18.0152 61.7649H46.9758C47.8256 61.7649 48.5145 61.0761 48.5145 60.2263V58.5327C48.5145 58.372 48.4897 58.2171 48.444 58.0715C48.248 58.696 47.6649 59.1491 46.9758 59.1491ZM35.6531 43.5752H29.3379C29.0778 43.5752 28.8282 43.4719 28.6443 43.2879C28.4603 43.1039 28.357 42.8544 28.357 42.5943C28.357 42.3341 28.4603 42.0846 28.6443 41.9006C28.8282 41.7166 29.0778 41.6133 29.3379 41.6133H35.6531C35.9133 41.6133 36.1628 41.7166 36.3467 41.9006C36.5307 42.0846 36.6341 42.3341 36.6341 42.5943C36.6341 42.8544 36.5307 43.1039 36.3467 43.2879C36.1628 43.4719 35.9133 43.5752 35.6531 43.5752Z" fill="#D8DCE5"/>
<path d="M21.7529 10.8168C22.0293 10.1839 22.3593 9.57574 22.7393 8.99904C22.7888 8.92401 22.7796 8.82512 22.7161 8.76164L20.8316 6.87715C20.7454 6.79099 20.6771 6.6887 20.6304 6.57611C20.5838 6.46353 20.5597 6.34286 20.5597 6.22099C20.5597 6.09913 20.5838 5.97845 20.6304 5.86587C20.6771 5.75328 20.7454 5.65099 20.8316 5.56483L21.7714 4.625H5.51738C5.27967 4.625 5.0517 4.71943 4.88361 4.88752C4.71552 5.0556 4.62109 5.28358 4.62109 5.52129V10.8169L21.7529 10.8168ZM60.3793 5.83766C60.3793 5.51604 60.2515 5.2076 60.0241 4.98018C59.7967 4.75276 59.4882 4.625 59.1666 4.625H43.2289L44.1688 5.56483C44.255 5.65099 44.3233 5.75328 44.37 5.86587C44.4166 5.97845 44.4406 6.09913 44.4406 6.22099C44.4406 6.34286 44.4166 6.46353 44.37 6.57611C44.3233 6.6887 44.255 6.79099 44.1688 6.87715L42.2841 8.76164C42.2534 8.79243 42.2343 8.83291 42.2301 8.87619C42.2259 8.91947 42.2368 8.96288 42.2609 8.99904C42.6409 9.57574 42.9709 10.1839 43.2473 10.8168H60.3793V5.83766Z" fill="#338DEF"/>
<path d="M11.5317 10.8168V4.625H5.51738C5.27967 4.625 5.0517 4.71943 4.88361 4.88752C4.71552 5.0556 4.62109 5.28358 4.62109 5.52129V10.8169L11.5317 10.8168Z" fill="#FF6B6B"/>
<path d="M4.62109 5.52129V10.8169H7.23696V5.52129C7.23696 5.28358 7.33139 5.0556 7.49948 4.88752C7.66757 4.71943 7.89554 4.625 8.13325 4.625H5.51751C5.3998 4.62498 5.28323 4.64815 5.17448 4.69319C5.06572 4.73822 4.9669 4.80424 4.88366 4.88747C4.80041 4.9707 4.73438 5.06951 4.68933 5.17826C4.64428 5.28702 4.62109 5.40358 4.62109 5.52129Z" fill="#EE5253"/>
<path d="M47.255 13.3665H44.5972C44.5695 13.3662 44.5428 13.3565 44.5214 13.3388C44.5 13.3211 44.4854 13.2967 44.4799 13.2695C44.1705 11.7465 43.5701 10.2975 42.7117 9.00187C42.6961 8.97889 42.689 8.95118 42.6917 8.92353C42.6943 8.89588 42.7065 8.87001 42.7262 8.85041L44.6059 6.97087C44.9932 6.58354 44.9932 5.95321 44.6059 5.56588L42.6824 3.64254C42.2951 3.25533 41.6649 3.25533 41.2774 3.64254L39.3979 5.52221C39.3782 5.54175 39.3524 5.55388 39.3248 5.55654C39.2972 5.5592 39.2696 5.55223 39.2465 5.53681C37.9509 4.67835 36.5018 4.07794 34.9788 3.76848C34.9515 3.7633 34.9269 3.74875 34.9092 3.72736C34.8915 3.70596 34.8818 3.67906 34.8819 3.6513V0.993535C34.8819 0.445732 34.4363 0 33.8885 0H31.1684C30.6206 0 30.175 0.445732 30.175 0.993535V3.65117C30.175 3.67896 30.1654 3.70589 30.1477 3.72729C30.1299 3.74869 30.1053 3.76322 30.078 3.76835C28.555 4.07793 27.106 4.67834 25.8105 5.53668C25.7875 5.55223 25.7597 5.55928 25.7321 5.55661C25.7045 5.55395 25.6786 5.54174 25.659 5.52208L23.7793 3.64241C23.392 3.25521 22.7618 3.25521 22.3745 3.64241L20.451 5.56575C20.0637 5.95309 20.0637 6.58341 20.451 6.97074L22.3307 8.85028C22.3713 8.89091 22.3773 8.95324 22.3451 9.00174C21.4868 10.2973 20.8864 11.7464 20.5769 13.2694C20.5715 13.2965 20.5569 13.321 20.5356 13.3387C20.5142 13.3563 20.4875 13.3661 20.4598 13.3664H17.802C17.2542 13.3664 16.8086 13.812 16.8086 14.3598V17.0799C16.8086 17.6277 17.2542 18.0733 17.802 18.0733H20.4598C20.4874 18.0735 20.5142 18.0833 20.5355 18.1009C20.5569 18.1186 20.5715 18.143 20.5769 18.1702C20.8864 19.6932 21.4868 21.1422 22.3451 22.4378C22.3607 22.4608 22.3678 22.4885 22.3651 22.5162C22.3625 22.5438 22.3503 22.5696 22.3307 22.5893L20.451 24.4689C20.0637 24.8563 20.0637 25.4865 20.451 25.8738L22.3745 27.7971C22.5621 27.9848 22.8116 28.0881 23.0769 28.0881C23.3422 28.0881 23.5917 27.9848 23.7793 27.7971L25.659 25.9176C25.6786 25.8979 25.7044 25.8857 25.732 25.883C25.7597 25.8804 25.7874 25.8874 25.8103 25.903C27.1059 26.7614 28.5549 27.3618 30.078 27.6712C30.1051 27.6767 30.1296 27.6913 30.1472 27.7126C30.1648 27.734 30.1746 27.7607 30.1749 27.7884V30.4462C30.1749 30.994 30.6205 31.4397 31.1683 31.4397H33.8884C34.4362 31.4397 34.8818 30.994 34.8818 30.4462V27.7884C34.8818 27.7319 34.9225 27.6825 34.9788 27.6712C36.5018 27.3617 37.9508 26.7614 39.2464 25.903C39.2694 25.8874 39.2971 25.8803 39.3247 25.8829C39.3524 25.8856 39.3782 25.8979 39.3977 25.9176L41.2773 27.7971C41.6646 28.1846 42.2949 28.1846 42.6823 27.7971L44.6056 25.8738C44.9929 25.4865 44.9929 24.8563 44.6056 24.4689L42.7259 22.5893C42.7063 22.5697 42.6941 22.5438 42.6914 22.5162C42.6888 22.4885 42.6959 22.4608 42.7115 22.4378C43.5699 21.1423 44.1703 19.6932 44.4797 18.1702C44.4851 18.143 44.4998 18.1185 44.5211 18.1009C44.5425 18.0833 44.5693 18.0735 44.597 18.0733H47.2547C47.8025 18.0733 48.2482 17.6277 48.2482 17.0799V14.3598C48.2484 13.8121 47.8027 13.3665 47.255 13.3665Z" fill="#E4EAF8"/>
<path d="M23.1668 25.8773C22.7795 25.4899 22.7795 24.8597 23.1668 24.4724L25.0465 22.5927C25.0661 22.5731 25.0784 22.5473 25.081 22.5196C25.0836 22.492 25.0765 22.4643 25.0609 22.4413C24.2025 21.1457 23.6021 19.6967 23.2927 18.1736C23.2873 18.1465 23.2727 18.122 23.2513 18.1044C23.23 18.0868 23.2032 18.077 23.1755 18.0768H20.5178C19.97 18.0768 19.5244 17.6312 19.5244 17.0834V14.3633C19.5244 13.8155 19.97 13.3698 20.5178 13.3698H23.1755C23.2032 13.3696 23.23 13.3598 23.2513 13.3421C23.2727 13.3245 23.2873 13.3 23.2927 13.2729C23.6022 11.7498 24.2025 10.3008 25.0609 9.0052C25.0765 8.98221 25.0836 8.95451 25.0809 8.92687C25.0783 8.89923 25.0661 8.87337 25.0465 8.85375L23.1668 6.9742C22.7795 6.58687 22.7795 5.95655 23.1668 5.56921L24.4348 4.30133L23.7793 3.64587C23.392 3.25867 22.7618 3.25867 22.3745 3.64587L20.451 5.56921C20.0637 5.95655 20.0637 6.58687 20.451 6.9742L22.3307 8.85375C22.3713 8.89437 22.3773 8.9567 22.3451 9.0052C21.4868 10.3008 20.8864 11.7498 20.5769 13.2729C20.5715 13.3 20.5569 13.3245 20.5355 13.3421C20.5142 13.3598 20.4875 13.3696 20.4598 13.3698H17.802C17.2542 13.3698 16.8086 13.8155 16.8086 14.3633V17.0834C16.8086 17.6312 17.2542 18.0768 17.802 18.0768H20.4598C20.4874 18.077 20.5142 18.0868 20.5355 18.1044C20.5569 18.122 20.5715 18.1465 20.5769 18.1736C20.8864 19.6967 21.4868 21.1457 22.3451 22.4413C22.3607 22.4643 22.3678 22.492 22.3651 22.5196C22.3625 22.5473 22.3503 22.5731 22.3307 22.5927L20.451 24.4724C20.0637 24.8597 20.0637 25.4899 20.451 25.8773L22.3745 27.8006C22.5621 27.9882 22.8116 28.0916 23.0769 28.0916C23.3422 28.0916 23.5917 27.9882 23.7793 27.8006L24.4348 27.1452L23.1668 25.8773Z" fill="#D8DCE5"/>
<path d="M32.5391 23.2383C36.6898 23.2383 40.0547 19.8734 40.0547 15.7227C40.0547 11.5719 36.6898 8.20703 32.5391 8.20703C28.3883 8.20703 25.0234 11.5719 25.0234 15.7227C25.0234 19.8734 28.3883 23.2383 32.5391 23.2383Z" fill="#1DD1A1"/>
<path d="M27.7392 15.7229C27.7392 12.0359 30.3948 8.97116 33.8972 8.3317C33.4493 8.24926 32.9948 8.20753 32.5393 8.20703C28.3885 8.20703 25.0234 11.572 25.0234 15.7229C25.0234 19.8738 28.3885 23.2388 32.5393 23.2388C33.0032 23.2388 33.4566 23.1946 33.8972 23.1141C30.3948 22.4745 27.7392 19.4099 27.7392 15.7229Z" fill="#15BA8B"/>
<path d="M32.8871 0.993535C32.8871 0.445732 33.3327 0 33.8805 0H31.1646C30.9011 0 30.6485 0.104662 30.4622 0.290963C30.2759 0.477263 30.1712 0.72994 30.1712 0.993408V3.65117C30.1713 3.67896 30.1616 3.70589 30.1439 3.72729C30.1262 3.74869 30.1015 3.76322 30.0742 3.76835C30.0742 3.76835 30.7765 3.66818 32.4557 3.65308C32.5705 3.65194 32.6802 3.60557 32.7609 3.52404C32.8417 3.4425 32.8871 3.33239 32.8871 3.21763V0.993535ZM32.8871 30.4464V28.2146C32.887 28.1016 32.8421 27.9933 32.7624 27.9134C32.6826 27.8334 32.5745 27.7882 32.4616 27.7876C30.6863 27.7792 30.2316 27.7182 30.115 27.6881C30.1321 27.6987 30.1462 27.7136 30.156 27.7311C30.1659 27.7487 30.1711 27.7685 30.1712 27.7886V30.4464C30.1712 30.7099 30.2759 30.9626 30.4622 31.1489C30.6485 31.3353 30.9012 31.4399 31.1647 31.4399H33.8805C33.3327 31.4401 32.8871 30.9943 32.8871 30.4464Z" fill="#D8DCE5"/>
<path d="M30.9872 18.6602L28.8594 16.5748C28.7669 16.4848 28.693 16.3774 28.6421 16.2587C28.5911 16.14 28.5641 16.0125 28.5626 15.8834C28.561 15.7543 28.585 15.6261 28.6331 15.5063C28.6812 15.3864 28.7525 15.2773 28.8429 15.1851C28.9333 15.0928 29.041 15.0194 29.1598 14.9689C29.2786 14.9184 29.4063 14.8918 29.5354 14.8908C29.6645 14.8897 29.7926 14.9141 29.9122 14.9627C30.0319 15.0112 30.1408 15.0829 30.2327 15.1736L31.6756 16.5879L35.1911 13.1613C35.2833 13.0714 35.3924 13.0005 35.512 12.9528C35.6317 12.905 35.7596 12.8812 35.8884 12.8829C36.0172 12.8845 36.1444 12.9116 36.2628 12.9624C36.3812 13.0132 36.4884 13.0868 36.5783 13.1791C36.6682 13.2713 36.7391 13.3804 36.7869 13.5C36.8346 13.6197 36.8584 13.7476 36.8567 13.8764C36.8551 14.0052 36.8281 14.1324 36.7772 14.2508C36.7264 14.3692 36.6528 14.4764 36.5605 14.5663L32.3584 18.6621C32.1749 18.841 31.9287 18.9409 31.6724 18.9406C31.4161 18.9402 31.1702 18.8396 30.9872 18.6602Z" fill="#E4EAF8"/>
</svg>
