<svg width="65" height="65" viewBox="0 0 65 65" fill="none" xmlns="http://www.w3.org/2000/svg">
<g clip-path="url(#clip0_2096_147)">
<path d="M63.0782 27.7541H57.5595C57.4694 27.7539 57.3822 27.7225 57.3126 27.6653C57.243 27.6081 57.1954 27.5285 57.1778 27.4402C56.5366 24.296 55.2971 21.3045 53.5267 18.6282C53.4767 18.5533 53.4542 18.4634 53.463 18.3738C53.4717 18.2841 53.5113 18.2003 53.5749 18.1365L57.4776 14.2337C58.2281 13.4832 58.2281 12.2665 57.4776 11.5159L53.4838 7.5221C52.7333 6.77168 51.5164 6.77168 50.7659 7.5221L46.8631 11.4249C46.7993 11.4885 46.7155 11.5281 46.6259 11.5368C46.5362 11.5456 46.4463 11.5231 46.3714 11.473C43.6951 9.70277 40.7036 8.46329 37.5596 7.82196C37.4712 7.8044 37.3917 7.75679 37.3345 7.68722C37.2772 7.61766 37.2458 7.53042 37.2456 7.44034V1.92182C37.2459 0.860361 36.3854 0 35.3241 0H29.6759C28.6145 0 27.7541 0.860361 27.7541 1.92182V7.44034C27.7539 7.53042 27.7225 7.61766 27.6653 7.68722C27.6081 7.75679 27.5285 7.8044 27.4402 7.82196C24.2961 8.46324 21.3046 9.70273 18.6283 11.473C18.5534 11.523 18.4635 11.5456 18.3739 11.5368C18.2843 11.528 18.2004 11.4885 18.1366 11.4249L14.2339 7.5221C13.4833 6.77155 12.2665 6.77155 11.516 7.5221L7.5221 11.5159C6.77168 12.2665 6.77168 13.4832 7.5221 14.2337L11.4249 18.1365C11.4885 18.2003 11.528 18.2841 11.5368 18.3738C11.5455 18.4634 11.523 18.5533 11.473 18.6282C9.70275 21.3045 8.46326 24.2961 7.82196 27.4402C7.8044 27.5285 7.75679 27.6081 7.68722 27.6653C7.61766 27.7225 7.53042 27.7539 7.44034 27.7541H1.92169C0.860361 27.7541 0 28.6146 0 29.6759V35.3239C0 36.3854 0.860361 37.2458 1.92182 37.2458H7.44047C7.53055 37.246 7.61778 37.2774 7.68735 37.3346C7.75692 37.3918 7.80452 37.4714 7.82209 37.5597C8.46337 40.7038 9.70286 43.6953 11.4731 46.3715C11.5231 46.4465 11.5456 46.5364 11.5369 46.626C11.5281 46.7157 11.4886 46.7995 11.425 46.8634L7.52223 50.7661C6.77181 51.5167 6.77181 52.7334 7.52223 53.484L11.516 57.4778C12.2665 58.2283 13.4833 58.2283 14.2339 57.4778L18.1366 53.575C18.2004 53.5114 18.2843 53.4719 18.3739 53.4631C18.4635 53.4543 18.5534 53.4769 18.6283 53.5269C21.3046 55.2971 24.2961 56.5366 27.4402 57.1779C27.5285 57.1955 27.6081 57.2431 27.6653 57.3126C27.7225 57.3822 27.7539 57.4694 27.7541 57.5595V63.0782C27.7541 64.1396 28.6146 65 29.6759 65H35.3241C36.3854 65 37.2459 64.1395 37.2459 63.0782V57.5595C37.2461 57.4694 37.2775 57.3822 37.3347 57.3126C37.3919 57.2431 37.4715 57.1955 37.5598 57.1779C40.7039 56.5366 43.6954 55.2971 46.3717 53.5269C46.4466 53.4769 46.5365 53.4543 46.6261 53.4631C46.7157 53.4719 46.7996 53.5114 46.8634 53.575L50.7661 57.4778C51.5167 58.2283 52.7335 58.2283 53.4841 57.4778L57.4779 53.484C58.2283 52.7334 58.2283 51.5167 57.4779 50.7661L53.5751 46.8634C53.5115 46.7996 53.4719 46.7157 53.4632 46.626C53.4544 46.5364 53.477 46.4464 53.527 46.3715C55.2973 43.6953 56.5368 40.7038 57.178 37.5597C57.1956 37.4714 57.2432 37.3918 57.3128 37.3346C57.3823 37.2774 57.4696 37.246 57.5597 37.2458H63.0782C64.1396 37.2458 65 36.3853 65 35.3239V29.6758C64.9999 28.6145 64.1395 27.7541 63.0782 27.7541Z" fill="#E4EAF8"/>
<path d="M11.4249 18.1372C11.4885 18.201 11.528 18.2848 11.5368 18.3745C11.5455 18.4641 11.523 18.554 11.473 18.6289C9.70275 21.3052 8.46326 24.2968 7.82196 27.4409C7.8044 27.5292 7.75679 27.6088 7.68722 27.666C7.61766 27.7232 7.53042 27.7546 7.44034 27.7548H10.0562C10.1463 27.7546 10.2335 27.7232 10.3031 27.666C10.3727 27.6088 10.4203 27.5292 10.4378 27.4409C11.0791 24.2968 12.3186 21.3052 14.0889 18.6289C14.1389 18.554 14.1614 18.4641 14.1526 18.3745C14.1439 18.2848 14.1043 18.201 14.0408 18.1372L10.138 14.2344C9.38755 13.484 9.38755 12.2672 10.138 11.5166L14.1318 7.5228C14.1482 7.50642 14.1659 7.49233 14.1827 7.47671C13.4291 6.77466 12.25 6.78863 11.5159 7.5228L7.5221 11.5166C6.77168 12.2672 6.77168 13.4839 7.5221 14.2344L11.4249 18.1372ZM2.61587 35.3246V29.6766C2.61587 28.6152 3.47623 27.7548 4.53769 27.7548H1.92182C0.860488 27.7548 0 28.6153 0 29.6766V35.3246C0 36.3861 0.860361 37.2465 1.92182 37.2465H4.53769C3.47623 37.2465 2.61587 36.3861 2.61587 35.3246ZM14.1318 57.4785L10.138 53.4847C9.38755 52.7341 9.38755 51.5174 10.138 50.7668L14.0408 46.8641C14.1043 46.8003 14.1439 46.7164 14.1526 46.6268C14.1614 46.5372 14.1389 46.4473 14.0889 46.3724C12.3186 43.6961 11.0791 40.7046 10.4378 37.5605C10.4203 37.4722 10.3727 37.3926 10.3031 37.3354C10.2335 37.2782 10.1463 37.2468 10.0562 37.2466H7.44034C7.53042 37.2468 7.61766 37.2782 7.68722 37.3354C7.75679 37.3926 7.8044 37.4722 7.82196 37.5605C8.46324 40.7046 9.70273 43.6961 11.473 46.3724C11.523 46.4473 11.5455 46.5372 11.5368 46.6268C11.528 46.7164 11.4885 46.8003 11.4249 46.8641L7.5221 50.7668C6.77168 51.5174 6.77168 52.7341 7.5221 53.4847L11.5159 57.4785C12.25 58.2126 13.4291 58.2266 14.1827 57.5246C14.1659 57.5089 14.1482 57.4948 14.1318 57.4785Z" fill="#D8DCE5"/>
<path d="M32.5396 49.0869C41.7 49.0869 49.126 41.6609 49.126 32.5005C49.126 23.3401 41.7 15.9141 32.5396 15.9141C23.3791 15.9141 15.9531 23.3401 15.9531 32.5005C15.9531 41.6609 23.3791 49.0869 32.5396 49.0869Z" fill="#54A0FF"/>
<path d="M18.5689 32.5C18.5689 23.7801 25.2981 16.6321 33.8469 15.9652C33.4118 15.9312 32.9755 15.9141 32.539 15.9141C23.3789 15.9141 15.9531 23.3398 15.9531 32.5C15.9531 41.6602 23.3789 49.0859 32.539 49.0859C32.9793 49.0859 33.4154 49.0684 33.8469 49.0347C25.2981 48.3677 18.5689 41.2199 18.5689 32.5Z" fill="#338DEF"/>
<path d="M32.4975 45.4441C39.6477 45.4441 45.4441 39.6477 45.4441 32.4975C45.4441 25.3472 39.6477 19.5508 32.4975 19.5508C25.3472 19.5508 19.5508 25.3472 19.5508 32.4975C19.5508 39.6477 25.3472 45.4441 32.4975 45.4441Z" fill="#54A0FF"/>
<path d="M23.2306 32.4987C23.2306 25.9734 28.0585 20.5765 34.337 19.6832C26.4928 18.5671 19.5508 24.6525 19.5508 32.4987C19.5508 40.3562 26.5035 46.429 34.337 45.3142C28.0585 44.4209 23.2306 39.0241 23.2306 32.4987Z" fill="#338DEF"/>
<path d="M24.9094 20.8352C16.5663 26.2588 16.3881 38.6424 24.9163 44.1791C34.0146 50.112 46.4295 43.6634 46.4295 32.5048C46.4294 21.5254 34.1621 14.7917 24.9094 20.8352ZM42.789 38.6062C41.9804 38.1022 41.0617 37.6631 40.0606 37.2973C40.3062 36.0996 40.4612 34.8212 40.5123 33.4858H44.4271C44.275 35.3323 43.7123 37.0548 42.789 38.6062ZM20.5773 33.4858H24.492C24.5423 34.7966 24.6911 36.0652 24.9437 37.2973C23.9427 37.6632 23.0239 38.1022 22.2155 38.6062C21.2794 37.0345 20.7277 35.3123 20.5773 33.4858ZM22.2139 26.4026C23.0229 26.907 23.9423 27.3464 24.9438 27.7125C24.698 28.9116 24.5432 30.1866 24.4921 31.5239H20.5774C20.7243 29.7141 21.2842 27.9622 22.2139 26.4026ZM27.386 21.6928C26.5237 22.9142 25.8795 24.3583 25.4311 25.8053C24.6734 25.5166 23.9738 25.1821 23.3531 24.803C24.4406 23.5131 25.7991 22.4443 27.386 21.6928ZM41.6512 24.803C41.0307 25.1819 40.331 25.5165 39.5733 25.8053C39.0807 24.2161 38.4154 22.822 37.6182 21.6928C39.2042 22.4438 40.5627 23.512 41.6512 24.803ZM37.6183 43.3169C38.4156 42.1877 39.0808 40.7936 39.5734 39.2044C40.3305 39.493 41.0297 39.8272 41.65 40.2059C40.5023 41.5668 39.1268 42.6028 37.6183 43.3169ZM23.3546 40.2059C23.9748 39.8272 24.6739 39.493 25.4312 39.2045C25.9236 40.7936 26.589 42.1878 27.3861 43.3169C25.8645 42.5965 24.4925 41.5556 23.3546 40.2059ZM26.457 33.4858H31.5213V36.0536C29.8911 36.1192 28.3068 36.347 26.8388 36.7169C26.6559 35.8285 26.5093 34.6793 26.457 33.4858ZM26.8388 28.2928C28.3068 28.6627 29.8911 28.8906 31.5213 28.9561V31.5238H26.457C26.5085 30.3491 26.6474 29.2499 26.8388 28.2928ZM31.5213 20.7044V26.9915C30.0483 26.9282 28.6257 26.7239 27.3159 26.3951C27.9913 24.2104 29.3764 21.4312 31.5213 20.7044ZM27.3159 38.6148C28.6257 38.2859 30.0483 38.0818 31.5213 38.0184V44.3054C29.3648 43.5832 27.9876 40.7875 27.3159 38.6148ZM33.4832 44.3053V38.0183C34.9564 38.0816 36.3791 38.2859 37.689 38.6148C36.779 41.5575 35.2461 43.7121 33.4832 44.3053ZM33.4832 36.0536V33.4858H38.5481C38.4992 34.6095 38.3676 35.6945 38.1656 36.7169C36.6976 36.347 35.1134 36.1192 33.4832 36.0536ZM33.4832 31.5239V28.9563C35.1134 28.8906 36.6976 28.6629 38.1656 28.2929C38.3676 29.3153 38.4992 30.4003 38.5481 31.524L33.4832 31.5239ZM33.4832 26.9914V20.7044C35.2462 21.2976 36.779 23.4522 37.689 26.3948C36.3791 26.7238 34.9562 26.928 33.4832 26.9914ZM40.5123 31.5239C40.4612 30.1885 40.3063 28.9102 40.0606 27.7125C41.0622 27.3465 41.9816 26.907 42.7905 26.4026C43.7202 27.9622 44.2801 29.7142 44.4271 31.5239H40.5123Z" fill="#8AC2FF"/>
<path d="M30.3712 1.92182C30.3712 0.860361 31.2316 0 32.293 0H29.6772C28.6157 0 27.7554 0.860488 27.7554 1.92182V7.44022C27.7552 7.5303 27.7238 7.61753 27.6665 7.6871C27.6093 7.75666 27.5298 7.80427 27.4414 7.82184C27.4414 7.82184 28.3517 7.56374 29.5554 7.47208C30.015 7.43704 30.3712 7.05504 30.3712 6.59407V1.92182ZM30.3712 63.0781V58.2545C30.3712 57.877 30.0773 57.5618 29.7003 57.5425C28.5081 57.4816 27.7475 57.2734 27.5176 57.2024C27.5879 57.232 27.6479 57.2816 27.6902 57.3451C27.7324 57.4086 27.7551 57.4831 27.7552 57.5594V63.0779C27.7552 64.1394 28.6157 64.9998 29.6771 64.9998H32.2929C31.2316 64.9999 30.3712 64.1395 30.3712 63.0781Z" fill="#D8DCE5"/>
</g>
<defs>
<clipPath id="clip0_2096_147">
<rect width="65" height="65" fill="white"/>
</clipPath>
</defs>
</svg>
