<svg width="65" height="65" viewBox="0 0 65 65" fill="none" xmlns="http://www.w3.org/2000/svg">
<path d="M53.68 27.5742H12.8508C11.9107 27.5742 11.1484 28.3363 11.1484 29.2765V57.641C11.1484 58.5811 11.9105 59.3433 12.8506 59.3433H15.8734C16.0088 59.3433 16.1295 59.4246 16.1842 59.5484C17.2885 62.046 19.3375 63.7935 20.971 64.8642C21.6283 65.295 22.4417 64.614 22.1445 63.8864C21.4701 62.235 21.2897 60.6807 21.306 59.4353C21.3064 59.4036 21.3107 59.373 21.3172 59.3434H53.6798C54.6199 59.3434 55.3821 58.5813 55.3821 57.641V29.2765C55.3823 28.3365 54.6201 27.5742 53.68 27.5742Z" fill="#54A0FF"/>
<path d="M53.68 7.51562H24.3733C24.3733 11.6627 21.273 14.7629 17.126 14.7629C14.6867 14.7629 12.5201 13.599 11.1484 11.7972V17.5151C11.1484 18.4551 11.9105 19.2174 12.8508 19.2174H45.2133C45.2198 19.247 45.224 19.2776 45.2245 19.3093C45.2409 20.5556 45.0603 22.1112 44.3847 23.7639C44.0863 24.4937 44.9005 25.1703 45.56 24.738C47.2379 23.6382 49.3539 21.8244 50.4343 19.2173H53.68C54.6201 19.2173 55.3822 18.4551 55.3822 17.5149V9.21783C55.3824 8.27773 54.6202 7.51562 53.68 7.51562Z" fill="#1DD1A1"/>
<path d="M13.7643 57.6411V29.2765C13.7643 28.3365 14.5264 27.5742 15.4667 27.5742H12.8508C11.9105 27.5742 11.1484 28.3363 11.1484 29.2765V57.6411C11.1484 58.5811 11.9105 59.3433 12.8506 59.3433H15.4665C14.5264 59.3433 13.7643 58.5811 13.7643 57.6411ZM22.0947 63.7587C20.8448 62.7154 19.5844 61.322 18.8002 59.5484C18.7739 59.4877 18.7305 59.436 18.6753 59.3996C18.6201 59.3632 18.5555 59.3436 18.4893 59.3433H15.8734C16.0088 59.3433 16.1296 59.4246 16.1843 59.5484C17.2886 62.046 19.3376 63.7935 20.9711 64.8642C21.6284 65.2951 22.4418 64.614 22.1446 63.8864C22.1272 63.8437 22.1114 63.8013 22.0947 63.7587Z" fill="#338DEF"/>
<path d="M13.7643 17.5149V13.9686C12.7385 13.4532 11.8438 12.7105 11.1484 11.797V17.5149C11.1484 18.455 11.9105 19.2173 12.8508 19.2173H15.4667C14.5266 19.2173 13.7643 18.4551 13.7643 17.5149ZM19.742 14.7629C23.8891 14.7629 26.9893 11.6627 26.9893 7.51562H24.3734C24.3734 11.2068 21.9164 14.0665 18.4522 14.6511C18.8713 14.7237 19.3019 14.7629 19.742 14.7629ZM47.8405 19.3092C47.8399 19.2782 47.8361 19.2474 47.8293 19.2173H45.2134C45.2199 19.2468 45.2241 19.2774 45.2246 19.3092C45.241 20.5555 45.0605 22.111 44.3848 23.7637C44.0865 24.4936 44.9006 25.1701 45.56 24.7379C46.0782 24.3982 46.5764 24.029 47.0521 23.6322C47.6844 22.0288 47.8564 20.5222 47.8405 19.3092Z" fill="#15BA8B"/>
<path d="M28.4726 14.3291H27.4731C27.2157 14.325 26.9702 14.2198 26.7896 14.0363C26.609 13.8528 26.5078 13.6056 26.5078 13.3482C26.5078 13.0907 26.609 12.8435 26.7896 12.66C26.9702 12.4765 27.2157 12.3713 27.4731 12.3672H28.4726C28.7301 12.3713 28.9756 12.4765 29.1562 12.66C29.3368 12.8435 29.438 13.0907 29.438 13.3482C29.438 13.6056 29.3368 13.8528 29.1562 14.0363C28.9756 14.2198 28.7301 14.325 28.4726 14.3291ZM33.2748 14.3291H32.2753C32.0179 14.325 31.7724 14.2198 31.5918 14.0363C31.4112 13.8528 31.31 13.6056 31.31 13.3482C31.31 13.0907 31.4112 12.8435 31.5918 12.66C31.7724 12.4765 32.0179 12.3713 32.2753 12.3672H33.2748C33.5323 12.3713 33.7777 12.4765 33.9583 12.66C34.1389 12.8435 34.2401 13.0907 34.2401 13.3482C34.2401 13.6056 34.1389 13.8528 33.9583 14.0363C33.7777 14.2198 33.5323 14.325 33.2748 14.3291ZM38.0769 14.3291H37.0775C36.82 14.325 36.5745 14.2198 36.394 14.0363C36.2134 13.8528 36.1122 13.6056 36.1122 13.3482C36.1122 13.0907 36.2134 12.8435 36.394 12.66C36.5745 12.4765 36.82 12.3713 37.0775 12.3672H38.0769C38.3343 12.3713 38.5798 12.4765 38.7604 12.66C38.941 12.8435 39.0422 13.0907 39.0422 13.3482C39.0422 13.6056 38.941 13.8528 38.7604 14.0363C38.5798 14.2198 38.3343 14.325 38.0769 14.3291ZM42.879 14.3291H41.8795C41.6221 14.325 41.3766 14.2198 41.196 14.0363C41.0154 13.8528 40.9142 13.6056 40.9142 13.3482C40.9142 13.0907 41.0154 12.8435 41.196 12.66C41.3766 12.4765 41.6221 12.3713 41.8795 12.3672H42.879C43.1365 12.3713 43.382 12.4765 43.5626 12.66C43.7431 12.8435 43.8444 13.0907 43.8444 13.3482C43.8444 13.6056 43.7431 13.8528 43.5626 14.0363C43.382 14.2198 43.1365 14.325 42.879 14.3291ZM47.6812 14.3291H46.6817C46.4243 14.325 46.1788 14.2198 45.9982 14.0363C45.8176 13.8528 45.7164 13.6056 45.7164 13.3482C45.7164 13.0907 45.8176 12.8435 45.9982 12.66C46.1788 12.4765 46.4243 12.3713 46.6817 12.3672H47.6812C47.9386 12.3713 48.1841 12.4765 48.3647 12.66C48.5453 12.8435 48.6465 13.0907 48.6465 13.3482C48.6465 13.6056 48.5453 13.8528 48.3647 14.0363C48.1841 14.2198 47.9386 14.325 47.6812 14.3291Z" fill="#11AA7B"/>
<path d="M48.8162 35.2823H17.1255C16.8653 35.2823 16.6158 35.1789 16.4319 34.9949C16.2479 34.811 16.1445 34.5615 16.1445 34.3013C16.1445 34.0411 16.2479 33.7916 16.4319 33.6076C16.6158 33.4237 16.8653 33.3203 17.1255 33.3203H48.8161C49.0763 33.3203 49.3258 33.4236 49.5098 33.6076C49.6937 33.7915 49.7971 34.0411 49.7971 34.3012C49.7971 34.5614 49.6938 34.8109 49.5098 34.9949C49.3259 35.1789 49.0764 35.2822 48.8162 35.2823ZM48.8162 40.0517H17.1255C16.8653 40.0517 16.6158 39.9483 16.4319 39.7644C16.2479 39.5804 16.1445 39.3309 16.1445 39.0707C16.1445 38.8105 16.2479 38.561 16.4319 38.3771C16.6158 38.1931 16.8653 38.0897 17.1255 38.0897H48.8161C49.0763 38.0897 49.3258 38.1931 49.5097 38.3771C49.6937 38.561 49.7971 38.8105 49.7971 39.0707C49.7971 39.1995 49.7717 39.3271 49.7224 39.4461C49.6732 39.5651 49.6009 39.6733 49.5098 39.7644C49.4187 39.8554 49.3106 39.9277 49.1916 39.977C49.0726 40.0263 48.945 40.0517 48.8162 40.0517ZM48.8162 44.8212H17.1255C16.8653 44.8212 16.6158 44.7179 16.4319 44.5339C16.2479 44.3499 16.1445 44.1004 16.1445 43.8403C16.1445 43.5801 16.2479 43.3306 16.4319 43.1466C16.6158 42.9626 16.8653 42.8593 17.1255 42.8593H48.8161C49.0763 42.8593 49.3258 42.9626 49.5097 43.1466C49.6937 43.3306 49.7971 43.5801 49.7971 43.8403C49.7971 43.9691 49.7717 44.0966 49.7224 44.2156C49.6732 44.3347 49.6009 44.4428 49.5098 44.5339C49.4187 44.625 49.3106 44.6973 49.1916 44.7466C49.0726 44.7959 48.945 44.8212 48.8162 44.8212ZM48.8162 49.5908H17.1255C16.8653 49.5908 16.6158 49.4874 16.4319 49.3034C16.2479 49.1195 16.1445 48.87 16.1445 48.6098C16.1445 48.3496 16.2479 48.1001 16.4319 47.9161C16.6158 47.7322 16.8653 47.6288 17.1255 47.6288H48.8161C49.0763 47.6288 49.3258 47.7321 49.5098 47.9161C49.6937 48.1001 49.7971 48.3496 49.7971 48.6097C49.7971 48.8699 49.6938 49.1194 49.5098 49.3034C49.3259 49.4874 49.0764 49.5908 48.8162 49.5908ZM48.8162 54.3604H17.1255C16.8653 54.3604 16.6158 54.2571 16.4319 54.0731C16.2479 53.8892 16.1445 53.6396 16.1445 53.3795C16.1445 53.1193 16.2479 52.8698 16.4319 52.6858C16.6158 52.5018 16.8653 52.3985 17.1255 52.3985H48.8161C49.0763 52.3985 49.3258 52.5018 49.5098 52.6858C49.6937 52.8697 49.7971 53.1192 49.7971 53.3794C49.7971 53.6396 49.6938 53.8891 49.5098 54.0731C49.3259 54.2571 49.0764 54.3604 48.8162 54.3604Z" fill="#338DEF"/>
<path d="M17.1265 15.0226C21.2738 15.0226 24.6359 11.6605 24.6359 7.51325C24.6359 3.36595 21.2738 0.00390625 17.1265 0.00390625C12.9792 0.00390625 9.61719 3.36595 9.61719 7.51325C9.61719 11.6605 12.9792 15.0226 17.1265 15.0226Z" fill="#FECA57"/>
<path d="M12.2331 7.51287C12.2331 3.81228 14.9109 0.739098 18.434 0.119815C18.0022 0.0432099 17.5646 0.00442646 17.126 0.00390625C12.9789 0.00390625 9.61719 3.36578 9.61719 7.51287C9.61719 11.66 12.9791 15.0218 17.126 15.0218C17.5724 15.0218 18.009 14.9807 18.434 14.9059C14.9109 14.2866 12.2331 11.2135 12.2331 7.51287Z" fill="#F4B537"/>
<path d="M17.0691 3.14453C14.4875 3.14453 14.033 5.61138 15.4874 5.61138C16.2217 5.61138 15.9188 4.72232 17.0344 4.72232C17.2475 4.72232 17.9427 4.76955 17.9427 5.37664C17.9427 6.41068 16.1416 6.36625 16.1416 8.43624C16.1416 9.09551 16.3491 9.34053 16.9075 9.34053C17.614 9.34053 17.7195 8.96196 17.7195 8.73636C17.7195 8.17281 17.7195 7.86241 18.3156 7.39623C19.207 6.70293 19.6591 5.95733 19.6591 5.18037C19.6591 3.98167 18.5941 3.14453 17.0691 3.14453ZM16.919 9.87565C16.363 9.87565 15.9108 10.3332 15.9108 10.8955C15.9108 11.4578 16.3631 11.9153 16.919 11.9153C17.4718 11.9153 17.9388 11.4484 17.9388 10.8955C17.9388 10.3426 17.4718 9.87565 16.919 9.87565Z" fill="#E4EAF8"/>
</svg>
