<svg width="60" height="60" viewBox="0 0 60 60" fill="none" xmlns="http://www.w3.org/2000/svg">
<path d="M1.5 9.38281V39.6683C1.5 40.1785 1.91748 40.596 2.4277 40.596H45.1977C45.4648 40.596 45.7209 40.4899 45.9097 40.301C46.0986 40.1122 46.2047 39.8561 46.2047 39.589V9.38281H1.5Z" fill="#E4EAF8"/>
<path d="M3.98907 39.6683V9.38281H1.5V39.6683C1.5 40.1785 1.91748 40.596 2.4277 40.596H4.91677C4.40655 40.596 3.98907 40.1786 3.98907 39.6683Z" fill="#D8DCE5"/>
<path d="M45.277 4.50781H2.4277C1.92483 4.50781 1.5 4.93264 1.5 5.43551V9.5109H46.2046V5.43551C46.2047 4.93264 45.7797 4.50781 45.277 4.50781Z" fill="#54A0FF"/>
<path d="M7.08377 4.50781H2.4277C1.92483 4.50781 1.5 4.93264 1.5 5.43551V9.51078H7.08377V4.50781Z" fill="#FF6B6B"/>
<path d="M4.91677 4.50781H2.4277C1.92483 4.50781 1.5 4.93264 1.5 5.43551V9.51078H3.98907V5.43551C3.98907 4.93264 4.4139 4.50781 4.91677 4.50781Z" fill="#EE5253"/>
<path d="M7.16016 19.2617V49.5472C7.16016 50.0574 7.57764 50.4749 8.08785 50.4749H50.8579C50.9901 50.4749 51.121 50.4488 51.2432 50.3982C51.3654 50.3476 51.4764 50.2735 51.5699 50.1799C51.6634 50.0864 51.7375 49.9754 51.7881 49.8533C51.8387 49.7311 51.8647 49.6001 51.8647 49.4679V19.2617H7.16016Z" fill="#E4EAF8"/>
<path d="M9.64923 49.5473V19.2617H7.16016V49.5472C7.16016 50.0574 7.57764 50.4749 8.08785 50.4749H10.5769C10.0667 50.475 9.64923 50.0575 9.64923 49.5473Z" fill="#D8DCE5"/>
<path d="M50.937 14.3867H8.08785C7.58498 14.3867 7.16016 14.8115 7.16016 15.3144V19.3898H51.8647V15.3144C51.8647 14.8115 51.4399 14.3867 50.937 14.3867Z" fill="#54A0FF"/>
<path d="M45.0474 23.9688H13.9015C13.7039 23.9687 13.5143 24.0472 13.3746 24.187C13.2348 24.3267 13.1563 24.5162 13.1562 24.7139V28.6373C13.1562 28.7352 13.1755 28.8321 13.213 28.9225C13.2504 29.0129 13.3053 29.095 13.3745 29.1642C13.4437 29.2334 13.5259 29.2883 13.6163 29.3257C13.7067 29.3632 13.8036 29.3824 13.9015 29.3824H45.0474C45.245 29.3824 45.4346 29.3039 45.5743 29.1642C45.7141 29.0244 45.7926 28.8349 45.7926 28.6373V24.7139C45.7926 24.5162 45.7141 24.3267 45.5743 24.187C45.4346 24.0472 45.245 23.9687 45.0474 23.9688Z" fill="#8AC2FF"/>
<path d="M45.0474 26.8975H13.9015C13.7039 26.8975 13.5143 26.819 13.3746 26.6792C13.2348 26.5395 13.1563 26.35 13.1562 26.1523V28.6414C13.1562 28.7393 13.1755 28.8362 13.213 28.9266C13.2504 29.017 13.3053 29.0991 13.3745 29.1683C13.4437 29.2375 13.5259 29.2924 13.6163 29.3298C13.7067 29.3673 13.8036 29.3865 13.9015 29.3865H45.0474C45.245 29.3865 45.4346 29.308 45.5743 29.1683C45.7141 29.0286 45.7926 28.839 45.7926 28.6414V26.1523C45.7926 26.35 45.7141 26.5395 45.5743 26.6792C45.4346 26.819 45.245 26.8975 45.0474 26.8975Z" fill="#54A0FF"/>
<path d="M45.8001 34.4488H13.1638C12.9163 34.4488 12.6789 34.3504 12.5038 34.1754C12.3288 34.0004 12.2305 33.763 12.2305 33.5154C12.2305 33.2679 12.3288 33.0305 12.5038 32.8554C12.6789 32.6804 12.9163 32.582 13.1638 32.582H45.8001C46.3156 32.582 46.7335 32.9998 46.7335 33.5154C46.7335 34.031 46.3157 34.4488 45.8001 34.4488ZM45.8001 38.2882H13.1638C12.9163 38.2882 12.6789 38.1898 12.5038 38.0148C12.3288 37.8397 12.2305 37.6023 12.2305 37.3548C12.2305 37.1072 12.3288 36.8698 12.5038 36.6948C12.6789 36.5197 12.9163 36.4214 13.1638 36.4214H45.8001C46.3156 36.4214 46.7335 36.8392 46.7335 37.3548C46.7335 37.8703 46.3157 38.2882 45.8001 38.2882ZM45.8001 42.1275H13.1638C12.9163 42.1275 12.6789 42.0292 12.5038 41.8541C12.3288 41.6791 12.2305 41.4417 12.2305 41.1941C12.2305 40.9466 12.3288 40.7092 12.5038 40.5342C12.6789 40.3591 12.9163 40.2608 13.1638 40.2608H45.8001C46.3156 40.2608 46.7335 40.6786 46.7335 41.1941C46.7335 41.7097 46.3157 42.1275 45.8001 42.1275ZM45.8001 45.9669H13.1638C12.9163 45.9669 12.6789 45.8686 12.5038 45.6935C12.3288 45.5185 12.2305 45.2811 12.2305 45.0335C12.2305 44.786 12.3288 44.5486 12.5038 44.3735C12.6789 44.1985 12.9163 44.1001 13.1638 44.1001H45.8001C46.3156 44.1001 46.7335 44.518 46.7335 45.0335C46.7335 45.5491 46.3157 45.9669 45.8001 45.9669Z" fill="#D8DCE5"/>
<path d="M12.7439 14.3867H8.08785C7.58498 14.3867 7.16016 14.8115 7.16016 15.3144V19.3897H12.7439V14.3867Z" fill="#FF6B6B"/>
<path d="M10.5769 14.3867H8.08785C7.58498 14.3867 7.16016 14.8115 7.16016 15.3144V19.3898H9.64923V15.3144C9.64923 14.8115 10.0741 14.3867 10.5769 14.3867Z" fill="#EE5253"/>
<path d="M45.7309 33.5117C45.6564 33.5117 45.518 33.5341 45.4304 33.6843L33.0093 54.9646C32.8734 55.1973 33.0399 55.4881 33.3098 55.4881H58.1521C58.4216 55.4881 58.5888 55.1979 58.4527 54.9646L46.0316 33.6843C45.9439 33.5341 45.8056 33.5117 45.7309 33.5117Z" fill="#FF6B6B"/>
<path d="M45.6582 49.7241C44.8029 49.7241 44.1328 50.3942 44.1328 51.2496C44.1328 52.0907 44.8171 52.775 45.6582 52.775C46.4781 52.775 47.1706 52.0764 47.1706 51.2496C47.1706 50.4227 46.4781 49.7241 45.6582 49.7241ZM45.6452 40.4492C44.7777 40.4492 44.1719 40.9907 44.1719 41.766C44.1719 43.3303 44.3544 45.569 44.3544 47.0984C44.3544 47.7536 44.873 48.1935 45.6451 48.1935C46.2645 48.1935 46.9228 47.8097 46.9228 47.0984C46.9228 45.5691 47.1053 43.3302 47.1053 41.766C47.1055 41.0031 46.4913 40.4492 45.6452 40.4492Z" fill="#E4EAF8"/>
<path d="M45.9797 51.2495C45.9797 50.7516 46.2076 50.3178 46.566 50.041C46.3109 49.8439 45.9959 49.724 45.6582 49.724C44.8029 49.724 44.1328 50.394 44.1328 51.2495C44.1328 52.0906 44.8171 52.7749 45.6582 52.7749C45.9985 52.7749 46.3158 52.6533 46.5719 52.4534C46.2123 52.1741 45.9797 51.7389 45.9797 51.2495ZM46.2013 47.0984C46.2013 45.569 46.0188 43.3303 46.0188 41.766C46.0188 41.3186 46.2214 40.9499 46.5588 40.7174C46.3136 40.5477 46.0003 40.4492 45.6452 40.4492C44.7777 40.4492 44.1719 40.9907 44.1719 41.766C44.1719 43.3303 44.3544 45.569 44.3544 47.0984C44.3544 47.7536 44.873 48.1935 45.6451 48.1935C45.9696 48.1935 46.3039 48.0872 46.5496 47.8845C46.3283 47.693 46.2013 47.4221 46.2013 47.0984Z" fill="#D8DCE5"/>
<path d="M35.4983 54.9645L46.9755 35.3015L46.0315 33.6843C45.9439 33.5341 45.8056 33.5117 45.7309 33.5117C45.6562 33.5117 45.5181 33.5341 45.4304 33.6843L33.0093 54.9645C32.8734 55.1973 33.0399 55.488 33.3098 55.488H35.7989C35.5294 55.4879 35.3623 55.1976 35.4983 54.9645Z" fill="#EE5253"/>
</svg>
