<svg width="60" height="60" viewBox="0 0 60 60" fill="none" xmlns="http://www.w3.org/2000/svg">
<path d="M56.8146 25.8382H51.9752C51.8962 25.838 51.8197 25.8105 51.7586 25.7603C51.6976 25.7101 51.6558 25.6403 51.6404 25.5629C51.0782 22.8057 49.9912 20.1823 48.4387 17.8355C48.3949 17.7698 48.3751 17.691 48.3828 17.6124C48.3905 17.5338 48.4252 17.4602 48.4809 17.4043L51.9034 13.9819C52.5614 13.3237 52.5614 12.2567 51.9034 11.5986L48.4013 8.09629C47.7432 7.43823 46.6761 7.43823 46.0179 8.09629L42.5955 11.5187C42.5396 11.5745 42.466 11.6092 42.3874 11.6169C42.3088 11.6246 42.23 11.6048 42.1643 11.5609C39.8174 10.0086 37.1941 8.92164 34.437 8.35925C34.3596 8.34384 34.2898 8.30209 34.2396 8.24109C34.1894 8.18009 34.1619 8.10359 34.1617 8.0246V3.18528C34.1617 2.25447 33.4071 1.5 32.4764 1.5H27.5235C26.5926 1.5 25.8382 2.25447 25.8382 3.18528V8.0246C25.838 8.10359 25.8105 8.18009 25.7603 8.24109C25.7101 8.30209 25.6403 8.34384 25.5629 8.35925C22.8058 8.9216 20.1825 10.0085 17.8356 11.5609C17.7699 11.6048 17.6911 11.6246 17.6125 11.6169C17.5339 11.6092 17.4603 11.5745 17.4044 11.5187L13.982 8.09629C13.3238 7.43812 12.2567 7.43812 11.5987 8.09629L8.09629 11.5986C7.43823 12.2567 7.43823 13.3237 8.09629 13.9819L11.5187 17.4043C11.5745 17.4602 11.6091 17.5338 11.6168 17.6124C11.6245 17.691 11.6048 17.7698 11.5609 17.8355C10.0086 20.1824 8.92162 22.8058 8.35925 25.5629C8.34384 25.6403 8.30209 25.7101 8.24109 25.7603C8.18009 25.8105 8.10359 25.838 8.0246 25.8382H3.18517C2.25447 25.8382 1.5 26.5928 1.5 27.5236V32.4764C1.5 33.4072 2.25447 34.1617 3.18528 34.1617H8.02471C8.1037 34.1619 8.1802 34.1894 8.2412 34.2396C8.30221 34.2898 8.34396 34.3596 8.35936 34.437C8.92171 37.1941 10.0086 39.8174 11.561 42.1643C11.6049 42.23 11.6246 42.3089 11.6169 42.3875C11.6092 42.4661 11.5746 42.5396 11.5188 42.5956L8.0964 46.018C7.43834 46.6762 7.43834 47.7432 8.0964 48.4013L11.5987 51.9036C12.2567 52.5618 13.3238 52.5618 13.982 51.9036L17.4044 48.4812C17.4604 48.4254 17.5339 48.3907 17.6125 48.383C17.6911 48.3754 17.7699 48.3951 17.8356 48.439C20.1825 49.9914 22.8058 51.0783 25.5629 51.6406C25.6403 51.656 25.7101 51.6978 25.7603 51.7588C25.8105 51.8198 25.838 51.8963 25.8382 51.9753V56.8147C25.8382 57.7455 26.5928 58.5 27.5235 58.5H32.4764C33.4071 58.5 34.1617 57.7454 34.1617 56.8147V51.9753C34.1619 51.8963 34.1894 51.8198 34.2396 51.7588C34.2898 51.6978 34.3596 51.656 34.437 51.6406C37.1941 51.0783 39.8174 49.9914 42.1643 48.439C42.23 48.3951 42.3088 48.3754 42.3874 48.383C42.466 48.3907 42.5395 48.4254 42.5955 48.4812L46.0179 51.9036C46.6761 52.5618 47.7432 52.5618 48.4013 51.9036L51.9036 48.4013C52.5617 47.7432 52.5617 46.6762 51.9036 46.018L48.4812 42.5956C48.4254 42.5396 48.3907 42.4661 48.383 42.3875C48.3753 42.3089 48.3951 42.23 48.439 42.1643C49.9914 39.8174 51.0783 37.1941 51.6406 34.437C51.656 34.3596 51.6978 34.2898 51.7588 34.2396C51.8198 34.1894 51.8963 34.1619 51.9753 34.1617H56.8146C57.7454 34.1617 58.4999 33.4071 58.4999 32.4764V27.5235C58.4999 26.5928 57.7454 25.8382 56.8146 25.8382Z" fill="#E4EAF8"/>
<path d="M11.5187 17.4062C11.5745 17.4621 11.6091 17.5356 11.6168 17.6142C11.6245 17.6928 11.6048 17.7717 11.5609 17.8374C10.0086 20.1843 8.92162 22.8076 8.35925 25.5647C8.34384 25.6422 8.30209 25.712 8.24109 25.7622C8.18009 25.8124 8.10359 25.8399 8.0246 25.8401H10.3185C10.3975 25.8399 10.474 25.8124 10.535 25.7622C10.596 25.712 10.6378 25.6422 10.6532 25.5647C11.2155 22.8076 12.3025 20.1843 13.8548 17.8374C13.8987 17.7717 13.9184 17.6928 13.9108 17.6142C13.9031 17.5356 13.8684 17.4621 13.8126 17.4062L10.3902 13.9837C9.73214 13.3257 9.73214 12.2586 10.3902 11.6004L13.8925 8.09818C13.9068 8.08381 13.9224 8.07146 13.9371 8.05776C13.2763 7.44212 12.2423 7.45437 11.5986 8.09818L8.09629 11.6004C7.43823 12.2586 7.43823 13.3256 8.09629 13.9837L11.5187 17.4062ZM3.79391 32.4782V27.5253C3.79391 26.5946 4.54838 25.8401 5.47919 25.8401H3.18528C2.25458 25.8401 1.5 26.5946 1.5 27.5255V32.4783C1.5 33.4091 2.25447 34.1636 3.18528 34.1636H5.47919C4.54838 34.1636 3.79391 33.409 3.79391 32.4782ZM13.8925 51.9055L10.3902 48.4032C9.73214 47.7451 9.73214 46.6781 10.3902 46.0199L13.8126 42.5975C13.8684 42.5415 13.9031 42.468 13.9108 42.3894C13.9184 42.3108 13.8987 42.232 13.8548 42.1663C12.3024 39.8194 11.2155 37.1961 10.6532 34.439C10.6378 34.3615 10.596 34.2918 10.535 34.2416C10.474 34.1914 10.3975 34.1639 10.3185 34.1637H8.0246C8.10359 34.1639 8.18009 34.1914 8.24109 34.2416C8.30209 34.2918 8.34384 34.3615 8.35925 34.439C8.9216 37.1961 10.0085 39.8194 11.5609 42.1663C11.6048 42.232 11.6245 42.3108 11.6168 42.3894C11.6091 42.468 11.5745 42.5415 11.5187 42.5975L8.09629 46.0199C7.43823 46.6781 7.43823 47.7451 8.09629 48.4032L11.5986 51.9055C12.2423 52.5493 13.2763 52.5615 13.9371 51.9459C13.9224 51.9321 13.9068 51.9198 13.8925 51.9055Z" fill="#D8DCE5"/>
<path d="M30.0294 44.547C38.0623 44.547 44.5744 38.035 44.5744 30.002C44.5744 21.969 38.0623 15.457 30.0294 15.457C21.9964 15.457 15.4844 21.969 15.4844 30.002C15.4844 38.035 21.9964 44.547 30.0294 44.547Z" fill="#FECA57"/>
<path d="M29.9978 41.3549C36.268 41.3549 41.351 36.2719 41.351 30.0017C41.351 23.7314 36.268 18.6484 29.9978 18.6484C23.7275 18.6484 18.6445 23.7314 18.6445 30.0017C18.6445 36.2719 23.7275 41.3549 29.9978 41.3549Z" fill="#F4B537"/>
<path d="M17.7782 30.0016C17.7782 22.3549 23.6792 16.0867 31.1758 15.5019C30.7942 15.4721 30.4117 15.4571 30.0289 15.457C21.9962 15.457 15.4844 21.9688 15.4844 30.0016C15.4844 38.0343 21.9962 44.5461 30.0289 44.5461C30.415 44.5461 30.7974 44.5308 31.1758 44.5013C23.6792 43.9165 17.7782 37.6482 17.7782 30.0016Z" fill="#F4B537"/>
<path d="M20.9384 30.0014C20.9384 24.1185 25.413 19.281 31.1443 18.7059C30.7671 18.668 30.3845 18.6484 29.9974 18.6484C23.7274 18.6484 18.6445 23.7313 18.6445 30.0013C18.6445 36.2713 23.7274 41.3543 29.9974 41.3543C30.3846 41.3543 30.7671 41.3347 31.1443 41.2969C25.413 40.7219 20.9384 35.8842 20.9384 30.0014Z" fill="#E59D1F"/>
<path d="M33.1545 33.3431C33.0137 33.1636 32.9498 32.9356 32.9771 32.7091C33.0043 32.4825 33.1204 32.2761 33.2998 32.1352L36.0187 30.0006L33.2998 27.866C33.1233 27.7241 33.0099 27.5183 32.9841 27.2933C32.9583 27.0684 33.0223 26.8423 33.1622 26.6642C33.302 26.486 33.5064 26.3702 33.7311 26.3419C33.9558 26.3135 34.1826 26.3749 34.3623 26.5127L37.9429 29.3239C38.3814 29.6684 38.3809 30.3332 37.9429 30.6772L34.3623 33.4885C34.1829 33.6293 33.9548 33.6931 33.7283 33.6658C33.5018 33.6386 33.2954 33.5225 33.1545 33.3431ZM25.6358 33.4885L22.0552 30.6772C21.6167 30.3328 21.6173 29.6679 22.0552 29.3239L25.6358 26.5127C25.8155 26.3749 26.0423 26.3135 26.267 26.3419C26.4916 26.3702 26.6961 26.486 26.8359 26.6642C26.9758 26.8423 27.0398 27.0684 27.014 27.2933C26.9882 27.5183 26.8748 27.7241 26.6983 27.866L23.9794 30.0006L26.6983 32.1352C26.8748 32.2771 26.9882 32.4828 27.014 32.7078C27.0398 32.9328 26.9758 33.1589 26.8359 33.337C26.6961 33.5151 26.4916 33.6309 26.267 33.6593C26.0423 33.6876 25.8155 33.6263 25.6358 33.4885ZM28.7857 34.9052C28.5642 34.8504 28.3736 34.7099 28.2558 34.5146C28.1379 34.3193 28.1025 34.0851 28.1572 33.8637L30.1707 25.7244C30.2848 25.2631 30.7513 24.9811 31.2124 25.0959C31.4339 25.1507 31.6245 25.2912 31.7423 25.4866C31.8602 25.6819 31.8956 25.916 31.8409 26.1375L29.8274 34.2768C29.7129 34.7393 29.245 35.0194 28.7857 34.9052Z" fill="#E4EAF8"/>
<path d="M28.1317 3.18528C28.1317 2.25447 28.8863 1.5 29.817 1.5H27.5231C26.5923 1.5 25.8378 2.25458 25.8378 3.18528V8.02459C25.8376 8.10359 25.8101 8.18009 25.7599 8.24109C25.7097 8.30209 25.64 8.34384 25.5625 8.35925C25.5625 8.35925 26.4325 8.13603 27.4402 8.05421C27.8302 8.02248 28.1317 7.69863 28.1317 7.30731V3.18528ZM28.1317 56.8146V52.6919C28.1317 52.3004 27.8266 51.978 27.4359 51.9519C26.484 51.8885 25.8132 51.713 25.6207 51.6577C25.6847 51.6826 25.7396 51.7262 25.7783 51.7828C25.8171 51.8395 25.8379 51.9065 25.8379 51.9751V56.8145C25.8379 57.7453 26.5925 58.4998 27.5232 58.4998H29.8171C28.8863 58.4999 28.1317 57.7453 28.1317 56.8146Z" fill="#D8DCE5"/>
</svg>
