<svg width="60" height="60" viewBox="0 0 60 60" fill="none" xmlns="http://www.w3.org/2000/svg">
<path d="M52.2261 48.4151H7.77683C5.11052 48.4151 2.94141 46.246 2.94141 43.5797V13.8745C2.94141 11.2082 5.11052 9.03906 7.77683 9.03906H52.2263C54.8926 9.03906 57.0617 11.2082 57.0617 13.8745V43.5798C57.0616 46.246 54.8925 48.4151 52.2261 48.4151Z" fill="#576574"/>
<path d="M5.26315 43.5798V13.8745C5.26315 11.2082 7.43227 9.03906 10.0986 9.03906H7.77683C5.11052 9.03906 2.94141 11.2082 2.94141 13.8745V43.5798C2.94141 46.246 5.11052 48.4153 7.77683 48.4153H10.0986C7.43227 48.4152 5.26315 46.246 5.26315 43.5798Z" fill="#3E4B5A"/>
<path d="M6.80859 17.9883V43.5814C6.80859 44.1031 7.24923 44.5437 7.77091 44.5437H52.2203C52.742 44.5437 53.1827 44.103 53.1827 43.5814V17.9883H6.80859Z" fill="#E4EAF8"/>
<path d="M9.13023 43.5815V17.9883H6.80859V43.5815C6.80859 44.1032 7.24923 44.5438 7.77091 44.5438H10.0927C9.57098 44.5438 9.13023 44.1031 9.13023 43.5815Z" fill="#D8DCE5"/>
<path d="M52.2203 12.9141H7.77091C7.24923 12.9141 6.80859 13.3548 6.80859 13.8764V18.104H53.1827V13.8764C53.1827 13.3548 52.7419 12.9141 52.2203 12.9141Z" fill="#54A0FF"/>
<path d="M12.6009 12.9141H7.77091C7.24923 12.9141 6.80859 13.3548 6.80859 13.8764V18.104H12.6009V12.9141Z" fill="#FF6B6B"/>
<path d="M10.0733 12.9141H7.77091C7.24923 12.9141 6.80859 13.3548 6.80859 13.8764V18.104H9.11108V13.8764C9.11097 13.3548 9.55161 12.9141 10.0733 12.9141Z" fill="#EE5253"/>
<path d="M56.1224 48.4141H3.87763C2.56997 48.4141 1.5 49.484 1.5 50.7917V52.4523C1.5 53.7599 2.56986 54.8298 3.87763 54.8298H56.1224C57.4301 54.8298 58.5 53.7598 58.5 52.4523V50.7917C58.5 49.484 57.43 48.4141 56.1224 48.4141Z" fill="#E4EAF8"/>
<path d="M56.1224 52.5079H3.87763C2.6823 52.5079 1.68848 51.6132 1.52594 50.4609C1.51069 50.5694 1.5 50.6791 1.5 50.7916V52.4522C1.5 53.7597 2.56997 54.8297 3.87763 54.8297H56.1224C57.4301 54.8297 58.5 53.7597 58.5 52.4522V50.7916C58.5 50.6791 58.4893 50.5694 58.4741 50.4609C58.3115 51.6132 57.3176 52.5079 56.1224 52.5079Z" fill="#D8DCE5"/>
<path d="M19.5938 48.4141V51.19C19.5938 51.4242 19.7916 51.6219 20.0257 51.6219H39.9746C40.2087 51.6219 40.4065 51.424 40.4065 51.19V48.4141H19.5938Z" fill="#D8DCE5"/>
<path d="M21.9155 51.19V48.4141H19.5938V51.19C19.5938 51.4242 19.7916 51.622 20.0257 51.622H22.3475C22.1133 51.622 21.9155 51.4242 21.9155 51.19Z" fill="#C3C8D1"/>
<path d="M29.9995 36.9503C29.7938 36.9503 29.5882 36.9175 29.3905 36.852C21.0214 34.0793 15.3984 26.2897 15.3984 17.4684V7.10452C15.3984 6.03499 16.2655 5.16797 17.335 5.16797H42.6639C43.7334 5.16797 44.6005 6.03499 44.6005 7.10452V17.4685C44.6005 26.2898 38.9775 34.0794 30.6085 36.8521C30.412 36.917 30.2064 36.9502 29.9995 36.9503Z" fill="#ACD6FC"/>
<path d="M17.6924 17.4684V7.10452C17.6924 6.03499 18.5594 5.16797 19.6289 5.16797H17.335C16.2655 5.16797 15.3984 6.03499 15.3984 7.10452V17.4685C15.3984 26.2898 21.0214 34.0794 29.3905 36.852C29.7859 36.9829 30.2131 36.9829 30.6085 36.852C30.7887 36.792 30.968 36.7295 31.1465 36.6645C23.0755 33.7414 17.6924 26.0991 17.6924 17.4684Z" fill="#8AC2FF"/>
<path d="M40.728 9.40923C40.728 9.31105 40.689 9.2169 40.6196 9.14748C40.5502 9.07806 40.456 9.03906 40.3579 9.03906H30V19.953H40.5411C40.6653 19.13 40.7278 18.2988 40.7279 17.4665V9.40923H40.728Z" fill="#54A0FF"/>
<path d="M30.0015 9.03906H19.6437C19.5455 9.03906 19.4514 9.07806 19.3819 9.14747C19.3125 9.21689 19.2735 9.31104 19.2734 9.40923V17.4665C19.2734 18.3088 19.3376 19.1392 19.4602 19.953H30.0015V9.03906ZM30.0015 32.9324C30.0473 32.9325 30.0928 32.924 30.1356 32.9076C39.7648 29.2046 40.3786 20.1169 40.5426 19.9529H30.0015V32.9324Z" fill="#FECA57"/>
<path d="M19.4609 19.9531C19.5756 20.0678 20.3114 28.8429 29.3105 32.6812C29.7565 32.8714 29.8874 32.9326 30.002 32.9326V19.9531H19.4609Z" fill="#54A0FF"/>
<path d="M21.5674 9.40923C21.5674 9.36061 21.5769 9.31246 21.5955 9.26755C21.6142 9.22263 21.6414 9.18182 21.6758 9.14744C21.7102 9.11307 21.751 9.0858 21.7959 9.06721C21.8409 9.04861 21.889 9.03905 21.9376 9.03906H19.6437C19.5455 9.03906 19.4514 9.07806 19.3819 9.14747C19.3125 9.21689 19.2735 9.31104 19.2734 9.40923V17.4665C19.2734 18.3088 19.3376 19.1392 19.4602 19.953H21.7542C21.6299 19.13 21.5675 18.2988 21.5674 17.4665V9.40923Z" fill="#F4B537"/>
<path d="M21.7549 19.9531H19.4609C19.5756 20.0678 20.3114 28.8429 29.3105 32.6812C29.7565 32.8714 29.8874 32.9326 30.002 32.9326V31.8915C22.3993 27.6506 21.8999 20.0982 21.7549 19.9531Z" fill="#338DEF"/>
</svg>
