<svg width="60" height="60" viewBox="0 0 60 60" fill="none" xmlns="http://www.w3.org/2000/svg">
<path d="M34.0975 53.7629C33.951 53.6164 33.8688 53.4178 33.8688 53.2106C33.8688 53.0035 33.951 52.8049 34.0975 52.6584L35.6834 51.0724C35.7369 51.019 35.7447 50.9357 35.703 50.8726C34.9837 49.7851 34.48 48.5694 34.2194 47.2918C34.2122 47.2559 34.1929 47.2236 34.1646 47.2003C34.1364 47.1771 34.1009 47.1643 34.0643 47.1642H31.8217C31.6146 47.1642 31.416 47.0819 31.2695 46.9355C31.1231 46.789 31.0408 46.5904 31.0408 46.3833V44.0881C31.0408 43.881 31.1231 43.6824 31.2695 43.5359C31.416 43.3895 31.6146 43.3072 31.8217 43.3072H34.0643C34.1399 43.3072 34.2042 43.2536 34.2194 43.1796C34.48 41.9019 34.9837 40.6863 35.703 39.5987C35.7233 39.5683 35.7325 39.5317 35.7289 39.4953C35.7253 39.4589 35.7093 39.4248 35.6834 39.3989L34.0975 37.8129C33.951 37.6664 33.8688 37.4678 33.8688 37.2607C33.8688 37.0536 33.951 36.855 34.0975 36.7085L35.7204 35.0856C35.7929 35.013 35.879 34.9555 35.9738 34.9162C36.0685 34.877 36.1701 34.8568 36.2726 34.8568C36.3752 34.8568 36.4768 34.877 36.5715 34.9162C36.6663 34.9555 36.7524 35.013 36.8249 35.0856L38.4109 36.6716C38.4643 36.725 38.5476 36.7328 38.6107 36.6912C39.6982 35.9718 40.9138 35.4681 42.1915 35.2075C42.2274 35.2004 42.2597 35.181 42.283 35.1527C42.3062 35.1245 42.319 35.089 42.319 35.0524V32.8099C42.319 32.6028 42.4013 32.4042 42.5478 32.2577C42.6942 32.1112 42.8929 32.029 43.1 32.029H45.3952C45.6023 32.029 45.8009 32.1112 45.9474 32.2577C46.0938 32.4042 46.1761 32.6028 46.1761 32.8099V35.0524C46.1761 35.128 46.2296 35.1923 46.3037 35.2075C46.8467 35.3191 47.3796 35.475 47.8971 35.6735C48.4789 33.2685 48.7844 30.7669 48.7844 28.2093V6.25638C48.7844 3.63371 46.6507 1.5 44.028 1.5H7.24846C4.62579 1.5 2.49219 3.63371 2.49219 6.25638V28.2093C2.49219 41.8582 11.1928 53.9112 24.1428 58.2014C25.114 58.5232 26.163 58.5231 27.1341 58.2013C29.844 57.3046 32.4202 56.0454 34.7925 54.458L34.0975 53.7629Z" fill="#ACD6FC"/>
<path d="M26.4344 58.2014C13.4844 53.9112 4.78377 41.8582 4.78377 28.2092V6.25638C4.78377 3.63371 6.91748 1.5 9.54015 1.5H7.24846C4.62579 1.5 2.49219 3.63371 2.49219 6.25638V28.2093C2.49219 41.8582 11.1928 53.9112 24.1428 58.2014C24.996 58.4842 25.9119 58.5192 26.7841 58.3023C26.6663 58.2731 26.5497 58.2394 26.4344 58.2014Z" fill="#8AC2FF"/>
<path d="M44.0265 5.39062H25.6367V27.4206H44.8941V6.25832C44.8941 5.77983 44.5049 5.39062 44.0265 5.39062Z" fill="#54A0FF"/>
<path d="M25.6402 5.39062H7.25039C6.77202 5.39062 6.38281 5.77983 6.38281 6.2582V27.4206H25.6402V5.39062Z" fill="#FECA57"/>
<path d="M9.54197 5.39062H7.25039C6.77202 5.39062 6.38281 5.77983 6.38281 6.2582V27.4206H8.67439V6.25832C8.67428 5.77983 9.06359 5.39062 9.54197 5.39062Z" fill="#F4B537"/>
<path d="M25.6367 54.5528C25.7291 54.5528 25.8215 54.5382 25.9099 54.5089C29.2827 53.3915 32.3268 51.6734 34.9399 49.4965C34.6157 48.7913 34.3734 48.0513 34.2177 47.291C34.2105 47.2551 34.1912 47.2228 34.1629 47.1995C34.1347 47.1763 34.0992 47.1635 34.0626 47.1635H31.82C31.6129 47.1634 31.4143 47.0811 31.2678 46.9347C31.1214 46.7882 31.0391 46.5896 31.0391 46.3825V44.0874C31.0391 43.8802 31.1214 43.6816 31.2678 43.5352C31.4143 43.3887 31.6129 43.3064 31.82 43.3064H34.0626C34.1382 43.3064 34.2025 43.2528 34.2177 43.1788C34.4783 41.9012 34.982 40.6855 35.7013 39.5979C35.7216 39.5675 35.7308 39.5309 35.7272 39.4945C35.7236 39.4581 35.7076 39.424 35.6817 39.3981L34.0958 37.8121C33.9493 37.6657 33.8671 37.467 33.8671 37.2599C33.8671 37.0528 33.9493 36.8542 34.0958 36.7077L35.7187 35.0848C35.7912 35.0123 35.8773 34.9547 35.972 34.9155C36.0668 34.8762 36.1683 34.856 36.2709 34.856C36.3735 34.856 36.475 34.8762 36.5697 34.9155C36.6645 34.9547 36.7506 35.0123 36.8231 35.0848L38.4091 36.6708C38.4625 36.7242 38.5458 36.7321 38.6089 36.6904C39.6965 35.971 40.9121 35.4673 42.1898 35.2067C42.2257 35.1996 42.258 35.1802 42.2813 35.152C42.3045 35.1237 42.3173 35.0882 42.3173 35.0516V32.8091C42.3173 32.602 42.3996 32.4034 42.5461 32.2569C42.6925 32.1105 42.8912 32.0282 43.0983 32.0282H44.6319C44.8065 30.7625 44.8941 29.4862 44.894 28.2085V27.418H25.6367V54.5528Z" fill="#FECA57"/>
<path d="M6.38281 27.418V28.2085C6.38281 40.1778 14.0121 50.7472 25.3674 54.5091C25.4115 54.5237 25.4566 54.5346 25.5022 54.5418C25.5104 54.5432 25.5188 54.5427 25.527 54.5438C25.5646 54.5487 25.6024 54.5528 25.6402 54.5528V27.418H6.38281Z" fill="#54A0FF"/>
<path d="M8.67439 28.2085V27.418H6.38281V28.2085C6.38281 40.1778 14.0121 50.7472 25.3674 54.5091C25.4115 54.5237 25.4566 54.5346 25.5022 54.5418C25.5104 54.5432 25.5188 54.5427 25.527 54.5438C25.5646 54.5487 25.6024 54.5528 25.6402 54.5528V53.7522C15.4089 49.4628 8.67439 39.4538 8.67439 28.2085Z" fill="#338DEF"/>
<path d="M56.6704 43.2471H54.428C54.4046 43.2469 54.382 43.2386 54.3639 43.2237C54.3459 43.2088 54.3336 43.1882 54.329 43.1652C54.0679 41.8801 53.5613 40.6575 52.8371 39.5642C52.8239 39.5448 52.8179 39.5214 52.8202 39.4981C52.8224 39.4748 52.8327 39.453 52.8493 39.4364L54.4353 37.8505C54.762 37.5237 54.762 36.9919 54.4353 36.665L52.8124 35.0421C52.4855 34.7153 51.9537 34.7153 51.6269 35.0421L50.041 36.6281C50.0244 36.6445 50.0026 36.6548 49.9793 36.657C49.956 36.6593 49.9327 36.6534 49.9133 36.6404C48.82 35.9161 47.5974 35.4095 46.3122 35.1483C46.2892 35.1439 46.2685 35.1317 46.2535 35.1136C46.2386 35.0955 46.2305 35.0728 46.2305 35.0494V32.8071C46.2305 32.3448 45.8545 31.9688 45.3923 31.9688H43.0972C42.635 31.9688 42.2589 32.3448 42.2589 32.8071V35.0495C42.2589 35.073 42.2508 35.0957 42.2358 35.1137C42.2209 35.1318 42.2001 35.1441 42.1771 35.1484C40.892 35.4096 39.6694 35.9162 38.5762 36.6405C38.5567 36.6536 38.5334 36.6596 38.51 36.6573C38.4867 36.6551 38.4649 36.6447 38.4484 36.6282L36.8624 35.0422C36.5355 34.7154 36.0038 34.7154 35.677 35.0422L34.054 36.6651C33.7273 36.992 33.7273 37.5238 34.054 37.8507L35.64 39.4365C35.6743 39.4708 35.6793 39.5234 35.6522 39.5643C34.928 40.6576 34.4214 41.8802 34.1602 43.1654C34.1556 43.1883 34.1433 43.2089 34.1253 43.2238C34.1073 43.2387 34.0847 43.2469 34.0614 43.2472H31.8188C31.3565 43.2472 30.9805 43.6231 30.9805 44.0854V46.3805C30.9805 46.8427 31.3565 47.2187 31.8188 47.2187H34.0614C34.109 47.2187 34.1506 47.2531 34.1602 47.3004C34.4213 48.5856 34.9279 49.8082 35.6522 50.9014C35.6654 50.9208 35.6713 50.9442 35.6691 50.9675C35.6669 50.9909 35.6566 51.0127 35.64 51.0292L34.054 52.6152C33.7273 52.9421 33.7273 53.4738 34.054 53.8006L35.677 55.4236C35.7546 55.5017 35.847 55.5636 35.9487 55.6057C36.0505 55.6478 36.1595 55.6694 36.2697 55.6691C36.3798 55.6694 36.4889 55.6478 36.5906 55.6057C36.6923 55.5636 36.7847 55.5017 36.8624 55.4236L38.4484 53.8377C38.4649 53.8211 38.4867 53.8108 38.51 53.8085C38.5333 53.8063 38.5567 53.8122 38.5761 53.8254C39.6693 54.5497 40.8919 55.0563 42.1771 55.3174C42.2244 55.3269 42.2588 55.3686 42.2588 55.4162V57.6588C42.2588 58.1211 42.6349 58.4971 43.0971 58.4971H45.3922C45.8545 58.4971 46.2304 58.1211 46.2304 57.6588V55.4162C46.2304 55.3686 46.2648 55.3269 46.3122 55.3174C47.5974 55.0563 48.82 54.5497 49.9133 53.8254C49.9326 53.8122 49.956 53.8062 49.9793 53.8085C50.0027 53.8107 50.0245 53.8211 50.041 53.8377L51.6269 55.4236C51.9538 55.7506 52.4856 55.7506 52.8125 55.4236L54.4354 53.8006C54.7622 53.4738 54.7622 52.9421 54.4354 52.6152L52.8494 51.0292C52.8328 51.0127 52.8225 50.9909 52.8203 50.9675C52.818 50.9442 52.824 50.9208 52.8372 50.9014C53.5615 49.8082 54.0681 48.5856 54.3291 47.3004C54.3337 47.2775 54.3461 47.2569 54.3641 47.242C54.3821 47.2271 54.4047 47.2189 54.4281 47.2187H56.6705C57.1328 47.2187 57.5088 46.8427 57.5088 46.3805V44.0854C57.5086 43.623 57.1326 43.2471 56.6704 43.2471Z" fill="#E4EAF8"/>
<path d="M36.3456 53.8004C36.0188 53.4735 36.0188 52.9418 36.3456 52.615L37.9316 51.029C37.9482 51.0124 37.9585 50.9906 37.9607 50.9673C37.963 50.944 37.957 50.9206 37.9438 50.9012C37.2195 49.808 36.7129 48.5853 36.4518 47.3002C36.4472 47.2773 36.4349 47.2566 36.4169 47.2418C36.3989 47.2269 36.3763 47.2187 36.3529 47.2184H34.1103C33.6481 47.2184 33.272 46.8425 33.272 46.3803V44.0851C33.272 43.6229 33.6481 43.2469 34.1103 43.2469H36.3529C36.4006 43.2469 36.4422 43.2124 36.4518 43.1651C36.7129 41.88 37.2195 40.6573 37.9438 39.5641C37.957 39.5447 37.9629 39.5213 37.9607 39.498C37.9585 39.4747 37.9482 39.4528 37.9316 39.4363L36.3456 37.8504C36.0188 37.5236 36.0188 36.9917 36.3456 36.6649L37.4155 35.595L36.8624 35.0419C36.5355 34.7152 36.0038 34.7152 35.677 35.0419L34.054 36.6649C33.7273 36.9917 33.7273 37.5236 34.054 37.8504L35.64 39.4363C35.6743 39.4706 35.6793 39.5231 35.6522 39.5641C34.928 40.6573 34.4214 41.88 34.1602 43.1651C34.1556 43.188 34.1433 43.2086 34.1253 43.2235C34.1073 43.2384 34.0847 43.2467 34.0614 43.2469H31.8188C31.3565 43.2469 30.9805 43.6229 30.9805 44.0851V46.3803C30.9805 46.8425 31.3565 47.2184 31.8188 47.2184H34.0614C34.109 47.2184 34.1506 47.2528 34.1602 47.3002C34.4213 48.5853 34.9279 49.808 35.6522 50.9012C35.6654 50.9206 35.6713 50.944 35.6691 50.9673C35.6669 50.9906 35.6566 51.0124 35.64 51.029L34.054 52.615C33.7273 52.9418 33.7273 53.4735 34.054 53.8004L35.677 55.4233C35.7546 55.5014 35.847 55.5633 35.9487 55.6054C36.0505 55.6476 36.1596 55.6691 36.2697 55.6688C36.3798 55.6691 36.4889 55.6476 36.5906 55.6054C36.6923 55.5633 36.7847 55.5014 36.8624 55.4233L37.4155 54.8703L36.3456 53.8004Z" fill="#D8DCE5"/>
<path d="M44.2597 51.5779C47.7621 51.5779 50.6014 48.7387 50.6014 45.2362C50.6014 41.7338 47.7621 38.8945 44.2597 38.8945C40.7572 38.8945 37.918 41.7338 37.918 45.2362C37.918 48.7387 40.7572 51.5779 44.2597 51.5779Z" fill="#1DD1A1"/>
<path d="M40.2097 45.2362C40.2097 42.1252 42.4505 39.5392 45.4056 38.9997C45.0276 38.9302 44.6441 38.895 44.2598 38.8945C40.7574 38.8945 37.918 41.7338 37.918 45.2363C37.918 48.7388 40.7573 51.5781 44.2598 51.5781C44.6512 51.5781 45.0337 51.5408 45.4056 51.4729C42.4504 50.9332 40.2097 48.3473 40.2097 45.2362Z" fill="#15BA8B"/>
<path d="M42.9496 47.7506L41.1591 45.9957C41.0002 45.8353 40.9108 45.6189 40.9102 45.3931C40.9095 45.1673 40.9978 44.9504 41.1558 44.7892C41.3138 44.6279 41.5289 44.5353 41.7546 44.5314C41.9804 44.5275 42.1986 44.6125 42.3621 44.7682L43.5528 45.9352L46.4876 43.0745C46.6516 42.9196 46.87 42.8354 47.0955 42.84C47.3211 42.8447 47.5358 42.9379 47.6933 43.0994C47.8508 43.261 47.9384 43.478 47.9372 43.7037C47.9361 43.9293 47.8463 44.1454 47.6872 44.3054L44.1509 47.7523C43.9901 47.909 43.7744 47.9965 43.5499 47.9962C43.3254 47.9959 43.1099 47.9078 42.9496 47.7506Z" fill="#E4EAF8"/>
<path d="M44.5531 32.8071C44.5531 32.3448 44.9292 31.9688 45.3914 31.9688H43.0998C42.8775 31.9688 42.6643 32.0571 42.507 32.2143C42.3498 32.3715 42.2615 32.5847 42.2615 32.8071V35.0495C42.2616 35.073 42.2534 35.0957 42.2385 35.1137C42.2235 35.1318 42.2027 35.1441 42.1797 35.1484C42.1797 35.1484 42.7723 35.0639 44.1892 35.0511C44.286 35.0501 44.3785 35.011 44.4467 34.9422C44.5148 34.8734 44.5531 34.7804 44.5531 34.6836V32.8071ZM44.5531 57.6587V55.7756C44.5529 55.6803 44.5151 55.5889 44.4478 55.5215C44.3806 55.454 44.2893 55.4158 44.1941 55.4153C42.6961 55.4082 42.3125 55.3568 42.2141 55.3314C42.2285 55.3404 42.2404 55.3529 42.2487 55.3677C42.257 55.3826 42.2614 55.3992 42.2615 55.4162V57.6588C42.2615 57.8812 42.3498 58.0944 42.507 58.2516C42.6643 58.4088 42.8775 58.4971 43.0998 58.4971H45.3914C44.9292 58.4971 44.5531 58.121 44.5531 57.6587Z" fill="#D8DCE5"/>
</svg>
