<svg width="65" height="65" viewBox="0 0 65 65" fill="none" xmlns="http://www.w3.org/2000/svg">
<circle cx="32.5" cy="32.5" r="32.5" fill="white"/>
<g clip-path="url(#clip0_68_6)">
<path d="M48.5379 30.4429C47.141 29.156 45.688 30.6081 45.5626 30.7219L39.5952 35.6699C39.5952 35.6699 39.5072 33.9693 37.718 33.9693C32.725 33.9693 32.1353 33.8836 31.0444 34.2988V34.2988L27.0312 35.97L30.0565 43.9983C33.084 42.7384 32.066 42.8644 37.7609 42.8644C38.4472 42.8316 39.9626 42.602 41.1064 41.2907L48.4441 33.4069C48.6763 33.1407 49.7918 31.6749 48.5379 30.4429Z" fill="#FFCDBF"/>
<path d="M28.4047 35.3984L27.0312 35.9704L30.0565 43.9986C30.6364 43.7573 31.0676 43.567 31.4263 43.4167L28.4047 35.3984Z" fill="#FFBEAB"/>
<path d="M42.7508 26.3598H41.9135C41.8998 26.3597 41.8866 26.355 41.876 26.3463C41.8654 26.3376 41.8582 26.3256 41.8555 26.3122C41.7582 25.8351 41.5702 25.3811 41.3015 24.9751C41.2939 24.9637 41.2905 24.9501 41.2918 24.9365C41.2932 24.9228 41.2992 24.9101 41.3089 24.9005L41.9011 24.3083C41.9557 24.2536 41.9864 24.1794 41.9864 24.1021C41.9864 24.0247 41.9557 23.9506 41.9011 23.8959L41.295 23.2898C41.2403 23.2352 41.1662 23.2045 41.0888 23.2045C41.0115 23.2045 40.9373 23.2352 40.8826 23.2898L40.2904 23.882C40.2808 23.8917 40.268 23.8977 40.2544 23.899C40.2408 23.9003 40.2272 23.8969 40.2158 23.8893C39.8097 23.6207 39.3558 23.4326 38.8787 23.3353C38.8653 23.3326 38.8533 23.3254 38.8446 23.3149C38.8359 23.3043 38.8311 23.2911 38.8311 23.2774V22.44C38.8311 22.3627 38.8004 22.2885 38.7457 22.2338C38.691 22.1792 38.6168 22.1484 38.5395 22.1484H37.6825C37.6051 22.1484 37.531 22.1792 37.4763 22.2338C37.4216 22.2885 37.3909 22.3627 37.3909 22.44V23.2774C37.3908 23.2911 37.3861 23.3043 37.3774 23.3149C37.3687 23.3254 37.3566 23.3326 37.3432 23.3353C36.8661 23.4326 36.4122 23.6207 36.0061 23.8893C35.9948 23.8969 35.9811 23.9003 35.9675 23.899C35.9539 23.8977 35.9412 23.8917 35.9315 23.882L35.3393 23.2898C35.3122 23.2628 35.2801 23.2413 35.2447 23.2266C35.2093 23.212 35.1714 23.2044 35.1331 23.2044C35.0948 23.2044 35.0569 23.212 35.0215 23.2266C34.9862 23.2413 34.954 23.2628 34.9269 23.2898L34.3209 23.8958C34.2662 23.9505 34.2355 24.0247 34.2355 24.102C34.2355 24.1793 34.2662 24.2535 34.3209 24.3082L34.9131 24.9004C34.9227 24.9101 34.9287 24.9228 34.9301 24.9364C34.9314 24.95 34.928 24.9636 34.9204 24.975C34.6518 25.3811 34.4637 25.835 34.3664 26.3121C34.3637 26.3255 34.3565 26.3376 34.3459 26.3463C34.3354 26.3549 34.3221 26.3597 34.3084 26.3597H33.4713C33.3939 26.3597 33.3198 26.3904 33.2651 26.4451C33.2104 26.4998 33.1797 26.5739 33.1797 26.6513V27.5083C33.1797 27.5466 33.1872 27.5845 33.2019 27.6199C33.2165 27.6553 33.238 27.6874 33.2651 27.7145C33.2922 27.7416 33.3243 27.763 33.3597 27.7777C33.3951 27.7924 33.433 27.7999 33.4713 27.7999H34.3086C34.3223 27.7999 34.3356 27.8047 34.3461 27.8134C34.3567 27.8221 34.3639 27.8341 34.3666 27.8476C34.4639 28.3246 34.6519 28.7786 34.9206 29.1846C34.9282 29.196 34.9316 29.2096 34.9303 29.2232C34.9289 29.2369 34.9229 29.2496 34.9133 29.2593L34.3211 29.8515C34.2664 29.9061 34.2357 29.9803 34.2357 30.0576C34.2357 30.135 34.2664 30.2091 34.3211 30.2638L34.9271 30.8699C34.9542 30.8969 34.9864 30.9184 35.0217 30.9331C35.0571 30.9477 35.095 30.9553 35.1333 30.9553C35.1716 30.9553 35.2095 30.9477 35.2449 30.9331C35.2803 30.9184 35.3124 30.8969 35.3395 30.8699L35.9317 30.2777C35.9414 30.268 35.9541 30.262 35.9677 30.2607C35.9813 30.2594 35.995 30.2628 36.0063 30.2703C36.4124 30.539 36.8663 30.727 37.3434 30.8243C37.3568 30.827 37.3689 30.8342 37.3776 30.8448C37.3863 30.8554 37.391 30.8686 37.3911 30.8823V31.7196C37.3911 31.7579 37.3986 31.7958 37.4133 31.8312C37.4279 31.8666 37.4494 31.8987 37.4765 31.9258C37.5036 31.9529 37.5357 31.9744 37.5711 31.989C37.6064 32.0037 37.6444 32.0112 37.6827 32.0112H38.5397C38.578 32.0112 38.6159 32.0037 38.6513 31.989C38.6867 31.9744 38.7188 31.9529 38.7459 31.9258C38.7729 31.8987 38.7944 31.8666 38.8091 31.8312C38.8237 31.7958 38.8313 31.7579 38.8313 31.7196V30.8823C38.8313 30.854 38.8513 30.83 38.8789 30.8243C39.356 30.727 39.8099 30.539 40.216 30.2703C40.2274 30.2627 40.241 30.2593 40.2546 30.2607C40.2682 30.262 40.281 30.268 40.2906 30.2777L40.8828 30.8699C40.9099 30.8969 40.9421 30.9184 40.9774 30.9331C41.0128 30.9477 41.0507 30.9553 41.089 30.9553C41.1273 30.9553 41.1652 30.9477 41.2006 30.9331C41.236 30.9184 41.2681 30.8969 41.2952 30.8699L41.9012 30.2639C41.9559 30.2092 41.9866 30.135 41.9866 30.0577C41.9866 29.9804 41.9559 29.9062 41.9012 29.8515L41.309 29.2593C41.2994 29.2496 41.2934 29.2369 41.2921 29.2233C41.2907 29.2097 41.2942 29.1961 41.3017 29.1847C41.5703 28.7786 41.7584 28.3247 41.8557 27.8476C41.8584 27.8342 41.8656 27.8221 41.8762 27.8135C41.8867 27.8048 41.9 27.8 41.9137 27.8H42.751C42.8283 27.8 42.9025 27.7692 42.9572 27.7146C43.0119 27.6599 43.0426 27.5857 43.0426 27.5084V26.6513C43.0425 26.574 43.0118 26.4998 42.957 26.4452C42.9023 26.3905 42.8282 26.3598 42.7508 26.3598ZM38.1155 28.9238C37.0971 28.9238 36.2716 28.0982 36.2716 27.0799C36.2716 26.0615 37.0971 25.236 38.1155 25.236C39.1338 25.236 39.9594 26.0615 39.9594 27.0799C39.9594 28.0982 39.1338 28.9238 38.1155 28.9238Z" fill="#54A0FF"/>
<path d="M38.8311 23.2774V22.44C38.8311 22.3627 38.8004 22.2885 38.7457 22.2338C38.6911 22.1792 38.6169 22.1484 38.5396 22.1484H37.6825C37.6052 22.1484 37.531 22.1792 37.4763 22.2338C37.4217 22.2885 37.3909 22.3627 37.3909 22.44V23.2774C37.3909 23.2911 37.3861 23.3043 37.3774 23.3149C37.3688 23.3254 37.3567 23.3326 37.3433 23.3353C36.8662 23.4326 36.4123 23.6207 36.0062 23.8893C35.9948 23.8969 35.9812 23.9003 35.9676 23.899C35.954 23.8977 35.9413 23.8917 35.9316 23.882L35.3394 23.2898C35.3123 23.2628 35.2802 23.2413 35.2448 23.2266C35.2094 23.212 35.1715 23.2044 35.1332 23.2044C35.0949 23.2044 35.057 23.212 35.0216 23.2266C34.9862 23.2413 34.9541 23.2628 34.927 23.2898L34.321 23.8958C34.2663 23.9505 34.2356 24.0247 34.2356 24.102C34.2356 24.1793 34.2663 24.2535 34.321 24.3082L34.9132 24.9004C34.9228 24.9101 34.9288 24.9228 34.9301 24.9364C34.9315 24.95 34.928 24.9636 34.9204 24.975C34.6518 25.3811 34.4638 25.835 34.3664 26.3121C34.3638 26.3255 34.3565 26.3376 34.346 26.3463C34.3354 26.3549 34.3222 26.3597 34.3085 26.3597H33.4713C33.3939 26.3597 33.3198 26.3904 33.2651 26.4451C33.2104 26.4998 33.1797 26.5739 33.1797 26.6513V27.5083C33.1797 27.5856 33.2104 27.6598 33.2651 27.7145C33.3198 27.7692 33.3939 27.7999 33.4713 27.7999H34.3086C34.3223 27.7999 34.3356 27.8047 34.3461 27.8134C34.3567 27.8221 34.3639 27.8341 34.3666 27.8476C34.4639 28.3246 34.6519 28.7786 34.9206 29.1846C34.9282 29.196 34.9316 29.2096 34.9303 29.2232C34.9289 29.2369 34.9229 29.2496 34.9133 29.2593L34.3211 29.8515C34.2865 29.8861 34.2612 29.929 34.2476 29.976C34.234 30.0231 34.2324 30.0728 34.2432 30.1206C34.9291 30.562 35.8554 30.4833 36.4553 29.8835L37.3578 28.981C37.4088 28.9298 37.4567 28.8755 37.5011 28.8184C36.785 28.5653 36.2717 27.8826 36.2717 27.0798C36.2717 26.0615 37.0973 25.2359 38.1156 25.2359C38.3362 25.2359 38.5477 25.2748 38.7439 25.3459C39.172 25.022 39.4493 24.5087 39.4493 23.9317V23.4997C39.2637 23.4301 39.0731 23.3751 38.8789 23.3353C38.8655 23.3327 38.8534 23.3254 38.8447 23.3149C38.836 23.3043 38.8312 23.2911 38.8311 23.2774Z" fill="#338DEF"/>
<path d="M39.6002 35.661C39.5841 35.8236 39.5438 35.9798 39.4782 36.1235C39.2993 36.5152 39.0124 36.7395 38.6012 36.8093C37.2223 37.0434 33.7237 37.6009 33.6885 37.6065C33.6234 37.6169 33.561 37.64 33.5048 37.6744C33.4487 37.7089 33.3999 37.7541 33.3612 37.8075C33.3225 37.8608 33.2947 37.9213 33.2794 37.9853C33.2641 38.0494 33.2615 38.1159 33.2719 38.181C33.2929 38.3124 33.3652 38.4301 33.4729 38.5082C33.5806 38.5863 33.7149 38.6184 33.8463 38.5975C33.8816 38.5919 37.3853 38.0336 38.7692 37.7987C39.512 37.6726 40.0728 37.2375 40.3911 36.5402C40.5873 36.1108 40.6549 35.6244 40.5867 35.1335L40.5519 34.8828L39.6009 35.6713L39.6002 35.661Z" fill="#FFBEAB"/>
<path d="M37.6742 22.2241H36.4273C36.4069 22.224 36.3872 22.2169 36.3715 22.204C36.3558 22.1911 36.345 22.1731 36.3411 22.1531C36.1962 21.4427 35.9161 20.7668 35.5161 20.1621C35.5048 20.1452 35.4997 20.1249 35.5017 20.1046C35.5037 20.0843 35.5126 20.0654 35.527 20.051L36.4088 19.1692C36.4903 19.0877 36.536 18.9773 36.536 18.8621C36.536 18.7469 36.4903 18.6365 36.4088 18.5551L35.5064 17.6526C35.425 17.5712 35.3145 17.5255 35.1994 17.5255C35.0842 17.5255 34.9738 17.5712 34.8923 17.6526L34.0105 18.5345C33.9961 18.5489 33.9772 18.5578 33.9569 18.5598C33.9366 18.5618 33.9163 18.5567 33.8994 18.5454C33.2947 18.1454 32.6187 17.8654 31.9083 17.7204C31.8884 17.7165 31.8704 17.7057 31.8575 17.69C31.8446 17.6743 31.8375 17.6546 31.8374 17.6342V16.3873C31.8374 16.3303 31.8262 16.2738 31.8044 16.2212C31.7826 16.1685 31.7506 16.1206 31.7103 16.0803C31.6699 16.04 31.6221 16.008 31.5694 15.9862C31.5167 15.9644 31.4603 15.9531 31.4032 15.9531H30.1271C30.07 15.9531 30.0136 15.9643 29.9609 15.9862C29.9082 16.008 29.8603 16.04 29.82 16.0803C29.7797 16.1206 29.7477 16.1685 29.7259 16.2211C29.704 16.2738 29.6928 16.3303 29.6928 16.3873V17.6342C29.6928 17.6762 29.6631 17.7121 29.6219 17.7204C28.9115 17.8653 28.2356 18.1454 27.6309 18.5454C27.5959 18.5686 27.5495 18.5642 27.5198 18.5345L26.638 17.6526C26.5565 17.5712 26.4461 17.5255 26.3309 17.5255C26.2158 17.5255 26.1053 17.5712 26.0239 17.6526L25.1215 18.555C25.04 18.6364 24.9943 18.7469 24.9943 18.862C24.9943 18.9772 25.04 19.0876 25.1215 19.1691L26.0033 20.0509C26.033 20.0807 26.0373 20.127 26.0142 20.162C25.6142 20.7668 25.3342 21.4427 25.1893 22.1531C25.1853 22.173 25.1745 22.191 25.1588 22.204C25.1431 22.2169 25.1234 22.224 25.103 22.224H23.8561C23.799 22.224 23.7426 22.2352 23.6899 22.2571C23.6372 22.2789 23.5893 22.3109 23.549 22.3512C23.5087 22.3915 23.4767 22.4394 23.4549 22.4921C23.4331 22.5448 23.4219 22.6012 23.4219 22.6583V23.9344C23.4219 23.9914 23.4331 24.0479 23.4549 24.1006C23.4767 24.1533 23.5087 24.2012 23.549 24.2415C23.5893 24.2818 23.6372 24.3138 23.6899 24.3356C23.7426 24.3574 23.799 24.3687 23.8561 24.3687H25.103C25.145 24.3687 25.1808 24.3984 25.1893 24.4396C25.3342 25.15 25.6142 25.8259 26.0142 26.4306C26.0374 26.4656 26.033 26.5119 26.0033 26.5417L25.1215 27.4235C25.04 27.505 24.9943 27.6154 24.9943 27.7306C24.9943 27.8457 25.04 27.9562 25.1215 28.0376L26.0239 28.94C26.1053 29.0215 26.2158 29.0672 26.3309 29.0672C26.4461 29.0672 26.5565 29.0215 26.638 28.94L27.5198 28.0582C27.5342 28.0438 27.5532 28.0349 27.5734 28.0329C27.5937 28.0309 27.614 28.036 27.6309 28.0473C28.2356 28.4472 28.9115 28.7273 29.6219 28.8722C29.6631 28.8806 29.6928 28.9164 29.6928 28.9585V30.2054C29.6928 30.3206 29.7386 30.431 29.82 30.5125C29.9014 30.5939 30.0119 30.6397 30.1271 30.6397H31.4032C31.4603 30.6397 31.5167 30.6284 31.5694 30.6066C31.6221 30.5848 31.67 30.5528 31.7103 30.5125C31.7506 30.4722 31.7826 30.4243 31.8044 30.3716C31.8262 30.3189 31.8374 30.2624 31.8374 30.2054V28.9585C31.8374 28.9165 31.8672 28.8807 31.9083 28.8722C32.6187 28.7273 33.2947 28.4473 33.8994 28.0473C33.9163 28.036 33.9366 28.0309 33.9569 28.0329C33.9772 28.0349 33.9961 28.0438 34.0105 28.0582L34.8923 28.94C34.9738 29.0215 35.0842 29.0672 35.1994 29.0672C35.3145 29.0672 35.425 29.0215 35.5064 28.94L36.4088 28.0377C36.4902 27.9562 36.5359 27.8458 36.5359 27.7306C36.5359 27.6155 36.4902 27.505 36.4088 27.4236L35.5269 26.5417C35.5126 26.5273 35.5037 26.5084 35.5017 26.4881C35.4997 26.4679 35.5048 26.4476 35.516 26.4306C35.916 25.8259 36.1961 25.15 36.341 24.4397C36.345 24.4197 36.3557 24.4017 36.3714 24.3888C36.3872 24.3759 36.4069 24.3688 36.4272 24.3687H37.6741C37.7893 24.3687 37.8997 24.323 37.9812 24.2416C38.0626 24.1601 38.1084 24.0497 38.1084 23.9345V22.6583C38.1084 22.6012 38.0972 22.5448 38.0753 22.4921C38.0535 22.4394 38.0215 22.3916 37.9812 22.3512C37.9409 22.3109 37.8931 22.2789 37.8404 22.2571C37.7877 22.2353 37.7312 22.2241 37.6742 22.2241Z" fill="#E4EAF8"/>
<path d="M30.7763 26.8261C32.7238 26.8261 34.3026 25.2473 34.3026 23.2998C34.3026 21.3522 32.7238 19.7734 30.7763 19.7734C28.8288 19.7734 27.25 21.3522 27.25 23.2998C27.25 25.2473 28.8288 26.8261 30.7763 26.8261Z" fill="#1DD1A1"/>
<path d="M26.4595 28.0356C26.3781 27.9541 26.3323 27.8437 26.3323 27.7285C26.3323 27.6134 26.3781 27.5029 26.4595 27.4215L27.3413 26.5396C27.3557 26.5252 27.3646 26.5063 27.3666 26.486C27.3686 26.4658 27.3635 26.4455 27.3523 26.4285C26.9523 25.8238 26.6722 25.1479 26.5273 24.4376C26.5233 24.4176 26.5126 24.3996 26.4969 24.3867C26.4811 24.3738 26.4614 24.3667 26.4411 24.3666H25.1941C25.1371 24.3666 25.0806 24.3554 25.028 24.3336C24.9753 24.3118 24.9274 24.2798 24.8871 24.2394C24.8468 24.1991 24.8148 24.1512 24.793 24.0986C24.7711 24.0459 24.7599 23.9894 24.7599 23.9324V22.6562C24.7599 22.5992 24.7711 22.5427 24.793 22.49C24.8148 22.4374 24.8468 22.3895 24.8871 22.3492C24.9274 22.3088 24.9753 22.2768 25.028 22.255C25.0806 22.2332 25.1371 22.222 25.1941 22.222H26.4411C26.4831 22.222 26.5189 22.1922 26.5273 22.151C26.6722 21.4407 26.9523 20.7647 27.3523 20.16C27.3754 20.1249 27.3711 20.0786 27.3413 20.0489L26.4595 19.167C26.3781 19.0856 26.3323 18.9752 26.3323 18.86C26.3323 18.7448 26.3781 18.6344 26.4595 18.553L26.9999 18.0126L26.6379 17.6506C26.5565 17.5692 26.446 17.5234 26.3309 17.5234C26.2157 17.5234 26.1053 17.5692 26.0238 17.6506L25.1215 18.553C25.04 18.6344 24.9943 18.7448 24.9943 18.86C24.9943 18.9752 25.04 19.0856 25.1215 19.167L26.0033 20.0489C26.033 20.0786 26.0373 20.1249 26.0142 20.16C25.6142 20.7647 25.3342 21.4406 25.1893 22.151C25.1853 22.171 25.1745 22.189 25.1588 22.2019C25.1431 22.2148 25.1234 22.2219 25.103 22.222H23.8561C23.799 22.222 23.7426 22.2332 23.6899 22.255C23.6372 22.2768 23.5893 22.3088 23.549 22.3492C23.5087 22.3895 23.4767 22.4374 23.4549 22.49C23.4331 22.5427 23.4219 22.5992 23.4219 22.6562V23.9324C23.4219 23.9894 23.4331 24.0459 23.4549 24.0986C23.4767 24.1512 23.5087 24.1991 23.549 24.2394C23.5893 24.2798 23.6372 24.3118 23.6899 24.3336C23.7426 24.3554 23.799 24.3666 23.8561 24.3666H25.103C25.145 24.3666 25.1808 24.3964 25.1893 24.4376C25.3342 25.1479 25.6142 25.8238 26.0142 26.4285C26.0374 26.4636 26.033 26.5099 26.0033 26.5396L25.1215 27.4215C25.04 27.5029 24.9943 27.6134 24.9943 27.7285C24.9943 27.8437 25.04 27.9541 25.1215 28.0356L26.0238 28.938C26.1053 29.0194 26.2157 29.0652 26.3309 29.0652C26.446 29.0652 26.5565 29.0194 26.6379 28.938L26.9999 28.576L26.4595 28.0356Z" fill="#D8DCE5"/>
<path d="M28.5881 23.2996C28.5881 21.581 29.8178 20.1504 31.4451 19.8377C31.2247 19.7951 31.0007 19.7736 30.7761 19.7734C28.8287 19.7734 27.25 21.3522 27.25 23.2996C27.25 25.247 28.8287 26.8257 30.7761 26.8257C31.005 26.8257 31.2284 26.8031 31.4451 26.7615C29.8178 26.4488 28.5881 25.0182 28.5881 23.2996Z" fill="#15BA8B"/>
<path d="M30.0342 24.7142L29.0386 23.7385C28.9913 23.6924 28.9535 23.6375 28.9274 23.5768C28.9014 23.5161 28.8875 23.4508 28.8868 23.3848C28.886 23.3187 28.8982 23.2532 28.9228 23.1919C28.9474 23.1306 28.9839 23.0747 29.0301 23.0276C29.0764 22.9804 29.1315 22.9428 29.1923 22.917C29.2531 22.8911 29.3183 22.8775 29.3844 22.877C29.4504 22.8765 29.516 22.889 29.5772 22.9138C29.6384 22.9386 29.6941 22.9753 29.7411 23.0217L30.3864 23.6542L32.0014 22.08C32.0486 22.034 32.1044 21.9977 32.1656 21.9733C32.2268 21.9488 32.2922 21.9367 32.3581 21.9375C32.424 21.9384 32.4891 21.9522 32.5497 21.9782C32.6102 22.0042 32.6651 22.0419 32.711 22.0891C32.757 22.1363 32.7933 22.1921 32.8177 22.2533C32.8422 22.3145 32.8543 22.3799 32.8535 22.4458C32.8526 22.5117 32.8388 22.5768 32.8128 22.6373C32.7868 22.6979 32.7491 22.7527 32.702 22.7987L30.7357 24.7152C30.6418 24.8067 30.5158 24.8578 30.3847 24.8576C30.2536 24.8575 30.1278 24.806 30.0342 24.7142Z" fill="#E4EAF8"/>
<path d="M23.4254 35.9453C22.2909 36.3728 18.8264 37.6781 16.3361 38.6169C15.968 38.7555 15.7824 39.1661 15.9209 39.5338L19.3316 48.5847C19.4702 48.9526 19.8806 49.1385 20.2487 48.9998L27.3381 46.3282L23.4254 35.9453Z" fill="#576574"/>
<path d="M19.4177 47.6354C19.2793 47.6877 19.1285 47.6978 18.9844 47.6645L19.33 48.5816C19.4686 48.9496 19.879 49.1354 20.2471 48.9967L27.3365 46.3251L26.7842 44.8594C25.395 45.3829 20.2103 47.3368 19.4177 47.6354Z" fill="#3E4B5A"/>
<path d="M31.0348 16.3873C31.0348 16.2776 31.0764 16.1719 31.1513 16.0916C31.2261 16.0114 31.3286 15.9624 31.438 15.9547C31.4278 15.954 31.4175 15.9531 31.4071 15.9531H30.1309C30.0157 15.9531 29.9053 15.9989 29.8238 16.0803C29.7424 16.1618 29.6966 16.2722 29.6966 16.3874V17.6343C29.6966 17.6763 29.6669 17.7121 29.6257 17.7205C29.6257 17.7205 30.0748 17.6476 30.8287 17.6359C30.8835 17.6352 30.9359 17.6129 30.9745 17.5739C31.013 17.5349 31.0347 17.4823 31.0348 17.4274L31.0348 16.3873ZM31.0348 30.2054V29.2018C31.0347 29.1375 31.0094 29.0757 30.9643 29.0299C30.9193 28.984 30.858 28.9576 30.7937 28.9563C30.0615 28.9429 29.634 28.8716 29.5742 28.861C29.5918 28.8648 29.6091 28.8689 29.6268 28.8725C29.6465 28.8766 29.6643 28.8874 29.6771 28.9031C29.6898 28.9187 29.6967 28.9383 29.6967 28.9585V30.2055C29.6967 30.3207 29.7425 30.4311 29.8239 30.5126C29.9053 30.594 30.0158 30.6397 30.131 30.6397H31.4071C31.4176 30.6397 31.4278 30.6389 31.4381 30.6382C31.2128 30.6221 31.0348 30.4348 31.0348 30.2054Z" fill="#D8DCE5"/>
<path d="M26.1242 34.9234L23.4219 35.9417L27.3345 46.3246L30.0367 45.3062C30.3614 45.1839 30.5254 44.8218 30.4031 44.4973L26.9333 35.2893C26.811 34.9649 26.4489 34.801 26.1242 34.9234Z" fill="#E4EAF8"/>
<path d="M30.4061 44.4946L30.0401 43.5234C29.9653 43.6209 29.8647 43.6956 29.7497 43.7389L26.8987 44.8134L26.8986 44.8134L26.7852 44.8561L27.3375 46.3219L30.0396 45.3035C30.3645 45.1811 30.5284 44.819 30.4061 44.4946Z" fill="#D8DCE5"/>
</g>
<defs>
<clipPath id="clip0_68_6">
<rect width="35" height="35" fill="white" transform="translate(15 15)"/>
</clipPath>
</defs>
</svg>
