<svg width="65" height="65" viewBox="0 0 65 65" fill="none" xmlns="http://www.w3.org/2000/svg">
<circle cx="32.5" cy="32.5" r="32.5" fill="white"/>
<path d="M43.6886 32.6974C43.2275 32.6988 42.7684 32.7592 42.3226 32.877C42.2064 32.9077 42.0948 32.8201 42.0949 32.6998V32.6974C42.0949 28.6752 38.8341 25.4141 34.8116 25.4141C33.1978 25.4141 31.7075 25.9395 30.5007 26.8279C30.6776 27.224 30.8108 27.6382 30.898 28.0631C30.9069 28.1067 30.9447 28.1382 30.9892 28.1382H32.3083C32.4301 28.1382 32.547 28.1866 32.6331 28.2728C32.7193 28.3589 32.7677 28.4757 32.7677 28.5976V29.9476C32.7677 30.0695 32.7193 30.1863 32.6331 30.2725C32.5469 30.3586 32.4301 30.407 32.3083 30.407H30.9892C30.9447 30.407 30.9068 30.4385 30.8979 30.4821C30.7446 31.2336 30.4484 31.9486 30.0252 32.5883C30.0133 32.6062 30.0079 32.6277 30.01 32.6491C30.0121 32.6706 30.0215 32.6906 30.0367 32.7059L30.9696 33.6388C31.0558 33.7249 31.1041 33.8417 31.1041 33.9636C31.1041 34.0854 31.0558 34.2022 30.9696 34.2884L30.015 35.243C29.9724 35.2857 29.9218 35.3195 29.866 35.3426C29.8103 35.3657 29.7505 35.3776 29.6902 35.3776C29.6299 35.3776 29.5701 35.3657 29.5144 35.3426C29.4587 35.3195 29.408 35.2857 29.3654 35.243L28.4325 34.3101C28.4172 34.2949 28.3972 34.2855 28.3758 34.2834C28.3543 34.2813 28.3329 34.2867 28.3149 34.2986C27.6752 34.7217 26.9602 35.018 26.2087 35.1713C26.1876 35.1755 26.1686 35.1869 26.1549 35.2035C26.1412 35.2202 26.1337 35.241 26.1337 35.2625V36.5816C26.1337 36.7035 26.0853 36.8203 25.9992 36.9064C25.913 36.9926 25.7962 37.041 25.6744 37.041H24.3243C24.264 37.041 24.2042 37.0291 24.1485 37.006C24.0928 36.9829 24.0421 36.9491 23.9995 36.9064C23.9568 36.8637 23.923 36.8131 23.8999 36.7574C23.8768 36.7016 23.8649 36.6419 23.8649 36.5816V35.2625C23.8649 35.218 23.8334 35.1801 23.7899 35.1712C23.0384 35.018 22.3234 34.7217 21.6837 34.2986C21.6658 34.2866 21.6443 34.2812 21.6228 34.2833C21.6014 34.2854 21.5814 34.2948 21.5661 34.31L20.6332 35.243C20.5471 35.3291 20.4303 35.3775 20.3084 35.3775C20.1866 35.3775 20.0698 35.3291 19.9836 35.243L19.029 34.2884C18.9429 34.2022 18.8945 34.0854 18.8945 33.9636C18.8945 33.8417 18.9429 33.7249 19.029 33.6388L19.9006 32.7671C17.5878 33.4018 15.8861 35.513 15.8751 38.0244C15.8617 41.0512 18.4026 43.5274 21.4294 43.5274H43.7101C46.7458 43.5274 49.1985 41.029 49.1232 37.976C49.0511 35.0475 46.618 32.6859 43.6886 32.6974Z" fill="#54A0FF"/>
<path d="M32.3084 26.769H31.9558C31.8774 26.5512 31.7888 26.3373 31.6901 26.128L31.7088 26.1094C31.2838 26.3101 30.8793 26.5515 30.5008 26.8302C30.6777 27.2263 30.8109 27.6405 30.8981 28.0655C30.907 28.109 30.9448 28.1405 30.9893 28.1405H32.3084C32.4302 28.1405 32.547 28.1889 32.6332 28.2751C32.7193 28.3612 32.7677 28.4781 32.7677 28.5999V29.9499C32.7677 30.0103 32.7558 30.07 32.7327 30.1257C32.7097 30.1815 32.6758 30.2321 32.6332 30.2748C32.5905 30.3174 32.5399 30.3513 32.4841 30.3744C32.4284 30.3975 32.3686 30.4093 32.3083 30.4093H30.9892C30.9447 30.4093 30.9069 30.4408 30.898 30.4844C30.7447 31.2359 30.4484 31.951 30.0253 32.5906C30.0134 32.6086 30.008 32.63 30.0101 32.6515C30.0122 32.6729 30.0216 32.6929 30.0368 32.7082L30.9697 33.6411C31.0558 33.7272 31.1042 33.8441 31.1042 33.9659C31.1042 34.0877 31.0558 34.2045 30.9697 34.2907L30.015 35.2453C29.9724 35.288 29.9218 35.3218 29.866 35.3449C29.8103 35.368 29.7505 35.3799 29.6902 35.3799C29.6299 35.3799 29.5701 35.368 29.5144 35.3449C29.4587 35.3218 29.408 35.288 29.3654 35.2453L28.4325 34.3124C28.4172 34.2972 28.3972 34.2878 28.3758 34.2857C28.3543 34.2836 28.3329 34.289 28.3149 34.3009C27.6753 34.7241 26.9602 35.0203 26.2087 35.1736C26.1876 35.1778 26.1686 35.1892 26.1549 35.2058C26.1412 35.2225 26.1337 35.2433 26.1336 35.2649V36.584C26.1336 36.6443 26.1218 36.704 26.0987 36.7597C26.0756 36.8155 26.0418 36.8661 25.9991 36.9088C25.9564 36.9514 25.9058 36.9852 25.8501 37.0083C25.7944 37.0314 25.7346 37.0433 25.6743 37.0433H24.3242C24.2024 37.0433 24.0856 36.9949 23.9994 36.9087C23.9132 36.8226 23.8648 36.7057 23.8648 36.5839V35.2648C23.8648 35.2203 23.8334 35.1825 23.7898 35.1736C23.0383 35.0203 22.3233 34.724 21.6836 34.3009C21.6657 34.2889 21.6442 34.2835 21.6228 34.2856C21.6013 34.2877 21.5813 34.2972 21.5661 34.3124L20.6332 35.2453C20.5905 35.2879 20.5399 35.3218 20.4842 35.3449C20.4284 35.3679 20.3687 35.3798 20.3084 35.3798C20.248 35.3798 20.1883 35.3679 20.1326 35.3449C20.0768 35.3218 20.0262 35.2879 19.9836 35.2453L19.0289 34.2906C18.8496 34.1112 18.8508 33.8192 19.0289 33.641L19.9006 32.7694C19.0214 33.0107 18.2011 33.4769 17.5309 34.1298L17.5304 34.1303C16.5151 35.1196 15.8818 36.4986 15.8751 38.0267C15.8617 41.0535 18.4026 43.5298 21.4294 43.5298H22.7675C19.7407 43.5298 17.1999 41.0535 17.2132 38.0267C17.2165 37.0318 17.4924 36.0569 18.0109 35.2079C18.0851 35.2881 17.8715 35.0729 19.0136 36.2149C19.729 36.9305 20.8874 36.931 21.603 36.2151L21.8525 35.9656C22.0618 36.0643 22.2757 36.1529 22.4934 36.2313V36.5839C22.4934 37.5935 23.3148 38.4148 24.3244 38.4148H25.6744C26.684 38.4148 27.5054 37.5935 27.5054 36.5839V36.2313C27.7231 36.1529 27.9369 36.0643 28.1462 35.9656L28.3955 36.2149C29.11 36.9296 30.2696 36.9304 30.9851 36.2151L31.9398 35.2603C32.6552 34.5447 32.6553 33.3865 31.9396 32.6711L31.6902 32.4217C31.7888 32.2124 31.8774 31.9985 31.9558 31.7808H32.3084C33.318 31.7808 34.1393 30.9595 34.1393 29.9499V28.5998C34.1393 27.5904 33.318 26.769 32.3084 26.769Z" fill="#338DEF"/>
<path d="M32.3062 28.1028H30.9871C30.9733 28.1026 30.9599 28.0978 30.9493 28.089C30.9387 28.0802 30.9314 28.068 30.9286 28.0544C30.7751 27.2986 30.4771 26.5794 30.0511 25.9364C30.0433 25.9249 30.0398 25.9111 30.0411 25.8973C30.0425 25.8836 30.0486 25.8707 30.0584 25.8609L30.9912 24.928C31.037 24.8823 31.0734 24.828 31.0982 24.7682C31.123 24.7084 31.1357 24.6443 31.1357 24.5796C31.1357 24.5149 31.123 24.4508 31.0982 24.391C31.0734 24.3312 31.037 24.2769 30.9912 24.2312L30.0366 23.2765C29.9909 23.2307 29.9366 23.1944 29.8768 23.1696C29.817 23.1448 29.7529 23.132 29.6881 23.132C29.6234 23.132 29.5593 23.1448 29.4995 23.1696C29.4397 23.1944 29.3854 23.2307 29.3397 23.2765L28.4068 24.2094C28.397 24.2191 28.3841 24.2251 28.3704 24.2264C28.3566 24.2277 28.3429 24.2243 28.3314 24.2167C27.6884 23.7907 26.9692 23.4927 26.2133 23.3391C26.1998 23.3363 26.1876 23.3291 26.1788 23.3184C26.17 23.3078 26.1651 23.2945 26.165 23.2807V21.9616C26.165 21.6899 25.9439 21.4688 25.6722 21.4688H24.3221C24.0504 21.4688 23.8293 21.6899 23.8293 21.9616V23.2807C23.8292 23.2945 23.8243 23.3078 23.8155 23.3185C23.8067 23.3291 23.7945 23.3364 23.7809 23.3391C23.0251 23.4926 22.3059 23.7906 21.663 24.2167C21.6515 24.2244 21.6377 24.2279 21.6239 24.2266C21.6101 24.2253 21.5973 24.2192 21.5875 24.2094L20.6546 23.2765C20.6089 23.2307 20.5546 23.1944 20.4948 23.1696C20.435 23.1448 20.3709 23.132 20.3061 23.132C20.2414 23.132 20.1773 23.1448 20.1175 23.1696C20.0577 23.1944 20.0034 23.2307 19.9577 23.2765L19.003 24.2312C18.9572 24.2769 18.9209 24.3312 18.8961 24.391C18.8713 24.4508 18.8586 24.5149 18.8586 24.5796C18.8586 24.6443 18.8713 24.7084 18.8961 24.7682C18.9209 24.828 18.9572 24.8823 19.003 24.928L19.9359 25.8609C19.9562 25.8812 19.9591 25.9122 19.9432 25.9364C19.5172 26.5794 19.2192 27.2986 19.0656 28.0544C19.0628 28.068 19.0556 28.0802 19.0449 28.089C19.0343 28.0978 19.0209 28.1026 19.0071 28.1028H17.6882C17.4164 28.1028 17.1953 28.3239 17.1953 28.5956V29.9456C17.1953 30.2173 17.4164 30.4384 17.6882 30.4384H19.0072C19.0359 30.4384 19.0599 30.4583 19.0657 30.4867C19.2193 31.2426 19.5172 31.9617 19.9432 32.6048C19.9874 32.6716 19.9567 32.6594 19.0031 33.6131C18.9573 33.6588 18.921 33.7132 18.8962 33.773C18.8714 33.8328 18.8586 33.8968 18.8586 33.9616C18.8586 34.0263 18.8714 34.0904 18.8962 34.1502C18.921 34.21 18.9573 34.2643 19.0031 34.3101L19.9577 35.2646C20.0508 35.3577 20.1746 35.409 20.3062 35.409C20.4378 35.409 20.5616 35.3577 20.6547 35.2646L21.5876 34.3318C21.5973 34.322 21.6102 34.3159 21.624 34.3145C21.6377 34.3132 21.6516 34.3167 21.663 34.3245C22.306 34.7505 23.0251 35.0485 23.781 35.2021C23.7945 35.2048 23.8067 35.2121 23.8155 35.2227C23.8243 35.2333 23.8292 35.2467 23.8293 35.2605V36.5796C23.8293 36.8513 24.0504 37.0724 24.3222 37.0724H25.6722C25.9439 37.0724 26.1651 36.8513 26.1651 36.5796V35.2605C26.1651 35.2323 26.1853 35.2077 26.2134 35.2021C26.9693 35.0485 27.6884 34.7505 28.3314 34.3245C28.3429 34.3167 28.3567 34.3132 28.3705 34.3145C28.3842 34.3159 28.3971 34.322 28.4068 34.3318L29.3397 35.2646C29.5318 35.4568 29.8445 35.4569 30.0367 35.2646L30.9914 34.3101C31.0372 34.2643 31.0735 34.21 31.0983 34.1502C31.1231 34.0904 31.1358 34.0263 31.1358 33.9616C31.1358 33.8968 31.1231 33.8328 31.0983 33.773C31.0735 33.7132 31.0372 33.6588 30.9914 33.6131L30.0585 32.6802C30.0487 32.6705 30.0426 32.6576 30.0413 32.6438C30.04 32.63 30.0435 32.6162 30.0512 32.6048C30.4772 31.9617 30.7752 31.2426 30.9288 30.4867C30.9315 30.4732 30.9388 30.461 30.9494 30.4522C30.9601 30.4434 30.9734 30.4385 30.9872 30.4384H32.3063C32.578 30.4384 32.7991 30.2173 32.7991 29.9456V28.5955C32.799 28.3238 32.578 28.1028 32.3062 28.1028Z" fill="#E4EAF8"/>
<path d="M20.3569 34.3109C20.3111 34.2651 20.2747 34.2108 20.2499 34.151C20.2251 34.0912 20.2124 34.0271 20.2124 33.9624C20.2124 33.8977 20.2251 33.8336 20.2499 33.7738C20.2747 33.714 20.3111 33.6597 20.3569 33.6139L21.2897 32.681C21.2995 32.6713 21.3056 32.6584 21.3069 32.6446C21.3083 32.6308 21.3047 32.617 21.297 32.6056C20.871 31.9626 20.573 31.2434 20.4195 30.4875C20.4169 30.4739 20.4096 30.4617 20.3989 30.4528C20.3883 30.444 20.3748 30.4392 20.361 30.4393H19.0419C18.7702 30.4393 18.5491 30.2181 18.5491 29.9464V28.5964C18.5491 28.3247 18.7701 28.1036 19.0419 28.1036H20.361C20.3748 28.1034 20.3882 28.0986 20.3988 28.0898C20.4094 28.081 20.4167 28.0688 20.4195 28.0553C20.5731 27.2994 20.8711 26.5802 21.2971 25.9372C21.3048 25.9257 21.3083 25.9119 21.307 25.8982C21.3057 25.8844 21.2996 25.8715 21.2898 25.8617L20.3569 24.9289C20.3111 24.8831 20.2748 24.8288 20.25 24.769C20.2252 24.7092 20.2125 24.6451 20.2125 24.5804C20.2125 24.5157 20.2252 24.4516 20.25 24.3918C20.2748 24.332 20.3111 24.2777 20.3569 24.232L20.9831 23.6057L20.6547 23.2773C20.609 23.2315 20.5547 23.1952 20.4949 23.1704C20.4351 23.1456 20.371 23.1328 20.3063 23.1328C20.2415 23.1328 20.1774 23.1456 20.1176 23.1704C20.0578 23.1952 20.0035 23.2315 19.9578 23.2773L19.0031 24.232C18.9574 24.2777 18.921 24.332 18.8962 24.3918C18.8714 24.4516 18.8587 24.5157 18.8587 24.5804C18.8587 24.6451 18.8714 24.7092 18.8962 24.769C18.921 24.8288 18.9574 24.8831 19.0031 24.9289L19.936 25.8617C19.9563 25.882 19.9593 25.913 19.9433 25.9372C19.5173 26.5802 19.2193 27.2994 19.0657 28.0553C19.063 28.0688 19.0557 28.081 19.045 28.0898C19.0344 28.0986 19.021 28.1035 19.0072 28.1036H17.6882C17.4164 28.1036 17.1953 28.3247 17.1953 28.5964V29.9464C17.1953 30.2181 17.4164 30.4393 17.6882 30.4393H19.0072C19.0359 30.4393 19.0599 30.4591 19.0657 30.4875C19.2193 31.2434 19.5172 31.9625 19.9432 32.6056C19.9874 32.6725 19.9567 32.6602 19.0031 33.6139C18.9573 33.6597 18.921 33.714 18.8962 33.7738C18.8714 33.8336 18.8586 33.8977 18.8586 33.9624C18.8586 34.0271 18.8714 34.0912 18.8962 34.151C18.921 34.2108 18.9573 34.2651 19.0031 34.3109L19.9577 35.2654C20.0508 35.3586 20.1746 35.4098 20.3062 35.4098C20.4378 35.4098 20.5616 35.3585 20.6547 35.2654L20.9831 34.9371L20.3569 34.3109Z" fill="#D8DCE5"/>
<path d="M25.0037 32.9995C27.0638 32.9995 28.7339 31.3294 28.7339 29.2693C28.7339 27.2091 27.0638 25.5391 25.0037 25.5391C22.9435 25.5391 21.2734 27.2091 21.2734 29.2693C21.2734 31.3294 22.9435 32.9995 25.0037 32.9995Z" fill="#1DD1A1"/>
<path d="M22.6115 29.2694C22.6115 27.4377 23.932 25.9155 25.6727 25.6001C25.452 25.5598 25.2281 25.5393 25.0037 25.5391C22.9435 25.5391 21.2734 27.2092 21.2734 29.2694C21.2734 31.3296 22.9435 32.9997 25.0037 32.9997C25.2322 32.9997 25.4555 32.978 25.6727 32.9386C23.932 32.6232 22.6115 31.101 22.6115 29.2694Z" fill="#15BA8B"/>
<path d="M24.2403 30.747L23.187 29.7148C23.1397 29.6687 23.1019 29.6138 23.0759 29.5531C23.0498 29.4924 23.036 29.4271 23.0352 29.3611C23.0344 29.295 23.0467 29.2295 23.0713 29.1682C23.0959 29.1069 23.1323 29.0511 23.1786 29.0039C23.2248 28.9567 23.2799 28.9191 23.3407 28.8933C23.4015 28.8675 23.4668 28.8539 23.5328 28.8533C23.5989 28.8528 23.6644 28.8653 23.7256 28.8901C23.7868 28.915 23.8425 28.9516 23.8895 28.998L24.5925 29.6869L26.3214 28.0018C26.3686 27.9558 26.4244 27.9196 26.4856 27.8951C26.5468 27.8707 26.6122 27.8586 26.6781 27.8594C26.744 27.8603 26.8091 27.8741 26.8696 27.9001C26.9302 27.9261 26.985 27.9638 27.031 28.011C27.077 28.0582 27.1132 28.114 27.1377 28.1752C27.1621 28.2364 27.1743 28.3018 27.1734 28.3677C27.1726 28.4335 27.1587 28.4986 27.1328 28.5592C27.1068 28.6197 27.0691 28.6746 27.0219 28.7205L24.9418 30.7479C24.8479 30.8394 24.7219 30.8906 24.5908 30.8904C24.4597 30.8902 24.3339 30.8387 24.2403 30.747Z" fill="#E4EAF8"/>
<path d="M25.1833 21.9617C25.1833 21.6905 25.4034 21.4699 25.6743 21.4689L25.6725 21.4688H24.3224C24.1917 21.4688 24.0664 21.5207 23.9739 21.6131C23.8815 21.7055 23.8296 21.8309 23.8296 21.9616V23.2807C23.8295 23.2945 23.8246 23.3078 23.8158 23.3185C23.807 23.3291 23.7948 23.3364 23.7812 23.3391C23.7812 23.3391 23.9017 23.2876 24.9616 23.2813C25.0205 23.2809 25.0768 23.2573 25.1183 23.2156C25.1598 23.1739 25.1832 23.1174 25.1833 23.0586L25.1833 21.9617ZM25.1833 36.5796V35.5422C25.1832 35.4675 25.1537 35.3959 25.1011 35.343C25.0485 35.29 24.9772 35.2599 24.9025 35.2592C24.0246 35.2504 23.7813 35.2021 23.7813 35.2021C23.7948 35.2048 23.807 35.2121 23.8158 35.2227C23.8246 35.2333 23.8295 35.2467 23.8296 35.2605V36.5796C23.8296 36.7103 23.8816 36.8356 23.974 36.928C24.0664 37.0204 24.1918 37.0724 24.3225 37.0724H25.6725L25.6743 37.0723C25.4035 37.0714 25.1833 36.8507 25.1833 36.5796Z" fill="#D8DCE5"/>
</svg>
