<svg width="65" height="65" viewBox="0 0 65 65" fill="none" xmlns="http://www.w3.org/2000/svg">
<circle cx="32.5" cy="32.5" r="32.5" fill="white"/>
<path d="M49.125 35.9853V18.8305C49.125 17.6574 48.1706 16.7031 46.9977 16.7031H18.0024C16.8294 16.7031 15.875 17.6574 15.875 18.8305V35.9853H49.125Z" fill="#576574"/>
<path d="M19.3405 16.7031H18.0024C16.8294 16.7031 15.875 17.6575 15.875 18.8305V35.9853H17.2131V18.8305C17.2131 17.6575 18.1675 16.7031 19.3405 16.7031Z" fill="#3E4B5A"/>
<path d="M30.1367 40.5625H34.8642V46.417H30.1367V40.5625Z" fill="#D8DCE5"/>
<path d="M30.1367 40.5625H31.4748V46.417H30.1367V40.5625Z" fill="#C3C8D1"/>
<path d="M15.875 35.8516V39.0012C15.875 40.1743 16.8293 41.1286 18.0024 41.1286H46.9976C48.1706 41.1286 49.1249 40.1743 49.1249 39.0012V35.8516H15.875Z" fill="#E4EAF8"/>
<path d="M17.2075 39.0012V35.8516H15.875V39.0012C15.875 40.1743 16.8293 41.1286 18.0024 41.1286H19.3349C18.1619 41.1286 17.2075 40.1743 17.2075 39.0012Z" fill="#D8DCE5"/>
<path d="M46.1405 19.0703H18.6968C18.5752 19.0703 18.4586 19.1186 18.3726 19.2046C18.2866 19.2906 18.2383 19.4072 18.2383 19.5288V35.8549H46.7608V19.6906C46.7608 19.5261 46.6954 19.3683 46.5791 19.252C46.4628 19.1357 46.305 19.0703 46.1405 19.0703Z" fill="#54A0FF"/>
<path d="M20.0349 19.0703H18.6968C18.5752 19.0703 18.4586 19.1186 18.3726 19.2046C18.2866 19.2906 18.2383 19.4072 18.2383 19.5288V35.8549H19.5764V19.5288C19.5764 19.4072 19.6247 19.2906 19.7107 19.2046C19.7967 19.1186 19.9133 19.0703 20.0349 19.0703Z" fill="#338DEF"/>
<path d="M39.9062 45.8516H25.0918C24.6571 45.8516 24.3047 46.204 24.3047 46.6387V47.505C24.3047 47.9397 24.6571 48.2921 25.0918 48.2921H39.9062C40.3409 48.2921 40.6934 47.9397 40.6934 47.505V46.6387C40.6933 46.2039 40.3409 45.8516 39.9062 45.8516Z" fill="#E4EAF8"/>
<path d="M39.9062 46.9546H25.0918C24.7393 46.9546 24.441 46.7228 24.3407 46.4034C24.3168 46.4797 24.3046 46.5593 24.3047 46.6393V47.5056C24.3047 47.9403 24.6571 48.2927 25.0918 48.2927H39.9062C40.3409 48.2927 40.6933 47.9403 40.6933 47.5056V46.6393C40.6933 46.5571 40.6806 46.4779 40.6573 46.4034C40.557 46.7228 40.2587 46.9546 39.9062 46.9546ZM34.1142 38.988H30.8838C30.7507 38.988 30.623 38.9351 30.5289 38.841C30.4348 38.7469 30.382 38.6193 30.382 38.4862C30.382 38.3531 30.4348 38.2255 30.5289 38.1313C30.623 38.0372 30.7507 37.9844 30.8838 37.9844H34.1142C34.2473 37.9844 34.3749 38.0372 34.469 38.1313C34.5632 38.2255 34.616 38.3531 34.616 38.4862C34.616 38.6193 34.5632 38.7469 34.469 38.841C34.3749 38.9351 34.2473 38.988 34.1142 38.988Z" fill="#D8DCE5"/>
<path d="M27.0019 22.2376C27.1433 21.9139 27.3121 21.6028 27.5065 21.3078C27.5318 21.2694 27.527 21.2188 27.4946 21.1864L26.5306 20.2224C26.4865 20.1783 26.4515 20.126 26.4277 20.0684C26.4038 20.0108 26.3915 19.9491 26.3915 19.8867C26.3915 19.8244 26.4038 19.7627 26.4277 19.7051C26.4515 19.6475 26.4865 19.5951 26.5306 19.5511L27.0113 19.0703H18.6968C18.5752 19.0703 18.4586 19.1186 18.3726 19.2046C18.2866 19.2906 18.2383 19.4072 18.2383 19.5288V22.2377L27.0019 22.2376ZM46.7607 19.6906C46.7607 19.5261 46.6954 19.3683 46.5791 19.252C46.4627 19.1357 46.3049 19.0703 46.1404 19.0703H37.9877L38.4684 19.5511C38.5125 19.5951 38.5475 19.6475 38.5714 19.7051C38.5952 19.7627 38.6075 19.8244 38.6075 19.8867C38.6075 19.9491 38.5952 20.0108 38.5714 20.0684C38.5475 20.126 38.5125 20.1783 38.4684 20.2224L37.5044 21.1864C37.4887 21.2021 37.4789 21.2228 37.4767 21.245C37.4746 21.2671 37.4801 21.2893 37.4925 21.3078C37.6869 21.6028 37.8557 21.9139 37.9971 22.2376H46.7607V19.6906Z" fill="#338DEF"/>
<path d="M21.7733 22.2376V19.0703H18.6968C18.5752 19.0703 18.4586 19.1186 18.3726 19.2046C18.2866 19.2906 18.2383 19.4072 18.2383 19.5288V22.2377L21.7733 22.2376Z" fill="#FF6B6B"/>
<path d="M18.2383 19.5288V22.2377H19.5764V19.5288C19.5764 19.4072 19.6247 19.2906 19.7107 19.2046C19.7967 19.1186 19.9133 19.0703 20.0349 19.0703H18.6968C18.6366 19.0703 18.577 19.0822 18.5214 19.1052C18.4657 19.1282 18.4152 19.162 18.3726 19.2046C18.33 19.2472 18.2962 19.2977 18.2732 19.3533C18.2501 19.409 18.2383 19.4686 18.2383 19.5288Z" fill="#EE5253"/>
<path d="M40.0472 23.5406H38.6876C38.6734 23.5405 38.6597 23.5355 38.6488 23.5264C38.6379 23.5174 38.6304 23.5049 38.6276 23.491C38.4693 22.7119 38.1622 21.9707 37.7231 21.3079C37.7151 21.2962 37.7115 21.282 37.7128 21.2679C37.7142 21.2537 37.7204 21.2405 37.7305 21.2305L38.692 20.269C38.8902 20.0709 38.8902 19.7484 38.692 19.5503L37.7081 18.5664C37.51 18.3684 37.1876 18.3684 36.9894 18.5664L36.0279 19.5279C36.0179 19.5379 36.0047 19.5441 35.9906 19.5455C35.9765 19.5469 35.9623 19.5433 35.9505 19.5354C35.2878 19.0963 34.5465 18.7891 33.7674 18.6308C33.7534 18.6282 33.7409 18.6208 33.7318 18.6098C33.7228 18.5989 33.7178 18.5851 33.7178 18.5709V17.2114C33.7178 16.9311 33.4899 16.7031 33.2097 16.7031H31.8182C31.538 16.7031 31.3101 16.9311 31.3101 17.2114V18.5708C31.3101 18.5851 31.3052 18.5988 31.2961 18.6098C31.287 18.6207 31.2744 18.6282 31.2605 18.6308C30.4814 18.7891 29.7402 19.0963 29.0775 19.5353C29.0657 19.5433 29.0515 19.5469 29.0374 19.5455C29.0232 19.5442 29.01 19.5379 29 19.5279L28.0385 18.5664C27.8403 18.3683 27.518 18.3683 27.3198 18.5664L26.3359 19.5502C26.1378 19.7484 26.1378 20.0708 26.3359 20.2689L27.2974 21.2304C27.3182 21.2512 27.3212 21.2831 27.3048 21.3079C26.8657 21.9706 26.5586 22.7118 26.4003 23.4909C26.3975 23.5048 26.3901 23.5173 26.3791 23.5264C26.3682 23.5354 26.3545 23.5404 26.3404 23.5405H24.9808C24.7006 23.5405 24.4727 23.7685 24.4727 24.0487V25.4401C24.4727 25.7204 24.7006 25.9483 24.9808 25.9483H26.3404C26.3545 25.9484 26.3682 25.9534 26.3791 25.9625C26.39 25.9715 26.3975 25.984 26.4003 25.9979C26.5586 26.777 26.8657 27.5182 27.3048 28.1809C27.3128 28.1927 27.3164 28.2069 27.315 28.221C27.3137 28.2351 27.3075 28.2484 27.2974 28.2584L26.3359 29.2199C26.1378 29.4181 26.1378 29.7404 26.3359 29.9386L27.3198 30.9224C27.4158 31.0184 27.5434 31.0713 27.6791 31.0713C27.8149 31.0713 27.9425 31.0184 28.0385 30.9224L29 29.961C29.01 29.9509 29.0232 29.9446 29.0373 29.9433C29.0515 29.9419 29.0656 29.9455 29.0774 29.9535C29.7401 30.3926 30.4814 30.6997 31.2605 30.858C31.2743 30.8608 31.2868 30.8683 31.2959 30.8792C31.3049 30.8901 31.3099 30.9038 31.31 30.918V32.2775C31.31 32.5577 31.538 32.7857 31.8182 32.7857H33.2096C33.4898 32.7857 33.7178 32.5577 33.7178 32.2775V30.918C33.7178 30.8891 33.7386 30.8638 33.7674 30.858C34.5465 30.6997 35.2877 30.3926 35.9505 29.9535C35.9622 29.9455 35.9764 29.9419 35.9905 29.9432C36.0047 29.9446 36.0179 29.9509 36.0279 29.961L36.9893 30.9224C37.1875 31.1206 37.5099 31.1206 37.708 30.9224L38.6919 29.9386C38.89 29.7404 38.89 29.4181 38.6919 29.2199L37.7304 28.2584C37.7203 28.2484 37.7141 28.2352 37.7127 28.221C37.7114 28.2069 37.715 28.1927 37.723 28.1809C38.1621 27.5182 38.4692 26.777 38.6275 25.9979C38.6303 25.984 38.6378 25.9715 38.6487 25.9624C38.6596 25.9534 38.6733 25.9484 38.6875 25.9483H40.047C40.3273 25.9483 40.5552 25.7204 40.5552 25.4401V24.0487C40.5553 23.7686 40.3273 23.5406 40.0472 23.5406Z" fill="#E4EAF8"/>
<path d="M27.7251 29.9348C27.527 29.7367 27.527 29.4143 27.7251 29.2162L28.6866 28.2547C28.6967 28.2446 28.703 28.2314 28.7043 28.2173C28.7057 28.2031 28.702 28.1889 28.694 28.1772C28.2549 27.5145 27.9478 26.7732 27.7895 25.9941C27.7868 25.9802 27.7793 25.9677 27.7684 25.9587C27.7574 25.9497 27.7438 25.9447 27.7296 25.9446H26.37C26.0898 25.9446 25.8619 25.7166 25.8619 25.4364V24.045C25.8619 23.7647 26.0898 23.5368 26.37 23.5368H27.7296C27.7438 23.5367 27.7575 23.5317 27.7684 23.5226C27.7793 23.5136 27.7868 23.5011 27.7895 23.4872C27.9478 22.7081 28.2549 21.9669 28.694 21.3041C28.702 21.2924 28.7056 21.2782 28.7043 21.264C28.7029 21.2499 28.6967 21.2367 28.6866 21.2266L27.7251 20.2652C27.527 20.067 27.527 19.7446 27.7251 19.5465L28.3738 18.8979L28.0385 18.5626C27.8403 18.3645 27.518 18.3645 27.3198 18.5626L26.3359 19.5465C26.1378 19.7446 26.1378 20.067 26.3359 20.2652L27.2974 21.2266C27.3182 21.2474 27.3212 21.2793 27.3048 21.3041C26.8657 21.9669 26.5586 22.7081 26.4003 23.4872C26.3975 23.5011 26.3901 23.5136 26.3791 23.5226C26.3682 23.5317 26.3545 23.5367 26.3404 23.5368H24.9808C24.7006 23.5368 24.4727 23.7647 24.4727 24.045V25.4364C24.4727 25.7166 24.7006 25.9446 24.9808 25.9446H26.3404C26.3545 25.9447 26.3682 25.9497 26.3791 25.9587C26.39 25.9677 26.3975 25.9802 26.4003 25.9941C26.5586 26.7732 26.8657 27.5144 27.3048 28.1772C27.3128 28.189 27.3164 28.2031 27.315 28.2173C27.3137 28.2314 27.3075 28.2446 27.2974 28.2547L26.3359 29.2162C26.1378 29.4143 26.1378 29.7367 26.3359 29.9348L27.3198 30.9187C27.4158 31.0147 27.5434 31.0675 27.6791 31.0675C27.8149 31.0675 27.9425 31.0147 28.0385 30.9187L28.3738 30.5834L27.7251 29.9348Z" fill="#D8DCE5"/>
<path d="M32.5203 28.5875C34.6436 28.5875 36.3648 26.8662 36.3648 24.743C36.3648 22.6197 34.6436 20.8984 32.5203 20.8984C30.397 20.8984 28.6758 22.6197 28.6758 24.743C28.6758 26.8662 30.397 28.5875 32.5203 28.5875Z" fill="#1DD1A1"/>
<path d="M30.065 24.7431C30.065 22.8571 31.4235 21.2893 33.2151 20.9622C32.9859 20.92 32.7534 20.8987 32.5204 20.8984C30.3971 20.8984 28.6758 22.6198 28.6758 24.7431C28.6758 26.8664 30.3971 28.5878 32.5204 28.5878C32.7577 28.5878 32.9896 28.5652 33.2151 28.524C31.4235 28.1968 30.065 26.6291 30.065 24.7431Z" fill="#15BA8B"/>
<path d="M32.6987 17.2114C32.6987 16.9311 32.9266 16.7031 33.2068 16.7031H31.8175C31.6828 16.7031 31.5535 16.7567 31.4582 16.852C31.3629 16.9473 31.3094 17.0765 31.3094 17.2113V18.5708C31.3094 18.5851 31.3045 18.5988 31.2954 18.6098C31.2863 18.6207 31.2737 18.6282 31.2598 18.6308C31.2598 18.6308 31.619 18.5795 32.478 18.5718C32.5367 18.5712 32.5928 18.5475 32.6341 18.5058C32.6754 18.4641 32.6986 18.4078 32.6987 18.3491V17.2114ZM32.6987 32.2776V31.136C32.6986 31.0782 32.6756 31.0228 32.6349 30.9819C32.5941 30.941 32.5388 30.9178 32.481 30.9176C31.5728 30.9133 31.3403 30.882 31.2806 30.8667C31.2894 30.8721 31.2966 30.8797 31.3016 30.8887C31.3066 30.8977 31.3093 30.9078 31.3094 30.9181V32.2776C31.3094 32.4124 31.3629 32.5417 31.4582 32.637C31.5536 32.7323 31.6828 32.7859 31.8176 32.7859H33.2068C32.9266 32.7859 32.6987 32.5579 32.6987 32.2776Z" fill="#D8DCE5"/>
<path d="M31.7266 26.2444L30.6382 25.1777C30.5909 25.1316 30.5531 25.0767 30.527 25.016C30.501 24.9553 30.4872 24.89 30.4864 24.824C30.4856 24.7579 30.4978 24.6924 30.5224 24.6311C30.547 24.5698 30.5835 24.5139 30.6297 24.4668C30.676 24.4196 30.7311 24.382 30.7919 24.3562C30.8527 24.3303 30.918 24.3167 30.984 24.3162C31.0501 24.3157 31.1156 24.3282 31.1768 24.353C31.238 24.3778 31.2937 24.4145 31.3407 24.4609L32.0788 25.1844L33.8771 23.4315C33.9243 23.3855 33.9801 23.3493 34.0413 23.3248C34.1025 23.3004 34.1679 23.2883 34.2338 23.2891C34.2997 23.2899 34.3648 23.3038 34.4253 23.3298C34.4859 23.3558 34.5407 23.3934 34.5867 23.4406C34.6327 23.4878 34.669 23.5436 34.6934 23.6048C34.7178 23.666 34.73 23.7314 34.7291 23.7973C34.7283 23.8632 34.7145 23.9283 34.6885 23.9888C34.6625 24.0494 34.6248 24.1042 34.5776 24.1502L32.4281 26.2454C32.3342 26.3369 32.2082 26.388 32.0772 26.3878C31.9461 26.3877 31.8202 26.3362 31.7266 26.2444Z" fill="#E4EAF8"/>
</svg>
