<svg width="65" height="65" viewBox="0 0 65 65" fill="none" xmlns="http://www.w3.org/2000/svg">
<circle cx="32.5" cy="32.5" r="32.5" fill="white"/>
<path d="M23.1786 27.4844C21.08 27.4844 19.3789 29.1855 19.3789 31.2841V32.7877C19.6329 32.5523 19.9941 32.4244 20.3468 32.4715V32.2822C20.3468 32.1316 20.4753 32.0127 20.6244 32.024C22.0935 32.1296 23.5885 31.6628 24.719 30.9243C24.7701 30.8909 24.8313 30.8766 24.8919 30.884C24.9524 30.8914 25.0085 30.9199 25.05 30.9646C26.0165 32.0034 26.0107 31.9632 26.0107 32.0989V32.4706C26.3972 32.4127 26.7401 32.5321 26.9783 32.7537V31.284C26.9783 29.1856 25.2773 27.4844 23.1786 27.4844Z" fill="#576574"/>
<path d="M20.3988 31.2841C20.3988 29.3586 21.8313 27.7687 23.6885 27.5194C23.5195 27.4964 23.3492 27.4847 23.1786 27.4844C21.08 27.4844 19.3789 29.1855 19.3789 31.2841V32.7877C19.6328 32.5523 19.9941 32.4244 20.3468 32.4715V32.2822C20.3468 32.2237 20.3663 32.1702 20.3987 32.127L20.3988 31.2841Z" fill="#3E4B5A"/>
<path d="M25.9609 32.3192V34.4007C25.9609 34.4233 25.9597 34.4456 25.9592 34.4681C26.6958 34.5796 27.2727 34.0474 27.2727 33.3938C27.2726 32.7388 26.6953 32.2092 25.9609 32.3192ZM20.3978 34.4007V32.3201C19.7565 32.2344 19.0859 32.7266 19.0859 33.3938C19.0859 34.0466 19.6616 34.5797 20.3994 34.4681C20.3989 34.4456 20.3978 34.4232 20.3978 34.4007Z" fill="#FFBEAB"/>
<path d="M26.8823 32.5617C26.6469 32.3664 26.323 32.2649 25.9608 32.3192V34.4007C25.9608 34.4233 25.9596 34.4456 25.9591 34.4681C26.3224 34.5231 26.6467 34.4212 26.8823 34.2257V32.5617ZM20.3977 34.2258C20.2753 34.1244 20.1768 33.9973 20.1094 33.8534C20.0419 33.7096 20.0071 33.5526 20.0074 33.3937C20.0074 33.0716 20.1639 32.7906 20.3977 32.5954V32.32C19.7565 32.2343 19.0859 32.7265 19.0859 33.3937C19.0859 34.0465 19.6615 34.5796 20.3994 34.4679C20.3989 34.4455 20.3978 34.4231 20.3978 34.4007L20.3977 34.2258Z" fill="#F7AF9F"/>
<path d="M23.2196 37.1487C22.6057 37.1487 22.0662 36.9802 21.625 36.6983V38.1895L23.2128 40.1493L24.8004 38.1895V36.6562C24.3359 36.9774 23.7844 37.1492 23.2196 37.1487Z" fill="#FFBEAB"/>
<path d="M22.6419 37.0932C22.2633 37.023 21.9218 36.8849 21.625 36.6953V38.1866L22.6419 39.4417V37.0932Z" fill="#F7AF9F"/>
<path d="M29.0001 39.7126L24.7998 38.0859L23.2121 40.0457L21.6244 38.0859L17.4285 39.7126C17.4285 39.7126 15.875 40.3513 15.875 42.1222V46.0527C15.875 46.1485 15.9131 46.2405 15.9809 46.3082C16.0486 46.376 16.1405 46.4141 16.2364 46.4141H30.1954C30.2904 46.4141 30.3815 46.3763 30.4487 46.3092C30.5159 46.242 30.5536 46.1509 30.5536 46.0559V42.1223C30.5536 40.3513 29.0001 39.7126 29.0001 39.7126Z" fill="#54A0FF"/>
<path d="M16.8918 46.0544V41.6664C16.8918 40.4514 17.623 39.7694 18.0821 39.4609L17.4285 39.7143C17.4285 39.7143 15.875 40.353 15.875 42.124V46.0544C15.875 46.1503 15.9131 46.2422 15.9809 46.31C16.0486 46.3777 16.1406 46.4158 16.2364 46.4158H17.2533C17.1574 46.4158 17.0655 46.3778 16.9977 46.31C16.9299 46.2422 16.8918 46.1503 16.8918 46.0544Z" fill="#338DEF"/>
<path d="M25.049 30.8637C25.0074 30.8191 24.9514 30.7905 24.8908 30.7831C24.8302 30.7758 24.769 30.79 24.7179 30.8234C23.5874 31.5619 22.0924 32.0287 20.6233 31.9232C20.4743 31.9119 20.3457 32.0308 20.3457 32.1813V34.4514C20.3457 35.9103 21.4889 37.2428 23.218 37.2428C24.7572 37.2428 26.0095 35.9905 26.0095 34.4514V31.9981C26.0096 31.8624 26.0153 31.9026 25.049 30.8637Z" fill="#FFCDBF"/>
<path d="M21.3626 34.4507V31.9285C21.1162 31.9419 20.8693 31.9399 20.6233 31.9226C20.4743 31.9113 20.3457 32.0302 20.3457 32.1808V34.4508C20.3457 35.9097 21.4889 37.2422 23.218 37.2422C23.3775 37.2422 23.5337 37.2281 23.686 37.2022C22.369 36.9788 21.3626 35.8304 21.3626 34.4507Z" fill="#FFBEAB"/>
<path d="M25.13 41.0527L26.3172 38.6733L24.8006 38.0859L23.2129 40.0457L24.7608 41.1451C24.7903 41.166 24.824 41.1803 24.8595 41.187C24.895 41.1937 24.9316 41.1926 24.9667 41.1838C25.0017 41.1751 25.0345 41.1588 25.0627 41.1362C25.0909 41.1135 25.1138 41.0851 25.13 41.0527Z" fill="#338DEF"/>
<path d="M21.3005 41.0527L20.1133 38.6733L21.6299 38.0859L23.2176 40.0457L21.6697 41.1451C21.6402 41.166 21.6065 41.1803 21.571 41.187C21.5355 41.1937 21.4989 41.1926 21.4638 41.1838C21.4288 41.1751 21.396 41.1588 21.3678 41.1362C21.3396 41.1135 21.3167 41.0851 21.3005 41.0527Z" fill="#338DEF"/>
<path d="M23.2138 40.0404V40.0391L23.2128 40.0397L23.2118 40.0391V40.0404L22.0859 40.8401L22.6181 41.641H23.8075L24.3397 40.8401L23.2138 40.0404Z" fill="#FF6B6B"/>
<path d="M21.8145 46.4148H24.6173L23.8105 41.6484H22.6212L21.8145 46.4148Z" fill="#FC8686"/>
<path d="M23.7762 40.4399L23.2138 40.0404V40.0391L23.2128 40.0397L23.2118 40.0391V40.0404L22.0859 40.8401L22.6181 41.641H23.745L23.308 40.9834C23.2825 40.945 23.2729 40.8981 23.2813 40.8528C23.2897 40.8074 23.3155 40.7671 23.3531 40.7404L23.7762 40.4399Z" fill="#EE5253"/>
<path d="M22.6212 41.6484L21.8145 46.4148H22.9413L23.748 41.6484H22.6212Z" fill="#FF6B6B"/>
<path d="M29.8962 21.4026C29.8962 21.239 29.9612 21.0821 30.077 20.9664C30.1927 20.8506 30.3496 20.7856 30.5132 20.7856H33.5013V19.2029C33.5013 19.0393 33.4363 18.8824 33.3205 18.7667C33.2048 18.6509 33.0479 18.5859 32.8843 18.5859H25.6873C25.6063 18.5859 25.5261 18.6019 25.4512 18.6329C25.3763 18.6639 25.3083 18.7093 25.251 18.7666C25.1937 18.8239 25.1483 18.892 25.1173 18.9668C25.0863 19.0417 25.0703 19.1219 25.0703 19.2029V24.5228C25.0703 24.6038 25.0863 24.6841 25.1173 24.7589C25.1483 24.8338 25.1937 24.9018 25.251 24.9591C25.3083 25.0164 25.3763 25.0619 25.4512 25.0929C25.5261 25.1239 25.6063 25.1398 25.6873 25.1398H26.421C26.4434 25.1398 26.4656 25.1449 26.4857 25.1548C26.5058 25.1647 26.5234 25.1792 26.537 25.197C26.5506 25.2148 26.56 25.2355 26.5643 25.2575C26.5686 25.2795 26.5678 25.3022 26.562 25.3238C26.4565 25.7117 26.2624 26.178 25.9063 26.6305C25.7491 26.8303 25.9414 27.1123 26.1843 27.0368C26.9382 26.8024 27.9891 26.2965 28.5186 25.2359C28.5477 25.1777 28.6059 25.1398 28.6709 25.1398H29.8962V21.4026Z" fill="#54A0FF"/>
<path d="M27.8999 25.3239C27.9058 25.3022 27.9066 25.2795 27.9023 25.2575C27.8979 25.2355 27.8886 25.2148 27.875 25.197C27.8613 25.1792 27.8438 25.1648 27.8237 25.1549C27.8036 25.1449 27.7814 25.1398 27.759 25.1398H27.0253C26.6845 25.1398 26.4082 24.8636 26.4082 24.5228V19.2029C26.4082 18.8622 26.6845 18.5859 27.0253 18.5859H25.6886C25.3478 18.5859 25.0715 18.8622 25.0715 19.2029V24.5228C25.0715 24.8636 25.3478 25.1398 25.6886 25.1398H26.4223C26.4448 25.1398 26.4669 25.1449 26.487 25.1548C26.5071 25.1648 26.5247 25.1792 26.5383 25.197C26.552 25.2148 26.5613 25.2355 26.5656 25.2575C26.5699 25.2795 26.5691 25.3022 26.5632 25.3239C26.4578 25.7117 26.2637 26.178 25.9076 26.6306C25.7503 26.8304 25.9427 27.1124 26.1855 27.0369C26.5315 26.9293 26.9397 26.7636 27.3316 26.5144C27.5914 26.1552 27.784 25.7518 27.8999 25.3239ZM19.0573 46.4119V42.7288C19.0551 42.5973 19.0014 42.4718 18.9076 42.3795C18.8138 42.2873 18.6875 42.2355 18.556 42.2355C18.4244 42.2355 18.2981 42.2873 18.2043 42.3795C18.1106 42.4718 18.0568 42.5973 18.0547 42.7288V46.4119H19.0573ZM28.4478 46.4119V42.7288C28.4457 42.5973 28.392 42.4718 28.2982 42.3795C28.2044 42.2873 28.0781 42.2355 27.9466 42.2355C27.815 42.2355 27.6887 42.2873 27.5949 42.3795C27.5011 42.4718 27.4474 42.5973 27.4453 42.7288V46.4119H28.4478Z" fill="#338DEF"/>
<path d="M30.3123 20.5859H37.5093C37.5904 20.5859 37.6706 20.6019 37.7455 20.6329C37.8203 20.6639 37.8883 20.7093 37.9456 20.7666C38.0029 20.8239 38.0484 20.892 38.0794 20.9668C38.1104 21.0417 38.1263 21.1219 38.1263 21.2029V26.5228C38.1263 26.6038 38.1104 26.6841 38.0794 26.7589C38.0484 26.8338 38.0029 26.9018 37.9456 26.9591C37.8883 27.0164 37.8203 27.0619 37.7455 27.0929C37.6706 27.1239 37.5904 27.1398 37.5093 27.1398H36.7756C36.7532 27.1398 36.7311 27.1449 36.711 27.1548C36.6908 27.1647 36.6733 27.1792 36.6597 27.197C36.646 27.2148 36.6367 27.2355 36.6323 27.2575C36.628 27.2795 36.6288 27.3022 36.6347 27.3238C36.7402 27.7117 36.9342 28.178 37.2903 28.6305C37.4476 28.8303 37.2552 29.1123 37.0124 29.0368C36.2584 28.8024 35.2075 28.2965 34.678 27.2359C34.649 27.1777 34.5907 27.1398 34.5257 27.1398H30.3123C30.1487 27.1398 29.9917 27.0748 29.876 26.9591C29.7603 26.8434 29.6953 26.6865 29.6953 26.5228V21.2029C29.6953 20.8623 29.9716 20.5859 30.3123 20.5859Z" fill="#1DD1A1"/>
<path d="M31.032 26.5229V21.2029C31.032 21.0393 31.097 20.8824 31.2127 20.7667C31.3284 20.6509 31.4854 20.5859 31.649 20.5859H30.3123C30.2313 20.5859 30.1511 20.6019 30.0762 20.6329C30.0013 20.6639 29.9333 20.7094 29.876 20.7667C29.8187 20.8239 29.7733 20.892 29.7423 20.9668C29.7113 21.0417 29.6953 21.1219 29.6953 21.2029V26.5229C29.6953 26.6039 29.7113 26.6841 29.7423 26.759C29.7733 26.8339 29.8187 26.9019 29.876 26.9592C29.9333 27.0165 30.0013 27.0619 30.0762 27.0929C30.1511 27.1239 30.2313 27.1399 30.3123 27.1399H31.649C31.3083 27.14 31.032 26.8637 31.032 26.5229ZM37.203 28.5144C36.7407 28.2204 36.3012 27.81 36.0146 27.236C35.9856 27.1778 35.9274 27.14 35.8623 27.14H34.5257C34.5907 27.14 34.6489 27.1778 34.6779 27.236C35.2075 28.2966 36.2584 28.8025 37.0123 29.037C37.2551 29.1125 37.4476 28.8304 37.2903 28.6306C37.2604 28.5925 37.2313 28.5537 37.203 28.5144Z" fill="#15BA8B"/>
<path d="M35.8926 25.9186H31.9288C31.7973 25.9165 31.6718 25.8628 31.5795 25.769C31.4873 25.6752 31.4355 25.5489 31.4355 25.4173C31.4355 25.2858 31.4873 25.1595 31.5795 25.0657C31.6718 24.9719 31.7973 24.9182 31.9288 24.916H35.8926C36.0241 24.9182 36.1496 24.9719 36.2419 25.0657C36.3341 25.1595 36.3859 25.2858 36.3859 25.4173C36.3859 25.5489 36.3341 25.6752 36.2419 25.769C36.1496 25.8628 36.0241 25.9165 35.8926 25.9186ZM35.8926 24.3668H31.9288C31.7973 24.3647 31.6718 24.3109 31.5795 24.2171C31.4873 24.1234 31.4355 23.9971 31.4355 23.8655C31.4355 23.7339 31.4873 23.6076 31.5795 23.5139C31.6718 23.4201 31.7973 23.3663 31.9288 23.3642H35.8926C36.0241 23.3663 36.1496 23.4201 36.2419 23.5139C36.3341 23.6076 36.3859 23.7339 36.3859 23.8655C36.3859 23.9971 36.3341 24.1234 36.2419 24.2171C36.1496 24.3109 36.0241 24.3647 35.8926 24.3668ZM35.8926 22.8151H31.9288C31.7973 22.8129 31.6718 22.7592 31.5795 22.6654C31.4873 22.5716 31.4355 22.4454 31.4355 22.3138C31.4355 22.1822 31.4873 22.0559 31.5795 21.9621C31.6718 21.8684 31.7973 21.8146 31.9288 21.8125H35.8926C36.0241 21.8146 36.1496 21.8684 36.2419 21.9621C36.3341 22.0559 36.3859 22.1822 36.3859 22.3138C36.3859 22.4454 36.3341 22.5716 36.2419 22.6654C36.1496 22.7592 36.0241 22.8129 35.8926 22.8151Z" fill="#15BA8B"/>
<path d="M41.7509 27.4844C39.6523 27.4844 37.9512 29.1855 37.9512 31.2841V32.7877C38.2051 32.5523 38.5664 32.4244 38.9191 32.4715V32.2822C38.9191 32.1316 39.0476 32.0127 39.1966 32.024C40.6657 32.1296 42.1608 31.6628 43.2912 30.9243C43.3423 30.8909 43.4036 30.8766 43.4641 30.884C43.5247 30.8914 43.5807 30.9199 43.6223 30.9646C44.5888 32.0034 44.5829 31.9632 44.5829 32.0989V32.4706C44.9695 32.4127 45.3124 32.5321 45.5506 32.7537V31.284C45.5506 29.1856 43.8495 27.4844 41.7509 27.4844Z" fill="#576574"/>
<path d="M38.9711 31.2841C38.9711 29.3586 40.4036 27.7687 42.2608 27.5194C42.0918 27.4964 41.9215 27.4847 41.7509 27.4844C39.6523 27.4844 37.9512 29.1855 37.9512 31.2841V32.7877C38.2051 32.5523 38.5664 32.4244 38.9191 32.4715C38.9191 32.274 38.9073 32.2119 38.971 32.1271L38.9711 31.2841Z" fill="#3E4B5A"/>
<path d="M44.5312 32.3192V34.4007C44.5312 34.4233 44.53 34.4456 44.5295 34.4681C45.2661 34.5796 45.843 34.0474 45.843 33.3938C45.843 32.7388 45.2656 32.2092 44.5312 32.3192ZM38.9681 34.4007V32.3201C38.3268 32.2344 37.6562 32.7266 37.6562 33.3938C37.6562 34.0466 38.2319 34.5797 38.9697 34.4681C38.9692 34.4456 38.9681 34.4232 38.9681 34.4007Z" fill="#FFBEAB"/>
<path d="M45.4526 32.5617C45.2172 32.3664 44.8933 32.2649 44.5311 32.3192V34.4007C44.5311 34.4233 44.5299 34.4456 44.5294 34.4681C44.8927 34.5231 45.2171 34.4212 45.4526 34.2257V32.5617ZM38.968 34.2258C38.8456 34.1244 38.7472 33.9973 38.6797 33.8534C38.6122 33.7096 38.5774 33.5526 38.5777 33.3937C38.5777 33.0716 38.7342 32.7906 38.968 32.5954V32.32C38.3268 32.2343 37.6562 32.7265 37.6562 33.3937C37.6562 34.0465 38.2318 34.5796 38.9697 34.4679C38.9692 34.4455 38.9681 34.4231 38.9681 34.4007V34.2258H38.968Z" fill="#F7AF9F"/>
<path d="M41.7899 37.1487C41.176 37.1487 40.6365 36.9802 40.1953 36.6983V38.1895L41.7831 40.1493L43.3708 38.1895V36.6562C42.9062 36.9774 42.3547 37.1492 41.7899 37.1487Z" fill="#FFBEAB"/>
<path d="M41.2122 37.0932C40.8336 37.023 40.4922 36.8849 40.1953 36.6953V38.1866L41.2122 39.4417V37.0932Z" fill="#F7AF9F"/>
<path d="M47.5704 39.7126L43.3701 38.0859L41.7825 40.0457L40.1947 38.0859L35.9988 39.7126C35.9988 39.7126 34.4453 40.3513 34.4453 42.1222V46.0527C34.4453 46.1485 34.4834 46.2405 34.5512 46.3082C34.6189 46.376 34.7109 46.4141 34.8067 46.4141H48.7657C48.8607 46.4141 48.9519 46.3763 49.019 46.3092C49.0862 46.242 49.124 46.1509 49.124 46.0559V42.1223C49.124 40.3513 47.5704 39.7126 47.5704 39.7126Z" fill="#54A0FF"/>
<path d="M35.466 46.0544V41.6664C35.466 40.4514 36.1972 39.7694 36.6563 39.4609L36.0027 39.7143C36.0027 39.7143 34.4492 40.353 34.4492 42.124V46.0544C34.4492 46.1503 34.4873 46.2422 34.5551 46.31C34.6229 46.3777 34.7148 46.4158 34.8106 46.4158H35.8275C35.7316 46.4158 35.6397 46.3778 35.5719 46.31C35.5041 46.2422 35.466 46.1503 35.466 46.0544Z" fill="#338DEF"/>
<path d="M43.6232 30.8637C43.5816 30.8191 43.5256 30.7905 43.465 30.7831C43.4044 30.7758 43.3432 30.79 43.2921 30.8234C42.1617 31.5619 40.6666 32.0287 39.1975 31.9232C39.0485 31.9119 38.9199 32.0308 38.9199 32.1813V34.4514C38.9199 35.9103 40.0631 37.2428 41.7922 37.2428C43.3315 37.2428 44.5837 35.9905 44.5837 34.4514V31.9981C44.5838 31.8624 44.5896 31.9026 43.6232 30.8637Z" fill="#FFCDBF"/>
<path d="M39.9368 34.4507V31.9285C39.6905 31.9419 39.4436 31.9399 39.1975 31.9226C39.0485 31.9113 38.9199 32.0302 38.9199 32.1808V34.4508C38.9199 35.9097 40.0631 37.2422 41.7922 37.2422C41.9517 37.2422 42.108 37.2281 42.2602 37.2022C40.9432 36.9788 39.9368 35.8304 39.9368 34.4507Z" fill="#FFBEAB"/>
<path d="M43.7003 41.0527L44.8875 38.6733L43.3709 38.0859L41.7832 40.0457L43.3311 41.1451C43.3606 41.166 43.3943 41.1803 43.4298 41.187C43.4653 41.1937 43.5019 41.1926 43.537 41.1838C43.572 41.1751 43.6048 41.1588 43.633 41.1362C43.6612 41.1135 43.6841 41.0851 43.7003 41.0527Z" fill="#338DEF"/>
<path d="M39.8689 41.0527L38.6816 38.6733L40.1983 38.0859L41.786 40.0457L40.238 41.1451C40.2085 41.166 40.1749 41.1803 40.1394 41.187C40.1038 41.1937 40.0673 41.1926 40.0322 41.1838C39.9971 41.1751 39.9644 41.1588 39.9362 41.1362C39.908 41.1135 39.885 41.0851 39.8689 41.0527Z" fill="#338DEF"/>
<path d="M41.788 40.0404V40.0391L41.787 40.0397L41.786 40.0391V40.0404L40.6602 40.8401L41.1924 41.641H42.3817L42.9139 40.8401L41.788 40.0404Z" fill="#FF6B6B"/>
<path d="M40.3848 46.4148H43.1876L42.3808 41.6484H41.1915L40.3848 46.4148Z" fill="#FC8686"/>
<path d="M42.3505 40.4399L41.788 40.0404V40.0391L41.787 40.0397L41.786 40.0391V40.0404L40.6602 40.8401L41.1924 41.641H42.3192L41.8822 40.9834C41.8567 40.945 41.8471 40.8981 41.8555 40.8528C41.864 40.8074 41.8897 40.7671 41.9273 40.7404L42.3505 40.4399Z" fill="#EE5253"/>
<path d="M41.1915 41.6484L40.3848 46.4148H41.5116L42.3183 41.6484H41.1915Z" fill="#FF6B6B"/>
<path d="M37.6256 46.4107V42.7277C37.6235 42.5961 37.5698 42.4707 37.476 42.3784C37.3822 42.2861 37.2559 42.2344 37.1243 42.2344C36.9928 42.2344 36.8665 42.2861 36.7727 42.3784C36.6789 42.4707 36.6252 42.5961 36.623 42.7277V46.4107H37.6256ZM47.0162 46.4107V42.7277C47.0141 42.5961 46.9603 42.4707 46.8666 42.3784C46.7728 42.2861 46.6465 42.2344 46.5149 42.2344C46.3834 42.2344 46.2571 42.2861 46.1633 42.3784C46.0695 42.4707 46.0158 42.5961 46.0136 42.7277V46.4107H47.0162Z" fill="#338DEF"/>
</svg>
