<svg width="60" height="60" viewBox="0 0 60 60" fill="none" xmlns="http://www.w3.org/2000/svg">
<rect opacity="0.1" width="60" height="60" rx="10" fill="#246BFD"/>
<path d="M45.1607 17.4076V17.4372V48.4062C45.1607 48.7353 44.8935 49 44.5669 49H15.4336C15.1046 49 14.8398 48.7328 14.8398 48.4062V11.5938C14.8398 11.2647 15.107 11 15.4336 11H38.721C38.8768 11 39.0302 11.0643 39.1415 11.1732L41.0885 13.1202L44.985 17.0167C45.0865 17.1156 45.1607 17.2641 45.1607 17.4076ZM43.9732 47.8125V18.031H38.7234C38.3944 18.031 38.1297 17.7663 38.1297 17.4372V12.1875H16.0273V47.8125H43.9732ZM39.3172 16.8435H43.1345L39.3172 13.0262V16.8435Z" fill="#246BFD"/>
<path d="M39.2858 19.4766C39.6148 19.4766 39.8796 19.7413 39.8796 20.0703C39.8796 20.3993 39.6124 20.6641 39.2858 20.6641H31.4805C31.1514 20.6641 30.8867 20.3969 30.8867 20.0703C30.8867 19.7413 31.1514 19.4766 31.4805 19.4766H39.2858Z" fill="#246BFD"/>
<path d="M39.2819 22.7852C39.6109 22.7852 39.8757 23.0523 39.8757 23.3789C39.8757 23.7079 39.6085 23.9727 39.2819 23.9727H27.6172C27.2882 23.9727 27.0234 23.7079 27.0234 23.3789C27.0234 23.0499 27.2882 22.7852 27.6172 22.7852H39.2819Z" fill="#246BFD"/>
<path d="M39.2828 26.0938C39.6118 26.0938 39.8766 26.3585 39.8766 26.6875C39.8766 27.0165 39.6094 27.2812 39.2828 27.2812H33.5977C33.2686 27.2812 33.0039 27.0141 33.0039 26.6875C33.0039 26.3585 33.2686 26.0938 33.5977 26.0938H39.2828Z" fill="#246BFD"/>
<path d="M39.2852 29.4062C39.6142 29.4062 39.8789 29.6734 39.8789 30C39.8789 30.3266 39.6117 30.5938 39.2852 30.5938H28.375C28.046 30.5938 27.7812 30.3266 27.7812 30C27.7812 29.6734 28.046 29.4062 28.375 29.4062H39.2852Z" fill="#246BFD"/>
<path d="M39.2867 32.7188C39.6158 32.7188 39.8805 32.9859 39.8805 33.3125C39.8805 33.6415 39.6133 33.9062 39.2867 33.9062H33.75C33.421 33.9062 33.1562 33.6415 33.1562 33.3125C33.1562 32.9835 33.421 32.7188 33.75 32.7188H39.2867Z" fill="#246BFD"/>
<path d="M39.2841 36.0234C39.6132 36.0234 39.8779 36.2882 39.8779 36.6172C39.8779 36.9462 39.6107 37.2109 39.2841 37.2109H29.7891C29.46 37.2109 29.1953 36.9438 29.1953 36.6172C29.1953 36.2882 29.46 36.0234 29.7891 36.0234H39.2841Z" fill="#246BFD"/>
<path d="M39.288 39.3359C39.6171 39.3359 39.8818 39.6031 39.8818 39.9297C39.8818 40.2587 39.6146 40.5234 39.288 40.5234H33.9492C33.6202 40.5234 33.3555 40.2587 33.3555 39.9297C33.3555 39.6007 33.6202 39.3359 33.9492 39.3359H39.288Z" fill="#246BFD"/>
<path d="M39.288 42.6445C39.6171 42.6445 39.8818 42.9092 39.8818 43.2383C39.8818 43.5673 39.6146 43.832 39.288 43.832H30.2383C29.9092 43.832 29.6445 43.5648 29.6445 43.2383C29.6445 42.9092 29.9092 42.6445 30.2383 42.6445H39.288Z" fill="#246BFD"/>
<path d="M32.2954 16.168C32.6245 16.168 32.8892 16.4352 32.8892 16.7617C32.8892 17.0908 32.622 17.3555 32.2954 17.3555H20.7148C20.3858 17.3555 20.1211 17.0908 20.1211 16.7617C20.1211 16.4327 20.3883 16.168 20.7148 16.168H32.2954Z" fill="#246BFD"/>
<path d="M31.5211 39.3359C31.8501 39.3359 32.1148 39.6031 32.1148 39.9297C32.1148 40.2587 31.8477 40.5234 31.5211 40.5234H20.7148C20.3858 40.5234 20.1211 40.2587 20.1211 39.9297C20.1211 39.6007 20.3883 39.3359 20.7148 39.3359H31.5211Z" fill="#246BFD"/>
<path d="M31.1945 26.0938C31.5236 26.0938 31.7883 26.3585 31.7883 26.6875C31.7883 27.0165 31.5211 27.2812 31.1945 27.2812H20.7148C20.3858 27.2812 20.1211 27.0141 20.1211 26.6875C20.1211 26.3585 20.3883 26.0938 20.7148 26.0938H31.1945Z" fill="#246BFD"/>
<path d="M31.0263 32.7188C31.3553 32.7188 31.6201 32.9859 31.6201 33.3125C31.6201 33.6415 31.3529 33.9062 31.0263 33.9062H20.7148C20.3858 33.9062 20.1211 33.6415 20.1211 33.3125C20.1211 32.9835 20.3883 32.7188 20.7148 32.7188H31.0263Z" fill="#246BFD"/>
<path d="M28.5103 19.4766C28.8393 19.4766 29.104 19.7413 29.104 20.0703C29.104 20.3993 28.8393 20.6641 28.5103 20.6641H20.7148C20.3858 20.6641 20.1211 20.3969 20.1211 20.0703C20.1211 19.7413 20.3883 19.4766 20.7148 19.4766H28.5103Z" fill="#246BFD"/>
<path d="M27.6617 42.6445C27.9908 42.6445 28.2555 42.9092 28.2555 43.2383C28.2555 43.5673 27.9883 43.832 27.6617 43.832H20.7148C20.3858 43.832 20.1211 43.5648 20.1211 43.2383C20.1211 42.9092 20.3883 42.6445 20.7148 42.6445H27.6617Z" fill="#246BFD"/>
<path d="M27.2659 36.0234C27.5949 36.0234 27.8596 36.2882 27.8596 36.6172C27.8596 36.9462 27.5924 37.2109 27.2659 37.2109H20.7148C20.3858 37.2109 20.1211 36.9438 20.1211 36.6172C20.1211 36.2882 20.3883 36.0234 20.7148 36.0234H27.2659Z" fill="#246BFD"/>
<path d="M25.8508 29.4062C26.1798 29.4062 26.4445 29.6734 26.4445 30C26.4445 30.3266 26.1798 30.5938 25.8508 30.5938H20.7148C20.3858 30.5938 20.1211 30.3266 20.1211 30C20.1211 29.6734 20.3883 29.4062 20.7148 29.4062H25.8508Z" fill="#246BFD"/>
<path d="M25.3931 22.7852C25.7221 22.7852 25.9868 23.0523 25.9868 23.3789C25.9868 23.7079 25.7221 23.9727 25.3931 23.9727H20.7148C20.3858 23.9727 20.1211 23.7079 20.1211 23.3789C20.1211 23.0499 20.3883 22.7852 20.7148 22.7852H25.3931Z" fill="#246BFD"/>
</svg>
