<svg width="60" height="60" viewBox="0 0 60 60" fill="none" xmlns="http://www.w3.org/2000/svg">
<rect opacity="0.1" width="60" height="60" rx="10" fill="#246BFD"/>
<path d="M46.8319 18.3843V41.6145C46.8319 42.4879 46.1218 43.198 45.2484 43.198H40.0007V46.7064V46.7188C40.0007 47.0479 39.7335 47.3126 39.4069 47.3126H30.5888L31.2643 47.9881C31.4968 48.2206 31.4968 48.5967 31.2643 48.8268C31.148 48.9431 30.9971 49 30.8437 49C30.6927 49 30.5393 48.9431 30.423 48.8268L28.9064 47.3101H20.593C20.264 47.3101 19.9992 47.0429 19.9992 46.7163V43.198H14.7515C13.8781 43.198 13.168 42.4879 13.168 41.6145V18.3843C13.168 17.5109 13.8781 16.8008 14.7515 16.8008H19.9992V13.2948C19.9992 13.2923 19.9992 13.2874 19.9992 13.2849C19.9992 12.9583 20.264 12.6936 20.5881 12.6911H29.4111L28.7356 12.0132C28.5031 11.7806 28.5031 11.4045 28.7356 11.1744C28.9682 10.9419 29.3443 10.9419 29.5744 11.1744L31.0911 12.6911H39.4069C39.7359 12.6911 40.0007 12.9583 40.0007 13.2849V16.8032H45.2484C46.1218 16.8008 46.8319 17.5109 46.8319 18.3843ZM45.6443 41.617V39.5238H33.1719V41.617C33.1719 41.8347 33.35 42.0129 33.5677 42.0129H45.2484C45.4662 42.0129 45.6443 41.8347 45.6443 41.617ZM45.6443 38.3362V20.8461H33.1719V38.3362H45.6443ZM45.6443 19.6585V18.3843C45.6443 18.1665 45.4662 17.9884 45.2484 17.9884H33.5677C33.35 17.9884 33.1719 18.1665 33.1719 18.3843V19.6585H45.6443ZM38.8131 16.8008V13.8763H31.0911L29.5744 15.3929C29.4581 15.5092 29.3072 15.5661 29.1538 15.5661C29.0004 15.5661 28.8494 15.5092 28.7332 15.3929C28.5006 15.1604 28.5006 14.7843 28.7332 14.5542L29.4111 13.8763H21.1869V16.8008H26.4346C27.308 16.8008 28.0181 17.5109 28.0181 18.3843V41.6145C28.0181 42.4879 27.308 43.198 26.4346 43.198H21.1869V46.1225H28.9088L30.4255 44.6058C30.6581 44.3732 31.0342 44.3732 31.2643 44.6058C31.4968 44.8384 31.4968 45.2145 31.2643 45.4446L30.5863 46.1225H38.8106V43.198H33.5628C32.6894 43.198 31.9793 42.4879 31.9793 41.6145V18.3843C31.9793 17.5109 32.6894 16.8008 33.5628 16.8008H38.8131ZM26.828 41.617V39.5238H14.3556V41.617C14.3556 41.8347 14.5337 42.0129 14.7515 42.0129H26.4322C26.6524 42.0129 26.828 41.8347 26.828 41.617ZM26.828 38.3362V20.8461H14.3556V38.3362H26.828ZM26.828 19.6585V18.3843C26.828 18.1665 26.6499 17.9884 26.4322 17.9884H14.7515C14.5337 17.9884 14.3556 18.1665 14.3556 18.3843V19.6585H26.828Z" fill="#246BFD"/>
</svg>
