<svg width="123" height="123" viewBox="0 0 123 123" fill="none" xmlns="http://www.w3.org/2000/svg">
<g filter="url(#filter0_d_2011_114)">
<rect x="19" y="14" width="85" height="85" rx="5" fill="white"/>
</g>
<path d="M78.1126 62.6176C77.2815 62.6176 76.574 63.1594 76.3242 63.9089H74.6446L72.4727 61.737C72.3614 61.6257 72.2105 61.5663 72.0522 61.5639H70.667V57.5937H76.3044C76.5542 58.3432 77.2617 58.8849 78.0928 58.8849C79.1318 58.8849 79.9777 58.0389 79.9777 57C79.9777 55.9611 79.1318 55.1151 78.0928 55.1151C77.2617 55.1151 76.5542 55.6568 76.3044 56.4063H70.667V52.4361H72.0522C72.2105 52.4337 72.3589 52.3743 72.4727 52.263L74.6446 50.0911H76.3242C76.574 50.8406 77.2815 51.3824 78.1126 51.3824C79.1515 51.3824 79.9975 50.5364 79.9975 49.4975C79.9975 48.4585 79.1515 47.6126 78.1126 47.6126C77.2815 47.6126 76.574 48.1543 76.3242 48.9038H74.3997C74.2414 48.9038 74.0905 48.9656 73.9792 49.0769L71.8073 51.2488H70.667V47.9242C70.667 47.5952 70.4023 47.3306 70.0733 47.3306H66.7487V46.1902L68.9206 44.0184C69.0319 43.907 69.0937 43.7562 69.0937 43.5978V41.6733C69.8432 41.4235 70.385 40.7161 70.385 39.8849C70.385 38.846 69.539 38 68.5001 38C67.4611 38 66.6152 38.846 66.6152 39.8849C66.6152 40.7161 67.1569 41.4235 67.9064 41.6733V43.3529L65.7345 45.5248C65.6232 45.6361 65.5639 45.787 65.5614 45.9453V47.3306H61.5937V41.6931C62.3432 41.4433 62.8849 40.7358 62.8849 39.9047C62.8849 38.8658 62.0389 38.0198 61 38.0198C59.9611 38.0198 59.1151 38.8658 59.1151 39.9047C59.1151 40.7358 59.6568 41.4433 60.4063 41.6931V47.3306H56.4361V45.9453C56.4337 45.787 56.3743 45.6386 56.263 45.5248L54.0911 43.3529V41.6733C54.8406 41.4235 55.3824 40.7161 55.3824 39.8849C55.3824 38.846 54.5364 38 53.4975 38C52.4585 38 51.6126 38.846 51.6126 39.8849C51.6126 40.7161 52.1543 41.4235 52.9038 41.6733V43.5978C52.9038 43.7562 52.9656 43.907 53.0769 44.0184L55.2488 46.1902V47.3306H51.9242C51.5952 47.3306 51.3306 47.5952 51.3306 47.9242V51.2488H50.1902L48.0184 49.0769C47.907 48.9656 47.7562 48.9038 47.5978 48.9038H45.6733C45.4235 48.1543 44.7161 47.6126 43.8849 47.6126C42.846 47.6126 42 48.4585 42 49.4975C42 50.5364 42.846 51.3824 43.8849 51.3824C44.7161 51.3824 45.4235 50.8406 45.6733 50.0911H47.3529L49.5248 52.263C49.6361 52.3743 49.7895 52.4361 49.9453 52.4361H51.3306V56.4063H45.6931C45.4433 55.6568 44.7358 55.1151 43.9047 55.1151C42.8658 55.1151 42.0198 55.9611 42.0198 57C42.0198 58.0389 42.8658 58.8849 43.9047 58.8849C44.7358 58.8849 45.4433 58.3432 45.6931 57.5937H51.3306V61.5639H49.9453C49.787 61.5663 49.6361 61.6257 49.5248 61.737L47.3529 63.9089H45.6733C45.4235 63.1594 44.7161 62.6176 43.8849 62.6176C42.846 62.6176 42 63.4636 42 64.5025C42 65.5415 42.846 66.3875 43.8849 66.3875C44.7161 66.3875 45.4235 65.8457 45.6733 65.0962H47.5978C47.7562 65.0962 47.907 65.0344 48.0184 64.9231L50.1902 62.7512H51.3306V66.0758C51.3306 66.4048 51.5952 66.6694 51.9242 66.6694H55.2488V67.8098L53.0769 69.9816C52.9656 70.093 52.9038 70.2439 52.9038 70.4022V72.3267C52.1543 72.5765 51.6126 73.2839 51.6126 74.1151C51.6126 75.154 52.4585 76 53.4975 76C54.5364 76 55.3824 75.154 55.3824 74.1151C55.3824 73.2839 54.8406 72.5765 54.0911 72.3267V70.6471L56.263 68.4752C56.3743 68.3639 56.4337 68.213 56.4361 68.0547V66.6694H60.4063V72.3069C59.6568 72.5567 59.1151 73.2642 59.1151 74.0953C59.1151 75.1342 59.9611 75.9802 61 75.9802C62.0389 75.9802 62.8849 75.1342 62.8849 74.0953C62.8849 73.2642 62.3432 72.5567 61.5937 72.3069V66.6694H65.5639V68.0547C65.5663 68.213 65.6257 68.3639 65.737 68.4752L67.9089 70.6471V72.3267C67.1594 72.5765 66.6176 73.2839 66.6176 74.1151C66.6176 75.154 67.4636 76 68.5025 76C69.5415 76 70.3875 75.154 70.3875 74.1151C70.3875 73.2839 69.8457 72.5765 69.0962 72.3267V70.4022C69.0962 70.2439 69.0344 70.093 68.9231 69.9816L66.7512 67.8098V66.6694H70.0758C70.4048 66.6694 70.6694 66.4048 70.6694 66.0758V62.7512H71.8098L73.9816 64.9231C74.093 65.0344 74.2439 65.0962 74.4022 65.0962H76.3267C76.5765 65.8457 77.2839 66.3875 78.1151 66.3875C79.154 66.3875 80 65.5415 80 64.5025C80 63.4636 79.1515 62.6176 78.1126 62.6176ZM78.0953 56.3024C78.4787 56.3024 78.7929 56.6141 78.7929 57C78.7929 57.3834 78.4787 57.6976 78.0953 57.6976C77.7119 57.6976 77.3977 57.3859 77.3977 57C77.3977 56.6166 77.7119 56.3024 78.0953 56.3024ZM78.1126 48.7999C78.496 48.7999 78.8102 49.1116 78.8102 49.4975C78.8102 49.8833 78.4985 50.195 78.1126 50.195C77.7292 50.195 77.4151 49.8833 77.4151 49.4975C77.4151 49.1116 77.7292 48.7999 78.1126 48.7999ZM67.805 39.8874C67.805 39.504 68.1167 39.1898 68.5025 39.1898C68.8884 39.1898 69.2001 39.5015 69.2001 39.8874C69.2001 40.2733 68.8884 40.5849 68.5025 40.5849C68.1167 40.5849 67.805 40.2708 67.805 39.8874ZM60.3024 39.9047C60.3024 39.5213 60.6141 39.2071 61 39.2071C61.3859 39.2071 61.6976 39.5213 61.6976 39.9047C61.6976 40.2881 61.3859 40.6023 61 40.6023C60.6141 40.6023 60.3024 40.2881 60.3024 39.9047ZM52.7999 39.8874C52.7999 39.504 53.1116 39.1898 53.4975 39.1898C53.8809 39.1898 54.195 39.5015 54.195 39.8874C54.195 40.2733 53.8833 40.5849 53.4975 40.5849C53.114 40.5849 52.7999 40.2708 52.7999 39.8874ZM43.8874 50.195C43.504 50.195 43.1898 49.8833 43.1898 49.4975C43.1898 49.1116 43.5015 48.7999 43.8874 48.7999C44.2733 48.7999 44.5849 49.1116 44.5849 49.4975C44.5849 49.8833 44.2708 50.195 43.8874 50.195ZM43.9047 57.6976C43.5213 57.6976 43.2071 57.3859 43.2071 57C43.2071 56.6166 43.5213 56.3024 43.9047 56.3024C44.2881 56.3024 44.6023 56.6141 44.6023 57C44.6023 57.3834 44.2881 57.6976 43.9047 57.6976ZM43.8874 65.1976C43.504 65.1976 43.1898 64.886 43.1898 64.5001C43.1898 64.1142 43.5015 63.8025 43.8874 63.8025C44.2733 63.8025 44.5849 64.1142 44.5849 64.5001C44.5849 64.886 44.2708 65.1976 43.8874 65.1976ZM54.195 74.1126C54.195 74.496 53.8833 74.8102 53.4975 74.8102C53.114 74.8102 52.7999 74.4985 52.7999 74.1126C52.7999 73.7292 53.1116 73.4151 53.4975 73.4151C53.8833 73.4151 54.195 73.7292 54.195 74.1126ZM61.6976 74.0953C61.6976 74.4787 61.3859 74.7929 61 74.7929C60.6141 74.7929 60.3024 74.4787 60.3024 74.0953C60.3024 73.7119 60.6141 73.3977 61 73.3977C61.3859 73.3977 61.6976 73.7119 61.6976 74.0953ZM69.1976 74.1126C69.1976 74.496 68.886 74.8102 68.5001 74.8102C68.1142 74.8102 67.8025 74.4985 67.8025 74.1126C67.8025 73.7292 68.1142 73.4151 68.5001 73.4151C68.886 73.4151 69.1976 73.7292 69.1976 74.1126ZM69.4821 65.4821H66.1575H61H55.8425H52.5179V62.1575V57V51.8425V48.5179H55.8425H61H66.1575H69.4821V51.8425V57V62.1575V65.4821ZM78.1126 65.1976C77.7292 65.1976 77.4151 64.886 77.4151 64.5001C77.4151 64.1142 77.7267 63.8025 78.1126 63.8025C78.496 63.8025 78.8102 64.1142 78.8102 64.5001C78.8102 64.886 78.4985 65.1976 78.1126 65.1976Z" fill="#246BFD"/>
<path d="M67.6026 49.8047H54.3984C54.0694 49.8047 53.8047 50.0694 53.8047 50.3984V63.6026C53.8047 63.9316 54.0694 64.1963 54.3984 64.1963H67.6026C67.9316 64.1963 68.1963 63.9316 68.1963 63.6026V50.3984C68.1963 50.0694 67.9316 49.8047 67.6026 49.8047ZM67.009 63.009H54.992V50.992H67.009V63.009Z" fill="#246BFD"/>
<defs>
<filter id="filter0_d_2011_114" x="0.6" y="0.400001" width="121.8" height="121.8" filterUnits="userSpaceOnUse" color-interpolation-filters="sRGB">
<feFlood flood-opacity="0" result="BackgroundImageFix"/>
<feColorMatrix in="SourceAlpha" type="matrix" values="0 0 0 0 0 0 0 0 0 0 0 0 0 0 0 0 0 0 127 0" result="hardAlpha"/>
<feMorphology radius="6" operator="erode" in="SourceAlpha" result="effect1_dropShadow_2011_114"/>
<feOffset dy="4.8"/>
<feGaussianBlur stdDeviation="12.2"/>
<feColorMatrix type="matrix" values="0 0 0 0 0.0745098 0 0 0 0 0.0627451 0 0 0 0 0.133333 0 0 0 0.1 0"/>
<feBlend mode="normal" in2="BackgroundImageFix" result="effect1_dropShadow_2011_114"/>
<feBlend mode="normal" in="SourceGraphic" in2="effect1_dropShadow_2011_114" result="shape"/>
</filter>
</defs>
</svg>
