<svg width="123" height="123" viewBox="0 0 123 123" fill="none" xmlns="http://www.w3.org/2000/svg">
<g filter="url(#filter0_d_2011_117)">
<rect x="19" y="14" width="85" height="85" rx="5" fill="white"/>
</g>
<path d="M79.043 69.7449C79.3842 69.7449 79.6587 70.022 79.6587 70.3607C79.6587 71.8667 79.0712 73.283 78.0064 74.3477C76.9417 75.4125 75.5254 76 74.0194 76H47.9831C46.477 76 45.0608 75.4125 43.996 74.3477C42.9313 73.283 42.3438 71.8667 42.3438 70.3607C42.3438 70.1965 42.4079 70.04 42.5233 69.9245C42.6388 69.8091 42.7953 69.7449 42.9595 69.7449H44.2116V50.4255C44.2116 49.6968 44.8042 49.1042 45.5329 49.1042H54.2459V47.6187L51.6366 45.0094C51.5211 44.8939 51.457 44.7374 51.457 44.5732V42.2154C50.5693 41.9511 49.9201 41.1275 49.9201 40.1526C49.9201 38.9647 50.8848 38 52.0727 38C53.2606 38 54.2253 38.9647 54.2253 40.1526C54.2253 41.125 53.5762 41.9486 52.6885 42.2154V44.3192L55.2978 46.9259C55.4132 47.0414 55.4799 47.2005 55.4799 47.3647V49.1042H60.3855V42.2385C59.4978 41.9716 58.8486 41.1481 58.8486 40.1757C58.8486 38.9878 59.8133 38.0231 61.0012 38.0231C62.1891 38.0231 63.1538 38.9878 63.1538 40.1757C63.1538 41.1481 62.5047 41.9716 61.617 42.2385V49.1067H66.5251V47.3672C66.5251 47.203 66.5918 47.044 66.7073 46.9285L69.314 44.3192V42.2154C68.4263 41.9511 67.7771 41.1275 67.7771 40.1526C67.7771 38.9647 68.7418 38 69.9297 38C71.1176 38 72.0823 38.9647 72.0823 40.1526C72.0823 41.125 71.4332 41.9486 70.5455 42.2154V44.5732C70.5455 44.7374 70.4814 44.8939 70.3659 45.0094L67.7566 47.6187V49.1042H76.4696C77.1983 49.1042 77.7909 49.6968 77.7909 50.4255V69.7449H79.043ZM78.3836 70.9764H65.622L65.2166 72.4312C65.1422 72.698 64.901 72.8802 64.6239 72.8802H57.3785C57.1014 72.8802 56.8603 72.6954 56.7859 72.4312L56.3805 70.9764H43.6189C43.9191 73.1162 45.7612 74.7685 47.9831 74.7685H74.0168C75.1945 74.7685 76.3003 74.3092 77.1341 73.478C77.8217 72.7929 78.2527 71.9206 78.3836 70.9764ZM76.5594 69.7449V50.4255C76.5594 50.3767 76.5184 50.3357 76.4696 50.3357H67.1434C67.1409 50.3357 67.1409 50.3357 67.1383 50.3357C67.1357 50.3357 67.1357 50.3357 67.1332 50.3357H61.0038C61.0012 50.3357 61.0012 50.3357 60.9987 50.3357C60.9961 50.3357 60.9961 50.3357 60.9935 50.3357H54.8667C54.8667 50.3357 54.8642 50.3357 54.8616 50.3357C54.859 50.3357 54.859 50.3357 54.8565 50.3357H45.5329C45.4841 50.3357 45.4431 50.3767 45.4431 50.4255V69.7449H56.8474C57.1245 69.7449 57.3657 69.9296 57.4401 70.1965L57.8455 71.6512H64.157L64.5624 70.1965C64.6368 69.9296 64.878 69.7449 65.155 69.7449H76.5594ZM70.8508 40.1552C70.8508 39.6472 70.4377 39.2341 69.9297 39.2341C69.4217 39.2341 69.0087 39.6472 69.0087 40.1552C69.0087 40.6632 69.4217 41.0762 69.9297 41.0762C70.4377 41.0762 70.8508 40.6632 70.8508 40.1552ZM61.9223 40.1757C61.9223 39.6677 61.5092 39.2546 61.0012 39.2546C60.4932 39.2546 60.0802 39.6677 60.0802 40.1757C60.0802 40.6837 60.4932 41.0968 61.0012 41.0968C61.5092 41.0968 61.9223 40.6837 61.9223 40.1757ZM52.9938 40.1552C52.9938 39.6472 52.5807 39.2341 52.0727 39.2341C51.5647 39.2341 51.1517 39.6472 51.1517 40.1552C51.1517 40.6632 51.5647 41.0762 52.0727 41.0762C52.5807 41.0762 52.9938 40.6632 52.9938 40.1552Z" fill="#246BFD"/>
<path d="M73.3754 52.9609C73.7167 52.9609 73.9912 53.238 73.9912 53.5767C73.9912 53.9179 73.7141 54.1925 73.3754 54.1925H60.1392C59.798 54.1925 59.5234 53.9179 59.5234 53.5767C59.5234 53.2355 59.798 52.9609 60.1392 52.9609H73.3754Z" fill="#246BFD"/>
<path d="M73.3754 56.1953C73.7167 56.1953 73.9912 56.4698 73.9912 56.8111C73.9912 57.1523 73.7141 57.4268 73.3754 57.4268H60.1392C59.798 57.4268 59.5234 57.1497 59.5234 56.8111C59.5234 56.4698 59.798 56.1953 60.1392 56.1953H73.3754Z" fill="#246BFD"/>
<path d="M73.3754 59.4297C73.7167 59.4297 73.9912 59.7068 73.9912 60.0454C73.9912 60.3867 73.7141 60.6612 73.3754 60.6612H60.1392C59.798 60.6612 59.5234 60.3867 59.5234 60.0454C59.5234 59.7042 59.798 59.4297 60.1392 59.4297H73.3754Z" fill="#246BFD"/>
<path d="M73.381 62.6641C73.7222 62.6641 73.9967 62.9386 73.9967 63.2798C73.9967 63.6211 73.7196 63.8956 73.381 63.8956H48.6275C48.2888 63.8956 48.0117 63.6185 48.0117 63.2798C48.0117 62.9386 48.2888 62.6641 48.6275 62.6641H73.381Z" fill="#246BFD"/>
<path d="M73.381 65.8984C73.7222 65.8984 73.9967 66.1755 73.9967 66.5142C73.9967 66.8529 73.7196 67.13 73.381 67.13H48.6275C48.2888 67.13 48.0117 66.8529 48.0117 66.5142C48.0117 66.1755 48.2888 65.8984 48.6275 65.8984H73.381Z" fill="#246BFD"/>
<path d="M55.4752 53.5767V60.0473C55.4752 60.3885 55.1981 60.6631 54.8595 60.6631H48.6275C48.2888 60.6631 48.0117 60.3885 48.0117 60.0473V53.5767C48.0117 53.2355 48.2888 52.9609 48.6275 52.9609H54.8595C55.1981 52.9609 55.4752 53.2355 55.4752 53.5767ZM54.2437 59.429V54.1925H49.2432V59.4315L54.2437 59.429Z" fill="#246BFD"/>
<defs>
<filter id="filter0_d_2011_117" x="0.6" y="0.400001" width="121.8" height="121.8" filterUnits="userSpaceOnUse" color-interpolation-filters="sRGB">
<feFlood flood-opacity="0" result="BackgroundImageFix"/>
<feColorMatrix in="SourceAlpha" type="matrix" values="0 0 0 0 0 0 0 0 0 0 0 0 0 0 0 0 0 0 127 0" result="hardAlpha"/>
<feMorphology radius="6" operator="erode" in="SourceAlpha" result="effect1_dropShadow_2011_117"/>
<feOffset dy="4.8"/>
<feGaussianBlur stdDeviation="12.2"/>
<feColorMatrix type="matrix" values="0 0 0 0 0.0745098 0 0 0 0 0.0627451 0 0 0 0 0.133333 0 0 0 0.1 0"/>
<feBlend mode="normal" in2="BackgroundImageFix" result="effect1_dropShadow_2011_117"/>
<feBlend mode="normal" in="SourceGraphic" in2="effect1_dropShadow_2011_117" result="shape"/>
</filter>
</defs>
</svg>
