<svg width="123" height="123" viewBox="0 0 123 123" fill="none" xmlns="http://www.w3.org/2000/svg">
<g filter="url(#filter0_d_124_2)">
<rect x="19" y="14" width="85" height="85" rx="5" fill="white"/>
</g>
<path d="M79.9258 64.6776C79.9753 64.7667 80 64.8706 80 64.972C79.9975 66.496 79.4038 67.9309 78.3251 69.007C77.244 70.0881 75.8091 70.6819 74.2802 70.6819H47.7643C46.2379 70.6819 44.7634 70.0906 43.6823 69.0144C42.5987 67.9358 42.0025 66.4984 42 64.972C42 64.8681 42.0247 64.7667 42.0742 64.6776C42.1831 64.4846 42.381 64.3708 42.5938 64.3708H43.9049V44.6262C43.9049 43.9013 44.4938 43.3125 45.2186 43.3125H76.7814C77.5063 43.3125 78.0951 43.9013 78.0951 44.6262V64.3708H79.4063C79.619 64.3708 79.8194 64.4846 79.9258 64.6776ZM43.2271 65.5583C43.519 67.7775 45.4215 69.4969 47.7198 69.4969H74.2827C75.4924 69.4969 76.6305 69.0243 77.4865 68.1684C78.2014 67.4534 78.6467 66.543 78.7754 65.5583H65.7079L65.7055 65.5658L65.275 67.3693C65.2107 67.6365 64.9732 67.8245 64.6986 67.8245H57.3039C57.0293 67.8245 56.7893 67.6365 56.7275 67.3693L56.297 65.5658L56.2945 65.5583H43.2271ZM76.9076 64.3708V44.6262C76.9076 44.5569 76.8507 44.5 76.7814 44.5H45.2186C45.1493 44.5 45.0924 44.5569 45.0924 44.6262V64.3708H56.7621C57.0046 64.3708 57.1382 64.4846 57.2421 64.6504C57.3039 64.7469 57.346 64.8533 57.3732 64.9646L57.774 66.637H64.2285L64.6293 64.9646C64.6565 64.8533 64.6986 64.7469 64.7604 64.6504C64.8643 64.4871 64.9979 64.3708 65.2404 64.3708H76.9076Z" fill="#246BFD"/>
<path d="M68.1124 51.0879C68.3449 51.318 68.3449 51.694 68.1148 51.9266C67.9986 52.0428 67.8476 52.1022 67.6943 52.1022C67.5433 52.1022 67.39 52.0453 67.2762 51.929C63.8176 48.4902 58.1868 48.4853 54.7258 51.9216C54.4932 52.1517 54.1172 52.1517 53.8871 51.9191C53.657 51.6866 53.657 51.3105 53.8896 51.0805C54.8519 50.128 55.9726 49.3883 57.2195 48.8861C58.4219 48.4012 59.6935 48.1562 60.9973 48.1562H61.0047C62.3109 48.1562 63.5825 48.4036 64.7874 48.891C66.0318 49.3932 67.1525 50.1329 68.1124 51.0879Z" fill="#246BFD"/>
<path d="M66.1426 54.2115C66.3751 54.444 66.3751 54.8201 66.145 55.0526C66.0288 55.1689 65.8754 55.2283 65.7245 55.2283C65.5736 55.2283 65.4226 55.1714 65.3064 55.0551C62.9338 52.6949 59.0695 52.6925 56.6945 55.0501C56.462 55.2802 56.0859 55.2802 55.8558 55.0477C55.6258 54.8151 55.6258 54.4391 55.8583 54.209C57.2338 52.8458 59.0571 52.0938 60.9992 52.0938H61.0042C62.9437 52.0913 64.7695 52.8458 66.1426 54.2115Z" fill="#246BFD"/>
<path d="M64.1713 57.34C64.4039 57.5701 64.4039 57.9461 64.1738 58.1787C64.0575 58.2949 63.9066 58.3543 63.7532 58.3543C63.6023 58.3543 63.4514 58.2974 63.3351 58.1811C62.0462 56.8996 59.9483 56.8971 58.6594 58.1787C58.4268 58.4087 58.0508 58.4087 57.8207 58.1762C57.5906 57.9436 57.5906 57.5676 57.8232 57.3375C58.6717 56.4964 59.7974 56.0313 60.9948 56.0313H60.9973C62.1946 56.0288 63.3228 56.4964 64.1713 57.34Z" fill="#246BFD"/>
<path d="M60.9957 59.5391C61.5326 59.5391 61.968 59.9745 61.968 60.5113C61.968 61.0482 61.5326 61.4836 60.9957 61.4836C60.4589 61.4836 60.0234 61.0482 60.0234 60.5113C60.0234 59.9745 60.4589 59.5391 60.9957 59.5391Z" fill="#246BFD"/>
<defs>
<filter id="filter0_d_124_2" x="0.6" y="0.400001" width="121.8" height="121.8" filterUnits="userSpaceOnUse" color-interpolation-filters="sRGB">
<feFlood flood-opacity="0" result="BackgroundImageFix"/>
<feColorMatrix in="SourceAlpha" type="matrix" values="0 0 0 0 0 0 0 0 0 0 0 0 0 0 0 0 0 0 127 0" result="hardAlpha"/>
<feMorphology radius="6" operator="erode" in="SourceAlpha" result="effect1_dropShadow_124_2"/>
<feOffset dy="4.8"/>
<feGaussianBlur stdDeviation="12.2"/>
<feColorMatrix type="matrix" values="0 0 0 0 0.0745098 0 0 0 0 0.0627451 0 0 0 0 0.133333 0 0 0 0.1 0"/>
<feBlend mode="normal" in2="BackgroundImageFix" result="effect1_dropShadow_124_2"/>
<feBlend mode="normal" in="SourceGraphic" in2="effect1_dropShadow_124_2" result="shape"/>
</filter>
</defs>
</svg>
