<svg width="81" height="81" viewBox="0 0 81 81" fill="none" xmlns="http://www.w3.org/2000/svg">
<circle cx="40.5" cy="40.5" r="40" stroke="#737588" stroke-dasharray="2 5"/>
<g clip-path="url(#clip0_2_11)">
<path d="M33.667 41.0052C33.667 45.0552 36.9503 48.3385 41.0003 48.3385C45.0503 48.3385 48.3337 45.0552 48.3337 41.0052C48.3337 36.9552 45.0503 33.6719 41.0003 33.6719C36.9537 33.6812 33.6763 36.9585 33.667 41.0052ZM36.8857 36.6499L38.219 41.0359L35.215 39.4359C35.5051 38.3713 36.0832 37.4072 36.8857 36.6499ZM47.0003 41.0052C47.0003 41.0632 46.993 41.1192 46.9917 41.1765L42.9443 39.0172L46.2003 38.0265C46.724 38.9319 46.9999 39.9593 47.0003 41.0052ZM35.0003 41.0052C35.0003 40.9472 35.0077 40.8912 35.009 40.8339L39.0563 42.9932L35.8003 43.9839C35.2767 43.0785 35.0008 42.0511 35.0003 41.0052ZM42.3337 41.0052C42.3337 41.3588 42.1932 41.698 41.9431 41.948C41.6931 42.1981 41.3539 42.3385 41.0003 42.3385C40.6467 42.3385 40.3076 42.1981 40.0575 41.948C39.8075 41.698 39.667 41.3588 39.667 41.0052C39.667 40.6516 39.8075 40.3124 40.0575 40.0624C40.3076 39.8124 40.6467 39.6719 41.0003 39.6719C41.3539 39.6719 41.6931 39.8124 41.9431 40.0624C42.1932 40.3124 42.3337 40.6516 42.3337 41.0052ZM36.645 45.1199L41.0317 43.7865L39.4317 46.7905C38.3666 46.5009 37.4023 45.9228 36.645 45.1199ZM40.829 46.9965L42.9877 42.9505L43.9783 46.2052C43.0731 46.7288 42.046 47.0047 41.0003 47.0052C40.9423 47.0052 40.8863 46.9979 40.829 46.9965ZM45.115 45.3605L43.7817 40.9745L46.7857 42.5745C46.4955 43.6392 45.9175 44.6032 45.115 45.3605ZM45.3557 36.8905L40.969 38.2239L42.569 35.2199C43.634 35.5095 44.5983 36.0877 45.3557 36.8905ZM41.1717 35.0139L39.013 39.0599L38.0223 35.8052C38.9275 35.2817 39.9546 35.0057 41.0003 35.0052C41.0583 35.0052 41.1143 35.0125 41.1717 35.0139Z" fill="#50AF9B"/>
<path d="M50.3336 30.3355H55.7616C55.9238 30.9639 56.3097 31.5116 56.8469 31.8759C57.3841 32.2402 58.0357 32.396 58.6796 32.3143C59.3234 32.2325 59.9154 31.9187 60.3444 31.4317C60.7735 30.9447 61.0102 30.3179 61.0102 29.6688C61.0102 29.0198 60.7735 28.393 60.3444 27.906C59.9154 27.419 59.3234 27.1052 58.6796 27.0234C58.0357 26.9416 57.3841 27.0975 56.8469 27.4618C56.3097 27.826 55.9238 28.3737 55.7616 29.0022H50.3336C49.8031 29.0022 49.2944 29.2129 48.9193 29.588C48.5443 29.963 48.3336 30.4717 48.3336 31.0022V31.0108C47.4671 30.6676 46.5756 30.3913 45.6669 30.1842V26.3355C45.6669 26.1587 45.7371 25.9891 45.8622 25.8641C45.9872 25.7391 46.1567 25.6688 46.3336 25.6688H48.4282C48.5905 26.2973 48.9764 26.845 49.5136 27.2092C50.0507 27.5735 50.7023 27.7294 51.3462 27.6476C51.9901 27.5658 52.582 27.252 53.0111 26.765C53.4402 26.278 53.6769 25.6512 53.6769 25.0022C53.6769 24.3531 53.4402 23.7264 53.0111 23.2394C52.582 22.7524 51.9901 22.4385 51.3462 22.3568C50.7023 22.275 50.0507 22.4308 49.5136 22.7951C48.9764 23.1594 48.5905 23.7071 48.4282 24.3355H46.3336C45.8031 24.3355 45.2944 24.5462 44.9193 24.9213C44.5443 25.2964 44.3336 25.8051 44.3336 26.3355V29.9255C43.4506 29.7897 42.5599 29.7098 41.6669 29.6862V26.2408C42.2953 26.0786 42.843 25.6927 43.2073 25.1555C43.5716 24.6183 43.7274 23.9667 43.6456 23.3228C43.5639 22.679 43.25 22.087 42.763 21.658C42.276 21.2289 41.6493 20.9922 41.0002 20.9922C40.3512 20.9922 39.7244 21.2289 39.2374 21.658C38.7504 22.087 38.4366 22.679 38.3548 23.3228C38.273 23.9667 38.4289 24.6183 38.7932 25.1555C39.1574 25.6927 39.7051 26.0786 40.3336 26.2408V29.6862C39.4402 29.7095 38.5496 29.7895 37.6669 29.9255V26.3355C37.6669 25.8051 37.4562 25.2964 37.0811 24.9213C36.706 24.5462 36.1973 24.3355 35.6669 24.3355H33.5722C33.41 23.7071 33.0241 23.1594 32.4869 22.7951C31.9497 22.4308 31.2981 22.275 30.6542 22.3568C30.0103 22.4385 29.4184 22.7524 28.9893 23.2394C28.5603 23.7264 28.3236 24.3531 28.3236 25.0022C28.3236 25.6512 28.5603 26.278 28.9893 26.765C29.4184 27.252 30.0103 27.5658 30.6542 27.6476C31.2981 27.7294 31.9497 27.5735 32.4869 27.2092C33.0241 26.845 33.41 26.2973 33.5722 25.6688H35.6669C35.8437 25.6688 36.0133 25.7391 36.1383 25.8641C36.2633 25.9891 36.3336 26.1587 36.3336 26.3355V30.1842C35.4249 30.3908 34.5336 30.6675 33.6669 31.0108V31.0022C33.6669 30.4717 33.4562 29.963 33.0811 29.588C32.706 29.2129 32.1973 29.0022 31.6669 29.0022H26.2389C26.0766 28.3737 25.6907 27.826 25.1536 27.4618C24.6164 27.0975 23.9648 26.9416 23.3209 27.0234C22.677 27.1052 22.0851 27.419 21.656 27.906C21.2269 28.393 20.9902 29.0198 20.9902 29.6688C20.9902 30.3179 21.2269 30.9447 21.656 31.4317C22.0851 31.9187 22.677 32.2325 23.3209 32.3143C23.9648 32.396 24.6164 32.2402 25.1536 31.8759C25.6907 31.5116 26.0766 30.9639 26.2389 30.3355H31.6669C31.8437 30.3355 32.0133 30.4057 32.1383 30.5308C32.2633 30.6558 32.3336 30.8254 32.3336 31.0022V31.6128C28.4826 33.5729 25.4331 36.8112 23.7076 40.7728C23.6529 40.9208 23.6529 41.0835 23.7076 41.2315C25.4331 45.1931 28.4826 48.4314 32.3336 50.3915V51.0022C32.3336 51.179 32.2633 51.3486 32.1383 51.4736C32.0133 51.5986 31.8437 51.6688 31.6669 51.6688H26.2389C26.0766 51.0404 25.6907 50.4927 25.1536 50.1284C24.6164 49.7642 23.9648 49.6083 23.3209 49.6901C22.677 49.7719 22.0851 50.0857 21.656 50.5727C21.2269 51.0597 20.9902 51.6865 20.9902 52.3355C20.9902 52.9846 21.2269 53.6113 21.656 54.0983C22.0851 54.5853 22.677 54.8991 23.3209 54.9809C23.9648 55.0627 24.6164 54.9068 25.1536 54.5426C25.6907 54.1783 26.0766 53.6306 26.2389 53.0022H31.6669C32.1973 53.0022 32.706 52.7915 33.0811 52.4164C33.4562 52.0413 33.6669 51.5326 33.6669 51.0022V50.9935C34.5336 51.3368 35.4249 51.6135 36.3336 51.8202V55.6688C36.3336 55.8457 36.2633 56.0152 36.1383 56.1402C36.0133 56.2653 35.8437 56.3355 35.6669 56.3355H33.5722C33.41 55.7071 33.0241 55.1594 32.4869 54.7951C31.9497 54.4308 31.2981 54.275 30.6542 54.3568C30.0103 54.4385 29.4184 54.7523 28.9893 55.2394C28.5603 55.7264 28.3236 56.3531 28.3236 57.0022C28.3236 57.6512 28.5603 58.278 28.9893 58.765C29.4184 59.252 30.0103 59.5658 30.6542 59.6476C31.2981 59.7294 31.9497 59.5735 32.4869 59.2092C33.0241 58.845 33.41 58.2973 33.5722 57.6688H35.6669C36.1973 57.6688 36.706 57.4581 37.0811 57.0831C37.4562 56.708 37.6669 56.1993 37.6669 55.6688V52.0788C38.5496 52.2148 39.4402 52.2948 40.3336 52.3182V55.7635C39.7051 55.9258 39.1574 56.3117 38.7932 56.8488C38.4289 57.386 38.273 58.0376 38.3548 58.6815C38.4366 59.3254 38.7504 59.9173 39.2374 60.3464C39.7244 60.7754 40.3512 61.0122 41.0002 61.0122C41.6493 61.0122 42.276 60.7754 42.763 60.3464C43.25 59.9173 43.5639 59.3254 43.6456 58.6815C43.7274 58.0376 43.5716 57.386 43.2073 56.8488C42.843 56.3117 42.2953 55.9258 41.6669 55.7635V52.3182C42.5599 52.2945 43.4506 52.2146 44.3336 52.0788V55.6688C44.3336 56.1993 44.5443 56.708 44.9193 57.0831C45.2944 57.4581 45.8031 57.6688 46.3336 57.6688H48.4282C48.5905 58.2973 48.9764 58.845 49.5136 59.2092C50.0507 59.5735 50.7023 59.7294 51.3462 59.6476C51.9901 59.5658 52.582 59.252 53.0111 58.765C53.4402 58.278 53.6769 57.6512 53.6769 57.0022C53.6769 56.3531 53.4402 55.7264 53.0111 55.2394C52.582 54.7523 51.9901 54.4385 51.3462 54.3568C50.7023 54.275 50.0507 54.4308 49.5136 54.7951C48.9764 55.1594 48.5905 55.7071 48.4282 56.3355H46.3336C46.1567 56.3355 45.9872 56.2653 45.8622 56.1402C45.7371 56.0152 45.6669 55.8457 45.6669 55.6688V51.8202C46.5756 51.6131 47.4671 51.3367 48.3336 50.9935V51.0022C48.3336 51.5326 48.5443 52.0413 48.9193 52.4164C49.2944 52.7915 49.8031 53.0022 50.3336 53.0022H55.7616C55.9238 53.6306 56.3097 54.1783 56.8469 54.5426C57.3841 54.9068 58.0357 55.0627 58.6796 54.9809C59.3234 54.8991 59.9154 54.5853 60.3444 54.0983C60.7735 53.6113 61.0102 52.9846 61.0102 52.3355C61.0102 51.6865 60.7735 51.0597 60.3444 50.5727C59.9154 50.0857 59.3234 49.7719 58.6796 49.6901C58.0357 49.6083 57.3841 49.7642 56.8469 50.1284C56.3097 50.4927 55.9238 51.0404 55.7616 51.6688H50.3336C50.1567 51.6688 49.9872 51.5986 49.8622 51.4736C49.7371 51.3486 49.6669 51.179 49.6669 51.0022V50.3915C53.5179 48.4314 56.5674 45.1931 58.2929 41.2315C58.3475 41.0835 58.3475 40.9208 58.2929 40.7728C56.5674 36.8112 53.5179 33.5729 49.6669 31.6128V31.0022C49.6669 30.8254 49.7371 30.6558 49.8622 30.5308C49.9872 30.4057 50.1567 30.3355 50.3336 30.3355ZM58.3336 28.3355C58.6872 28.3355 59.0263 28.476 59.2764 28.726C59.5264 28.9761 59.6669 29.3152 59.6669 29.6688C59.6669 30.0225 59.5264 30.3616 59.2764 30.6117C59.0263 30.8617 58.6872 31.0022 58.3336 31.0022C57.9799 31.0022 57.6408 30.8617 57.3907 30.6117C57.1407 30.3616 57.0002 30.0225 57.0002 29.6688C57.0002 29.3152 57.1407 28.9761 57.3907 28.726C57.6408 28.476 57.9799 28.3355 58.3336 28.3355ZM51.0002 23.6688C51.3538 23.6688 51.693 23.8093 51.943 24.0594C52.1931 24.3094 52.3336 24.6486 52.3336 25.0022C52.3336 25.3558 52.1931 25.6949 51.943 25.945C51.693 26.195 51.3538 26.3355 51.0002 26.3355C50.6466 26.3355 50.3075 26.195 50.0574 25.945C49.8074 25.6949 49.6669 25.3558 49.6669 25.0022C49.6669 24.6486 49.8074 24.3094 50.0574 24.0594C50.3075 23.8093 50.6466 23.6688 51.0002 23.6688ZM31.0002 26.3355C30.6466 26.3355 30.3075 26.195 30.0574 25.945C29.8074 25.6949 29.6669 25.3558 29.6669 25.0022C29.6669 24.6486 29.8074 24.3094 30.0574 24.0594C30.3075 23.8093 30.6466 23.6688 31.0002 23.6688C31.3538 23.6688 31.693 23.8093 31.943 24.0594C32.1931 24.3094 32.3336 24.6486 32.3336 25.0022C32.3336 25.3558 32.1931 25.6949 31.943 25.945C31.693 26.195 31.3538 26.3355 31.0002 26.3355ZM23.6669 31.0022C23.3133 31.0022 22.9741 30.8617 22.7241 30.6117C22.474 30.3616 22.3336 30.0225 22.3336 29.6688C22.3336 29.3152 22.474 28.9761 22.7241 28.726C22.9741 28.476 23.3133 28.3355 23.6669 28.3355C24.0205 28.3355 24.3597 28.476 24.6097 28.726C24.8597 28.9761 25.0002 29.3152 25.0002 29.6688C25.0002 30.0225 24.8597 30.3616 24.6097 30.6117C24.3597 30.8617 24.0205 31.0022 23.6669 31.0022ZM23.6669 53.6688C23.3133 53.6688 22.9741 53.5284 22.7241 53.2783C22.474 53.0283 22.3336 52.6891 22.3336 52.3355C22.3336 51.9819 22.474 51.6427 22.7241 51.3927C22.9741 51.1427 23.3133 51.0022 23.6669 51.0022C24.0205 51.0022 24.3597 51.1427 24.6097 51.3927C24.8597 51.6427 25.0002 51.9819 25.0002 52.3355C25.0002 52.6891 24.8597 53.0283 24.6097 53.2783C24.3597 53.5284 24.0205 53.6688 23.6669 53.6688ZM31.0002 58.3355C30.6466 58.3355 30.3075 58.195 30.0574 57.945C29.8074 57.6949 29.6669 57.3558 29.6669 57.0022C29.6669 56.6486 29.8074 56.3094 30.0574 56.0594C30.3075 55.8093 30.6466 55.6688 31.0002 55.6688C31.3538 55.6688 31.693 55.8093 31.943 56.0594C32.1931 56.3094 32.3336 56.6486 32.3336 57.0022C32.3336 57.3558 32.1931 57.6949 31.943 57.945C31.693 58.195 31.3538 58.3355 31.0002 58.3355ZM51.0002 55.6688C51.3538 55.6688 51.693 55.8093 51.943 56.0594C52.1931 56.3094 52.3336 56.6486 52.3336 57.0022C52.3336 57.3558 52.1931 57.6949 51.943 57.945C51.693 58.195 51.3538 58.3355 51.0002 58.3355C50.6466 58.3355 50.3075 58.195 50.0574 57.945C49.8074 57.6949 49.6669 57.3558 49.6669 57.0022C49.6669 56.6486 49.8074 56.3094 50.0574 56.0594C50.3075 55.8093 50.6466 55.6688 51.0002 55.6688ZM58.3336 51.0022C58.6872 51.0022 59.0263 51.1427 59.2764 51.3927C59.5264 51.6427 59.6669 51.9819 59.6669 52.3355C59.6669 52.6891 59.5264 53.0283 59.2764 53.2783C59.0263 53.5284 58.6872 53.6688 58.3336 53.6688C57.9799 53.6688 57.6408 53.5284 57.3907 53.2783C57.1407 53.0283 57.0002 52.6891 57.0002 52.3355C57.0002 51.9819 57.1407 51.6427 57.3907 51.3927C57.6408 51.1427 57.9799 51.0022 58.3336 51.0022ZM51.0002 41.0022C51.0002 46.5248 46.5229 51.0022 41.0002 51.0022C35.4776 51.0022 31.0002 46.5248 31.0002 41.0022C31.0002 35.4795 35.4776 31.0022 41.0002 31.0022C46.5202 31.0088 50.9936 35.4822 51.0002 41.0022ZM39.6669 23.6688C39.6669 23.3152 39.8074 22.9761 40.0574 22.726C40.3075 22.476 40.6466 22.3355 41.0002 22.3355C41.3538 22.3355 41.693 22.476 41.943 22.726C42.1931 22.9761 42.3336 23.3152 42.3336 23.6688C42.3336 24.0225 42.1931 24.3616 41.943 24.6117C41.693 24.8617 41.3538 25.0022 41.0002 25.0022C40.6466 25.0022 40.3075 24.8617 40.0574 24.6117C39.8074 24.3616 39.6669 24.0225 39.6669 23.6688ZM25.0509 41.0022C26.7269 37.2024 29.7589 34.1635 33.5549 32.4788C32.3345 33.5384 31.3558 34.8477 30.6851 36.3182C30.0144 37.7886 29.6673 39.386 29.6673 41.0022C29.6673 42.6184 30.0144 44.2157 30.6851 45.6862C31.3558 47.1567 32.3345 48.466 33.5549 49.5255C29.7588 47.8409 26.7269 44.802 25.0509 41.0022ZM42.3336 58.3355C42.3336 58.6891 42.1931 59.0283 41.943 59.2783C41.693 59.5284 41.3538 59.6688 41.0002 59.6688C40.6466 59.6688 40.3075 59.5284 40.0574 59.2783C39.8074 59.0283 39.6669 58.6891 39.6669 58.3355C39.6669 57.9819 39.8074 57.6427 40.0574 57.3927C40.3075 57.1427 40.6466 57.0022 41.0002 57.0022C41.3538 57.0022 41.693 57.1427 41.943 57.3927C42.1931 57.6427 42.3336 57.9819 42.3336 58.3355ZM56.9496 41.0022C55.2738 44.802 52.2421 47.8408 48.4462 49.5255C49.6667 48.466 50.6453 47.1567 51.316 45.6862C51.9867 44.2157 52.3338 42.6184 52.3338 41.0022C52.3338 39.386 51.9867 37.7886 51.316 36.3182C50.6453 34.8477 49.6667 33.5384 48.4462 32.4788C52.2423 34.1632 55.2742 37.2021 56.9496 41.0022Z" fill="#50AF9B"/>
</g>
<defs>
<clipPath id="clip0_2_11">
<rect width="40" height="40" fill="white" transform="translate(21 21)"/>
</clipPath>
</defs>
</svg>
