<svg width="81" height="81" viewBox="0 0 81 81" fill="none" xmlns="http://www.w3.org/2000/svg">
<circle cx="40.5" cy="40.5" r="40" stroke="#737588" stroke-dasharray="2 5"/>
<g clip-path="url(#clip0_23_13)">
<path d="M59 32.3333C60.1046 32.3333 61 31.4379 61 30.3334C61 29.2288 60.1046 28.3334 59 28.3334H57.0001V27.6667C57.0001 26.1939 55.8061 25.0001 54.3334 25.0001H53.6667V23C53.6667 21.8954 52.7713 21 51.6667 21C50.5621 21 49.6667 21.8954 49.6667 23V24.9999H48.3334V23C48.3334 21.8954 47.4379 21 46.3333 21C45.2288 21 44.3334 21.8954 44.3334 23V24.9999H43V23C43 21.8954 42.1046 21 41 21C39.8955 21 39.0001 21.8954 39.0001 23V24.9999H37.6667V23C37.6667 21.8954 36.7712 21 35.6667 21C34.5621 21 33.6667 21.8954 33.6667 23V24.9999H32.3333V23C32.3333 21.8954 31.4379 21 30.3334 21C29.2288 21 28.3334 21.8954 28.3334 23V24.9999H27.6667C26.1939 24.9999 25.0001 26.1939 25.0001 27.6666V28.3333H23C21.8954 28.3333 21 29.2288 21 30.3334C21 31.4379 21.8954 32.3333 23 32.3333H24.9999V33.6667H23C21.8954 33.6667 21 34.5621 21 35.6667C21 36.7712 21.8954 37.6666 23 37.6666H24.9999V39H23C21.8954 39 21 39.8955 21 41C21 42.1046 21.8954 43 23 43H24.9999V44.3334H23C21.8954 44.3334 21 45.2288 21 46.3333C21 47.4379 21.8954 48.3333 23 48.3333H24.9999V49.6667H23C21.8954 49.6667 21 50.5621 21 51.6667C21 52.7713 21.8954 53.6667 23 53.6667H24.9999V54.3333C24.9999 55.8061 26.1939 57 27.6666 57H28.3333V59C28.3333 60.1045 29.2287 60.9999 30.3332 60.9999C31.4378 60.9999 32.3332 60.1045 32.3332 59V57H33.6666V59C33.6666 60.1045 34.562 60.9999 35.6665 60.9999C36.7711 60.9999 37.6665 60.1045 37.6665 59V57H38.9999V59C38.9999 60.1045 39.8953 60.9999 40.9998 60.9999C42.1044 60.9999 42.9998 60.1045 42.9998 59V57H44.3332V59C44.3332 60.1045 45.2286 60.9999 46.3331 60.9999C47.4377 60.9999 48.3331 60.1045 48.3331 59V57H49.6665V59C49.6665 60.1045 50.5619 60.9999 51.6664 60.9999C52.771 60.9999 53.6664 60.1045 53.6664 59V57H54.3331C55.8059 57 56.9997 55.8061 56.9997 54.3333V53.6667H58.9997C60.1043 53.6667 60.9997 52.7713 60.9997 51.6667C60.9997 50.5621 60.1043 49.6667 58.9997 49.6667H56.9997V48.3334H58.9997C60.1043 48.3334 60.9997 47.438 60.9997 46.3334C60.9997 45.2288 60.1043 44.3334 58.9997 44.3334H56.9997V43.0001H58.9997C60.1043 43.0001 60.9997 42.1047 60.9997 41.0001C60.9997 39.8955 60.1043 39.0001 58.9997 39.0001H56.9997V37.6668H58.9997C60.1043 37.6668 60.9997 36.7714 60.9997 35.6668C60.9997 34.5622 60.1043 33.6668 58.9997 33.6668H56.9997V32.3335H59V32.3333ZM59 29.6667C59.3682 29.6667 59.6667 29.9652 59.6667 30.3334C59.6667 30.7016 59.3682 31 59 31H57.0001V29.6667H59ZM51 23C51 22.6318 51.2985 22.3333 51.6667 22.3333C52.0349 22.3333 52.3334 22.6318 52.3334 23V24.9999H51V23ZM45.6667 23C45.6667 22.6318 45.9652 22.3333 46.3334 22.3333C46.7016 22.3333 47.0001 22.6318 47.0001 23V24.9999H45.6667V23ZM40.3334 23C40.3334 22.6318 40.6318 22.3333 41 22.3333C41.3682 22.3333 41.6667 22.6318 41.6667 23V24.9999H40.3334V23ZM35 23C35 22.6318 35.2985 22.3333 35.6667 22.3333C36.0349 22.3333 36.3333 22.6318 36.3333 23V24.9999H35V23ZM29.6667 23C29.6667 22.6318 29.9652 22.3333 30.3334 22.3333C30.7016 22.3333 31 22.6318 31 23V24.9999H29.6667V23ZM23 31C22.6318 31 22.3333 30.7015 22.3333 30.3333C22.3333 29.9651 22.6318 29.6666 23 29.6666H24.9999V31H23ZM23 36.3333C22.6318 36.3333 22.3333 36.0349 22.3333 35.6667C22.3333 35.2985 22.6318 35 23 35H24.9999V36.3333H23ZM23 41.6667C22.6318 41.6667 22.3333 41.3682 22.3333 41C22.3333 40.6318 22.6318 40.3334 23 40.3334H24.9999V41.6667H23ZM23 47C22.6318 47 22.3333 46.7015 22.3333 46.3333C22.3333 45.9651 22.6318 45.6667 23 45.6667H24.9999V47H23ZM23 52.3334C22.6318 52.3334 22.3333 52.0349 22.3333 51.6667C22.3333 51.2985 22.6318 51 23 51H24.9999V52.3334H23ZM31 59C31 59.3682 30.7015 59.6667 30.3333 59.6667C29.9651 59.6667 29.6666 59.3682 29.6666 59V57.0001H31V59ZM36.3333 59C36.3333 59.3682 36.0349 59.6667 35.6667 59.6667C35.2985 59.6667 35 59.3682 35 59V57.0001H36.3333V59ZM41.6667 59C41.6667 59.3682 41.3682 59.6667 41 59.6667C40.6318 59.6667 40.3334 59.3682 40.3334 59V57.0001H41.6667V59ZM47 59C47 59.3682 46.7015 59.6667 46.3333 59.6667C45.9651 59.6667 45.6667 59.3682 45.6667 59V57.0001H47V59ZM52.3334 59C52.3334 59.3682 52.0349 59.6667 51.6667 59.6667C51.2985 59.6667 51 59.3682 51 59V57.0001H52.3334V59ZM55.6667 54.3333C55.6667 55.0697 55.0698 55.6667 54.3333 55.6667H27.6667C26.9303 55.6667 26.3333 55.0698 26.3333 54.3333V27.6667C26.3333 26.9303 26.9302 26.3333 27.6667 26.3333H54.3333C55.0697 26.3333 55.6667 26.9302 55.6667 27.6667V54.3333ZM59 51C59.3682 51 59.6667 51.2985 59.6667 51.6667C59.6667 52.0349 59.3682 52.3334 59 52.3334H57.0001V51H59ZM59 45.6667C59.3682 45.6667 59.6667 45.9652 59.6667 46.3334C59.6667 46.7016 59.3682 47.0001 59 47.0001H57.0001V45.6667H59ZM59 40.3334C59.3682 40.3334 59.6667 40.6318 59.6667 41C59.6667 41.3682 59.3682 41.6667 59 41.6667H57.0001V40.3334H59ZM59 35C59.3682 35 59.6667 35.2985 59.6667 35.6667C59.6667 36.0349 59.3682 36.3333 59 36.3333H57.0001V35H59Z" fill="#50AF9B"/>
<path d="M28.941 32.9974C29.1087 32.9974 29.2748 32.9643 29.4297 32.9C29.5846 32.8357 29.7252 32.7415 29.8437 32.6227L32.625 29.8414C32.8037 29.6636 32.9257 29.4369 32.9755 29.1898C33.0253 28.9427 33.0007 28.6863 32.9048 28.4532C32.8089 28.2201 32.6459 28.0207 32.4366 27.8802C32.2273 27.7398 31.9811 27.6645 31.729 27.6641H28.941C28.2377 27.6648 27.6677 28.2348 27.667 28.938V31.7253C27.6684 32.428 28.2383 32.997 28.941 32.9974ZM31.6816 28.898L32.153 29.37L31.6816 28.8987V28.898ZM29.0003 28.9974H31.5843L29.0003 31.628V28.9974Z" fill="#50AF9B"/>
<path fill-rule="evenodd" clip-rule="evenodd" d="M43.1338 41.2667C42.8854 41.5979 42.5633 41.8667 42.193 42.0518C41.8227 42.237 41.4144 42.3334 41.0004 42.3334C40.5864 42.3334 40.1781 42.237 39.8078 42.0518C39.4375 41.8667 39.1154 41.5979 38.867 41.2667C38.7609 41.1252 38.603 41.0317 38.428 41.0067C38.2529 40.9817 38.0751 41.0272 37.9337 41.1333C37.7922 41.2394 37.6987 41.3974 37.6737 41.5724C37.6487 41.7474 37.6942 41.9252 37.8003 42.0667C38.1729 42.5635 38.6561 42.9667 39.2115 43.2444C39.7669 43.5221 40.3794 43.6666 41.0003 43.6666C41.6213 43.6666 42.2338 43.5221 42.7892 43.2444C43.3446 42.9667 43.8277 42.5635 44.2003 42.0667C44.304 41.9251 44.3476 41.7484 44.3218 41.5748C44.2959 41.4013 44.2027 41.2449 44.0624 41.1396C43.922 41.0343 43.7458 40.9886 43.572 41.0124C43.3981 41.0362 43.2407 41.1276 43.1338 41.2667Z" fill="#50AF9B"/>
<path d="M36.0003 36.3359C34.7117 36.3359 33.667 37.3806 33.667 38.6693C33.667 39.958 34.7117 41.0026 36.0003 41.0026C37.289 41.0026 38.3337 39.958 38.3337 38.6693C38.3337 37.3806 37.2889 36.3359 36.0003 36.3359ZM36.0003 39.6693C35.4481 39.6693 35.0003 39.2215 35.0003 38.6693C35.0003 38.117 35.4481 37.6693 36.0003 37.6693C36.5526 37.6693 37.0003 38.117 37.0003 38.6693C37.0003 39.2215 36.5526 39.6693 36.0003 39.6693ZM46.0003 36.3359C44.7116 36.3359 43.667 37.3806 43.667 38.6693C43.667 39.958 44.7116 41.0026 46.0003 41.0026C47.289 41.0026 48.3337 39.958 48.3337 38.6693C48.3337 37.3806 47.289 36.3359 46.0003 36.3359ZM46.0003 39.6693C45.4481 39.6693 45.0003 39.2215 45.0003 38.6693C45.0003 38.117 45.4481 37.6693 46.0003 37.6693C46.5526 37.6693 47.0003 38.117 47.0003 38.6693C47.0003 39.2215 46.5526 39.6693 46.0003 39.6693Z" fill="#50AF9B"/>
<path d="M52.9331 36.8891L50.9591 35.9025C50.747 34.6165 49.6364 33.6722 48.3331 33.6698H41.6664V32.2138C42.5848 31.8891 43.1356 30.95 42.9709 29.9899C42.8063 29.0299 41.9738 28.3281 40.9998 28.3281C40.0257 28.3281 39.1933 29.0299 39.0286 29.9899C38.8639 30.95 39.4148 31.8891 40.3332 32.2138V33.6698H33.6664C32.3643 33.6739 31.2556 34.6177 31.0437 35.9025L29.0697 36.8891C28.8478 36.9993 28.6612 37.1694 28.531 37.3802C28.4008 37.591 28.3322 37.834 28.333 38.0818V41.9245C28.3322 42.1722 28.4008 42.4153 28.531 42.6261C28.6612 42.8369 28.8478 43.007 29.0697 43.1172L31.0437 44.1038C31.2556 45.3886 32.3643 46.3324 33.6664 46.3365H37.6664V47.6699H36.9997C35.5269 47.6699 34.3331 48.8638 34.3331 50.3365V51.0032C34.3331 51.7396 34.93 52.3366 35.6664 52.3366H46.3331C47.0694 52.3366 47.6664 51.7396 47.6664 51.0032V50.3365C47.6664 48.8637 46.4725 47.6699 44.9998 47.6699H44.3331V46.3365H48.3331C49.6352 46.3324 50.7439 45.3886 50.9558 44.1038L52.9298 43.1172C53.1517 43.007 53.3383 42.8369 53.4685 42.6261C53.5987 42.4153 53.6673 42.1722 53.6665 41.9245V38.0818C53.6676 37.8344 53.5995 37.5916 53.4699 37.3809C53.3403 37.1701 53.1544 36.9998 52.9331 36.8891ZM40.9997 29.6698C41.3679 29.6698 41.6664 29.9683 41.6664 30.3365C41.6664 30.7047 41.3679 31.0032 40.9997 31.0032C40.6315 31.0032 40.333 30.7047 40.333 30.3365C40.333 29.9683 40.6315 29.6698 40.9997 29.6698ZM29.6664 38.0818L30.9997 37.4151V42.5912L29.6664 41.9245V38.0818ZM46.333 50.3365V51.0031H35.6663V50.3365C35.6663 49.6001 36.2633 49.0031 36.9997 49.0031H44.9997C45.7361 49.0032 46.333 49.6001 46.333 50.3365ZM42.9997 47.6698H38.9997V46.3365H42.9997V47.6698ZM49.6663 43.6698C49.6663 44.4062 49.0694 45.0032 48.333 45.0032H33.6664C32.93 45.0032 32.333 44.4062 32.333 43.6698V36.3365C32.333 35.6001 32.93 35.0031 33.6664 35.0031H48.333C49.0694 35.0031 49.6664 35.6 49.6664 36.3365L49.6663 43.6698ZM52.3331 41.9245L50.9997 42.5912V37.4151L52.3331 38.0818V41.9245Z" fill="#50AF9B"/>
</g>
<defs>
<clipPath id="clip0_23_13">
<rect width="40" height="40" fill="white" transform="translate(21 21)"/>
</clipPath>
</defs>
</svg>
