<svg width="81" height="81" viewBox="0 0 81 81" fill="none" xmlns="http://www.w3.org/2000/svg">
<circle cx="40.5" cy="40.5" r="40" stroke="#737588" stroke-dasharray="2 5"/>
<g clip-path="url(#clip0_23_14)">
<path d="M41.0053 38.3359C36.22 38.3359 32.3408 42.2152 32.3408 47.0005C32.3408 51.7857 36.22 55.665 41.0053 55.665C45.7906 55.665 49.6699 51.7857 49.6699 47.0005C49.6643 42.2175 45.7883 38.3414 41.0053 38.3359ZM41.0053 54.3319C36.9563 54.3319 33.6738 51.0494 33.6738 47.0004C33.6738 42.9513 36.9563 39.6689 41.0053 39.6689C45.0544 39.6689 48.3368 42.9513 48.3368 47.0004C48.3321 51.0475 45.0525 54.3272 41.0053 54.3319Z" fill="#50AF9B"/>
<path d="M41.0054 42.3359C38.4287 42.3359 36.3398 44.4247 36.3398 47.0015C36.3398 49.5782 38.4287 51.667 41.0054 51.667C43.5821 51.667 45.6709 49.5782 45.6709 47.0015C45.6679 44.4259 43.5809 42.3388 41.0054 42.3359ZM41.0054 50.3339C39.1649 50.3339 37.6729 48.8419 37.6729 47.0015C37.6729 45.161 39.1649 43.669 41.0054 43.669C42.8458 43.669 44.3379 45.161 44.3379 47.0015C44.3357 48.841 42.845 50.3317 41.0054 50.3339Z" fill="#50AF9B"/>
<path d="M58.334 29.6745C57.122 29.679 56.0657 30.5005 55.7626 31.674H50.336C49.2317 31.674 48.3365 32.5691 48.3365 33.6734V35.9895L47.0929 36.3588L45.6706 35.7702V28.3415C45.6706 27.9733 45.969 27.675 46.3371 27.675H48.4312C48.7668 28.9749 50.0166 29.8223 51.3485 29.6532C52.6803 29.4841 53.6785 28.351 53.6785 27.0085C53.6785 25.666 52.6803 24.5329 51.3485 24.3638C50.0167 24.1946 48.7668 25.0422 48.4312 26.3421H46.3371C45.2328 26.3421 44.3376 27.2372 44.3376 28.3415V35.2185L44.253 35.1831L43.5198 33.8361C43.3839 33.5855 43.1829 33.3762 42.9379 33.2303C42.693 33.0844 42.4133 33.0072 42.1282 33.007H41.6716V26.2473C42.9715 25.9117 43.819 24.6619 43.6499 23.3301C43.4806 21.9983 42.3475 21 41.005 21C39.6625 21 38.5294 21.9983 38.3603 23.3301C38.1911 24.6619 39.0386 25.9117 40.3385 26.2473V33.007H39.9053C39.6198 33.0069 39.3395 33.0839 39.0941 33.2298C38.8487 33.3758 38.6473 33.5852 38.511 33.8361L37.7778 35.1831L37.6726 35.2278V28.3415C37.6726 27.2372 36.7774 26.342 35.6731 26.342H33.5789C33.2433 25.0421 31.9935 24.1946 30.6616 24.3637C29.3298 24.5329 28.3316 25.666 28.3316 27.0084C28.3316 28.3509 29.3299 29.484 30.6616 29.6532C31.9934 29.8223 33.2433 28.9748 33.5789 27.6749H35.673C36.0411 27.6749 36.3395 27.9733 36.3395 28.3414V35.7796L34.9399 36.3588L33.6735 35.9828V33.6734C33.6735 32.5691 32.7783 31.674 31.674 31.674H26.2473C25.9117 30.3741 24.6619 29.5266 23.3301 29.6957C21.9983 29.8648 21 30.9979 21 32.3404C21 33.6829 21.9983 34.816 23.3301 34.9851C24.6618 35.1543 25.9118 34.3069 26.2473 33.007H31.674C32.0421 33.007 32.3405 33.3054 32.3405 33.6735V36.0209C32.1766 36.0949 32.0267 36.1966 31.8972 36.3215L30.3256 37.8918C30.1234 38.0934 29.9794 38.346 29.909 38.6228C29.8386 38.8996 29.8444 39.1903 29.9258 39.464L30.3623 40.9303L29.1866 43.7669L27.8383 44.5001C27.5873 44.6359 27.3777 44.8371 27.2316 45.0823C27.0855 45.3275 27.0084 45.6076 27.0085 45.8931V48.1138C27.0084 48.3994 27.0855 48.6797 27.2317 48.9251C27.3779 49.1704 27.5877 49.3716 27.8389 49.5075L29.1872 50.2406L30.363 53.0772L29.9264 54.5435C29.845 54.8173 29.8392 55.108 29.9096 55.3848C29.98 55.6616 30.124 55.9142 30.3263 56.1158L31.8972 57.6854C32.0989 57.8878 32.3516 58.0319 32.6286 58.1023C32.9055 58.1727 33.1963 58.1668 33.4702 58.0853L34.9405 57.6494L37.7798 58.8251L38.513 60.1721C38.6493 60.4225 38.8505 60.6315 39.0955 60.7771C39.3405 60.9228 39.6202 60.9998 39.9053 60.9999H42.128C42.4135 61 42.6936 60.9231 42.9389 60.7771C43.1842 60.6312 43.3856 60.4217 43.5217 60.1708L44.2548 58.8238L47.0948 57.6481L48.5657 58.0846C48.8394 58.1659 49.13 58.1716 49.4066 58.1012C49.6833 58.0308 49.9358 57.8869 50.1373 57.6848L51.7096 56.1145C51.9116 55.9129 52.0555 55.6604 52.1259 55.3837C52.1962 55.1071 52.1906 54.8166 52.1094 54.5429L51.6689 53.0746L52.8453 50.238L54.1936 49.5049C54.4448 49.369 54.6546 49.1678 54.8008 48.9225C54.947 48.6771 55.0242 48.3968 55.024 48.1112V45.8931C55.0241 45.6075 54.947 45.3272 54.8008 45.0819C54.6546 44.8366 54.4448 44.6353 54.1936 44.4995L52.8453 43.7663L51.6689 40.9324L52.1061 39.4661C52.1871 39.1923 52.1926 38.9017 52.1223 38.625C52.0519 38.3483 51.9082 38.0957 51.7062 37.8938L50.136 36.3216C50.0003 36.1911 49.8422 36.0861 49.6694 36.0116V33.6736C49.6694 33.3054 49.9678 33.007 50.3359 33.007H55.7625C56.1112 34.3451 57.4266 35.1932 58.7892 34.9586C60.1519 34.7241 61.108 33.485 60.9893 32.1073C60.8707 30.7296 59.7168 29.6725 58.334 29.6745ZM51.0025 25.6755C51.7387 25.6755 52.3355 26.2723 52.3355 27.0085C52.3355 27.7447 51.7388 28.3415 51.0025 28.3415C50.2663 28.3415 49.6695 27.7447 49.6695 27.0085C49.6695 26.2723 50.2664 25.6755 51.0025 25.6755ZM39.672 23.676C39.672 22.9398 40.2688 22.343 41.0051 22.343C41.7413 22.343 42.3381 22.9398 42.3381 23.676C42.3381 24.4123 41.7413 25.009 41.0051 25.009C40.2688 25.009 39.672 24.4122 39.672 23.676ZM31.0075 28.3415C30.2713 28.3415 29.6745 27.7447 29.6745 27.0084C29.6745 26.2722 30.2713 25.6754 31.0075 25.6754C31.7437 25.6754 32.3405 26.2722 32.3405 27.0084C32.3405 27.7447 31.7437 28.3415 31.0075 28.3415ZM23.676 33.6735C22.9398 33.6735 22.343 33.0767 22.343 32.3405C22.343 31.6042 22.9398 31.0074 23.676 31.0074C24.4123 31.0074 25.009 31.6042 25.009 32.3405C25.009 33.0767 24.4122 33.6735 23.676 33.6735ZM50.7653 38.8342C50.7973 38.8663 50.8201 38.9065 50.8312 38.9505C50.8424 38.9944 50.8414 39.0406 50.8286 39.0841L50.3247 40.7797C50.2813 40.9261 50.2895 41.0831 50.348 41.2242L51.705 44.4974C51.7633 44.6393 51.8684 44.7569 52.0029 44.8306L53.5592 45.6704C53.5994 45.6917 53.6331 45.7236 53.6566 45.7626C53.68 45.8015 53.6925 45.8462 53.6925 45.8917V48.1125C53.6925 48.158 53.6801 48.2026 53.6566 48.2416C53.6331 48.2806 53.5994 48.3124 53.5592 48.3337L52.0023 49.1782C51.8678 49.252 51.7627 49.3696 51.7043 49.5114L50.3474 52.7846C50.2889 52.9257 50.2806 53.0827 50.324 53.2291L50.8279 54.9241C50.8408 54.9677 50.8418 55.0139 50.8306 55.058C50.8195 55.1021 50.7967 55.1424 50.7646 55.1746L49.193 56.7449C49.1604 56.7766 49.12 56.7991 49.0758 56.8102C49.0317 56.8213 48.9855 56.8206 48.9417 56.8082L47.2448 56.305C47.0984 56.2613 46.9414 56.2695 46.8003 56.3284L43.5245 57.684C43.3826 57.7423 43.265 57.8475 43.1913 57.982L42.3508 59.5336C42.3291 59.5737 42.297 59.6073 42.2578 59.6308C42.2186 59.6542 42.1738 59.6667 42.1282 59.6668H39.9054C39.8597 59.6668 39.8149 59.6543 39.7757 59.6309C39.7366 59.6074 39.7044 59.5738 39.6828 59.5336L38.839 57.9799C38.7655 57.8452 38.6478 57.74 38.5057 57.682L35.2299 56.3264C35.0888 56.2679 34.9319 56.2596 34.7854 56.303L33.0892 56.8062C33.0452 56.819 32.9985 56.8195 32.9543 56.8078C32.91 56.796 32.8698 56.7724 32.8379 56.7395L31.2663 55.1699C31.2336 55.1382 31.2102 55.0982 31.1984 55.0542C31.1867 55.0102 31.1871 54.9638 31.1996 54.92L31.7035 53.2244C31.7472 53.078 31.7392 52.9211 31.6809 52.7799L30.3279 49.5094C30.27 49.3673 30.1647 49.2496 30.03 49.1762L28.4751 48.3363C28.4349 48.315 28.4013 48.2831 28.3778 48.2442C28.3544 48.2052 28.3419 48.1606 28.3418 48.1151V45.893C28.3416 45.8473 28.3539 45.8023 28.3774 45.7631C28.4009 45.7238 28.4347 45.6918 28.4751 45.6704L30.0307 44.8273C30.1654 44.7538 30.2706 44.6361 30.3286 44.4941L31.6863 41.2209C31.7445 41.0796 31.7525 40.9227 31.7089 40.7763L31.2077 39.0841C31.1952 39.0403 31.1948 38.9939 31.2065 38.9499C31.2182 38.9059 31.2417 38.8659 31.2744 38.8342L32.8459 37.2639C32.8781 37.2316 32.9183 37.2087 32.9625 37.1976C33.0066 37.1864 33.0529 37.1875 33.0965 37.2006L34.7934 37.7038C34.9398 37.7476 35.0969 37.7393 35.2379 37.6804L37.2648 36.842L37.2774 36.8367L38.5136 36.3248C38.6557 36.2669 38.7734 36.1616 38.8468 36.0269L39.6827 34.4733C39.7043 34.4331 39.7364 34.3994 39.7756 34.376C39.8148 34.3525 39.8596 34.3401 39.9053 34.34H42.128C42.1737 34.3402 42.2185 34.3526 42.2577 34.3761C42.2968 34.3995 42.329 34.4331 42.3507 34.4733L43.1938 36.0282C43.2675 36.1627 43.3851 36.2678 43.527 36.3262L46.8035 37.6805C46.9446 37.7393 47.1016 37.7476 47.2481 37.7038L48.9443 37.2007C48.9884 37.1878 49.0351 37.1872 49.0795 37.199C49.1239 37.2107 49.1643 37.2343 49.1962 37.2673L50.7653 38.8342ZM58.334 33.6735C57.5978 33.6735 57.001 33.0767 57.001 32.3405C57.001 31.6042 57.5978 31.0074 58.334 31.0074C59.0703 31.0074 59.667 31.6042 59.667 32.3405C59.667 33.0767 59.0702 33.6735 58.334 33.6735Z" fill="#50AF9B"/>
</g>
<defs>
<clipPath id="clip0_23_14">
<rect width="40" height="40" fill="white" transform="translate(21 21)"/>
</clipPath>
</defs>
</svg>
