<svg width="81" height="81" viewBox="0 0 81 81" fill="none" xmlns="http://www.w3.org/2000/svg">
<circle cx="40.5" cy="40.5" r="40" stroke="#737588" stroke-dasharray="2 5"/>
<g clip-path="url(#clip0_23_15)">
<path d="M59.4773 45.0429C60.3622 43.9396 60.891 42.5597 60.9852 41.1086C61.0793 39.6574 60.7338 38.2125 60 36.9886C60.2466 36.3846 60.3593 35.7277 60.3291 35.0692C60.299 34.4108 60.1269 33.7688 59.8263 33.1936C59.5257 32.6184 59.1048 32.1256 58.5966 31.754C58.0884 31.3823 57.5068 31.1418 56.8973 31.0514C56.5806 28.8575 55.5446 26.8563 53.9751 25.4069C52.4056 23.9575 50.4053 23.1548 48.3333 23.1429C48.1653 23.1429 47.984 23.1636 47.81 23.175C47.5006 22.5862 47.0652 22.0845 46.5395 21.7111C46.0139 21.3377 45.4131 21.1033 44.7864 21.0272C44.1598 20.9511 43.5252 21.0353 42.9349 21.2731C42.3445 21.5109 41.8153 21.8954 41.3907 22.395C40.2071 21.4881 38.7885 21.0003 37.3333 21C36.2189 21.0062 35.1216 21.2954 34.1317 21.8439C33.1418 22.3925 32.2874 23.1848 31.6387 24.1557C30.8939 23.8773 30.0981 23.7919 29.3166 23.9067C28.5352 24.0215 27.7902 24.3332 27.1429 24.8162C26.4956 25.2992 25.9643 25.9397 25.5928 26.6852C25.2212 27.4307 25.0199 28.26 25.0053 29.105C24.2252 29.3998 23.5494 29.9463 23.0709 30.6693C22.5924 31.3924 22.3348 32.2565 22.3333 33.1429C22.3377 33.4917 22.3825 33.8387 22.4667 34.1757C21.5092 35.6554 20.9973 37.4137 21 39.2143C20.999 40.595 21.297 41.9571 21.8708 43.1934C22.4445 44.4298 23.2782 45.5065 24.3063 46.339C25.3344 47.1715 26.5288 47.7369 27.7955 47.9908C29.0622 48.2447 30.3666 48.1801 31.606 47.8022C32.035 48.7911 32.6808 49.6543 33.4884 50.3181C34.2959 50.9819 35.2413 51.4266 36.2439 51.6145C37.2466 51.8023 38.2767 51.7276 39.2466 51.3967C40.2165 51.0658 41.0973 50.4886 41.814 49.7143C42.6327 50.0122 43.4847 50.1943 44.3473 50.255C44.4707 52.9272 45.4293 54.5279 49.4533 55.9643C52.066 56.8979 52.7627 58.7922 52.946 59.8379C53.0059 60.167 53.1713 60.4633 53.4136 60.6755C53.6558 60.8878 53.9597 61.0025 54.2727 61H56.3073C56.4891 61.0003 56.6691 60.9608 56.8361 60.8839C57.0031 60.807 57.1537 60.6943 57.2786 60.5527C57.4035 60.4112 57.5 60.2438 57.5623 60.0608C57.6245 59.8778 57.6512 59.683 57.6407 59.4886C57.5427 57.7743 57.0993 53.805 55.1673 51.2843C56.2653 50.6412 57.2196 49.7499 57.9638 48.6721C58.7081 47.5943 59.2245 46.3559 59.4773 45.0429ZM52.2107 50.8864C52.0399 50.9208 51.8885 51.0253 51.7885 51.1776C51.6886 51.3298 51.6481 51.5179 51.6756 51.7017C51.7032 51.8855 51.7966 52.0505 51.936 52.1616C52.0754 52.2727 52.2498 52.3211 52.422 52.2964C52.9225 52.2088 53.4147 52.0735 53.8927 51.8922C55.7867 54.025 56.214 57.9364 56.3087 59.5714H54.2607C54.07 58.4814 53.2607 55.8136 49.8787 54.6064C46.4407 53.3786 45.7813 52.2629 45.6847 50.255H45.72C46.4741 50.1997 47.2199 50.0521 47.9427 49.815C48.1117 49.7594 48.2532 49.6341 48.336 49.4668C48.4189 49.2994 48.4362 49.1036 48.3843 48.9225C48.3325 48.7414 48.2155 48.5898 48.0593 48.5011C47.9031 48.4123 47.7204 48.3937 47.5513 48.4493C46.9213 48.6564 46.2713 48.7843 45.6133 48.8307C44.3387 48.9372 43.0582 48.7305 41.8693 48.2264C41.7423 48.1645 41.5994 48.1505 41.4639 48.1867C41.3284 48.2229 41.2084 48.3071 41.1233 48.4257C40.4735 49.2341 39.6132 49.8162 38.6527 50.0974C37.6922 50.3786 36.6752 50.3461 35.732 50.0041C34.7888 49.6621 33.9624 49.0262 33.3587 48.1778C32.755 47.3294 32.4014 46.3072 32.3433 45.2422C32.3291 45.0558 32.2473 44.8828 32.1156 44.7602C31.9838 44.6376 31.8125 44.5751 31.6382 44.5861C31.464 44.5972 31.3007 44.6808 31.1833 44.8191C31.0659 44.9575 31.0037 45.1396 31.01 45.3264C31.034 45.705 31.0887 46.0814 31.1733 46.4507C30.135 46.7529 29.0457 46.7947 27.9899 46.573C26.934 46.3512 25.9401 45.8718 25.0851 45.1719C24.2302 44.472 23.5372 43.5705 23.06 42.5374C22.5828 41.5042 22.3341 40.3671 22.3333 39.2143C22.3312 37.9937 22.6106 36.7914 23.1467 35.7143C23.4532 36.1571 23.8367 36.5323 24.276 36.8193C24.3511 36.8676 24.4343 36.8995 24.5209 36.9133C24.6075 36.9271 24.6958 36.9225 24.7807 36.8998C24.8656 36.877 24.9456 36.8366 25.0159 36.7807C25.0862 36.7249 25.1456 36.6547 25.1907 36.5743C25.2357 36.4939 25.2655 36.4047 25.2784 36.3119C25.2913 36.2192 25.287 36.1246 25.2658 36.0336C25.2445 35.9426 25.2068 35.8569 25.1547 35.7816C25.1025 35.7062 25.0371 35.6426 24.962 35.5943C24.4234 35.2479 24.0163 34.7088 23.8124 34.0722C23.6085 33.4356 23.6208 32.7423 23.8473 32.1146C24.0738 31.4868 24.4999 30.9648 25.0505 30.6407C25.601 30.3166 26.2407 30.2111 26.8567 30.3429C27.0289 30.377 27.2068 30.3372 27.3518 30.232C27.4969 30.1267 27.5974 29.9646 27.6317 29.7805C27.6661 29.5965 27.6314 29.4054 27.5353 29.2485C27.4392 29.0916 27.2893 28.9816 27.118 28.9422C26.8651 28.8876 26.608 28.8592 26.35 28.8572C26.434 27.8818 26.8547 26.9751 27.5298 26.3145C28.2049 25.654 29.0858 25.2871 30 25.2857C30.322 25.2879 30.6427 25.3357 30.9533 25.4286C30.7927 25.8043 30.6607 26.1929 30.56 26.5922C30.5379 26.683 30.5326 26.7775 30.5446 26.8705C30.5566 26.9635 30.5855 27.053 30.6298 27.134C30.674 27.215 30.7327 27.2858 30.8026 27.3425C30.8724 27.3992 30.9519 27.4406 31.0367 27.4643C31.2078 27.5122 31.3897 27.4853 31.5424 27.3896C31.618 27.3421 31.6841 27.2792 31.737 27.2044C31.7899 27.1296 31.8285 27.0444 31.8507 26.9536C32.0854 25.9983 32.5341 25.1188 33.1579 24.3914C33.7818 23.664 34.5618 23.1106 35.4304 22.7794C36.299 22.4481 37.23 22.3489 38.1424 22.4904C39.0549 22.632 39.9214 23.0099 40.6667 23.5914C40.5556 23.8604 40.4707 24.1409 40.4133 24.4286C40.378 24.6142 40.4129 24.8073 40.5104 24.9654C40.6079 25.1235 40.7601 25.2336 40.9333 25.2714C41.1066 25.3093 41.2868 25.2719 41.4344 25.1674C41.5819 25.063 41.6846 24.9 41.72 24.7143C41.8516 24.0199 42.2193 23.4027 42.7518 22.9825C43.2842 22.5622 43.9434 22.369 44.6013 22.4402C45.2593 22.5114 45.8691 22.842 46.3123 23.3678C46.7556 23.8937 47.0007 24.5772 47 25.2857C47 25.4752 47.0702 25.6569 47.1953 25.7908C47.3203 25.9248 47.4899 26 47.6667 26C47.8435 26 48.0131 25.9248 48.1381 25.7908C48.2631 25.6569 48.3333 25.4752 48.3333 25.2857C48.3321 25.0463 48.3123 24.8074 48.274 24.5714H48.3333C50.0576 24.581 51.7243 25.2375 53.0439 26.4267C54.3635 27.616 55.2525 29.2629 55.5567 31.0814C55.314 31.1329 55.0767 31.2086 54.8473 31.3072C54.6887 31.3817 54.5634 31.5194 54.498 31.6912C54.4325 31.863 54.4319 32.0553 54.4965 32.2275C54.561 32.3997 54.6856 32.5382 54.8438 32.6137C55.0019 32.6893 55.1814 32.6959 55.344 32.6322C55.9878 32.362 56.7043 32.3703 57.3425 32.6552C57.9807 32.9402 58.4906 33.4796 58.7647 34.1597C59.0388 34.8397 59.0557 35.6073 58.8118 36.3004C58.5679 36.9936 58.0823 37.5581 57.4573 37.875C57.3781 37.9148 57.3069 37.971 57.2479 38.0403C57.1889 38.1096 57.1432 38.1906 57.1134 38.2789C57.0836 38.3671 57.0703 38.4607 57.0743 38.5544C57.0783 38.6481 57.0995 38.7401 57.1367 38.825C57.1738 38.91 57.2263 38.9862 57.2909 39.0494C57.3556 39.1127 57.4313 39.1617 57.5136 39.1936C57.5959 39.2255 57.6833 39.2397 57.7708 39.2354C57.8582 39.2311 57.9441 39.2084 58.0233 39.1686C58.4452 38.9531 58.8288 38.6604 59.1567 38.3036C59.4913 39.0313 59.6658 39.8316 59.6667 40.6429C59.6659 41.8003 59.3159 42.9264 58.669 43.8532C58.022 44.78 57.1127 45.4579 56.0767 45.7857C55.9071 45.8394 55.7644 45.9631 55.68 46.1296C55.5955 46.296 55.5762 46.4916 55.6263 46.6732C55.6765 46.8549 55.7919 47.0078 55.9472 47.0983C56.1026 47.1888 56.2851 47.2094 56.4547 47.1557C56.8347 47.0301 57.2028 46.8662 57.554 46.6664C57.0397 47.7739 56.2867 48.7342 55.3573 49.468C54.428 50.2018 53.3489 50.688 52.2093 50.8864H52.2107Z" fill="#50AF9B"/>
<path d="M55.6569 35.1413C55.6554 34.8916 55.5931 34.6467 55.4762 34.4307C55.3593 34.2147 55.1918 34.0352 54.9902 33.9098L54.1762 33.4098L53.0662 31.3634L53.0609 30.3513C53.0591 30.1013 52.9963 29.8563 52.8788 29.6404C52.7612 29.4245 52.593 29.2453 52.3909 29.1205L50.9462 28.2327C50.743 28.1083 50.5128 28.0434 50.2787 28.0445C50.0447 28.0456 49.815 28.1128 49.6129 28.2391L48.8036 28.7448L46.6089 28.7555L45.7949 28.2555C45.5915 28.1317 45.3613 28.0672 45.1273 28.0685C44.8934 28.0697 44.6638 28.1367 44.4616 28.2627L43.0242 29.1641C42.8235 29.291 42.6572 29.4718 42.5417 29.6886C42.4262 29.9055 42.3655 30.1509 42.3656 30.4005V31.4134L41.6662 32.7284C41.6473 32.6715 41.6251 32.6159 41.5996 32.562L40.7596 31.0241C40.6417 30.8089 40.4734 30.6303 40.2714 30.5062C40.0693 30.382 39.8405 30.3165 39.6076 30.3163H39.6042L38.6662 30.3198L36.7516 29.1513L36.2722 28.2841C36.1567 28.0657 35.9883 27.8848 35.7846 27.7605C35.581 27.6363 35.3498 27.5734 35.1156 27.5784L33.4442 27.587C33.2108 27.588 32.9817 27.6545 32.7798 27.7798C32.5778 27.9051 32.4099 28.0849 32.2929 28.3013L31.8262 29.1734L29.9196 30.3613L28.9749 30.367C28.7419 30.3686 28.5132 30.4353 28.3117 30.5606C28.1101 30.6858 27.9425 30.8653 27.8256 31.0813L26.9996 32.6305C26.8832 32.8482 26.8224 33.0947 26.8233 33.3455C26.8241 33.5963 26.8865 33.8424 27.0042 34.0591L27.4756 34.927L27.4856 37.2841L27.0189 38.1555C26.9026 38.3739 26.8421 38.6212 26.8432 38.8726C26.8444 39.124 26.9073 39.3706 27.0256 39.5877L27.8656 41.1241C27.983 41.3396 28.1512 41.5183 28.3532 41.6425C28.5552 41.7667 28.784 41.832 29.0169 41.832H29.9656L31.8802 42.9998L32.3569 43.8691C32.4751 44.083 32.6434 44.2602 32.8451 44.3831C33.0467 44.506 33.2749 44.5703 33.5069 44.5698H33.5142L35.1876 44.562C35.4206 44.5605 35.6493 44.4939 35.8509 44.3686C36.0525 44.2433 36.22 44.0637 36.3369 43.8477L36.8036 42.9755L38.7102 41.7841L39.6549 41.7784C39.8884 41.7764 40.1174 41.7091 40.3191 41.583C40.5208 41.457 40.6883 41.2766 40.8049 41.0598L41.6322 39.5141C41.6476 39.4848 41.6536 39.452 41.6676 39.422L42.4049 40.7791L42.4102 41.792C42.4116 42.042 42.4742 42.2872 42.5918 42.5032C42.7094 42.7192 42.8778 42.8983 43.0802 43.0227L44.5242 43.9105C44.9376 44.1627 45.4456 44.1605 45.8576 43.9041L46.6669 43.3977L48.8615 43.3877L49.6756 43.8877C49.8788 44.012 50.1091 44.0768 50.3431 44.0755C50.5772 44.0743 50.8068 44.007 51.0089 43.8805L52.4442 42.9791C52.6457 42.8528 52.8126 42.6721 52.9285 42.455C53.0443 42.2379 53.1049 41.992 53.1042 41.742V40.7298L54.1942 38.6777L55.0049 38.1677C55.2064 38.0417 55.3735 37.8613 55.4896 37.6444C55.6056 37.4276 55.6665 37.1819 55.6662 36.932L55.6569 35.1413ZM39.6482 40.3555L38.5256 40.362C38.4085 40.3622 38.2935 40.3955 38.1922 40.4584L35.9796 41.837C35.8783 41.8996 35.7944 41.9898 35.7362 42.0984L35.1789 43.1363L33.5082 43.1413L32.9422 42.1077C32.8832 41.9996 32.7986 41.9101 32.6969 41.8484L30.4729 40.4913C30.3713 40.4293 30.2564 40.397 30.1396 40.3977H29.0169L28.1769 38.8598L28.7309 37.822C28.7887 37.7132 28.8188 37.59 28.8182 37.4648L28.8069 34.7305C28.8065 34.605 28.7752 34.4819 28.7162 34.3734L28.1536 33.3391L28.9816 31.7934L30.1036 31.7863C30.2206 31.786 30.3356 31.7528 30.4369 31.6898L32.6496 30.312C32.7502 30.2491 32.8342 30.1591 32.8929 30.0505L33.4502 29.0127L35.1229 29.0048L35.6889 30.0377C35.7489 30.1448 35.8329 30.2348 35.9342 30.297L38.1582 31.6541C38.2608 31.7132 38.3751 31.7453 38.4916 31.7477L39.6136 31.7434L40.4522 33.2841L39.8982 34.322C39.8402 34.4307 39.8098 34.5539 39.8102 34.6791V35.1677C39.8102 35.1834 39.8049 35.1984 39.8049 35.2141L39.8122 37.0055C39.8122 37.0213 39.8176 37.0363 39.8182 37.0527V37.4098C39.8182 37.5355 39.8502 37.6584 39.9096 37.767L40.4722 38.8005L39.6482 40.3555ZM53.3669 37.5491C53.2659 37.6124 53.1822 37.7031 53.1242 37.812L51.8575 40.1948C51.7999 40.3037 51.7698 40.4268 51.7702 40.552V41.7548L50.3342 42.6563L49.3656 42.062C49.2639 42.0004 49.149 41.9682 49.0322 41.9684H49.0289L46.4769 41.9798C46.3597 41.9805 46.2447 42.0142 46.1436 42.0777L45.1796 42.6813L43.7436 41.7841L43.7369 40.5805C43.7367 40.4551 43.7056 40.3319 43.6469 40.2234L42.3609 37.8555C42.3025 37.7473 42.2186 37.6574 42.1176 37.5948L41.1536 37.0005L41.1456 35.202L42.1042 34.5991C42.2052 34.536 42.2888 34.4456 42.3469 34.337L43.6136 31.9534C43.6709 31.8441 43.7009 31.7213 43.7009 31.5963L43.6969 30.3934L45.1329 29.4984L46.1016 30.092C46.2016 30.1584 46.3176 30.192 46.4349 30.1863L48.9875 30.1741C49.1048 30.1737 49.2198 30.1399 49.3209 30.0763L50.2849 29.4734L51.7282 30.3555L51.7342 31.5584C51.7344 31.6839 51.7655 31.807 51.8242 31.9155L53.1109 34.2863C53.1695 34.3946 53.2536 34.4845 53.3549 34.547L54.3236 35.1434L54.3329 36.937L53.3669 37.5491Z" fill="#50AF9B"/>
<path d="M49.8666 32.0681C49.3767 31.7676 48.8362 31.5737 48.2762 31.4975C47.7162 31.4214 47.1476 31.4644 46.6032 31.6241C46.0587 31.7838 45.549 32.0571 45.1033 32.4283C44.6576 32.7996 44.2847 33.2614 44.006 33.7874C43.4425 34.8509 43.2945 36.11 43.5943 37.29C43.894 38.47 44.6172 39.4751 45.606 40.0859C46.0945 40.3878 46.6341 40.5828 47.1935 40.6595C47.7528 40.7363 48.3209 40.6933 48.8646 40.5331C49.4107 40.3748 49.922 40.1018 50.3687 39.7299C50.8154 39.3579 51.1886 38.8945 51.4666 38.3666C52.0301 37.3031 52.1781 36.044 51.8783 34.864C51.5786 33.684 50.8554 32.6789 49.8666 32.0681ZM50.306 37.6588C50.114 38.0215 49.8572 38.3401 49.55 38.5961C49.2429 38.8522 48.8916 39.0408 48.5163 39.151C48.141 39.2613 47.7491 39.291 47.363 39.2385C46.9769 39.186 46.6044 39.0524 46.2666 38.8452C45.5838 38.4229 45.0846 37.7283 44.878 36.9131C44.6714 36.0978 44.7742 35.2281 45.164 34.4938C45.3555 34.1304 45.6122 33.8113 45.9194 33.5548C46.2266 33.2983 46.5781 33.1094 46.9537 32.9991C47.3293 32.8888 47.7216 32.8593 48.1079 32.9122C48.4942 32.9651 48.867 33.0994 49.2046 33.3074C49.8875 33.7297 50.3867 34.4242 50.5934 35.2394C50.8001 36.0546 50.6975 36.9243 50.308 37.6588H50.306ZM36.4526 32.0795C35.4602 31.4756 34.285 31.317 33.1837 31.6382C32.0825 31.9593 31.1445 32.7343 30.5746 33.7938C30.2942 34.3187 30.1132 34.8977 30.042 35.4977C29.9709 36.0977 30.0109 36.7068 30.16 37.2902C30.309 37.8736 30.564 38.4197 30.9104 38.8972C31.2568 39.3748 31.6878 39.7743 32.1786 40.0731C32.6688 40.3815 33.2113 40.5826 33.7745 40.6649C34.3378 40.7472 34.9106 40.709 35.46 40.5526C36.0094 40.3961 36.5244 40.1244 36.9751 39.7533C37.4259 39.3822 37.8035 38.919 38.086 38.3905C38.3686 37.862 38.5506 37.2788 38.6214 36.6744C38.6922 36.0701 38.6504 35.4567 38.4985 34.8698C38.3466 34.2829 38.0875 33.7341 37.7364 33.2551C37.3852 32.7762 36.9489 32.3766 36.4526 32.0795ZM36.9 37.6509C36.5053 38.382 35.857 38.9164 35.0963 39.1375C34.3355 39.3587 33.524 39.2487 32.8386 38.8316C32.5 38.6258 32.2028 38.3503 31.9638 38.021C31.7249 37.6917 31.549 37.315 31.4463 36.9127C31.3436 36.5104 31.3161 36.0903 31.3653 35.6765C31.4146 35.2627 31.5396 34.8635 31.7333 34.5016C32.1273 33.7698 32.7756 33.2349 33.5366 33.0136C34.2976 32.7924 35.1094 32.9029 35.7946 33.3209C36.1334 33.5266 36.4309 33.802 36.67 34.1312C36.9091 34.4604 37.0852 34.837 37.1881 35.2394C37.291 35.6417 37.3187 36.0619 37.2696 36.4757C37.2205 36.8896 37.0955 37.289 36.902 37.6509H36.9Z" fill="#50AF9B"/>
</g>
<defs>
<clipPath id="clip0_23_15">
<rect width="40" height="40" fill="white" transform="translate(21 21)"/>
</clipPath>
</defs>
</svg>
