<svg width="52" height="52" viewBox="0 0 52 52" fill="none" xmlns="http://www.w3.org/2000/svg">
<path d="M35.8931 47.6671C35.904 47.6671 35.943 47.6671 35.9538 47.6671C37.0978 47.6671 38.179 47.2164 38.998 46.3974L44.874 40.5214C45.7211 39.6743 45.7211 38.3049 44.874 37.4578L36.2073 28.7911C35.3601 27.9439 33.9908 27.9439 33.1436 28.7911L29.69 32.2448C28.0888 31.7681 25.101 30.6848 23.2073 28.7911C21.3136 26.8974 20.2303 23.9096 19.7536 22.3084L23.2073 18.8548C24.0545 18.0076 24.0545 16.6383 23.2073 15.7911L14.5406 7.12444C13.7281 6.31194 12.2895 6.31194 11.477 7.12444L5.60314 13.0004C4.77981 13.8238 4.31614 14.9548 4.33348 16.1096C4.38331 19.1949 5.20014 29.9113 13.6458 38.3569C22.0915 46.8026 32.8078 47.6173 35.8931 47.6671ZM13.011 11.7199L18.614 17.3229L15.8125 20.1244C15.2946 20.6401 15.0736 21.3854 15.2253 22.1004C15.2773 22.3496 16.5491 28.2581 20.1458 31.8548C23.7425 35.4514 29.651 36.7233 29.9001 36.7753C30.6216 36.9269 31.3605 36.7059 31.8761 36.1881L34.6776 33.3866L40.2806 38.9896L35.9343 43.3338C33.2303 43.2883 23.9786 42.5624 16.7095 35.2911C9.41648 27.9981 8.71014 18.7139 8.66681 16.0641L13.011 11.7199ZM43.3313 23.8338H47.6646C47.6646 12.7188 39.2731 4.33594 28.143 4.33594V8.66927C36.944 8.66927 43.3313 15.0458 43.3313 23.8338Z" fill="white"/>
<path d="M28.1641 17.3333C32.7206 17.3333 34.6641 19.2768 34.6641 23.8333H38.9974C38.9974 16.8458 35.1516 13 28.1641 13V17.3333Z" fill="white"/>
</svg>
