<svg width="63" height="50" viewBox="0 0 63 50" fill="none" xmlns="http://www.w3.org/2000/svg">
<path opacity="0.1" d="M0 10C0 4.47715 4.47715 0 10 0H30C41.0457 0 50 8.95431 50 20V28.5714C50 40.4061 40.4061 50 28.5714 50V50C12.7919 50 0 37.2081 0 21.4286V10Z" fill="#101A29"/>
<path d="M59.4096 15.8258C60.5631 15.8258 61.5 16.7627 61.5 17.9161C61.5 19.0695 60.5631 20.0065 59.4096 20.0065C58.5191 20.0065 57.7553 19.4468 57.4553 18.6583H54.6012L52.3717 20.8878C52.2294 21.03 52.0408 21.1042 51.8429 21.1073H50.5163V25.0097H56.1968C56.4967 24.2212 57.2605 23.6615 58.1511 23.6615C59.3045 23.6615 60.2415 24.5985 60.2415 25.7519C60.2415 26.9053 59.3045 27.8422 58.1511 27.8422C57.2605 27.8422 56.4967 27.2825 56.1968 26.494H50.5163V30.3964H51.8429C52.0408 30.3964 52.2294 30.4768 52.3717 30.616L54.6012 32.8455H57.4553C57.7553 32.057 58.5191 31.4973 59.4096 31.4973C60.5631 31.4973 61.5 32.4342 61.5 33.5876C61.5 34.741 60.5631 35.678 59.4096 35.678C58.5191 35.678 57.7553 35.1183 57.4553 34.3298H54.292C54.0941 34.3298 53.9054 34.2525 53.7663 34.1133L51.5337 31.8807H50.5163V46.136C50.5163 46.3401 50.4854 46.538 50.4267 46.7235C50.1762 47.5275 49.4248 48.115 48.5373 48.115H26.9658C25.9763 48.115 25.1537 47.3852 25.0084 46.4359C24.9929 46.337 24.9868 46.238 24.9868 46.136V31.8807H23.9694L21.7368 34.1133C21.5977 34.2525 21.409 34.3298 21.2111 34.3298H18.0478C17.7478 35.1183 16.984 35.678 16.0935 35.678C14.94 35.678 14.0031 34.741 14.0031 33.5876C14.0031 32.4342 14.94 31.4973 16.0935 31.4973C16.984 31.4973 17.7478 32.057 18.0478 32.8455H20.905L23.1345 30.616C23.2736 30.4768 23.4654 30.3964 23.6633 30.3964H24.9898V26.494H19.3032C19.0033 27.2825 18.2395 27.8422 17.3489 27.8422C16.1955 27.8422 15.2585 26.9053 15.2585 25.7519C15.2585 24.5985 16.1955 23.6615 17.3489 23.6615C18.2395 23.6615 19.0033 24.2212 19.3032 25.0097H24.9837V21.1073H23.6571C23.4592 21.1042 23.2675 21.03 23.1314 20.8878L20.9019 18.6583H18.0447C17.7447 19.4468 16.9809 20.0065 16.0904 20.0065C14.937 20.0065 14 19.0695 14 17.9161C14 16.7627 14.937 15.8258 16.0904 15.8258C16.9809 15.8258 17.7447 16.3855 18.0447 17.174H21.208C21.4059 17.174 21.5946 17.2513 21.7337 17.3905L23.9663 19.6231H24.9837V4.23294C24.9837 4.09689 24.9991 3.96392 25.0239 3.83404C25.2094 2.9342 26.0072 2.25391 26.9627 2.25391H48.5373C49.3567 2.25391 50.0587 2.75176 50.3617 3.46297C50.4638 3.70108 50.5163 3.96083 50.5163 4.23294V19.6231H51.5337L53.7663 17.3905C53.9054 17.2513 54.0941 17.174 54.292 17.174H57.4553C57.7553 16.3886 58.5191 15.8258 59.4096 15.8258ZM60.0157 17.9161C60.0157 17.5822 59.7436 17.3101 59.4096 17.3101C59.0757 17.3101 58.8036 17.5822 58.8036 17.9161C58.8036 18.2501 59.0757 18.5222 59.4096 18.5222C59.7436 18.5222 60.0157 18.2532 60.0157 17.9161ZM60.0157 33.5907C60.0157 33.2568 59.7436 32.9847 59.4096 32.9847C59.0757 32.9847 58.8036 33.2568 58.8036 33.5907C58.8036 33.9247 59.0757 34.1968 59.4096 34.1968C59.7436 34.1968 60.0157 33.9247 60.0157 33.5907ZM58.7572 25.7519C58.7572 25.4179 58.4851 25.1458 58.1511 25.1458C57.8171 25.1458 57.545 25.4179 57.545 25.7519C57.545 26.0859 57.8171 26.358 58.1511 26.358C58.4882 26.358 58.7572 26.0889 58.7572 25.7519ZM49.0321 46.1391V41.646H26.471V46.1391C26.471 46.3895 26.7153 46.6338 26.9658 46.6338H48.5404C48.794 46.6338 49.0321 46.3895 49.0321 46.1391ZM49.0321 40.1618V31.1417V25.7581V20.3683V8.77236H26.471V40.1649L49.0321 40.1618ZM49.0321 7.28499V4.23294C49.0321 3.97938 48.794 3.73818 48.5373 3.73818H26.9658C26.7153 3.73818 26.471 3.98247 26.471 4.23294V7.28499H49.0321ZM17.9581 25.7519C17.9581 25.4179 17.686 25.1458 17.352 25.1458C17.018 25.1458 16.7459 25.4179 16.7459 25.7519C16.7459 26.0859 17.018 26.358 17.352 26.358C17.686 26.358 17.9581 26.0889 17.9581 25.7519ZM16.6995 17.9161C16.6995 17.5822 16.4274 17.3101 16.0935 17.3101C15.7595 17.3101 15.4874 17.5822 15.4874 17.9161C15.4874 18.2501 15.7595 18.5222 16.0935 18.5222C16.4274 18.5222 16.6995 18.2532 16.6995 17.9161ZM16.6995 33.5907C16.6995 33.2568 16.4274 32.9847 16.0935 32.9847C15.7595 32.9847 15.4874 33.2568 15.4874 33.5907C15.4874 33.9247 15.7595 34.1968 16.0935 34.1968C16.4274 34.1968 16.6995 33.9247 16.6995 33.5907Z" fill="white"/>
</svg>
