<svg width="65" height="50" viewBox="0 0 65 50" fill="none" xmlns="http://www.w3.org/2000/svg">
<path opacity="0.1" d="M0 10C0 4.47715 4.47715 0 10 0H30C41.0457 0 50 8.95431 50 20V28.5714C50 40.4061 40.4061 50 28.5714 50V50C12.7919 50 0 37.2081 0 21.4286V10Z" fill="#101A29"/>
<g clip-path="url(#clip0_71_56)">
<path d="M63.7915 43.3717C63.8472 43.4719 63.875 43.5888 63.875 43.7029C63.8722 45.4173 63.2042 47.0316 61.9908 48.2423C60.7745 49.4585 59.1603 50.1265 57.4402 50.1265H27.6099C25.8926 50.1265 24.2338 49.4613 23.0176 48.2506C21.7985 47.0372 21.1278 45.4201 21.125 43.7029C21.125 43.586 21.1528 43.4719 21.2085 43.3717C21.331 43.1546 21.5536 43.0266 21.793 43.0266H23.2681V20.8138C23.2681 19.9983 23.9305 19.3359 24.7459 19.3359H60.2541C61.0695 19.3359 61.7319 19.9983 61.7319 20.8138V43.0266H63.207C63.4464 43.0266 63.6718 43.1546 63.7915 43.3717ZM22.5055 44.3625C22.8339 46.859 24.9742 48.7934 27.5598 48.7934H57.443C58.804 48.7934 60.0843 48.2618 61.0473 47.2988C61.8516 46.4944 62.3526 45.4702 62.4973 44.3625H47.7964L47.7937 44.3709L47.3094 46.3998C47.237 46.7004 46.9698 46.9119 46.6609 46.9119H38.3419C38.033 46.9119 37.763 46.7004 37.6934 46.3998L37.2091 44.3709L37.2063 44.3625H22.5055ZM60.396 43.0266V20.8138C60.396 20.7359 60.332 20.6719 60.2541 20.6719H24.7459C24.668 20.6719 24.604 20.7359 24.604 20.8138V43.0266H37.7324C38.0051 43.0266 38.1554 43.1546 38.2723 43.3411C38.3419 43.4496 38.3892 43.5693 38.4198 43.6945L38.8707 45.576H46.1321L46.583 43.6945C46.6136 43.5693 46.6609 43.4496 46.7305 43.3411C46.8474 43.1574 46.9977 43.0266 47.2704 43.0266H60.396Z" fill="white"/>
<path d="M50.498 29.2981C50.7596 29.5569 50.7596 29.98 50.5008 30.2416C50.37 30.3724 50.2002 30.4392 50.0276 30.4392C49.8578 30.4392 49.6853 30.3752 49.5573 30.2444C45.6663 26.3757 39.3318 26.3702 35.4381 30.236C35.1764 30.4949 34.7534 30.4949 34.4946 30.2333C34.2357 29.9716 34.2357 29.5486 34.4973 29.2897C35.58 28.2182 36.8408 27.386 38.2435 26.821C39.5962 26.2755 41.0267 26 42.4935 26H42.5018C43.9714 26 45.4019 26.2783 46.7574 26.8266C48.1573 27.3916 49.4181 28.2238 50.498 29.2981Z" fill="white"/>
<path d="M48.2859 32.816C48.5475 33.0776 48.5475 33.5007 48.2887 33.7623C48.1578 33.8931 47.9853 33.9599 47.8155 33.9599C47.6457 33.9599 47.476 33.8959 47.3451 33.7651C44.6761 31.1099 40.3287 31.1071 37.6568 33.7595C37.3952 34.0184 36.9722 34.0184 36.7133 33.7567C36.4545 33.4951 36.4545 33.0721 36.7161 32.8132C38.2636 31.2797 40.3148 30.4336 42.4996 30.4336H42.5052C44.6872 30.4308 46.7412 31.2797 48.2859 32.816Z" fill="white"/>
<path d="M46.0687 36.3317C46.3304 36.5905 46.3304 37.0136 46.0715 37.2752C45.9407 37.406 45.7709 37.4728 45.5984 37.4728C45.4286 37.4728 45.2588 37.4088 45.128 37.278C43.678 35.8363 41.3178 35.8335 39.8678 37.2752C39.6061 37.534 39.1831 37.534 38.9243 37.2724C38.6654 37.0108 38.6654 36.5878 38.927 36.3289C39.8817 35.3826 41.148 34.8594 42.4951 34.8594H42.4979C43.845 34.8566 45.1141 35.3826 46.0687 36.3317Z" fill="white"/>
<path d="M42.4961 38.8086C43.1001 38.8086 43.5899 39.2984 43.5899 39.9024C43.5899 40.5063 43.1001 40.9962 42.4961 40.9962C41.8922 40.9962 41.4023 40.5063 41.4023 39.9024C41.4023 39.2984 41.8922 38.8086 42.4961 38.8086Z" fill="white"/>
</g>
<defs>
<clipPath id="clip0_71_56">
<rect width="45" height="45" fill="white" transform="translate(20 5)"/>
</clipPath>
</defs>
</svg>
