<svg width="71" height="50" viewBox="0 0 71 50" fill="none" xmlns="http://www.w3.org/2000/svg">
<path opacity="0.1" d="M0 10C0 4.47715 4.47715 0 10 0H30C41.0457 0 50 8.95431 50 20V28.5714C50 40.4061 40.4061 50 28.5714 50V50C12.7919 50 0 37.2081 0 21.4286V10Z" fill="#101A29"/>
<path d="M65.873 19.873C68.6986 19.873 71 22.1745 71 25C71 27.8255 68.6986 30.127 65.873 30.127C64.7695 30.127 63.7148 29.7786 62.8424 29.1374L50.1374 41.8424C50.7819 42.7148 51.127 43.7695 51.127 44.873C51.127 47.6986 48.8255 50 46 50C43.1745 50 40.873 47.6986 40.873 44.873C40.873 43.7695 41.2214 42.7148 41.8626 41.8424L29.1576 29.1374C28.2852 29.7819 27.2305 30.127 26.127 30.127C23.2982 30.127 21 27.8255 21 25C21 22.1745 23.2982 19.873 26.127 19.873C27.2337 19.873 28.2852 20.2214 29.1576 20.8659L41.8659 8.15755C41.2214 7.28516 40.873 6.23372 40.873 5.12695C40.873 2.29818 43.1745 0 46 0C48.8255 0 51.127 2.29818 51.127 5.12695C51.127 6.23372 50.7786 7.28516 50.1374 8.15755L62.8424 20.8659C63.7148 20.2214 64.7663 19.873 65.873 19.873ZM69.4375 25C69.4375 23.0339 67.8392 21.4355 65.873 21.4355C64.9193 21.4355 64.0273 21.8066 63.3535 22.4805C62.6895 23.1445 62.3086 24.0592 62.3086 25C62.3086 25.9505 62.6797 26.8457 63.3535 27.5195C63.3568 27.5228 63.3633 27.5293 63.3665 27.5326C64.0371 28.1966 64.929 28.5645 65.873 28.5645C67.8392 28.5645 69.4375 26.9661 69.4375 25ZM61.7389 21.9694L49.0306 9.26107C48.3665 9.74935 47.5983 10.0684 46.7812 10.1921V19.9284C47.8424 20.0911 48.8223 20.5794 49.597 21.3444C50.375 22.1126 50.8796 23.0859 51.0553 24.1439H60.8145C60.9479 23.3626 61.2669 22.6107 61.7389 21.9694ZM49.0306 40.7357L61.7357 28.0306C61.2311 27.347 60.9089 26.5527 60.7949 25.7096H51.0781C50.9251 26.8099 50.4238 27.8255 49.6263 28.623C48.8451 29.4043 47.8555 29.9023 46.7812 30.0651V39.8014C47.5983 39.9284 48.3665 40.2474 49.0306 40.7357ZM49.5645 25C49.5645 24.9805 49.5645 24.9609 49.5645 24.9414C49.5352 23.0111 47.9368 21.4355 46 21.4355C44.0664 21.4355 42.4681 23.0078 42.4355 24.9414V25C42.4355 25.9505 42.8066 26.8457 43.4805 27.5195C44.1543 28.1934 45.0495 28.5645 46 28.5645C46.9505 28.5645 47.8457 28.1934 48.5195 27.5195C49.1934 26.8457 49.5645 25.9505 49.5645 25ZM49.5645 44.873C49.5645 43.9258 49.1966 43.0371 48.5326 42.3665C48.5293 42.3633 48.5228 42.3568 48.5195 42.3535C47.8457 41.6797 46.9505 41.3086 46 41.3086C45.0495 41.3086 44.1543 41.6797 43.4805 42.3535C43.4772 42.3568 43.4707 42.3633 43.4674 42.3665C42.8034 43.0371 42.4355 43.929 42.4355 44.8763C42.4355 46.8424 44.0339 48.4408 46 48.4408C47.9661 48.4408 49.5645 46.8392 49.5645 44.873ZM48.5195 7.64648C49.1934 6.97266 49.5645 6.07747 49.5645 5.12695C49.5645 3.16081 47.9661 1.5625 46 1.5625C44.0339 1.5625 42.4355 3.16081 42.4355 5.12695C42.4355 6.08073 42.8066 6.97266 43.4805 7.64648C44.1543 8.32031 45.0495 8.69141 46 8.69141C46.4753 8.69141 46.9375 8.60026 47.3639 8.42122C47.7904 8.24544 48.1842 7.98503 48.5195 7.64648ZM45.2187 39.8047V30.0684C44.1445 29.9056 43.1582 29.4076 42.3737 28.6263C41.5762 27.8255 41.0716 26.8099 40.9219 25.7129H31.2051C31.0879 26.556 30.7656 27.3503 30.2643 28.0339L42.9694 40.7389C43.6335 40.2474 44.4017 39.9284 45.2187 39.8047ZM45.2187 19.9316V10.1953C44.4017 10.0716 43.6335 9.7526 42.9694 9.26432L30.2611 21.9694C30.7363 22.6139 31.0488 23.3594 31.1823 24.1471H40.9414C41.1172 23.0892 41.6217 22.1126 42.3997 21.3477C43.1777 20.5827 44.1608 20.0944 45.2187 19.9316ZM29.6914 25C29.6914 24.5247 29.6003 24.0625 29.4212 23.6361C29.2454 23.2096 28.985 22.8158 28.6465 22.4805C27.9727 21.8066 27.0775 21.4355 26.127 21.4355C24.1608 21.4355 22.5625 23.0339 22.5625 25C22.5625 26.9661 24.1608 28.5645 26.127 28.5645C27.0742 28.5645 27.9629 28.1966 28.6335 27.5326C28.6367 27.5293 28.6432 27.5228 28.6465 27.5195C29.3203 26.8457 29.6914 25.9505 29.6914 25Z" fill="white"/>
</svg>
