<svg width="70" height="50" viewBox="0 0 70 50" fill="none" xmlns="http://www.w3.org/2000/svg">
<path opacity="0.1" d="M0 10C0 4.47715 4.47715 0 10 0H30C41.0457 0 50 8.95431 50 20V28.5714C50 40.4061 40.4061 50 28.5714 50V50C12.7919 50 0 37.2081 0 21.4286V10Z" fill="#101A29"/>
<path d="M66.8823 15.7592C65.6857 12.9329 63.9726 10.3912 61.7927 8.21123C59.6127 6.03127 57.0741 4.31822 54.2447 3.12156C51.3196 1.88161 48.2089 1.25391 45.0023 1.25391C41.7958 1.25391 38.6882 1.88161 35.7599 3.12156C32.9306 4.31513 30.3919 6.03127 28.212 8.21123C26.032 10.3912 24.319 12.9298 23.1223 15.7592C21.9102 18.6194 21.2856 21.6497 21.2546 24.7728C21.2485 24.9274 21.2485 25.082 21.2546 25.2335C21.2856 28.3535 21.9102 31.3838 23.1223 34.2409C24.319 37.0671 26.032 39.6089 28.212 41.7888C30.3919 43.9688 32.9306 45.6819 35.7599 46.8785C38.6882 48.1185 41.7958 48.7462 45.0023 48.7462C48.2089 48.7462 51.3196 48.1185 54.2447 46.8785C57.071 45.6819 59.6127 43.9688 61.7927 41.7888C63.9726 39.6089 65.6857 37.0702 66.8823 34.2409C68.1223 31.3157 68.75 28.202 68.75 25.0016V24.9954C68.7469 21.795 68.1192 18.6874 66.8823 15.7592ZM39.9559 3.31328C39.5261 3.68433 39.1087 4.10486 38.7036 4.57178C37.0555 6.47345 35.6548 9.13579 34.6313 12.296C34.6251 12.296 34.6189 12.296 34.6127 12.296C33.3326 12.296 32.2936 13.3349 32.2936 14.6151V14.6305C29.1334 15.654 26.4742 17.0548 24.5725 18.7029C24.1056 19.108 23.6882 19.5254 23.3171 19.9552C25.2311 11.7239 31.7246 5.22731 39.9559 3.31328ZM33.716 14.6058C33.716 14.111 34.118 13.7091 34.6127 13.7091C35.1075 13.7091 35.5094 14.111 35.5094 14.6058C35.5094 15.1005 35.1075 15.5025 34.6127 15.5025C34.118 15.5025 33.716 15.1005 33.716 14.6058ZM34.7271 34.3522C35.2219 34.3522 35.6238 34.7542 35.6238 35.249C35.6238 35.7437 35.2219 36.1457 34.7271 36.1457C34.2324 36.1457 33.8304 35.7437 33.8304 35.249C33.8304 34.7542 34.2293 34.3522 34.7271 34.3522ZM25.5465 19.8222C27.3029 18.3009 29.7951 16.996 32.7791 16.0344C32.977 16.2879 33.2398 16.5136 33.5274 16.6621C33.0635 19.0925 32.8069 21.6435 32.7667 24.2595H22.7914C23.0203 22.7165 23.9603 21.1952 25.5465 19.8222ZM22.7914 25.7437H32.7636C32.8038 28.3318 33.0543 30.8581 33.5088 33.2638C33.2151 33.44 32.9646 33.6812 32.776 33.9657C29.7982 33.0072 27.3152 31.7084 25.5589 30.1902C23.9695 28.8173 23.0233 27.2929 22.7914 25.7437ZM23.314 30.0511C23.6882 30.4871 24.1149 30.9107 24.588 31.3188C26.5082 32.9793 29.2015 34.3893 32.3987 35.4097C32.4791 36.5724 33.416 37.5 34.5849 37.565C35.6053 40.7715 37.0122 43.4679 38.6727 45.3974C39.087 45.8767 39.5138 46.3096 39.9559 46.6899C31.7246 44.7759 25.2311 38.2824 23.314 30.0511ZM44.2602 47.2094C42.7079 46.9806 41.1773 46.0313 39.7982 44.4295C38.2769 42.6608 36.9751 40.1624 36.0165 37.1692C36.2825 36.9898 36.5113 36.7517 36.6814 36.4796C39.1025 36.9404 41.6473 37.1939 44.2602 37.2341V47.2094ZM44.2602 35.753C41.7679 35.7128 39.3406 35.4716 37.0308 35.0356C36.9318 33.9348 36.0598 33.0504 34.9621 32.9391C34.5292 30.6355 34.2911 28.2205 34.2509 25.7437H44.2602V35.753ZM44.2602 24.2595H34.2478C34.288 21.7239 34.5354 19.2533 34.9869 16.9033C35.9516 16.7456 36.7494 15.9478 36.9071 14.983C39.2571 14.5316 41.7246 14.2842 44.2602 14.244V24.2595ZM44.2602 12.7629C41.6442 12.8031 39.0963 13.0566 36.6659 13.5235C36.5113 13.2391 36.2948 12.9762 36.0351 12.7783C36.9968 9.79441 38.3016 7.30214 39.823 5.5458C41.1959 3.96263 42.7172 3.02261 44.2602 2.79379V12.7629ZM66.6875 19.9521C66.1897 19.377 65.6053 18.8235 64.9374 18.2916C62.6956 16.5136 59.5787 15.0696 55.9021 14.1018C54.9343 10.4283 53.4872 7.30833 51.7092 5.06652C51.1804 4.39553 50.6238 3.81111 50.0487 3.31637C58.2769 5.23041 64.7704 11.7239 66.6875 19.9521ZM56.5051 23.9503C56.9998 23.9503 57.4018 24.3522 57.4018 24.847C57.4018 25.3417 56.9998 25.7437 56.5051 25.7437C56.0104 25.7437 55.6084 25.3417 55.6084 24.847C55.6084 24.3522 56.0073 23.9503 56.5051 23.9503ZM45.7444 2.79379C47.4297 3.04117 49.0778 4.13269 50.5434 5.98489C52.071 7.91439 53.3449 10.5644 54.2509 13.706C51.5577 13.1247 48.7067 12.8093 45.7444 12.7629V2.79379ZM45.7444 14.2471C47.2689 14.2718 48.7593 14.3708 50.2126 14.5409C51.7463 14.7202 53.2367 14.983 54.6746 15.3263C55.225 17.6423 55.5713 20.1067 55.7011 22.667C54.9961 22.9268 54.4457 23.5297 54.2571 24.2595H45.7444V14.2471ZM45.7444 25.7437H54.3653C54.5849 26.3312 55.1384 26.8229 55.7166 27.0269C55.5991 29.6955 55.2528 32.2619 54.6776 34.6738C51.87 35.3417 48.8706 35.7035 45.7444 35.753V25.7437ZM45.7444 47.2094V37.2372C48.7067 37.1939 51.5608 36.8754 54.254 36.2941C53.348 39.4357 52.0741 42.0888 50.5465 44.0152C49.0747 45.8705 47.4297 46.962 45.7444 47.2094ZM50.0518 46.6868C50.6269 46.189 51.1804 45.6076 51.7123 44.9397C53.4934 42.6979 54.9374 39.5749 55.9083 35.8983C59.5818 34.9305 62.6987 33.4864 64.9374 31.7054C65.6084 31.1735 66.1928 30.6169 66.6906 30.0418C64.7766 38.2762 58.2831 44.7697 50.0518 46.6868ZM64.0159 30.5427C62.0895 32.0702 59.4395 33.338 56.301 34.2471C56.7927 31.9589 57.0988 29.5501 57.207 27.0548C57.8564 26.8507 58.3851 26.3683 58.648 25.7437H67.2132C66.9596 27.4289 65.8681 29.0739 64.0159 30.5427ZM58.7469 24.2595C58.549 23.5081 57.9306 22.8587 57.1885 22.6268C57.0679 20.2459 56.7679 17.9391 56.2979 15.7499C59.4365 16.659 62.0895 17.9298 64.0159 19.4574C65.8743 20.9292 66.9627 22.5743 67.2132 24.2595H58.7469Z" fill="white"/>
</svg>
