<svg width="54" height="40" viewBox="0 0 54 40" fill="none" xmlns="http://www.w3.org/2000/svg">
<path opacity="0.1" d="M40 32C40 36.4183 36.4183 40 32 40L16 40C7.16344 40 6.26248e-07 32.8366 1.39876e-06 24L1.99823e-06 17.1429C2.82593e-06 7.67512 7.67512 -2.82593e-06 17.1429 -1.99823e-06C29.7665 -8.9464e-07 40 10.2335 40 22.8571L40 32Z" fill="#246BFD"/>
<path d="M43.6424 14.8828V6.06679L44.6915 5.01768L46.0994 6.42557C46.2107 6.53691 46.3617 6.59877 46.52 6.59877C46.6784 6.59877 46.8293 6.53691 46.9406 6.42557C48.1803 5.18593 48.1803 3.16936 46.9406 1.92973C45.701 0.690091 43.6844 0.690091 42.4448 1.92973C42.2122 2.16231 42.2122 2.53841 42.4448 2.77099L43.8527 4.17888L42.8061 5.22552H33.9826L30.7363 1.97674C30.5037 1.74415 30.1276 1.74415 29.8975 1.97674C28.7519 3.12482 27.8636 4.46096 27.2574 5.95297C26.6735 7.39303 26.3766 8.91473 26.3766 10.4736C26.3766 12.0349 26.6735 13.5541 27.2574 14.9941C27.5816 15.7909 27.9849 16.5455 28.4674 17.2482L22.9249 22.7907C22.5958 22.8179 22.2741 22.8971 21.9698 23.0307C20.8514 23.5132 20.1289 24.6143 20.1289 25.8341C20.1289 26.2102 20.2056 26.6086 20.3417 26.955C20.646 27.727 21.2597 28.3456 22.0267 28.6598L27.7152 34.3483H26.1093C23.8973 34.3483 22.096 36.1496 22.096 38.3616V38.4062C22.096 38.7352 22.3607 39 22.6898 39H38.8076C39.1366 39 39.4014 38.7328 39.4014 38.4062V38.3616C39.4014 36.1496 37.6001 34.3483 35.388 34.3483H33.8663L26.1316 26.6135C26.2133 26.3018 26.2454 25.9628 26.2256 25.6387L31.5281 20.3362C32.258 20.8434 33.0399 21.269 33.8713 21.6055C35.3113 22.1895 36.833 22.4864 38.3919 22.4864C39.9532 22.4864 41.4724 22.1895 42.9125 21.6055C44.4045 21.0018 45.7406 20.1135 46.8887 18.9654C47.1213 18.7328 47.1213 18.3567 46.8887 18.1266L43.6424 14.8828ZM43.7661 2.41222C44.0482 2.26376 44.3624 2.18458 44.6915 2.18458C45.2235 2.18458 45.7233 2.39242 46.0994 2.76852C46.7303 3.39947 46.8491 4.34961 46.4557 5.09933L43.7661 2.41222ZM41.6159 6.4132L38.3943 9.63476L35.1728 6.4132H41.6159ZM42.4547 7.25446V13.6951L39.2331 10.4736L42.4547 7.25446ZM21.3042 25.8366C21.3042 24.79 22.1529 23.9438 23.1971 23.9438C24.2412 23.9438 25.0899 24.7924 25.0899 25.8366C25.0899 26.8808 24.2412 27.7295 23.1971 27.7295C22.1529 27.7295 21.3042 26.8832 21.3042 25.8366ZM35.388 35.5384C36.7588 35.5384 37.9044 36.5183 38.1593 37.8148H23.3381C23.5954 36.5183 24.741 35.5384 26.1093 35.5384H35.388ZM32.1863 34.3507H29.3952L23.8577 28.8132C24.5357 28.6598 25.1419 28.2788 25.5724 27.7344L32.1863 34.3507ZM25.8446 24.3471C25.6937 24.0774 25.5007 23.8299 25.273 23.6147C25.0083 23.3648 24.7015 23.1668 24.3724 23.0283L29.1923 18.2083C29.415 18.473 29.6501 18.7279 29.8975 18.9753C30.1202 19.198 30.3479 19.4083 30.5829 19.6112L25.8446 24.3471ZM38.3943 21.3037C35.9992 21.3037 33.7253 20.5317 31.8522 19.1065C31.8423 19.099 31.8324 19.0891 31.8201 19.0817C31.4415 18.7922 31.0802 18.4755 30.7363 18.1316C30.3676 17.7629 30.0287 17.372 29.7218 16.9637C29.7144 16.9563 29.7095 16.9464 29.7021 16.939C28.314 15.0783 27.5642 12.8341 27.5642 10.4736C27.5642 7.77902 28.5416 5.23542 30.3281 3.24854L33.3146 6.23504C33.317 6.23752 33.317 6.23752 33.3195 6.23999L37.9712 10.8917C37.9712 10.8917 37.9712 10.8917 37.9737 10.8942H37.9762L42.6254 15.5459C42.6279 15.5484 42.6304 15.5509 42.6304 15.5509L45.6194 18.5398C43.63 20.3263 41.0864 21.3037 38.3943 21.3037Z" fill="#246BFD"/>
</svg>
