<svg width="519" height="464" viewBox="0 0 519 464" fill="none" xmlns="http://www.w3.org/2000/svg">
<g filter="url(#filter0_d)">
<rect x="63" y="152.986" width="340" height="231.793" fill="white"/>
<rect x="85" y="340.966" width="27" height="26.9971" fill="#FED5BD"/>
<rect x="63" y="152.986" width="340" height="8" fill="#FD782D"/>
<rect x="72.835" y="250.975" width="208.548" height="70.5085" rx="2.73493" fill="white"/>
<path d="M109.217 265.358L101.318 273.787V312.14H269.173L233.134 288.538L226.222 296.546L209.436 288.538L188.701 304.132L178.334 288.538L168.46 281.373V273.787L143.282 265.358L138.838 257.772L126.496 265.358L113.66 273.787L109.217 265.358Z" fill="#FED5BD"/>
<rect x="85.0391" y="258.621" width="6.82258" height="1.70564" rx="0.852822" fill="#E9EAEC"/>
<rect x="85.0391" y="266.297" width="6.82258" height="1.70564" rx="0.852822" fill="#E9EAEC"/>
<rect x="85.0391" y="273.972" width="6.82258" height="1.70564" rx="0.852822" fill="#E9EAEC"/>
<rect x="85.0391" y="281.647" width="6.82258" height="1.70564" rx="0.852822" fill="#E9EAEC"/>
<rect x="85.0391" y="289.323" width="6.82258" height="1.70564" rx="0.852822" fill="#E9EAEC"/>
<rect x="85.0391" y="296.998" width="6.82258" height="1.70564" rx="0.852822" fill="#E9EAEC"/>
<rect x="85.0391" y="304.674" width="6.82258" height="1.70564" rx="0.852822" fill="#E9EAEC"/>
<rect x="85.0391" y="312.349" width="6.82258" height="1.70564" rx="0.852822" fill="#E9EAEC"/>
<rect x="100.318" y="258.621" width="172.716" height="0.852822" fill="#F4F4F5"/>
<rect x="100.318" y="266.297" width="172.716" height="0.852822" fill="#F4F4F5"/>
<rect x="100.318" y="273.972" width="172.716" height="0.852822" fill="#F4F4F5"/>
<rect x="100.318" y="281.647" width="172.716" height="0.852822" fill="#F4F4F5"/>
<rect x="100.318" y="289.323" width="172.716" height="0.852822" fill="#F4F4F5"/>
<rect x="100.318" y="296.998" width="172.716" height="0.852822" fill="#F4F4F5"/>
<rect x="100.318" y="304.674" width="172.716" height="0.852822" fill="#F4F4F5"/>
<rect x="100.318" y="312.349" width="172.716" height="0.852822" fill="#F4F4F5"/>
<path d="M102.336 274.762L108.791 266.267L113.26 274.762L126.17 266.267L138.583 258.621L143.052 266.267L168.376 274.762V282.407L178.307 289.628L188.734 305.344L209.589 289.628L226.471 297.698L233.423 289.628L269.174 312.14" stroke="#FD782D" stroke-width="2.15226"/>
<rect x="84" y="190.032" width="147.044" height="6" rx="3" fill="#686F7D"/>
<rect x="84" y="202.981" width="169.524" height="6" rx="3" fill="#C5C8CD"/>
<rect x="84" y="215.979" width="176.772" height="6" rx="3" fill="#C5C8CD"/>
<rect x="84" y="228.978" width="79.6064" height="6" rx="3" fill="#C5C8CD"/>
<rect x="315" y="190.032" width="44.5339" height="6" rx="3" fill="#686F7D"/>
<rect x="315" y="202.981" width="69.788" height="6" rx="3" fill="#C5C8CD"/>
<rect x="315" y="215.979" width="72.7718" height="6" rx="3" fill="#C5C8CD"/>
<rect x="315" y="228.978" width="40.7716" height="6" rx="3" fill="#C5C8CD"/>
<rect x="315" y="250.975" width="60.5339" height="6" rx="3" fill="#686F7D"/>
<rect x="315" y="263.924" width="69.788" height="6" rx="3" fill="#C5C8CD"/>
<rect x="315" y="303.92" width="69.788" height="6" rx="3" fill="#C5C8CD"/>
<rect x="315" y="276.923" width="72.7718" height="6" rx="3" fill="#C5C8CD"/>
<rect x="315" y="316.919" width="72.7718" height="6" rx="3" fill="#C5C8CD"/>
<rect x="315" y="342.916" width="72.7718" height="6" rx="3" fill="#C5C8CD"/>
<rect x="315" y="289.922" width="56.7716" height="6" rx="3" fill="#C5C8CD"/>
<rect x="315" y="329.917" width="40.7716" height="6" rx="3" fill="#C5C8CD"/>
<rect x="315" y="355.914" width="40.7716" height="6" rx="3" fill="#C5C8CD"/>
<rect x="116" y="342.769" width="153.524" height="4" rx="1.08615" fill="#E9EAEC"/>
<rect x="116" y="352.768" width="160.772" height="4" rx="1.08615" fill="#E9EAEC"/>
<rect x="116" y="362.767" width="93.3337" height="4" rx="1.08615" fill="#E9EAEC"/>
<rect x="301" y="187.982" width="1" height="179.98" fill="#E9EAEC"/>
</g>
<g filter="url(#filter1_d)">
<rect x="248" y="88.993" width="270.919" height="336.007" fill="white"/>
<rect x="265" y="397.959" width="139.687" height="4" rx="2" fill="#9EA3AC"/>
<rect x="453" y="140.987" width="34" height="4" rx="2" fill="#9EA3AC"/>
<rect x="453" y="156.986" width="34" height="4" rx="2" fill="#C5C8CD"/>
<rect x="453" y="148.987" width="46" height="4" rx="2" fill="#C5C8CD"/>
<rect x="265" y="146.987" width="34" height="4" rx="2" fill="#9EA3AC"/>
<rect x="265" y="162.985" width="34" height="4" rx="2" fill="#C5C8CD"/>
<rect x="265" y="154.987" width="46" height="4" rx="2" fill="#C5C8CD"/>
<rect x="265" y="223.978" width="235" height="17.998" fill="#E9EAEC"/>
<rect x="265" y="241.976" width="235" height="17.998" fill="white"/>
<rect x="265" y="259.974" width="235" height="17.998" fill="#F4F4F5"/>
<rect x="265" y="277.973" width="235" height="17.998" fill="white"/>
<rect x="265" y="295.971" width="235" height="17.998" fill="#F4F4F5"/>
<rect x="265" y="313.969" width="235" height="17.998" fill="white"/>
<rect x="272.007" y="230.978" width="35.2905" height="3.78467" rx="1.89233" fill="#9EA3AC"/>
<rect x="408" y="230.978" width="17.6892" height="3.78467" rx="1.89233" fill="#9EA3AC"/>
<rect x="444" y="248.976" width="17.6892" height="3.78467" rx="1.89233" fill="#9EA3AC"/>
<rect x="408" y="248.976" width="17.6892" height="3.78467" rx="1.89233" fill="#9EA3AC"/>
<rect x="476" y="248.976" width="17.6892" height="3.78467" rx="1.89233" fill="#9EA3AC"/>
<rect x="444" y="266.974" width="17.6892" height="3.78467" rx="1.89233" fill="#9EA3AC"/>
<rect x="408" y="266.974" width="17.6892" height="3.78467" rx="1.89233" fill="#9EA3AC"/>
<rect x="476" y="266.974" width="17.6892" height="3.78467" rx="1.89233" fill="#9EA3AC"/>
<rect x="444" y="284.972" width="17.6892" height="3.78467" rx="1.89233" fill="#9EA3AC"/>
<rect x="408" y="284.972" width="17.6892" height="3.78467" rx="1.89233" fill="#9EA3AC"/>
<rect x="476" y="284.972" width="17.6892" height="3.78467" rx="1.89233" fill="#9EA3AC"/>
<rect x="444" y="302.97" width="17.6892" height="3.78467" rx="1.89233" fill="#9EA3AC"/>
<rect x="408" y="302.97" width="17.6892" height="3.78467" rx="1.89233" fill="#9EA3AC"/>
<rect x="476" y="302.97" width="17.6892" height="3.78467" rx="1.89233" fill="#9EA3AC"/>
<rect x="444" y="320.968" width="17.6892" height="3.78467" rx="1.89233" fill="#9EA3AC"/>
<rect x="408" y="320.968" width="17.6892" height="3.78467" rx="1.89233" fill="#9EA3AC"/>
<rect x="476" y="320.968" width="17.6892" height="3.78467" rx="1.89233" fill="#9EA3AC"/>
<rect x="476" y="350.965" width="17.6892" height="3.78467" rx="1.89233" fill="#9EA3AC"/>
<rect x="476" y="364.963" width="17.6892" height="3.78467" rx="1.89233" fill="#9EA3AC"/>
<rect x="476" y="378.962" width="17.6892" height="3.78467" rx="1.89233" fill="#9EA3AC"/>
<rect x="447" y="230.978" width="12" height="4" rx="2" fill="#9EA3AC"/>
<rect x="476" y="230.978" width="17.6892" height="3.78467" rx="1.89233" fill="#9EA3AC"/>
<rect x="325" y="203.981" width="23" height="4" rx="2" fill="#9EA3AC"/>
<rect x="362" y="203.981" width="28" height="4" rx="2" fill="#9EA3AC"/>
<rect x="272" y="204.476" width="30.8581" height="3.78467" rx="1.89233" fill="#9EA3AC"/>
<rect x="402" y="204.476" width="30.8581" height="3.78467" rx="1.89233" fill="#9EA3AC"/>
<rect x="265.256" y="180.129" width="234.682" height="17.2311" fill="#E9EAEC"/>
<rect x="469" y="345.965" width="31" height="13.9985" stroke="#C5C8CD" stroke-width="1.2627"/>
<rect x="469" y="359.964" width="31" height="13.9985" stroke="#C5C8CD" stroke-width="1.2627"/>
<rect x="469" y="373.962" width="31" height="13.9985" stroke="#C5C8CD" stroke-width="1.2627"/>
<path d="M500 179.983H265V331.967H500V179.983Z" stroke="#E9EAEC" stroke-width="1.2627"/>
<rect x="265" y="196.981" width="235" height="26.9971" stroke="#E9EAEC" stroke-width="1.2627"/>
<rect x="265" y="223.978" width="235" height="17.998" stroke="#E9EAEC" stroke-width="1.2627"/>
<rect x="318.25" y="180.233" width="0.5" height="151.483" fill="#FED5BD" stroke="#E9EAEC" stroke-width="0.5"/>
<rect x="396.25" y="180.233" width="0.5" height="151.483" fill="#FED5BD" stroke="#E9EAEC" stroke-width="0.5"/>
<rect x="437.25" y="180.233" width="0.5" height="151.483" fill="#FED5BD" stroke="#E9EAEC" stroke-width="0.5"/>
<rect x="468.25" y="180.233" width="0.5" height="151.483" fill="#FED5BD" stroke="#E9EAEC" stroke-width="0.5"/>
<rect x="272.486" y="186.983" width="34.1553" height="3.78467" rx="1.89233" fill="#9EA3AC"/>
<rect x="325" y="186.983" width="26.1553" height="3.78467" rx="1.89233" fill="#9EA3AC"/>
<rect x="341" y="230.978" width="32" height="4" rx="2" fill="#9EA3AC"/>
<rect x="344" y="266.974" width="26.1553" height="3.78467" rx="1.89233" fill="#9EA3AC"/>
<rect x="344" y="284.972" width="26.1553" height="3.78467" rx="1.89233" fill="#9EA3AC"/>
<rect x="344" y="302.97" width="26.1553" height="3.78467" rx="1.89233" fill="#9EA3AC"/>
<rect x="329" y="248.976" width="56" height="4" rx="2" fill="#9EA3AC"/>
<rect x="329" y="320.968" width="56" height="4" rx="2" fill="#9EA3AC"/>
<rect x="363" y="186.983" width="26.1553" height="3.78467" rx="1.89233" fill="#9EA3AC"/>
<rect x="404" y="186.983" width="26.1553" height="3.78467" rx="1.89233" fill="#9EA3AC"/>
<rect x="278" y="246.976" width="3" height="9" fill="#686F7D"/>
<rect x="284" y="246.976" width="2" height="9" fill="#686F7D"/>
<rect x="296" y="246.976" width="2" height="9" fill="#686F7D"/>
<rect x="287" y="246.976" width="4" height="9" fill="#686F7D"/>
<rect x="299" y="246.976" width="4" height="9" fill="#686F7D"/>
<rect x="282" y="246.976" width="1" height="9" fill="#686F7D"/>
<rect x="294" y="246.976" width="1" height="9" fill="#686F7D"/>
<rect x="292" y="246.976" width="1" height="9" fill="#686F7D"/>
<rect x="278" y="264.974" width="3" height="9" fill="#686F7D"/>
<rect x="284" y="264.974" width="2" height="9" fill="#686F7D"/>
<rect x="296" y="264.974" width="2" height="9" fill="#686F7D"/>
<rect x="287" y="264.974" width="4" height="9" fill="#686F7D"/>
<rect x="299" y="264.974" width="4" height="9" fill="#686F7D"/>
<rect x="282" y="264.974" width="1" height="9" fill="#686F7D"/>
<rect x="294" y="264.974" width="1" height="9" fill="#686F7D"/>
<rect x="292" y="264.974" width="1" height="9" fill="#686F7D"/>
<rect x="278" y="282.972" width="3" height="9" fill="#686F7D"/>
<rect x="284" y="282.972" width="2" height="9" fill="#686F7D"/>
<rect x="296" y="282.972" width="2" height="9" fill="#686F7D"/>
<rect x="287" y="282.972" width="4" height="9" fill="#686F7D"/>
<rect x="299" y="282.972" width="4" height="9" fill="#686F7D"/>
<rect x="282" y="282.972" width="1" height="9" fill="#686F7D"/>
<rect x="294" y="282.972" width="1" height="9" fill="#686F7D"/>
<rect x="292" y="282.972" width="1" height="9" fill="#686F7D"/>
<rect x="278" y="300.97" width="3" height="9" fill="#686F7D"/>
<rect x="284" y="300.97" width="2" height="9" fill="#686F7D"/>
<rect x="296" y="300.97" width="2" height="9" fill="#686F7D"/>
<rect x="287" y="300.97" width="4" height="9" fill="#686F7D"/>
<rect x="299" y="300.97" width="4" height="9" fill="#686F7D"/>
<rect x="282" y="300.97" width="1" height="9" fill="#686F7D"/>
<rect x="294" y="300.97" width="1" height="9" fill="#686F7D"/>
<rect x="292" y="300.97" width="1" height="9" fill="#686F7D"/>
<rect x="278" y="318.968" width="3" height="9" fill="#686F7D"/>
<rect x="284" y="318.968" width="2" height="9" fill="#686F7D"/>
<rect x="296" y="318.968" width="2" height="9" fill="#686F7D"/>
<rect x="287" y="318.968" width="4" height="9" fill="#686F7D"/>
<rect x="299" y="318.968" width="4" height="9" fill="#686F7D"/>
<rect x="282" y="318.968" width="1" height="9" fill="#686F7D"/>
<rect x="294" y="318.968" width="1" height="9" fill="#686F7D"/>
<rect x="292" y="318.968" width="1" height="9" fill="#686F7D"/>
<rect x="248" y="88.993" width="271" height="7" fill="#5ED263"/>
<rect x="473" y="392.96" width="3" height="9" fill="#9EA3AC"/>
<rect x="479" y="392.96" width="2" height="9" fill="#9EA3AC"/>
<rect x="491" y="392.96" width="2" height="9" fill="#9EA3AC"/>
<rect x="482" y="392.96" width="4" height="9" fill="#9EA3AC"/>
<rect x="494" y="392.96" width="4" height="9" fill="#9EA3AC"/>
<rect x="477" y="392.96" width="1" height="9" fill="#9EA3AC"/>
<rect x="489" y="392.96" width="1" height="9" fill="#9EA3AC"/>
<rect x="487" y="392.96" width="1" height="9" fill="#9EA3AC"/>
<rect x="265" y="344.965" width="105.29" height="4" rx="2" fill="#686F7D"/>
<rect x="265" y="353.798" width="121.713" height="4" rx="2" fill="#686F7D"/>
<rect x="265" y="362.963" width="122" height="4" rx="2" fill="#C5C8CD"/>
<rect x="265" y="372.962" width="122" height="4" rx="2" fill="#C5C8CD"/>
<rect x="265" y="381.961" width="97" height="4" rx="2" fill="#C5C8CD"/>
<rect x="447" y="350.965" width="14.6892" height="3.78467" rx="1.89233" fill="#BEF3C0"/>
<rect x="436" y="364.963" width="25.6892" height="3.78467" rx="1.89233" fill="#BEF3C0"/>
<rect x="449" y="378.962" width="12.6892" height="3.78467" rx="1.89233" fill="#BEF3C0"/>
<rect x="264" y="106.991" width="50" height="17.998" fill="#FED5BD"/>
</g>
<g filter="url(#filter2_d)">
<rect x="156" y="25" width="270.919" height="336.007" fill="white"/>
<rect x="173.011" y="131.892" width="153.099" height="32.9665" fill="#E6F5FD"/>
<rect x="325.966" y="187.982" width="82" height="13.9631" fill="#C5C8CD"/>
<rect x="325.966" y="202.145" width="82" height="14.1871" fill="white"/>
<rect x="325.966" y="216.308" width="82" height="13.9631" fill="#C5C8CD"/>
<rect x="325.966" y="229.459" width="82" height="15.5172" fill="white"/>
<rect x="335.284" y="193.041" width="32.2439" height="2.58041" rx="1.2902" fill="white"/>
<rect x="383.642" y="193.041" width="14.7179" height="2.58041" rx="1.2902" fill="white"/>
<rect x="335.284" y="207.203" width="32.2439" height="2.58041" rx="1.2902" fill="#C5C8CD"/>
<rect x="383.642" y="207.203" width="14.7179" height="2.58041" rx="1.2902" fill="#C5C8CD"/>
<rect x="335.284" y="221.366" width="32.2439" height="2.58041" rx="1.2902" fill="white"/>
<rect x="383.642" y="221.366" width="14.7179" height="2.58041" rx="1.2902" fill="white"/>
<rect x="335.284" y="236.54" width="32.2439" height="2.58041" rx="1.2902" fill="#C5C8CD"/>
<rect x="383.642" y="236.54" width="14.7179" height="2.58041" rx="1.2902" fill="#C5C8CD"/>
<ellipse cx="201.394" cy="46.9742" rx="11.3716" ry="11.3552" fill="#9BD7F9"/>
<rect x="226.045" y="37.9868" width="97.2905" height="3.78467" rx="1.89233" fill="#E9EAEC"/>
<rect x="226.045" y="54.3887" width="97.2905" height="3.78467" rx="1.89233" fill="#E9EAEC"/>
<rect x="180.007" y="121.15" width="97.2905" height="3.78467" rx="1.89233" fill="#C5C8CD"/>
<rect x="342.966" y="121.15" width="48.2905" height="3.78467" rx="1.89233" fill="#C5C8CD"/>
<rect x="180.007" y="140.813" width="129.311" height="3.78467" rx="1.89233" fill="#9EA3AC"/>
<rect x="180.007" y="150.872" width="56.8581" height="3.78467" rx="1.89233" fill="#9EA3AC"/>
<rect x="180.007" y="331.714" width="139.687" height="3.78467" rx="1.89233" fill="#686F7D"/>
<rect x="249.499" y="104.487" width="56.8581" height="3.78467" rx="1.89233" fill="#C5C8CD"/>
<rect x="253.062" y="67.4238" width="76.1738" height="3.78467" fill="#485162"/>
<rect x="173.255" y="80.1396" width="234.682" height="17.2311" fill="#E6F5FD"/>
<rect x="226.045" y="46.8186" width="130.142" height="3.78467" rx="1.89233" fill="#E9EAEC"/>
<path d="M407.938 80.1396H173.256V345.499H407.938V80.1396Z" stroke="#9BD7F9" stroke-width="1.2627"/>
<rect x="172.966" y="96.9922" width="235" height="16.9982" stroke="#9BD7F9" stroke-width="1.2627"/>
<rect x="172.966" y="113.99" width="235" height="17.998" stroke="#9BD7F9" stroke-width="1.2627"/>
<rect x="172.966" y="131.988" width="153" height="113.988" stroke="#9BD7F9" stroke-width="1.2627"/>
<rect x="241.918" y="97.1791" width="1.2627" height="16.662" fill="#9BD7F9"/>
<rect x="313.938" y="97.1791" width="1.2627" height="16.662" fill="#9BD7F9"/>
<rect x="334.966" y="113.99" width="1.2627" height="17.6619" fill="#9BD7F9"/>
<rect x="190.113" y="177.664" width="97.2905" height="3.78467" rx="1.89233" fill="#686F7D"/>
<rect x="190.113" y="186.497" width="121.713" height="3.78467" rx="1.89233" fill="#686F7D"/>
<rect x="190.113" y="195.328" width="97.2905" height="3.78467" rx="1.89233" fill="#686F7D"/>
<rect x="190.113" y="213.809" width="64.4392" height="3.78467" rx="1.89233" fill="#C5C8CD"/>
<rect x="179.374" y="212.442" width="6.31838" height="6.30827" stroke="#C5C8CD" stroke-width="1.2627"/>
<rect x="190.113" y="223.377" width="64.4392" height="3.78467" rx="1.89233" fill="#C5C8CD"/>
<rect x="179.374" y="222.01" width="6.31838" height="6.30827" stroke="#C5C8CD" stroke-width="1.2627"/>
<rect x="190.113" y="232.945" width="84.6554" height="3.78467" rx="1.89233" fill="#C5C8CD"/>
<rect x="179.374" y="231.578" width="6.31838" height="6.30827" stroke="#C5C8CD" stroke-width="1.2627"/>
<rect x="190.113" y="255.204" width="97.2905" height="3.78467" rx="1.89233" fill="#686F7D"/>
<rect x="190.113" y="264.036" width="137.723" height="3.78467" rx="1.89233" fill="#686F7D"/>
<rect x="190.113" y="272.868" width="97.2905" height="3.78467" rx="1.89233" fill="#686F7D"/>
<rect x="284.878" y="290.532" width="64.4392" height="3.78467" rx="1.89233" fill="#C5C8CD"/>
<rect x="284.878" y="308.195" width="84.6554" height="3.78467" rx="1.89233" fill="#C5C8CD"/>
<rect x="172.966" y="245.976" width="235" height="76.9916" stroke="#9BD7F9" stroke-width="1.2627"/>
<rect x="190.113" y="290.731" width="64.4392" height="3.78467" rx="1.89233" fill="#C5C8CD"/>
<rect x="179.374" y="290.363" width="6.31838" height="6.30827" stroke="#C5C8CD" stroke-width="1.2627"/>
<rect x="190.113" y="300.299" width="64.4392" height="3.78467" rx="1.89233" fill="#C5C8CD"/>
<rect x="179.374" y="299.931" width="6.31838" height="6.30827" stroke="#C5C8CD" stroke-width="1.2627"/>
<rect x="190.113" y="310.866" width="84.6554" height="3.78467" rx="1.89233" fill="#C5C8CD"/>
<rect x="179.374" y="309.499" width="6.31838" height="6.30827" stroke="#C5C8CD" stroke-width="1.2627"/>
<rect x="201.486" y="86.3615" width="178.155" height="3.78467" rx="1.89233" fill="#9EA3AC"/>
<circle cx="365.65" cy="159.524" r="20.6023" transform="rotate(-131.751 365.65 159.524)" fill="#0A6CCF" stroke="white" stroke-width="2.04885"/>
<mask id="path-222-inside-1" fill="white">
<path d="M351.249 143.39C347.453 146.778 344.974 151.396 344.246 156.432C343.518 161.467 344.589 166.598 347.271 170.922C349.952 175.246 354.073 178.487 358.907 180.073C363.741 181.659 368.98 181.491 373.703 179.596C378.425 177.702 382.328 174.203 384.725 169.715C387.123 165.228 387.862 160.038 386.811 155.06C385.761 150.082 382.989 145.633 378.983 142.496C374.977 139.36 369.993 137.736 364.908 137.91L365.65 159.524L351.249 143.39Z"/>
</mask>
<path d="M351.249 143.39C347.453 146.778 344.974 151.396 344.246 156.432C343.518 161.467 344.589 166.598 347.271 170.922C349.952 175.246 354.073 178.487 358.907 180.073C363.741 181.659 368.98 181.491 373.703 179.596C378.425 177.702 382.328 174.203 384.725 169.715C387.123 165.228 387.862 160.038 386.811 155.06C385.761 150.082 382.989 145.633 378.983 142.496C374.977 139.36 369.993 137.736 364.908 137.91L365.65 159.524L351.249 143.39Z" fill="#059BEF" stroke="white" stroke-width="4.0977" mask="url(#path-222-inside-1)"/>
<mask id="path-223-inside-2" fill="white">
<path d="M351.249 143.39C348.535 145.813 346.476 148.881 345.262 152.311C344.049 155.74 343.72 159.421 344.307 163.011C344.893 166.602 346.376 169.987 348.618 172.852C350.86 175.717 353.789 177.97 357.133 179.403C360.477 180.836 364.129 181.402 367.75 181.049C371.371 180.696 374.844 179.435 377.848 177.383C380.852 175.331 383.29 172.554 384.937 169.31C386.583 166.065 387.384 162.458 387.266 158.822L365.65 159.524L351.249 143.39Z"/>
</mask>
<path d="M351.249 143.39C348.535 145.813 346.476 148.881 345.262 152.311C344.049 155.74 343.72 159.421 344.307 163.011C344.893 166.602 346.376 169.987 348.618 172.852C350.86 175.717 353.789 177.97 357.133 179.403C360.477 180.836 364.129 181.402 367.75 181.049C371.371 180.696 374.844 179.435 377.848 177.383C380.852 175.331 383.29 172.554 384.937 169.31C386.583 166.065 387.384 162.458 387.266 158.822L365.65 159.524L351.249 143.39Z" fill="#9BD7F9" stroke="white" stroke-width="4.0977" mask="url(#path-223-inside-2)"/>
<rect x="156" y="25" width="9.01096" height="335.659" fill="#0A6CCF"/>
</g>
<defs>
<filter id="filter0_d" x="0.918365" y="118.496" width="464.163" height="355.956" filterUnits="userSpaceOnUse" color-interpolation-filters="sRGB">
<feFlood flood-opacity="0" result="BackgroundImageFix"/>
<feColorMatrix in="SourceAlpha" type="matrix" values="0 0 0 0 0 0 0 0 0 0 0 0 0 0 0 0 0 0 127 0"/>
<feOffset dy="27.5918"/>
<feGaussianBlur stdDeviation="31.0408"/>
<feColorMatrix type="matrix" values="0 0 0 0 0 0 0 0 0 0 0 0 0 0 0 0 0 0 0.12 0"/>
<feBlend mode="normal" in2="BackgroundImageFix" result="effect1_dropShadow"/>
<feBlend mode="normal" in="SourceGraphic" in2="effect1_dropShadow" result="shape"/>
</filter>
<filter id="filter1_d" x="185.918" y="54.5032" width="395.163" height="460.17" filterUnits="userSpaceOnUse" color-interpolation-filters="sRGB">
<feFlood flood-opacity="0" result="BackgroundImageFix"/>
<feColorMatrix in="SourceAlpha" type="matrix" values="0 0 0 0 0 0 0 0 0 0 0 0 0 0 0 0 0 0 127 0"/>
<feOffset dy="27.5918"/>
<feGaussianBlur stdDeviation="31.0408"/>
<feColorMatrix type="matrix" values="0 0 0 0 0 0 0 0 0 0 0 0 0 0 0 0 0 0 0.12 0"/>
<feBlend mode="normal" in2="BackgroundImageFix" result="effect1_dropShadow"/>
<feBlend mode="normal" in="SourceGraphic" in2="effect1_dropShadow" result="shape"/>
</filter>
<filter id="filter2_d" x="93.9184" y="-9.4898" width="395.083" height="460.17" filterUnits="userSpaceOnUse" color-interpolation-filters="sRGB">
<feFlood flood-opacity="0" result="BackgroundImageFix"/>
<feColorMatrix in="SourceAlpha" type="matrix" values="0 0 0 0 0 0 0 0 0 0 0 0 0 0 0 0 0 0 127 0"/>
<feOffset dy="27.5918"/>
<feGaussianBlur stdDeviation="31.0408"/>
<feColorMatrix type="matrix" values="0 0 0 0 0 0 0 0 0 0 0 0 0 0 0 0 0 0 0.12 0"/>
<feBlend mode="normal" in2="BackgroundImageFix" result="effect1_dropShadow"/>
<feBlend mode="normal" in="SourceGraphic" in2="effect1_dropShadow" result="shape"/>
</filter>
</defs>
</svg>
