<svg width="111" height="30" viewBox="0 0 111 30" fill="none" xmlns="http://www.w3.org/2000/svg">
<path d="M108.932 12.4966C108.28 12.9011 107.589 13.2349 106.871 13.4918C106.088 13.8077 105.269 14.0181 104.433 14.1178C104.078 14.178 103.718 14.2293 103.347 14.2671H103.336C99.919 14.5688 97 13.812 95.3323 12.1964C95.3159 12.186 95.3057 12.1651 95.2886 12.1531C95.2886 12.2173 95.2886 12.2783 95.2792 12.3473C95.287 13.0672 95.5468 13.7598 96.0125 14.2976C97.3667 15.8963 99.9713 16.7695 102.999 16.8177C105.015 16.8313 106.855 16.4404 108.264 15.7438C108.93 15.4269 109.529 14.9779 110.026 14.4228C110.501 13.8931 110.773 13.2028 110.792 12.4805C110.793 12.0287 110.687 11.5836 110.484 11.1828C110.032 11.6962 109.509 12.1388 108.932 12.4966ZM102.978 10.2871C99.7841 10.5391 97.0336 9.92511 95.3237 8.52301C95.3748 9.17823 95.6297 9.79907 96.0507 10.2935C97.4033 11.8946 100.011 12.7622 103.035 12.8136C105.055 12.8272 106.894 12.4364 108.301 11.7381C108.969 11.4237 109.568 10.9745 110.064 10.4171C110.535 9.88652 110.806 9.19917 110.826 8.48047C110.826 7.91706 110.662 7.36649 110.358 6.89939C109.919 7.50133 108.036 9.8906 102.978 10.2863V10.2871ZM103.069 8.80792C105.089 8.81996 106.927 8.43232 108.333 7.73086C109.002 7.41692 109.602 6.96765 110.099 6.40982C110.584 5.88671 110.856 5.1934 110.862 4.47072C110.868 3.74804 110.606 3.05019 110.13 2.51892C108.775 0.916976 106.172 0.0501916 103.144 0.000431789C101.127 -0.0148172 99.2872 0.374433 97.8815 1.07268C97.2142 1.38903 96.6143 1.83798 96.1162 2.39372C95.6308 2.91734 95.3573 3.61147 95.3514 4.33507C95.3454 5.05867 95.6075 5.75745 96.0843 6.28943C97.4345 7.88656 100.042 8.75495 103.069 8.80632V8.80792ZM97.1748 2.76291C97.9104 1.83753 100.198 0.932225 102.871 0.98359C104.658 0.995629 106.262 1.38809 107.344 1.95792C107.798 2.17221 108.204 2.4796 108.538 2.86002C108.642 2.96074 108.724 3.08238 108.78 3.21733C108.836 3.35228 108.864 3.49764 108.863 3.64435C108.862 3.79106 108.832 3.93596 108.774 4.07001C108.716 4.20405 108.631 4.32437 108.526 4.42344C107.795 5.34801 105.505 6.25011 102.829 6.20195C101.042 6.18831 99.4393 5.79585 98.3519 5.2212C97.9005 5.00337 97.4951 4.69662 97.1584 4.3183C96.9608 4.10445 96.8452 3.82417 96.8331 3.52937C96.8526 3.24044 96.9743 2.96756 97.1748 2.76291ZM27.9091 10.8681C27.1923 10.0198 26.1774 9.59525 24.8669 9.59365H18.8783L18.4314 11.9267H24.4191C24.6994 11.9113 24.9792 11.9643 25.2358 12.0815C25.4923 12.1986 25.7182 12.3766 25.895 12.6009C26.2476 13.0712 26.374 13.6812 26.2382 14.2582L26.1532 14.6563L26.1236 14.9324H20.5719C19.27 14.9286 18.0082 15.3956 17.007 16.2518C15.9736 17.0824 15.2691 18.2714 15.0248 19.597L14.9663 19.8426C14.6871 21.1909 14.9008 22.3065 15.606 23.1877C16.3119 24.0697 17.3221 24.5096 18.6342 24.5072H26.4715L28.5956 14.1419C28.8569 12.8096 28.6276 11.7181 27.9091 10.8681ZM24.6532 22.1757H19.1124C18.8288 22.1881 18.5463 22.1339 18.2862 22.017C18.0261 21.9002 17.7954 21.7239 17.6115 21.5015C17.2433 21.0521 17.1287 20.4991 17.2683 19.8442L17.3276 19.5986C17.4506 18.9378 17.8071 18.3474 18.3284 17.9413C18.825 17.5101 19.4525 17.271 20.1023 17.2655H25.6196L24.6524 22.1757H24.6532ZM41.3761 9.59365L38.8409 22.1444H33.1231C32.8394 22.1567 32.5567 22.1023 32.2966 21.9852C32.0365 21.8681 31.8059 21.6914 31.6222 21.4686C31.254 21.0191 31.1409 20.467 31.2806 19.8113L33.3235 9.59525H31.0341L28.9763 19.8129C28.697 21.1636 28.9162 22.2792 29.6331 23.1588C30.3507 24.0376 31.3648 24.4783 32.6753 24.4799H38.4306L38.252 25.337C38.1024 25.9892 37.739 26.5685 37.2231 26.9775C36.7384 27.4116 36.1198 27.6548 35.4773 27.6637H27.6408L27.154 30H34.9905C36.2824 29.9933 37.53 29.5149 38.511 28.6501C39.5402 27.8207 40.2569 26.6489 40.5383 25.3354L43.7062 9.59365H41.3761Z" fill="white"/>
<path d="M65.4739 24.5121H57.6366C56.3238 24.5121 55.3152 24.0723 54.61 23.1926C53.9056 22.313 53.6919 21.1982 53.9688 19.8475L54.0288 19.6019C54.2689 18.2784 54.968 17.0897 55.9962 16.2568C56.9973 15.4004 58.2591 14.9334 59.561 14.9373H65.1073L65.1369 14.6612L65.2266 14.2632C65.2935 13.9781 65.2974 13.6812 65.238 13.3944C65.1786 13.1076 65.0574 12.8381 64.8834 12.6058C64.7064 12.3814 64.4802 12.2033 64.2234 12.0861C63.9666 11.9689 63.6865 11.916 63.406 11.9317H56.9619L57.4081 9.59858H63.8631C65.1744 9.59858 66.1877 10.0239 66.9046 10.8739C67.6199 11.723 67.8484 12.8097 67.591 14.1323L65.4739 24.5121ZM63.6548 22.1806L64.6081 17.2704H59.0907C58.4408 17.2761 57.8132 17.5154 57.3168 17.947C56.7962 18.3535 56.4398 18.9433 56.316 19.6035L56.2583 19.8491C56.1179 20.5032 56.2317 21.0554 56.5999 21.5064C56.7838 21.7288 57.0145 21.9051 57.2746 22.022C57.5347 22.1388 57.8172 22.193 58.1008 22.1806H63.6548ZM80.5166 20.5233C80.4004 21.1427 80.1632 21.7315 79.8192 22.2538C79.4753 22.7761 79.0319 23.2211 78.5158 23.5618C77.5084 24.2468 76.322 24.5995 75.1147 24.5731H67.3609L67.8344 22.2408H75.5898C77.1203 22.2408 77.9955 21.6686 78.2139 20.5249L78.3387 19.9775C78.5774 18.8338 77.9307 18.2624 76.4003 18.2624H72.9118C71.6193 18.2624 70.6255 17.9253 69.9304 17.2504C69.1355 16.5136 68.8672 15.5007 69.1254 14.2134L69.2455 13.6612C69.3614 13.0416 69.5985 12.4527 69.9424 11.9304C70.2864 11.408 70.73 10.9631 71.2464 10.6227C72.2536 9.93854 73.4393 9.58584 74.6459 9.61142H82.4294L81.9808 11.9437H74.1942C72.6622 11.9437 71.7776 12.5159 71.5397 13.6596L71.4211 14.2118C71.1988 15.3555 71.8556 15.9277 73.3908 15.9277H76.8784C78.1702 15.9277 79.164 16.2648 79.8614 16.939C80.6399 17.6765 80.8989 18.6886 80.6368 19.9775L80.5166 20.5233ZM90.9968 24.4808H87.3586C86.0457 24.4808 85.0316 24.041 84.3163 23.1597C83.6026 22.2793 83.3834 21.1645 83.6603 19.8146L85.2703 11.8065H83.8421L84.3413 9.40516H85.7743L86.8484 4.06641H89.1824L88.109 9.40516H92.9438L92.4446 11.8065H87.6082L85.9974 19.8146C85.8593 20.4687 85.9677 21.0161 86.3312 21.4719C86.5116 21.6963 86.7405 21.8743 86.9996 21.9916C87.2587 22.1089 87.5408 22.1624 87.8235 22.1477H91.4453L90.9968 24.4808Z" fill="white"/>
<path d="M17.4814 10.9527C17.2209 12.2485 16.517 13.405 15.4977 14.2119C14.429 15.0996 13.2675 15.5442 12.0124 15.5442H4.19695L2.40281 24.509H0.140625L4.22425 4.29688H14.3136C15.5671 4.29688 16.543 4.7399 17.2396 5.62755C17.937 6.5152 18.1593 7.60189 17.9066 8.88762L17.4814 10.9527ZM15.2169 10.9527L15.6288 8.89404C15.7661 8.24877 15.6576 7.70382 15.3058 7.25919C15.1282 7.03887 14.9033 6.86401 14.6488 6.7484C14.3943 6.6328 14.1172 6.57962 13.8393 6.59305H6.01918L4.66499 13.2504H12.4789C13.1159 13.2471 13.731 13.011 14.2145 12.5843C14.7243 12.1778 15.0802 11.601 15.2208 10.9535H15.2161L15.2169 10.9527Z" fill="white"/>
<path d="M61.5003 6.41224H51.9975C51.3456 6.43482 50.7185 6.6753 50.2113 7.09728C49.704 7.51926 49.3442 8.09977 49.1862 8.75095L48.2993 13.2109H54.2277L53.7496 15.5801H47.8445L46.0082 24.532H43.707L46.8756 8.74854C47.1581 7.43371 47.8646 6.25585 48.8802 5.40649C49.8958 4.55713 51.1608 4.08621 52.4695 4.07031H61.9738L61.5003 6.41224Z" fill="white"/>
</svg>
