<svg width="136" height="64" viewBox="0 0 136 64" fill="none" xmlns="http://www.w3.org/2000/svg">
<path d="M13.2167 15.3841C13.0433 14.8615 12.7425 14.3676 12.4485 13.9064C12.0693 13.3065 11.6444 12.7372 11.1777 12.2036C10.9257 11.9308 10.5815 11.486 10.2022 11.3441C10.1344 11.3168 10.0829 11.2895 10.0084 11.2936C9.96776 11.2799 9.92982 11.2799 9.90002 11.2799L7.51545 10.6605C6.41664 10.3398 5.35373 9.90538 4.34371 9.3643C3.91015 9.12962 3.48337 8.87993 3.08368 8.59341L2.79103 8.3751C2.42928 7.88391 2.0594 7.33815 1.59875 6.94247L1.50391 6.89062C1.57571 7.28903 1.80875 7.65742 2.01198 8.00125C2.51599 8.85674 3.10536 9.66174 3.7015 10.4545C4.26513 11.2049 4.86669 11.9444 5.59832 12.5516C6.19717 13.0591 6.87866 13.4589 7.57371 13.8164L9.94066 14.9434C10.9541 15.339 11.9838 15.6501 13.0569 15.8166L12.9173 15.7948C12.9756 15.7988 13.0311 15.8139 13.0853 15.8357C13.4078 15.9503 13.275 15.5123 13.2343 15.3854L13.2167 15.3841Z" fill="#FFAF0F"/>
<path d="M10.4578 11.518C10.3386 10.9804 10.0866 10.4579 9.83864 9.97077C9.5196 9.33582 9.15129 8.72722 8.73713 8.15065C8.54474 7.87504 8.32796 7.60488 8.08951 7.38248L7.84563 7.20102C7.10316 7.00591 6.31463 7.08777 5.56945 6.88993C4.92591 6.71778 4.30872 6.45796 3.73496 6.11768C3.40709 5.90347 3.08734 5.67288 2.79062 5.41774L2.56707 5.24582L2.5332 5.21308L2.35029 5.01797L2.32861 4.98658L1.68234 4.11063C1.28536 3.63309 0.861291 3.0464 0.308505 2.74623L0.403346 2.8008C0.368119 2.76396 0.326119 2.73667 0.277344 2.71484C0.278699 2.75578 0.290892 2.79398 0.299021 2.83355C0.308775 2.87759 0.322844 2.92055 0.341022 2.9618C0.517155 3.51439 0.72445 4.05333 0.97781 4.5718L1.45879 5.49005L1.5604 5.67288L2.11319 6.60477C2.61178 7.3552 3.1334 8.05923 3.73903 8.72506C4.32162 9.36633 4.96925 9.9735 5.68733 10.4551C6.37289 10.9136 7.10045 11.342 7.88899 11.5903C8.65178 11.8318 9.46063 11.855 10.2465 11.9805C10.3887 12.0488 10.4659 12.0037 10.4768 11.8441L10.4429 11.5439L10.4578 11.518Z" fill="#FFBB0F"/>
<path d="M10.48 11.6248C10.4691 11.0735 10.3282 10.5114 10.1819 9.98338C9.99493 9.30117 9.7619 8.62306 9.47331 7.9777C9.3175 7.62841 9.11562 7.11266 8.79858 6.86434C8.74033 6.81931 8.69968 6.77838 8.62923 6.75791C8.59129 6.73336 8.55742 6.71971 8.52626 6.71289L8.16315 6.48776L8.27696 6.55598L6.43705 5.40988C5.48052 4.76861 4.59037 4.04547 3.78558 3.21728C3.44144 2.86253 3.10814 2.49823 2.81007 2.10392L2.596 1.80375C2.39548 1.2266 2.20309 0.592153 1.88063 0.0777715L1.80476 0C1.75599 0.401136 1.86844 0.824103 1.96057 1.21159C2.1909 2.18032 2.51336 3.12586 2.84801 4.06048C3.16369 4.94734 3.51867 5.83148 4.02403 6.62557C4.44404 7.29003 4.97786 7.87673 5.53606 8.42659L7.46269 10.2003C8.31219 10.8798 9.20369 11.487 10.1805 11.9672L10.0545 11.9045C10.1087 11.9263 10.1575 11.9563 10.2036 11.9945C10.4746 12.1992 10.4813 11.7435 10.4786 11.6098L10.48 11.6248Z" fill="#FFC70F"/>
<path d="M16.116 18.6773C15.8897 18.1752 15.5361 17.7168 15.1947 17.2911C14.7516 16.7385 14.2693 16.1996 13.745 15.7384C13.5007 15.5087 13.2358 15.3022 12.9537 15.1217L12.6801 14.9948C11.9132 14.9566 11.1599 15.1994 10.3903 15.1612C9.72608 15.1261 9.0697 14.9998 8.43932 14.786C8.07295 14.646 7.71589 14.4823 7.37033 14.2962L7.12239 14.157L7.08445 14.1325L6.86767 13.9824L6.84058 13.9551L6.02766 13.232C5.5399 12.8458 5.00744 12.3587 4.40182 12.1677L4.50614 12.2032C4.46549 12.1732 4.41807 12.1554 4.36523 12.1445C4.37472 12.1855 4.39233 12.2182 4.40994 12.2537C4.43298 12.3042 4.45466 12.3396 4.4804 12.3765C4.76492 12.8813 5.07654 13.3629 5.4288 13.8187L6.08727 14.6182L6.22276 14.7751L6.95438 15.5733C7.59524 16.2036 8.24964 16.7849 8.9772 17.3102C9.67767 17.815 10.4364 18.2789 11.2398 18.5995C12.004 18.9065 12.8033 19.1726 13.6244 19.2545C14.4197 19.3322 15.2177 19.1862 16.0117 19.148C16.1648 19.1862 16.2312 19.1262 16.2108 18.9679L16.116 18.6787V18.6773Z" fill="#FFA30F"/>
<path d="M19.6824 22.4298C19.4087 21.9523 19.0144 21.5293 18.6364 21.1378C18.1453 20.6263 17.6158 20.1538 17.0526 19.7242C16.7477 19.4923 16.325 19.1416 15.928 19.0775C15.8562 19.0666 15.8007 19.0502 15.7275 19.0666C15.6902 19.0627 15.6525 19.0659 15.6164 19.0761L15.1896 19.0543L15.3224 19.0584L13.1655 18.9492C12.0193 18.8537 10.892 18.6518 9.78914 18.3189C9.319 18.177 8.85022 18.0187 8.39905 17.8182L8.06846 17.6626C7.61593 17.2533 7.14444 16.7935 6.61469 16.5001L6.51172 16.4688C6.64721 16.844 6.96289 17.1591 7.2298 17.4539C7.89368 18.1906 8.63209 18.8592 9.3732 19.5141C10.075 20.1349 10.8094 20.738 11.6358 21.1896C12.3227 21.5648 13.072 21.82 13.8226 22.0301L16.367 22.6577C17.4509 22.8392 18.5104 22.9374 19.5943 22.8828L19.4534 22.8897C19.5108 22.8824 19.569 22.8851 19.6255 22.8978C19.9642 22.9456 19.761 22.5431 19.6797 22.4271L19.6824 22.4298Z" fill="#FF970F"/>
<path d="M11.3303 22.0096L11.726 22.1979L12.2042 22.3957C13.4873 22.7996 14.8638 22.8255 16.1767 22.554L16.0006 22.5922C16.6308 22.4492 17.2499 22.26 17.8527 22.0259C18.1372 21.9195 18.4813 22.2006 18.6873 22.3479C19.2292 22.7259 19.6926 23.1857 20.137 23.6578C20.5814 24.1299 21.0082 24.6374 21.3523 25.1914C21.3577 25.1996 21.8482 25.9691 21.6233 26.0482C19.9622 26.6213 18.2334 26.8832 16.5154 26.4084C15.906 26.2364 15.3155 26.0028 14.7527 25.7112C13.826 25.2364 13.0212 24.5883 12.2462 23.8965C11.7043 23.4135 11.1596 22.8869 10.7125 22.3138C10.4686 22.0027 10.2017 21.6726 10.1381 21.2769L10.1597 21.4133C10.1435 21.326 10.1245 21.266 10.1272 21.1855C10.1299 21.1172 10.8805 21.6767 10.8182 21.6248L11.3398 22.0232L11.3303 22.0096Z" fill="#FF8B0F"/>
<path d="M14.7424 26.8021L15.1719 26.8936L15.6827 26.9754C17.0375 27.0709 18.368 26.7749 19.5847 26.2059L19.4221 26.2837C20.0047 26.0026 20.5602 25.6656 21.0954 25.3013C21.346 25.1321 21.7457 25.3259 21.9801 25.42C22.5803 25.6656 23.1493 26.0012 23.6899 26.3587C24.2305 26.7162 24.7603 27.1091 25.2209 27.5676C25.2277 27.5744 25.8821 28.2089 25.6816 28.3385C24.1966 29.2826 22.5762 29.9403 20.7932 29.8803C20.1608 29.8547 19.5326 29.7651 18.9181 29.6128C17.9073 29.3672 16.9752 28.9224 16.0593 28.4313C15.4225 28.0902 14.7722 27.6999 14.2031 27.2469C13.8969 27.0014 13.5596 26.7421 13.4065 26.3696L13.4553 26.4842C13.42 26.4024 13.3875 26.3478 13.3713 26.27C13.3577 26.2045 14.2167 26.5702 14.1435 26.5375L14.7424 26.8035V26.8021Z" fill="#FF7F0F"/>
<path d="M28.7706 29.9543C28.318 29.6445 27.7815 29.4358 27.2694 29.2516C26.6059 29.0073 25.9246 28.8152 25.2317 28.6772C24.8591 28.6035 24.3239 28.4725 23.9391 28.5899C23.8687 28.6103 23.8131 28.6212 23.7549 28.6676C23.7142 28.684 23.683 28.7031 23.66 28.7249L23.2536 28.8928L23.3755 28.8382L21.3879 29.6896C20.3148 30.1071 19.2133 30.4209 18.0766 30.6065C17.5916 30.6856 17.1011 30.7484 16.6093 30.7661L16.2462 30.7716C15.6636 30.6037 15.0376 30.395 14.4307 30.3622L14.3223 30.38C14.6203 30.6528 15.0268 30.7893 15.3953 30.9503C16.3126 31.3187 17.265 31.5997 18.2175 31.8644C19.1185 32.1141 20.0412 32.3338 20.9787 32.3775C21.7605 32.4129 22.5436 32.3147 23.3118 32.1728L25.8861 31.6188C26.9293 31.3119 27.9346 30.9285 28.8871 30.4045L28.7651 30.4727C28.8137 30.4407 28.8673 30.4172 28.9237 30.4032C29.2488 30.2967 28.883 30.0293 28.7706 29.9529V29.9543Z" fill="#FF730F"/>
<path d="M20.2622 33.8018L20.693 33.7241L21.197 33.6054C22.476 33.1824 23.6087 32.402 24.5232 31.4128L24.4013 31.5465C24.8323 31.0618 25.2276 30.546 25.5841 30.0033C25.7535 29.7509 26.1978 29.7782 26.4485 29.7782C27.099 29.7882 27.747 29.8623 28.3832 29.9992C29.0173 30.1261 29.6568 30.2885 30.2557 30.5368C30.2638 30.5409 31.1092 30.8806 30.9683 31.0771C29.9468 32.5152 28.6894 33.7377 27.0162 34.3572C26.4255 34.5755 25.8009 34.7256 25.179 34.8183C24.1493 34.9739 23.1196 34.9138 22.0899 34.8074C21.3718 34.7324 20.6226 34.6205 19.9275 34.4145C19.5522 34.3053 19.1417 34.1921 18.8612 33.9042L18.9493 33.9929C18.8856 33.9301 18.8355 33.8933 18.7921 33.8264C18.7542 33.7718 19.6864 33.7855 19.6051 33.7814L20.2595 33.8005L20.2622 33.8018Z" fill="#FF670F"/>
<path d="M22.5927 36.7169L23.0127 36.5873L23.5005 36.4099C24.7199 35.841 25.7563 34.9282 26.5462 33.8394L26.4405 33.9867C26.8158 33.4573 27.1383 32.8925 27.4337 32.314C27.5719 32.0438 28.0163 32.0179 28.2656 31.9865C28.9091 31.9087 29.5662 31.9265 30.2125 31.977C30.8588 32.0274 31.5105 32.1134 32.1364 32.2908C32.1445 32.2935 33.0238 32.5309 32.9087 32.741C32.0619 34.2896 30.9577 35.654 29.3671 36.4659C28.8061 36.7387 28.2019 36.9762 27.5962 37.1426C26.5936 37.4182 25.5639 37.4837 24.5275 37.4974C23.8053 37.5055 23.048 37.4837 22.3326 37.3609C21.9464 37.2954 21.5278 37.2327 21.2135 36.9816C21.246 37.0089 21.1864 36.9734 21.1362 36.9134C21.0929 36.8615 22.021 36.766 21.9397 36.7715L22.5927 36.7128V36.7169Z" fill="#FF5B0F"/>
<path d="M34.3044 33.3475C33.7448 33.2984 33.1704 33.3748 32.6311 33.454C31.9332 33.5544 31.2438 33.7081 30.569 33.9138C30.2086 34.0229 29.6789 34.1621 29.4147 34.4363C29.3659 34.4868 29.3239 34.5209 29.2995 34.5864C29.2724 34.6192 29.2589 34.6492 29.2494 34.6778L29.0055 34.9998L29.0787 34.8989L27.8457 36.5362C27.1563 37.3854 26.3747 38.1543 25.5154 38.8284C25.1428 39.119 24.7594 39.3973 24.3475 39.6375L24.0359 39.8094C23.4438 39.939 22.7934 40.0522 22.261 40.3046L22.1797 40.3688C22.5861 40.4588 23.0156 40.3961 23.4126 40.3497C24.4017 40.2337 25.3731 40.0277 26.3337 39.8094C27.2442 39.602 28.1546 39.3591 28.9811 38.9634C29.6721 38.6332 30.2872 38.1898 30.8644 37.7177L32.7531 36.0763C33.4752 35.3396 34.1269 34.5564 34.6539 33.6804L34.5862 33.7937C34.6106 33.7446 34.6431 33.7009 34.6838 33.6627C34.9032 33.4239 34.4399 33.3707 34.3044 33.3584V33.3475Z" fill="#FF4F0F"/>
<path d="M39.1479 32.8757C39.0937 32.3572 38.9772 31.8483 38.7956 31.3708C38.6466 30.9792 38.4976 30.5303 38.1941 30.2206C38.2212 30.2751 38.2144 30.2683 38.1832 30.2097C37.9665 30.1919 37.7632 30.2642 37.579 30.4211L37.1048 30.7718C36.4463 31.3094 35.8664 31.9206 35.3326 32.536C34.7988 33.1513 34.2894 33.7994 33.9019 34.4707C33.8571 34.5526 33.3531 35.3685 33.6539 35.4394C33.8978 35.4981 34.017 35.6714 34.1146 35.8529C34.4966 36.6306 34.7649 37.4901 34.8516 38.3715C34.9668 39.5545 34.8245 40.777 34.6077 42.0063L33.971 44.9862L33.7596 45.723L33.6512 46.0341L33.5767 46.1514L32.5876 47.8501C32.5876 47.8501 32.2462 48.4368 32.5673 48.1816C33.1499 47.7177 33.5618 47.0928 33.9737 46.5444C34.7636 45.491 35.4505 44.3954 36.1184 43.3025C36.599 42.5305 37.0159 41.72 37.3649 40.8793L37.7172 40.0293L38.1047 38.9719L38.5978 37.2391C38.9636 35.786 39.2983 34.2742 39.1479 32.8771V32.8757Z" fill="#FF670F"/>
<path d="M48.4458 23.4851L48.5027 23.5806C48.3239 23.2709 47.9824 23.0935 47.6722 22.9257C47.0964 22.6118 46.4501 22.369 45.8187 22.1657C44.915 21.8737 44.0005 21.6267 43.0304 21.5708C42.4359 21.5333 41.8391 21.5548 41.2487 21.6349C39.5741 21.8696 38.1326 22.7224 36.8224 23.8098C36.8089 23.8193 36.8116 23.8344 36.8061 23.848C36.313 24.2682 35.851 24.7526 35.4242 25.2397C34.7291 26.0379 34.0747 26.8661 33.5924 27.8252C33.3304 28.3435 33.1133 28.8835 32.9434 29.4393C32.7619 29.0941 32.5451 28.7571 32.2795 28.5661L30.7919 27.5019C26.5512 24.5916 22.3036 21.7031 18.487 18.2294L18.1699 17.9346L17.9342 17.7136L17.273 17.0778C16.8368 16.6507 16.4059 16.2182 15.9859 15.7721C15.1052 14.8415 14.2408 13.8824 13.4144 12.8986C12.9774 12.3811 12.5537 11.8524 12.1435 11.3132L11.9348 11.0335L11.8834 10.9625C11.7113 10.7169 11.5487 10.4659 11.3861 10.2148L11.0176 9.63086L10.9092 9.43984C10.4865 8.43018 10.7331 9.06872 10.706 8.99777C10.3263 8.01502 9.89254 7.05435 9.40666 6.12024C9.13568 5.60449 8.82136 4.91683 8.36883 4.51979C7.97592 4.17596 8.15205 5.0178 8.15612 5.06555L8.16018 5.09966C8.15836 5.28901 8.17013 5.47825 8.19541 5.66589C8.24283 5.9797 8.29431 6.29352 8.36477 6.6046C8.58832 7.59243 8.8891 8.53115 9.20749 9.49305C9.72776 11.0621 10.4743 12.5657 11.2344 14.0256C12.6218 16.6889 14.3736 19.284 16.3829 21.5026C18.1848 23.481 20.1602 25.3038 22.2223 27.0052C24.3048 28.7244 26.4631 30.3617 28.658 31.9444C28.6404 31.9444 28.6688 31.958 28.7149 31.9853L29.3815 32.4629C30.1104 33.0932 31.0371 34.3076 30.4857 36.1359L29.9478 37.2165L29.7175 37.7049C29.6877 37.754 29.6768 37.7827 29.6768 37.7909C29.4743 38.2226 29.2805 38.6584 29.0956 39.098C28.5355 39.8105 27.8554 40.4183 27.0863 40.8935C26.8994 40.9972 26.707 41.0955 26.5132 41.1842C26.3777 41.2428 26.2422 41.2933 26.1068 41.352C26.0214 41.3888 26.1013 41.3656 25.4632 41.4721C25.5445 41.4584 24.6286 41.6399 24.6774 41.6876C24.7343 41.7422 24.7912 41.7695 24.867 41.8173L24.7627 41.749C25.0974 41.9701 25.5214 41.9946 25.9117 42.0219C26.6338 42.0765 27.402 42.0274 28.1065 41.9496C27.845 42.8065 27.6527 43.6906 27.5104 44.5734L27.4156 45.1737C26.8763 45.9173 26.3005 46.6336 25.6542 47.2967C25.1028 47.8657 24.5256 48.4101 23.92 48.9204C23.6151 49.1932 23.3049 49.432 22.9878 49.6749L22.5516 50.0023L22.3158 50.1729C21.6411 50.6422 20.965 51.0734 20.27 51.4691C19.9231 51.6669 19.5736 51.8607 19.2159 52.038L18.6333 52.315L18.426 52.4105C18.4165 52.4146 18.4125 52.4173 18.3989 52.4242C17.6922 52.7274 16.971 52.9952 16.2379 53.2264L16.013 53.2906L15.5117 53.4229L15.0131 53.5457L14.841 53.5866C14.272 53.6999 13.6826 53.8131 13.1542 54.0642C13.0187 54.1283 12.5621 54.3712 12.9049 54.5513C13.306 54.7628 13.9129 54.7286 14.3411 54.7246C15.1262 54.7058 15.9088 54.6278 16.6823 54.4912C19.2498 54.0683 21.7698 53.236 24.1205 52.0762L23.5244 52.6493C23.1653 52.9808 22.7995 53.3069 22.4242 53.6207L22.1912 53.8159L21.6669 54.2252C21.3146 54.4912 20.9555 54.7437 20.5911 54.9893L20.3499 55.1462L19.7809 55.4968L19.537 55.6401L18.9734 55.9443L18.9165 55.9716L18.4219 56.2036L18.3501 56.2363L17.9383 56.4028L16.6728 56.7398L16.2664 56.8421C16.2257 56.8489 16.1796 56.8558 16.1282 56.8694C15.299 57.0127 14.4725 57.4152 13.7327 57.7836C13.0878 58.1015 12.4456 58.4521 11.863 58.8778C11.8359 58.8955 11.8088 58.9187 11.7845 58.9351C11.7601 58.9515 11.7262 58.9692 11.6991 58.9897C11.5826 59.0688 11 59.3963 11.0217 59.6378C11.0447 59.8875 13.5769 59.2749 13.982 59.1684C17.5589 58.227 20.9691 56.5897 24.0934 54.5758C23.9281 54.8296 23.7574 55.0807 23.5826 55.329L23.3591 55.6333L22.9499 56.1613L22.7697 56.385L22.3633 56.8667L22.3307 56.9022L21.9243 57.3074L21.8647 57.3674L21.5436 57.6608L20.4597 58.4248L20.1006 58.6704C20.0617 58.693 20.0238 58.7171 19.9868 58.7427C19.2593 59.1698 18.6252 59.8411 18.0575 60.4455C17.5643 60.9708 17.086 61.5261 16.6891 62.1306C16.6715 62.1578 16.6525 62.1851 16.6349 62.2152C16.6173 62.2452 16.5942 62.267 16.5739 62.2943C16.4926 62.4103 16.0591 62.9219 16.1674 63.1402C16.2758 63.3654 18.4341 61.8986 18.7769 61.6394C22.4825 59.0115 25.5878 55.4995 28.093 51.7065L28.1878 51.5632C30.3827 49.739 32.3635 47.6419 33.9094 45.246C34.2929 44.864 34.5774 44.5283 34.6411 44.3209C35.6979 40.8253 35.8239 39.1771 35.5583 37.7854C35.7371 37.7008 35.9241 37.649 36.1274 37.6872C36.4742 37.7554 36.6395 36.683 36.6598 36.5793C36.7074 36.314 36.7436 36.0468 36.7682 35.7784C37.1234 35.5005 37.4548 35.1928 37.7586 34.8588C37.8128 34.8001 38.3656 34.2134 38.1732 34.0265C38.016 33.8764 37.974 33.6635 37.951 33.4534C37.8674 32.5537 37.9016 31.6468 38.0526 30.756C38.2626 29.5799 38.6623 28.4638 39.1203 27.3723L39.4725 26.5604C39.8003 26.5766 40.1279 26.5261 40.4358 26.4117C40.7821 26.285 41.095 26.0801 41.3504 25.8127C41.368 25.8018 41.3869 25.7923 41.4018 25.7786C41.8517 25.3802 42.3191 25.005 42.8177 24.668C43.8298 24.0213 44.9652 23.5765 46.1371 23.4223C46.3539 23.4032 46.5734 23.3882 46.7915 23.3882C46.927 23.3896 47.0652 23.3991 47.202 23.4018C47.2887 23.4032 47.2129 23.3936 47.7887 23.5424C47.7169 23.5233 48.5569 23.7129 48.5366 23.657C48.5135 23.5888 48.477 23.5451 48.4363 23.4796L48.4458 23.4851ZM16.3531 56.8435C16.33 56.8448 16.2989 56.8489 16.2718 56.853C16.5156 56.7903 16.4615 56.8216 16.3531 56.8435ZM19.6508 55.5923C19.9299 55.4313 19.7863 55.5173 19.6508 55.5923V55.5923ZM22.2251 53.8159C22.6017 53.5061 22.3199 53.7408 22.2251 53.8159V53.8159ZM20.209 58.6377C20.1873 58.6459 20.1616 58.6609 20.1372 58.6759C20.3459 58.5313 20.3039 58.5804 20.209 58.6377ZM22.8402 56.3291C23.0949 56.018 22.9486 56.2022 22.8402 56.3291V56.3291Z" fill="#FF430F"/>
<path d="M56.897 31.733H58.661V44.8723H56.897V31.733ZM62.2663 23.4102H64.0304V41.3726C64.0304 43.0972 64.8081 43.3578 65.4828 43.3578C65.7172 43.3578 65.9231 43.3305 65.9231 43.3305V44.9242C65.9231 44.9242 65.6115 44.976 65.2755 44.976C64.1848 44.976 62.2677 44.6376 62.2677 41.7628V23.4238L62.2663 23.4102ZM68.1532 23.4102H69.9037V41.3726C69.9037 43.0972 70.6828 43.3578 71.3561 43.3578C71.5892 43.3578 71.7965 43.3305 71.7965 43.3305V44.9242C71.7965 44.9242 71.4848 44.976 71.1461 44.976C70.0568 44.976 68.1383 44.6376 68.1383 41.7628L68.1532 23.4102ZM73.99 31.733H75.754V39.6221C75.754 41.6864 76.0657 43.5147 78.5816 43.5147C81.5651 43.5147 83.4077 40.8759 83.4077 38.0298V31.733H85.1717V44.8723H83.4592V42.9007C83.4592 42.325 83.5106 41.8556 83.5106 41.8556H83.4592C83.0168 42.8467 82.2987 43.6875 81.3917 44.2762C80.4847 44.8649 79.4277 45.1762 78.3486 45.1725C75.2866 45.1725 73.9914 43.5011 73.9914 40.0778V31.718L73.99 31.733ZM88.6442 31.733H90.3825V33.6937C90.3825 34.2668 90.331 34.7388 90.331 34.7388H90.3825C91.0058 32.9624 93.0787 31.4206 95.1029 31.4206C97.5146 31.4206 98.761 32.5435 99.1499 34.7129H99.2014C99.9018 32.9365 101.796 31.4206 104 31.4206C107.165 31.4206 108.333 33.2762 108.333 36.5153V44.875H106.569V36.9615C106.569 34.8193 106.129 33.0429 103.742 33.0429C101.743 33.0429 100.11 34.8207 99.6173 36.7541C99.4358 37.3299 99.3829 37.9548 99.3829 38.6615V44.8778H97.6189V36.9642C97.6189 34.979 97.3479 33.0456 94.8685 33.0456C92.7414 33.0456 91.1331 34.9012 90.5871 36.9123C90.4604 37.487 90.3995 38.0743 90.4056 38.6629V44.8791H88.6415V31.7399L88.6442 31.733ZM117.825 31.4192C121.639 31.4192 124.726 34.3459 124.726 38.2372C124.726 42.194 121.637 45.1861 117.825 45.1861C114.014 45.1861 110.925 42.2076 110.925 38.2372C110.925 34.3445 114.014 31.4192 117.825 31.4192V31.4192ZM117.825 43.5939C120.627 43.5939 122.909 41.2948 122.909 38.2385C122.909 35.26 120.627 33.0538 117.825 33.0538C115.023 33.0538 112.742 35.2737 112.742 38.2385C112.742 41.2948 115.025 43.5939 117.825 43.5939ZM127.396 42.0016C127.396 42.0016 128.849 43.5952 131.287 43.5952C132.688 43.5952 133.908 42.8898 133.908 41.5049C133.908 38.6315 126.876 39.3355 126.876 35.0513C126.876 32.7004 128.976 31.4192 131.339 31.4192C134.089 31.4192 135.359 32.856 135.359 32.856L134.555 34.2149C134.555 34.2149 133.44 33.0142 131.286 33.0142C129.962 33.0142 128.691 33.5873 128.691 35.0513C128.691 37.9507 135.723 37.1661 135.723 41.5049C135.723 43.6471 133.881 45.1888 131.26 45.1888C128.097 45.1888 126.437 43.2814 126.437 43.2814L127.396 42.0016ZM57.7777 26.0025C57.0257 26.0025 56.416 26.6165 56.416 27.3738C56.416 28.131 57.0257 28.745 57.7777 28.745C58.5296 28.745 59.1393 28.131 59.1393 27.3738C59.1393 26.6165 58.5296 26.0025 57.7777 26.0025Z" fill="#544A58"/>
</svg>
