<svg width="135" height="38" viewBox="0 0 135 38" fill="none" xmlns="http://www.w3.org/2000/svg">
<path d="M132.183 19.7363C131.708 17.966 130.166 16.8391 128.375 16.8391C126.743 16.8391 125.179 18.1266 124.839 19.7363H132.183ZM134.291 23.3688C133.339 25.7137 131.096 27.2999 128.579 27.2999C125.042 27.2999 122.209 24.4951 122.209 20.8854C122.209 17.2528 124.907 14.3331 128.511 14.3331C130.189 14.3331 131.866 15.0918 133.045 16.3104C134.247 17.5978 134.745 19.1612 134.745 20.9083L134.655 21.897H124.861C125.224 23.5985 126.766 24.8395 128.489 24.8395C129.69 24.8395 130.732 24.38 131.413 23.3684H134.291M109.357 17.3217H107.793V14.7008H112.123V16.4481C112.848 15.0916 114.208 14.4247 115.704 14.4247C117.019 14.4247 118.311 14.9767 119.195 15.9423C120.193 17.0689 120.215 18.1495 120.215 19.5518V24.3569H121.779V26.9778H115.886V24.3569H117.45V20.3794C117.45 19.6207 117.45 18.8391 116.973 18.1721C116.475 17.5057 115.659 17.1839 114.843 17.1839C114.004 17.1839 113.143 17.5287 112.644 18.2182C112.123 18.9077 112.123 19.9654 112.123 20.7934V24.3569H113.686V26.9778H107.793V24.3569H109.357V17.3216M105.39 13.5283H102.624V10.5625H105.39V13.5283ZM105.39 24.3569H106.954V26.9778H101.037V24.3569H102.624V17.3216H101.06V14.7007H105.39V24.3567M80.4085 17.3213H78.8446V14.7005H82.9249V16.5397C83.6958 15.2523 84.8745 14.4016 86.4159 14.4016C88.0933 14.4016 89.499 15.436 90.1789 16.9765C90.8365 15.4132 92.4686 14.4016 94.146 14.4016C95.4609 14.4016 96.7532 14.9532 97.637 15.9649C98.5893 17.0916 98.5893 18.31 98.5893 19.7122V24.3567H100.153V26.9775H94.2592V24.3567H95.8236V20.4022C95.8236 19.5973 95.8236 18.8846 95.4609 18.1718C95.0075 17.5054 94.2592 17.1603 93.4889 17.1603C92.7408 17.1603 91.9245 17.4823 91.4486 18.0798C90.8817 18.8158 90.8817 19.5055 90.8817 20.4022V24.3567H92.4459V26.9775H86.5519V24.3567H88.1163V20.5862C88.1163 19.8504 88.1163 18.9309 87.7536 18.2871C87.3682 17.5516 86.5746 17.1605 85.7586 17.1605C84.9877 17.1605 84.3304 17.4365 83.8317 18.0575C83.2194 18.816 83.1741 19.6206 83.1741 20.5632V24.3567H84.7383V26.9776H78.8446V24.3567H80.4085V17.3213M71.3702 23.4147C71.4609 24.5183 72.1862 25.2538 73.3197 25.2538C74.1585 25.2538 74.9744 24.6564 74.9744 23.7368C74.9744 22.5181 73.8411 22.3112 72.9116 22.0584C70.8033 21.5067 68.4911 20.8397 68.4911 18.1501C68.4911 15.8049 70.4406 14.4486 72.5944 14.4486C73.6822 14.4486 74.6569 14.6787 75.337 15.552V14.7015H77.3773V18.0351H74.7022C74.6569 17.1612 73.9996 16.5866 73.1383 16.5866C72.3902 16.5866 71.5969 17.0234 71.5969 17.874C71.5969 19.0235 72.7076 19.2763 73.5917 19.4832C75.7677 19.989 78.1027 20.679 78.1027 23.4379C78.1027 25.9207 76.0399 27.3001 73.7731 27.3001C72.5487 27.3001 71.4379 26.9094 70.6446 25.9667V26.9781H68.5365V23.4146H71.3702M63.4344 20.7712C63.4344 18.7477 61.7795 17.1153 59.7847 17.1153C57.7219 17.1153 56.135 18.8398 56.135 20.9088C56.135 22.9092 57.7899 24.5644 59.7395 24.5644C61.8248 24.5644 63.4344 22.8632 63.4344 20.7712ZM63.3892 25.3231C62.5049 26.6794 61.0769 27.3003 59.49 27.3003C56.0216 27.3003 53.2789 24.3806 53.2789 20.9088C53.2789 17.3452 56.0898 14.3796 59.626 14.3796C61.1902 14.3796 62.5504 15.1152 63.3892 16.4487V14.7015H67.719V17.3223H66.2001V24.3577H67.719V26.9785H63.3892V25.3232M44.7093 22.3577C44.732 23.3694 45.3442 24.4036 46.4777 24.4036C47.1578 24.4036 47.6564 24.0819 47.9966 23.5072C48.3138 22.9323 48.3138 22.0818 48.3138 21.438V13.1846H46.5456V10.5635H53.1422V13.1846H51.3968V21.8289C51.3968 23.3004 51.3058 24.4497 50.2861 25.6454C49.3793 26.703 47.9058 27.3007 46.5002 27.3007C43.5985 27.3007 41.3768 25.3466 41.4905 22.3579H44.7093" fill="#8A4182"/>
<path d="M17.0767 15.4026H19.902L20.6039 14.4227V6.74609H16.375V14.4233L17.0766 15.4026" fill="#8A4182"/>
<path d="M17.8684 30.372H19.0403V24.5363H17.8684V30.372ZM7.41994 22.619L7.05797 21.4886L12.53 19.686L12.8918 20.8164L7.42009 22.619M14.4806 13.7363L11.0992 9.01514L12.0476 8.31638L15.4291 13.0378L14.4806 13.7363M22.5594 13.7796L21.6112 13.081L24.9929 8.35955L25.9414 9.058L22.5594 13.7798M29.5386 22.69L24.0662 20.8864L24.4283 19.7557L29.9003 21.5593L29.5386 22.69M20.851 16.1002L21.7245 18.8258L22.8604 19.1995L30.0591 16.8277L28.7524 12.7488L21.5531 15.1214L20.8509 16.1003M21.3652 19.956L19.079 21.6402L19.0794 22.8511L23.5284 29.062L26.9499 26.5413L22.5 20.3301L21.3652 19.956M17.9072 21.6408L15.6217 19.956L14.4857 20.3309L10.0367 26.5415L13.4576 29.0621L17.9072 22.8512V21.6409M15.2592 18.8258L16.1322 16.1008L15.4301 15.1207L8.23134 12.7485L6.92448 16.8274L14.1244 19.1998L15.2594 18.8257M18.4945 0.0820312C8.43676 0.0820312 0.253906 8.37938 0.253906 18.5782C0.253906 28.7808 8.43676 37.0806 18.4945 37.0806C28.5513 37.0806 36.7329 28.7808 36.7329 18.5782C36.7329 8.37938 28.5513 0.0820312 18.4945 0.0820312V0.0820312ZM18.4945 3.82717C26.526 3.82717 33.0398 10.4305 33.0398 18.5782C33.0398 26.7287 26.526 33.3349 18.4945 33.3349C10.4598 33.3349 3.94729 26.7287 3.94729 18.5782C3.94729 10.4305 10.4598 3.82717 18.4945 3.82717" fill="#8A4182"/>
</svg>
