<svg width="70" height="30" viewBox="0 0 70 30" fill="none" xmlns="http://www.w3.org/2000/svg">
<path d="M5.69972 11.7557C5.69972 10.9747 6.31143 10.6742 7.32477 10.6742C8.7775 10.6742 10.6126 11.135 12.0655 11.956V7.24963C10.4789 6.5888 8.91138 6.32843 7.32477 6.32843C3.44401 6.32843 0.863281 8.45133 0.863281 11.9962C0.863281 17.5234 8.12748 16.6423 8.12748 19.0256C8.12748 19.9466 7.36294 20.2471 6.29234 20.2471C4.70574 20.2471 2.67933 19.5662 1.0735 18.645V23.4113C2.85138 24.2124 4.64834 24.5528 6.29234 24.5528C10.2685 24.5528 13.0022 22.4901 13.0022 18.9053C12.9831 12.9374 5.69972 13.9987 5.69972 11.7557ZM18.6224 2.32314L13.958 3.36445L13.9389 19.4059C13.9389 22.37 16.0609 24.5528 18.8902 24.5528C20.4577 24.5528 21.6046 24.2524 22.2354 23.8919V19.8265C21.6239 20.0869 18.6033 21.0081 18.6033 18.0441V10.9346H22.2354V6.66892H18.6033L18.6224 2.32314ZM28.1808 8.15084L27.8749 6.66892H23.7457V24.1923H28.5249V12.3165C29.6526 10.7745 31.5644 11.0548 32.157 11.2751V6.66892C31.5453 6.42855 29.3086 5.98795 28.1808 8.15084ZM33.323 6.66892H38.1213V24.1923H33.323V6.66892ZM33.323 5.14687L38.1213 4.06542V0L33.323 1.06145V5.14687ZM48.1001 6.32843C46.2266 6.32843 45.0223 7.24963 44.3533 7.89062L44.1047 6.64892H39.8992V30L44.6782 28.9387L44.6974 23.2711C45.3856 23.7918 46.3987 24.5328 48.081 24.5328C51.5029 24.5328 54.6188 21.6489 54.6188 15.3005C54.5997 9.49265 51.4455 6.32843 48.1001 6.32843ZM46.9531 20.1269C45.8253 20.1269 45.156 19.7064 44.6974 19.1857L44.6782 11.7557C45.1753 11.1749 45.8634 10.7745 46.9531 10.7745C48.6927 10.7745 49.897 12.8171 49.897 15.4406C49.897 18.1242 48.7118 20.1269 46.9531 20.1269ZM69.6826 15.5007C69.6826 10.3739 67.3121 6.32843 62.7816 6.32843C58.2317 6.32843 55.4789 10.374 55.4789 15.4607C55.4789 21.4887 58.7289 24.5328 63.3931 24.5328C65.6681 24.5328 67.3886 23.9921 68.6885 23.2311V19.2257C67.3887 19.9066 65.8975 20.3272 64.005 20.3272C62.1506 20.3272 60.5066 19.6463 60.2964 17.2831H69.6444C69.6444 17.0226 69.6826 15.9813 69.6826 15.5007ZM60.239 13.5982C60.239 11.3352 61.5581 10.3939 62.7625 10.3939C63.9285 10.3939 65.1712 11.3352 65.1712 13.5982H60.239Z" fill="white"/>
</svg>
