<svg width="112" height="30" viewBox="0 0 112 30" fill="none" xmlns="http://www.w3.org/2000/svg">
<path d="M19.3863 1.4557C18.0014 0.486018 16.1943 0 13.9648 0H5.33368C4.65023 0 4.27263 0.348138 4.20091 1.04358L0.694599 23.4602C0.65816 23.6804 0.712242 23.8817 0.856353 24.0648C0.999639 24.2483 1.17986 24.3395 1.3957 24.3395H5.49543C6.2145 24.3395 6.60974 23.9922 6.68229 23.2956L7.65314 17.2523C7.68859 16.9594 7.81506 16.7213 8.03089 16.5379C8.24656 16.3548 8.51632 16.2349 8.83999 16.1802C9.16366 16.1258 9.46887 16.0984 9.75709 16.0984C10.0445 16.0984 10.386 16.1169 10.7822 16.1533C11.1774 16.1899 11.4294 16.2077 11.5374 16.2077C14.63 16.2077 17.0574 15.3201 18.8199 13.5432C20.5816 11.7669 21.4634 9.3037 21.4634 6.15315C21.4634 3.9921 20.7705 2.42623 19.3863 1.45503V1.4557ZM14.936 8.18673C14.7556 9.46895 14.2887 10.311 13.5335 10.7141C12.7781 11.1176 11.6993 11.3181 10.2969 11.3181L8.51665 11.3732L9.43391 5.49415C9.50547 5.0916 9.73912 4.89007 10.135 4.89007H11.1603C12.5981 4.89007 13.6416 5.10117 14.289 5.5217C14.936 5.94322 15.1518 6.83196 14.936 8.18673Z" fill="white"/>
<path d="M110.468 0H106.477C106.08 0 105.847 0.20153 105.776 0.604418L102.269 23.461L102.215 23.5709C102.215 23.7549 102.287 23.9281 102.431 24.093C102.574 24.2574 102.755 24.34 102.97 24.34H106.531C107.213 24.34 107.591 23.9927 107.664 23.2963L111.17 0.82425V0.76967C111.17 0.256949 110.936 0.000504824 110.468 0.000504824V0Z" fill="white"/>
<path d="M62.2459 8.84338C62.2459 8.66067 62.1737 8.48634 62.0305 8.32176C61.8863 8.15701 61.7243 8.07422 61.5449 8.07422H57.3913C56.9949 8.07422 56.6714 8.25828 56.4201 8.62355L50.702 17.1952L48.3286 8.95355C48.1479 8.36778 47.7527 8.07422 47.1418 8.07422H43.0955C42.9152 8.07422 42.7533 8.15685 42.6104 8.32176C42.4661 8.48634 42.3945 8.66083 42.3945 8.84338C42.3945 8.91728 42.7452 9.9973 43.4463 12.0851C44.1474 14.1733 44.9028 16.426 45.7121 18.8437C46.5213 21.261 46.9434 22.5436 46.9797 22.6892C44.0305 26.792 42.5565 28.99 42.5565 29.2825C42.5565 29.7591 42.7901 29.9969 43.2577 29.9969H47.4114C47.8069 29.9969 48.1304 29.8142 48.3825 29.4476L62.1385 9.22763C62.2099 9.15491 62.2459 9.02728 62.2459 8.84321V8.84338Z" fill="white"/>
<path d="M100.923 8.08006H96.8232C96.3193 8.08006 96.0146 8.68448 95.9066 9.89331C94.9706 8.42887 93.2633 7.69531 90.7815 7.69531C88.1921 7.69531 85.989 8.68448 84.1733 10.6625C82.3569 12.6406 81.4492 14.9669 81.4492 17.6405C81.4492 19.8021 82.0694 21.5235 83.31 22.805C84.5506 24.0879 86.2138 24.7281 88.3004 24.7281C89.343 24.7281 90.4039 24.5079 91.4827 24.0688C92.5617 23.6293 93.4061 23.0435 94.0185 22.3106C94.0185 22.3474 93.9819 22.5118 93.9107 22.8047C93.8381 23.0983 93.8027 23.3186 93.8027 23.464C93.8027 24.0508 94.0358 24.343 94.5041 24.343H98.2266C98.9089 24.343 99.3051 23.9957 99.4126 23.2991L101.625 8.95889C101.66 8.73906 101.606 8.53787 101.463 8.35448C101.318 8.17193 101.139 8.08006 100.923 8.08006ZM93.8835 18.9041C92.9664 19.8199 91.8605 20.2777 90.566 20.2777C89.5226 20.2777 88.6782 19.9852 88.0305 19.3987C87.3828 18.8138 87.0592 18.0078 87.0592 16.981C87.0592 15.6268 87.5088 14.4814 88.4081 13.5473C89.3061 12.6133 90.422 12.1462 91.7526 12.1462C92.7588 12.1462 93.5951 12.4485 94.2609 13.0526C94.9257 13.657 95.2593 14.4907 95.2593 15.5529C95.2591 16.8714 94.8004 17.9889 93.8835 18.9041Z" fill="white"/>
<path d="M39.6422 8.08006H35.5425C35.0383 8.08006 34.7332 8.68448 34.6252 9.89331C33.6542 8.42887 31.9458 7.69531 29.5004 7.69531C26.911 7.69531 24.708 8.68448 22.8921 10.6625C21.0757 12.6406 20.168 14.9669 20.168 17.6405C20.168 19.8021 20.7884 21.5235 22.0292 22.805C23.27 24.0879 24.9329 24.7281 27.019 24.7281C28.0255 24.7281 29.069 24.5079 30.1477 24.0688C31.2266 23.6293 32.0898 23.0435 32.7371 22.3106C32.5928 22.7499 32.5213 23.1347 32.5213 23.464C32.5213 24.0508 32.7549 24.343 33.2225 24.343H36.9447C37.6275 24.343 38.0235 23.9957 38.1315 23.2991L40.3431 8.95889C40.3786 8.73906 40.3247 8.53787 40.1814 8.35448C40.0374 8.17193 39.8579 8.08006 39.6422 8.08006ZM32.6024 18.9313C31.6851 19.83 30.5608 20.2777 29.231 20.2777C28.1874 20.2777 27.3512 19.9852 26.7224 19.3987C26.0927 18.8138 25.7782 18.0078 25.7782 16.981C25.7782 15.6268 26.2275 14.4814 27.127 13.5473C28.0255 12.6133 29.1404 12.1462 30.4716 12.1462C31.478 12.1462 32.3142 12.4485 32.9801 13.0528C33.645 13.6572 33.978 14.4908 33.978 15.5531C33.978 16.9082 33.5195 18.0349 32.6024 18.9313Z" fill="white"/>
<path d="M80.6677 1.4557C79.283 0.486018 77.4762 0 75.2464 0H66.669C65.9495 0 65.5536 0.348138 65.4823 1.04358L61.9759 23.4602C61.9394 23.6805 61.9933 23.8819 62.1376 24.0649C62.2802 24.2483 62.4611 24.3395 62.677 24.3395H67.1002C67.5317 24.3395 67.8193 24.1017 67.9634 23.6254L68.9346 17.2523C68.9702 16.9594 69.0962 16.7213 69.3122 16.5379C69.528 16.3548 69.7974 16.2351 70.1214 16.1802C70.4449 16.1258 70.75 16.0984 71.0385 16.0984C71.3259 16.0984 71.6674 16.1169 72.0631 16.1533C72.4587 16.1899 72.7113 16.2077 72.8183 16.2077C75.9116 16.2077 78.3385 15.3201 80.101 13.5432C81.8633 11.7669 82.7443 9.3037 82.7443 6.15315C82.7446 3.99227 82.0519 2.42639 80.6677 1.4552V1.4557ZM75.1384 10.4942C74.3471 11.0436 73.1603 11.3181 71.5782 11.3181L69.8518 11.3732L70.7689 5.49415C70.8402 5.0916 71.0738 4.89007 71.47 4.89007H72.4407C73.2318 4.89007 73.861 4.92668 74.3293 4.99974C74.7961 5.07363 75.2464 5.30186 75.6779 5.68644C76.1096 6.0712 76.3253 6.62993 76.3253 7.36248C76.3253 8.90081 75.9292 9.94456 75.1384 10.4942Z" fill="white"/>
</svg>
