<svg width="97" height="30" viewBox="0 0 97 30" fill="none" xmlns="http://www.w3.org/2000/svg">
<path d="M96.4317 8.84873C95.555 6.36472 93.1655 4.58096 90.3595 4.58096H90.3008C88.4765 4.58096 86.8322 5.33328 85.6619 6.54122C84.4898 5.33328 82.8455 4.58096 81.0231 4.58096H80.9644C79.3607 4.58096 77.8949 5.16291 76.7691 6.12581V5.63613C76.7305 5.14836 76.3256 4.76511 75.8256 4.76511H71.521C70.9944 4.76511 70.5694 5.18665 70.5694 5.71002V28.8755C70.5694 29.3993 70.9948 29.8204 71.521 29.8204H75.8256C76.3055 29.8204 76.7003 29.4651 76.7633 29.0057L76.7614 12.3757C76.7614 12.3175 76.7633 12.2635 76.7695 12.2091C76.8382 11.4667 77.3869 10.8568 78.2538 10.7803H79.0474C79.4097 10.8124 79.7157 10.9388 79.9564 11.1294C80.3312 11.4243 80.5394 11.8779 80.5394 12.3757L80.5556 28.9238C80.5556 29.4475 80.9829 29.871 81.5072 29.871H85.8118C86.3199 29.871 86.7333 29.4697 86.7576 28.9701L86.7557 12.3538C86.7538 11.8079 87.0087 11.3144 87.4561 11.0215C87.6767 10.881 87.9421 10.7868 88.2477 10.7585H89.0413C89.9728 10.8389 90.5357 11.5391 90.5337 12.3538L90.55 28.8797C90.55 29.4035 90.9773 29.8246 91.5015 29.8246H95.8062C96.3304 29.8246 96.7577 29.4031 96.7577 28.8797V11.1061C96.7577 9.89395 96.6202 9.37823 96.4317 8.84873ZM67.2898 4.82561H64.8276V0.860676C64.8276 0.38516 64.4389 0 63.9591 0C63.9023 0 63.8478 0.00804012 63.7949 0.0179946C61.0654 0.760366 61.6121 4.50668 56.6294 4.82561H56.1453C56.0723 4.82561 56.0035 4.83556 55.9367 4.84973H55.9328L55.9367 4.85164C55.5113 4.94583 55.1914 5.31912 55.1914 5.7686V10.0348C55.1914 10.5544 55.6187 10.9778 56.1449 10.9778H58.7427L58.7388 29.067C58.7388 29.5827 59.1599 30 59.6803 30H63.9363C64.4548 30 64.8759 29.5827 64.8759 29.067L64.8778 10.9778H67.2894C67.8136 10.9778 68.2409 10.5544 68.2409 10.0348V5.76898C68.2417 5.24905 67.8144 4.82561 67.2898 4.82561Z" fill="white"/>
<path d="M51.8021 4.82498H47.4974C46.9731 4.82498 46.5478 5.24843 46.5478 5.76798V14.5888C46.5377 15.1347 46.0923 15.5719 45.5394 15.5719H43.7375C43.1789 15.5719 42.7272 15.1267 42.7272 14.5727L42.711 5.76798C42.711 5.24843 42.2837 4.82498 41.7594 4.82498H37.4544C36.9278 4.82498 36.5028 5.24843 36.5028 5.76798V15.4356C36.5028 19.1077 39.1451 21.7261 42.8524 21.7261C42.8524 21.7261 45.6345 21.7261 45.7195 21.7422C46.2217 21.7985 46.6123 22.2158 46.6123 22.7296C46.6123 23.2372 46.2294 23.6527 45.7334 23.7147C45.709 23.7185 45.6866 23.7246 45.6604 23.7288L39.3653 23.7511C38.8387 23.7511 38.4137 24.1745 38.4137 24.694V28.958C38.4137 29.4798 38.8391 29.901 39.3653 29.901H46.4033C50.1126 29.901 52.7528 27.2845 52.7528 23.6105V5.76836C52.7536 5.24843 52.3286 4.82498 51.8021 4.82498ZM10.5143 4.82422H1.10528C0.589126 4.82422 0.171875 5.23924 0.171875 5.74922V9.92893C0.171875 9.93697 0.173807 9.94501 0.173807 9.95305C0.173807 9.97296 0.171875 9.99325 0.171875 10.0112V28.9285C0.171875 29.4423 0.560537 29.8615 1.04269 29.8734H5.42847C5.95273 29.8734 6.38003 29.4519 6.38003 28.9304L6.39626 22.4474H10.5147C13.9609 22.4474 16.3624 20.0779 16.3624 16.6486V10.6311C16.362 7.2018 13.9605 4.82422 10.5143 4.82422ZM10.1357 15.2741C10.1357 15.8258 9.68404 16.2753 9.12732 16.2753L6.39587 16.2772V11.0021H9.12732C9.68404 11.0021 10.1357 11.4474 10.1357 12.0014V15.2741ZM27.3121 4.84834H21.3393C20.8107 4.84834 20.3834 5.24575 20.3834 5.73314V7.39246C20.3834 7.40242 20.3854 7.41467 20.3854 7.42462C20.3854 7.43649 20.3834 7.44874 20.3834 7.46061V9.73405C20.3834 10.2498 20.837 10.6709 21.3957 10.6709H27.0834C27.5327 10.741 27.8893 11.066 27.9399 11.5737V12.1235C27.8893 12.6071 27.537 12.9601 27.1077 13.0003H24.2913C20.5453 13.0003 17.8768 15.4663 17.8768 18.9297V23.8896C17.8768 27.3327 20.1709 29.7827 23.8903 29.7827H31.696C33.0972 29.7827 34.2331 28.7313 34.2331 27.4369V11.2513C34.2331 7.32661 32.192 4.84834 27.3121 4.84834ZM27.9967 23.3226C27.9967 23.377 27.9886 23.4291 27.9805 23.4792C27.9704 23.5263 27.9568 23.5726 27.9399 23.6178C27.8063 23.9911 27.4296 24.2618 26.9822 24.2618H25.1903C24.6317 24.2618 24.1758 23.8403 24.1758 23.3226V22.5178C24.1758 22.5079 24.1739 22.4979 24.1739 22.4876L24.1758 20.3466V19.6766L24.1777 19.6705C24.1796 19.1548 24.6313 18.7375 25.1899 18.7375H26.9818C27.5428 18.7375 27.9963 19.1567 27.9963 19.6766V23.3226H27.9967Z" fill="white"/>
</svg>
