<svg width="87" height="30" viewBox="0 0 87 30" fill="none" xmlns="http://www.w3.org/2000/svg">
<path d="M62.6979 7.20651C64.6537 7.20651 66.2372 5.59363 66.2372 3.60483C66.2372 1.61603 64.6526 0 62.6979 0C60.7432 0 59.1617 1.61498 59.1617 3.60483C59.1616 4.0779 59.253 4.54636 59.4306 4.98346C59.6083 5.42055 59.8687 5.81772 60.1971 6.15228C60.5255 6.48684 60.9153 6.75223 61.3444 6.9333C61.7735 7.11437 62.2335 7.20651 62.6979 7.20651ZM35.5898 9.14911C35.43 9.56913 34.2805 12.8663 31.5 16.2926V1.63808L24.0926 3.12916V29.6955H31.5011V21.4841C33.6475 24.7602 34.7073 29.6955 34.7073 29.6955H43.5808C42.7045 25.9783 38.8642 19.1267 38.8642 19.1267C41.1458 16.1293 42.9045 12.7546 44.0633 9.15016L35.5898 9.14911ZM55.0647 8.87189C48.4305 9.08926 45.0613 12.1208 45.0613 18.1481V29.6944H52.3007V20.2797C52.3007 16.6717 52.7646 15.1344 56.9689 14.9769V8.9811C56.2616 8.82779 55.0647 8.87609 55.0647 8.87609M11.6695 12.0788C10.7623 12.0189 8.66116 11.8792 8.66116 9.95345C8.66116 7.62968 11.685 7.62968 12.8201 7.62968C14.815 7.62968 17.3975 8.22821 19.2429 8.79209C19.8714 9.05838 20.5067 9.30768 21.1481 9.53973L21.2306 9.56283V3.19531L21.1193 3.16171C18.9419 2.38467 16.4109 1.63913 11.7169 1.63913C3.62388 1.63913 0.757812 6.43997 0.757812 10.5541C0.757812 12.9251 1.75578 18.5061 11.0231 19.1498C11.8087 19.1992 13.8933 19.321 13.8933 21.3129C13.8933 22.9562 12.186 23.9254 9.31582 23.9254C6.17139 23.9254 3.11665 23.1085 1.26401 22.3336V28.889C4.03936 29.6293 7.16729 30 10.8344 30C18.747 30 22.2905 25.4575 22.2905 20.9548C22.2905 15.8495 18.3254 12.5334 11.6716 12.0788M59.1122 29.6986H66.2919V9.17431H59.1102L59.1122 29.6986ZM79.8119 2.94855V29.6986H86.9935V1.64123L79.8119 2.94855ZM69.3342 2.94855L76.5076 1.64123V29.6986H69.3342V2.94645V2.94855Z" fill="white"/>
</svg>
