<svg width="99" height="30" viewBox="0 0 99 30" fill="none" xmlns="http://www.w3.org/2000/svg">
<path d="M42.3807 9.79688C37.0067 9.79688 32.6465 14.3338 32.6465 19.8984C32.6465 25.463 37.0185 30 42.3807 30C47.743 30 52.1149 25.463 52.1149 19.8984C52.1149 14.3338 47.7547 9.79688 42.3807 9.79688ZM42.3807 25.2193C39.5587 25.2193 37.2611 22.8351 37.2611 19.9066C37.2611 16.978 39.5587 14.5938 42.3807 14.5938C45.2027 14.5938 47.5003 16.978 47.5003 19.9066C47.5003 22.8351 45.2027 25.2193 42.3807 25.2193Z" fill="white"/>
<path d="M74.7619 6.29977C76.4371 6.29977 77.7992 4.89034 77.7992 3.14785C77.7992 1.40536 76.4371 0 74.7619 0C73.0867 0 71.7246 1.40943 71.7246 3.15191C71.7246 4.8944 73.0867 6.29977 74.7619 6.29977Z" fill="white"/>
<path d="M22.5057 9.80593C22.2513 9.78562 22.0086 9.77344 21.7582 9.77344C19.4097 9.77344 17.1826 10.7726 15.5857 12.5354C13.9888 10.7808 11.7695 9.77344 9.44456 9.77344C4.78685 9.7775 0.994141 13.7011 0.994141 18.5346V29.5907H5.54618V18.6687C5.54618 16.6622 7.13528 14.8141 9.00619 14.615C9.13927 14.6029 9.26843 14.5947 9.38977 14.5947C11.4955 14.5947 13.2138 16.3778 13.2255 18.5631V29.5866H17.8793V18.6484C17.8793 16.654 19.4567 14.8059 21.3393 14.6069C21.4724 14.5947 21.6016 14.5866 21.7229 14.5866C23.8287 14.5866 25.5587 16.3616 25.5665 18.5346V29.5907H30.2203V18.6687C30.2203 16.455 29.4297 14.3185 28.005 12.6735C26.5842 11.0163 24.6311 9.99683 22.5057 9.80593Z" fill="white"/>
<path d="M59.2788 0.46875H54.625V29.6077H59.2788V0.46875ZM68.1872 0.46875H63.5334V29.6077H68.1872V0.46875ZM77.0916 10.2779H72.4378V29.5996H77.0916V10.2779Z" fill="white"/>
<path d="M98.8451 19.4484C98.8451 16.8854 97.8822 14.4727 96.1444 12.6328C94.3948 10.7968 92.0855 9.77734 89.6275 9.77734H89.5062C86.9581 9.80984 84.5471 10.8578 82.7466 12.7384C80.9461 14.6189 79.9324 17.1047 79.905 19.7611C79.8737 22.4703 80.8757 25.0333 82.727 26.9748C84.5784 28.9163 87.0286 29.9886 89.6392 29.9886H89.651C93.0719 29.9886 96.2775 28.0877 98.031 25.0333L98.2541 24.6433L94.4105 22.6815L94.2187 23.0064C93.248 24.6555 91.5806 25.6303 89.7293 25.6303C87.3613 25.6303 85.3181 23.9935 84.688 21.662H98.8451V19.4484ZM89.4435 14.164C91.5689 14.164 93.4711 15.6141 94.1404 17.6693H84.7584C85.416 15.6141 87.3182 14.164 89.4435 14.164Z" fill="white"/>
</svg>
