<svg width="135" height="36" viewBox="0 0 135 36" fill="none" xmlns="http://www.w3.org/2000/svg">
<path d="M48.6331 10.9852L48.0768 13.1843L46.8376 16.9535H50.4309L49.1917 13.1843C48.955 12.4305 48.6354 10.9852 48.6354 10.9852H48.6331ZM51.0476 19.0277H46.2304L45.0527 22.6097H42.4512L47.3453 8.59886H49.9468L54.7794 22.6097H52.1779L51.0476 19.0277ZM60.3435 20.7239C61.6454 20.7239 62.8219 19.7816 62.8219 17.5189C62.8219 15.9584 62.0171 14.4399 60.3435 14.4399C58.98 14.4399 57.865 15.5706 57.865 17.5813C57.865 19.4659 58.9303 20.7227 60.3435 20.7227M59.9103 12.3032C62.0786 12.3032 62.7604 13.6236 62.7604 13.6236V8.59766H65.2388V22.6085H62.8716V21.1632C62.8716 21.1632 62.004 22.8593 59.7742 22.8593C57.1111 22.8593 55.376 20.7227 55.376 17.5813C55.376 14.3763 57.2342 12.3032 59.8973 12.3032M70.9993 20.9123C72.3013 20.9123 73.2292 19.4671 73.2292 18.2739V18.0338H72.796C71.4941 18.0338 69.4512 18.2223 69.4512 19.5943C69.5127 20.2221 70.0075 20.9147 70.9898 20.9147M72.9073 16.2621H73.2789V16.136C73.2789 14.8156 72.4741 14.3763 71.3579 14.3763C69.9329 14.3763 68.6321 15.3186 68.6321 15.3186L67.703 13.4964C67.703 13.4964 69.2417 12.2396 71.6065 12.2396C74.208 12.2396 75.6958 13.6849 75.6958 16.2609V22.5436H73.4174V21.0396C73.4174 21.0396 72.6741 22.7993 70.3815 22.7993C68.5848 22.7993 67.0367 21.6686 67.0367 19.6579C67.0367 16.5165 71.3118 16.2657 72.9226 16.2657M82.3996 20.7239C83.7631 20.7239 84.8781 19.5931 84.8781 17.5825C84.8781 15.6979 83.8874 14.4411 82.3996 14.4411C81.0977 14.4411 79.9212 15.3834 79.9212 17.6461C79.9828 19.2066 80.7888 20.7251 82.3996 20.7251V20.7239ZM77.5671 12.5553H79.7969V14.0006C79.7969 14.0006 80.6645 12.3044 82.9571 12.3044C85.6202 12.3044 87.3553 14.4411 87.3553 17.5825C87.3553 20.7875 85.4344 22.8605 82.834 22.8605C80.8515 22.8605 79.9839 21.4777 79.9839 21.4777C79.9829 21.7721 80.0035 22.0662 80.0455 22.3576V26.5673H77.5671V12.5553Z" fill="#3C3C3B"/>
<path d="M89.7707 14.6932H88.4688V12.6826H89.7707V9.78125H92.1852V12.6718H94.4151V14.6824H92.1852V18.5776C92.1852 20.2737 93.4872 20.4622 94.1677 20.4622H94.6009V22.6613C94.6009 22.6613 94.2908 22.7237 93.8576 22.7237C92.4941 22.7237 89.7683 22.3468 89.7683 18.9545L89.7707 14.6932Z" fill="#3C3C3B"/>
<path d="M99.7456 20.9123C101.048 20.9123 101.975 19.4671 101.975 18.2739V18.0338H101.542C100.24 18.0338 98.1974 18.2223 98.1974 19.5943C98.259 20.2221 98.6945 20.9147 99.7361 20.9147M101.657 16.2657H101.967V16.1396C101.967 14.8192 101.162 14.3799 100.046 14.3799C98.6211 14.3799 97.3204 15.3222 97.3204 15.3222L96.4149 13.5012C96.4149 13.5012 97.9536 12.2444 100.318 12.2444C102.92 12.2444 104.408 13.6897 104.408 16.2657V22.5484H102.115V21.0396C102.115 21.0396 101.372 22.7993 99.0792 22.7993C97.2825 22.7993 95.7344 21.6686 95.7344 19.6579C95.7344 16.5165 100.009 16.2657 101.682 16.2657M104.96 12.5445H107.562L109.606 18.7648C109.792 19.329 109.916 20.2725 109.978 20.2725L110.349 18.7648L112.393 12.5445H114.995L111.463 22.5977H108.49L104.96 12.5445ZM116.299 12.5565H118.778V22.6097H116.299V12.5565ZM116.299 8.59766H118.714V10.7967H116.299V8.59766ZM121.131 19.5931C121.131 19.5931 122.246 20.7239 123.856 20.7239C124.538 20.7239 125.158 20.4094 125.158 19.7816C125.158 18.2739 120.326 18.4612 120.326 15.2561C120.326 13.3716 121.998 12.3032 124.105 12.3032C126.335 12.3032 127.45 13.434 127.45 13.434L126.521 15.3186C126.521 15.3186 125.592 14.4387 124.106 14.4387C123.487 14.4387 122.804 14.6788 122.804 15.381C122.804 16.8262 127.637 16.6378 127.637 19.8416C127.637 21.5377 126.212 22.8569 123.858 22.8569C121.379 22.8569 120.017 21.3493 120.017 21.3493L121.131 19.5931Z" fill="#3C3C3B"/>
<path d="M129.915 14.6932H128.613V12.6826H129.915V9.78125H132.33V12.6718H134.56V14.6824H132.33V18.5776C132.33 20.2737 133.632 20.4622 134.312 20.4622H134.745V22.6613C134.745 22.6613 134.435 22.7237 134.002 22.7237C132.639 22.7237 129.913 22.3468 129.913 18.9545L129.915 14.6932Z" fill="#3C3C3B"/>
<path d="M22.0899 27.0133C22.0899 22.5635 25.5993 19.0044 29.9868 19.0044C34.3744 19.0044 37.8837 22.5635 37.8837 27.0133C37.8837 31.4631 34.3744 35.0222 29.9868 35.0222C25.5993 35.111 22.0899 31.4631 22.0899 27.0133M23.2297 1.20758C20.8602 -0.216062 17.8775 -0.393719 15.3328 1.02993C14.0402 1.74696 12.9754 2.82219 12.2629 4.13004C11.5503 5.43789 11.2193 6.92436 11.3086 8.41585C11.225 10.7292 10.5929 12.9881 9.46577 15.0011C8.30594 16.9782 6.67729 18.6299 4.72787 19.8062C2.09557 21.141 0.340308 23.8107 0.253906 26.9245C0.258807 28.3419 0.624936 29.7341 1.31676 30.9657C2.00859 32.1974 3.00261 33.2267 4.20236 33.9539C5.40415 34.6821 6.77182 35.0814 8.17146 35.1125C9.5711 35.1437 10.9547 34.8056 12.1868 34.1315C13.4795 33.4145 14.5442 32.3393 15.2568 31.0314C15.9694 29.7236 16.3004 28.2371 16.211 26.7456C16.2946 24.4322 16.9268 22.1733 18.0539 20.1603C19.2137 18.1833 20.8424 16.5315 22.7918 15.3552C25.4241 14.0204 27.1794 11.3508 27.2658 8.23699C27.2658 5.30087 25.6869 2.63123 23.3173 1.29641L23.2297 1.20758Z" fill="#EC6E25"/>
</svg>
