<svg width="136" height="43" viewBox="0 0 136 43" fill="none" xmlns="http://www.w3.org/2000/svg">
<path d="M108.52 16.5654H105.385V18.1404C104.296 16.9288 102.82 16.2383 101.136 16.2383C97.4567 16.2383 94.7871 19.3119 94.7871 23.5559C94.7871 27.6447 97.4555 30.6408 101.109 30.6408C102.817 30.6408 104.114 30.0678 105.385 28.6878V30.5899C105.385 33.4285 104.271 34.8351 101.939 34.8351C100.695 34.8351 99.4513 34.2099 98.9075 33.248C98.5972 32.7028 98.4925 32.1819 98.3902 31.0067H95.3345C95.361 35.0956 97.8729 37.6482 101.915 37.6482C104.221 37.6482 106.243 36.7105 107.357 35.0192C108.264 33.7169 108.523 32.5187 108.523 29.8618L108.52 16.5654ZM101.706 19.0127C103.96 19.0127 105.515 20.7839 105.515 23.3741C105.515 26.031 104.011 27.8022 101.758 27.8022C99.4778 27.8022 98.0004 26.0819 98.0004 23.4262C97.974 20.7694 99.4513 19.0248 101.706 19.0248V19.0127Z" fill="#ED2C41"/>
<path d="M48.2031 16.5691V30.1914H51.3118V23.1598C51.3118 20.2691 52.089 19.0188 53.8382 19.0188C55.2373 19.0188 55.911 20.1904 55.911 22.6388V30.1926H59.0197V23.1598C59.0197 20.2424 59.7969 19.0188 61.5461 19.0188C63.0499 19.0188 63.619 20.0341 63.619 22.6134V30.1926H66.7276V21.7786C66.7276 18.1441 65.1733 16.2057 62.1561 16.2057C60.4983 16.2057 59.1244 16.9083 58.1656 18.2107C57.3234 16.9083 56.0662 16.2057 54.5636 16.2057C53.2162 16.2057 52.5185 16.5691 51.3515 17.8206V16.5691H48.2031ZM78.414 16.5691V18.1441C77.0666 16.763 75.8876 16.1911 74.2034 16.1911C70.5762 16.1911 67.8032 19.2381 67.8032 23.2761C67.8032 27.5479 70.498 30.5937 74.2804 30.5937C75.9129 30.5937 76.9752 30.0994 78.4261 28.7449V30.1769H81.5612V16.5691H78.414ZM74.7351 19.0164C77.0149 19.0164 78.5849 20.8397 78.5849 23.3924C78.5849 26.0214 77.0041 27.7938 74.7351 27.7938C72.5335 27.7938 70.978 25.9451 70.978 23.3924C70.978 20.8664 72.5841 19.0164 74.7351 19.0164V19.0164ZM87.1457 16.5691H84.0106V30.1914H87.1457V16.5691ZM85.6179 8.98986C84.4509 8.98986 83.545 9.90092 83.545 11.0216C83.545 12.1422 84.4774 13.1042 85.5673 13.1042C86.7078 13.1042 87.6402 12.1665 87.6402 11.0204C87.6402 9.87427 86.7331 8.98865 85.6191 8.98865L85.6179 8.98986ZM90.021 5.52734H93.1561V30.1939H90.021V5.52734Z" fill="#646569"/>
<path d="M113.521 16.5673H110.385V24.4591C110.385 26.595 110.774 27.7665 111.811 28.8872C112.899 30.0066 114.375 30.6075 116.163 30.6075C117.977 30.6075 119.454 30.0345 120.542 28.8872C121.577 27.7677 121.968 26.595 121.968 24.4591V16.5673H118.833V24.4058C118.833 26.7234 117.991 27.792 116.164 27.792C114.35 27.792 113.521 26.7258 113.521 24.4058V16.5673ZM124.04 16.5673V30.1896H127.175V23.6256C127.175 20.266 127.952 19.0412 130.062 19.0412C132.005 19.0412 132.588 19.9256 132.588 22.6091V30.215H135.724V21.8555C135.724 18.0271 134.143 16.2292 130.827 16.2292C129.35 16.2292 128.417 16.646 127.2 17.8442V16.5939H124.038L124.04 16.5673ZM21.3415 13.6148C19.2309 13.6167 17.207 14.461 15.7133 15.9627C14.2197 17.4644 13.3779 19.5011 13.3725 21.6266C13.3779 23.752 14.2197 25.7887 15.7133 27.2904C17.207 28.7921 19.2309 29.6364 21.3415 29.6383C23.4521 29.6364 25.4759 28.7921 26.9696 27.2904C28.4633 25.7887 29.305 23.752 29.3105 21.6266C29.305 19.5011 28.4633 17.4644 26.9696 15.9627C25.4759 14.461 23.4521 13.6167 21.3415 13.6148V13.6148ZM8.93567 21.6266C8.94077 18.3167 10.2501 15.1443 12.5762 12.8059C14.9022 10.4676 18.0548 9.15454 21.3415 9.15519C28.1892 9.15519 33.7473 14.7282 33.7473 21.6266C33.7473 22.1027 33.704 22.5352 33.6607 22.9689C33.5741 24.1804 34.4366 25.0891 35.6421 25.0891C37.6668 25.0891 37.8822 22.448 37.8822 21.5817C37.8822 12.3584 30.4714 4.91124 21.297 4.91124C12.1225 4.91124 4.71298 12.3597 4.71298 21.5829C4.71298 30.8062 12.1237 38.2534 21.2982 38.2534C26.1657 38.2534 30.5171 36.1333 33.5753 32.7968L36.9799 35.6559C33.1458 39.9859 27.5456 42.7143 21.2994 42.7143C9.66832 42.7143 0.277344 33.2305 0.277344 21.5817C0.277344 9.89058 9.71163 0.449219 21.2994 0.449219C32.9304 0.449219 42.3214 9.93299 42.3214 21.5817C42.3214 26.2582 40.0813 30.0696 35.6445 30.0696C33.6631 30.0696 32.4997 29.161 31.8104 28.1639C29.6136 31.7137 25.735 34.0519 21.2561 34.0519C14.4925 34.0955 8.93687 28.5092 8.93687 21.6241L8.93567 21.6266ZM21.3415 17.946C23.3662 17.946 25.0036 19.5912 25.0036 21.5829C25.0036 22.5609 24.6178 23.4987 23.9311 24.1902C23.2445 24.8817 22.3132 25.2702 21.3421 25.2702C20.371 25.2702 19.4397 24.8817 18.753 24.1902C18.0664 23.4987 17.6806 22.5609 17.6806 21.5829C17.7239 19.5912 19.3168 17.946 21.3427 17.946H21.3415Z" fill="#ED2C41"/>
</svg>
