<svg width="136" height="33" viewBox="0 0 136 33" fill="none" xmlns="http://www.w3.org/2000/svg">
<path d="M20.4773 27.0577C20.4773 27.0577 14.1222 17.9411 19.1409 8.92427C22.9873 2.42197 30.6085 -0.775337 37.9037 1.05245C41.3068 2.14492 39.9717 8.03532 39.9717 9.48232C39.9195 10.1047 39.9717 10.7297 40.1229 11.3364C40.312 11.8668 40.827 12.2082 41.3838 12.1741C41.961 12.0854 42.5333 11.9666 43.0984 11.8183C43.0197 15.616 41.6186 19.2652 39.1398 22.1284C35.1056 26.3959 32.3818 24.2622 28.8 27.3347C25.2182 30.4073 22.1932 34.294 23.3028 28.4771C26.8585 9.91431 36.6676 3.08245 33.3897 5.29233C23.8844 12.0218 20.4786 27.0551 20.4786 27.0551L20.4773 27.0577Z" fill="#99C82A"/>
<path d="M11.9019 15.5538C10.7498 12.1171 8.72421 9.0442 6.02664 6.64069C9.28113 8.55514 11.9437 11.3415 13.7195 14.6898L14.4497 16.0606C14.6611 13.3912 15.4255 10.796 16.6937 8.44222C14.7447 6.63405 12.4229 5.28207 9.89447 4.48304C7.36604 3.684 4.69349 3.45767 2.06805 3.82023C2.81518 4.7919 3.11768 6.03931 2.89993 7.24733C2.46965 9.17753 -2.49814 15.1191 2.46965 21.1395C5.60809 24.7544 9.13248 28.0069 12.9855 30.8405C13.7884 25.7279 13.4172 20.4981 11.9006 15.5525L11.9019 15.5538Z" fill="#1B96DA"/>
<path d="M18.0691 6.4622C16.2524 5.12023 14.1853 4.16137 11.9918 3.64305C14.4506 2.23176 17.2313 1.48791 20.0615 1.48438C19.8855 2.47443 20.188 3.00753 21.7513 3.51568C20.4526 4.40347 19.2218 5.38796 18.0691 6.46089V6.4622ZM13.1144 32.6184C13.1144 32.6184 2.62336 26.1936 0.505859 21.2171C1.59069 25.5345 1.36381 30.2063 13.1144 32.6197V32.6184ZM27.4623 31.4761C27.4623 31.4761 30.589 28.0726 31.9007 28.0726C33.2124 28.0726 36.9441 26.9801 36.9441 26.9801C36.9441 26.9801 34.8514 31.1189 27.4623 31.4748V31.4761ZM58.6681 23.276L54.008 15.7193L52.1435 18.415V23.276H49.1706V5.52992H52.1435V14.0202L57.8323 5.52992H61.2172L55.9782 13.3072L62.2212 23.2865L58.6681 23.276ZM69.7511 21.9655C69.4271 22.4672 68.9538 22.8528 68.399 23.0672C67.7625 23.3509 67.074 23.4967 66.378 23.4953C65.2609 23.5518 64.1646 23.176 63.3138 22.4448C62.9278 22.0584 62.6272 21.5941 62.4319 21.0825C62.2367 20.5708 62.1511 20.0233 62.1808 19.476C62.1506 18.803 62.2796 18.1325 62.5571 17.5196C62.8345 16.9067 63.2525 16.3689 63.7767 15.9504C65.0982 15.0151 66.6953 14.5583 68.3077 14.6544C68.708 14.6636 69.107 14.7253 69.4916 14.8356C69.4916 13.3063 68.582 12.5417 66.7626 12.5417C65.8292 12.5093 64.9018 12.7048 64.0597 13.1116L63.4442 10.8045C64.5406 10.2794 65.7445 10.0216 66.9582 10.0521C68.4446 9.92081 69.9271 10.3738 71.0654 11.3481C71.9234 12.2121 72.3523 13.9191 72.3523 16.4691V19.2436C72.3523 20.9676 72.6744 22.0561 73.3303 22.4973C73.1739 22.8521 72.895 23.1377 72.5453 23.3009C72.2259 23.408 71.891 23.4604 71.5544 23.4559C71.1345 23.4506 70.7329 23.272 70.4461 22.9635C70.1396 22.6934 69.9051 22.3503 69.7641 21.9655H69.7511ZM69.4942 17.1558C69.1357 17.0678 68.7693 17.0166 68.399 17.0009C66.1424 17.0009 65.0141 17.783 65.0141 19.3473C65.0141 20.5054 65.6487 21.0889 66.9178 21.0976C68.6337 21.0976 69.4916 20.1903 69.4916 18.3756L69.4942 17.1558ZM76.9733 22.563L76.3292 23.5215H74.7332V5.4774L77.6018 4.76441V10.8045C78.3319 10.3239 79.1873 10.0692 80.0609 10.0652C80.8682 10.0332 81.6729 10.1776 82.4195 10.4886C83.1661 10.7996 83.8369 11.2698 84.3859 11.8668C85.5107 13.1254 86.1022 14.7771 86.034 16.4691C86.1437 18.3461 85.5515 20.1964 84.3741 21.6557C83.8123 22.2876 83.1175 22.7853 82.3404 23.1124C81.5633 23.4395 80.7235 23.5878 79.8823 23.5465C78.8339 23.557 77.813 23.209 76.9876 22.5617L76.9733 22.563ZM77.5783 13.3978V20.1509C77.7801 20.4076 78.039 20.6129 78.3342 20.7502C78.6293 20.8875 78.9524 20.953 79.2773 20.9414C80.3595 21.0569 81.4378 20.6761 82.211 19.8909C82.8665 18.9117 83.1705 17.7365 83.0729 16.5597C83.0729 13.9668 81.8842 12.6704 79.5067 12.6704C78.7948 12.6126 78.0933 12.8739 77.59 13.3834L77.5783 13.3978ZM90.1151 22.563L89.471 23.5215H87.862V5.4774L90.7175 4.76441V10.8045C91.4563 10.3196 92.3196 10.0626 93.2014 10.0652C94.8391 9.99959 96.4246 10.6561 97.5394 11.8668C98.6643 13.1254 99.2557 14.7771 99.1875 16.4691C99.2958 18.3467 98.7051 20.1955 97.5277 21.6557C96.9653 22.2869 96.2704 22.784 95.4935 23.1111C94.7165 23.4382 93.877 23.5869 93.0358 23.5465C91.9927 23.5622 90.9496 23.2143 90.1151 22.5617V22.563ZM90.7201 13.3978V20.1509C90.9219 20.4076 91.1809 20.6129 91.476 20.7502C91.7711 20.8875 92.0942 20.953 92.4191 20.9414C93.5013 21.0569 94.5796 20.6761 95.3528 19.8909C96.0083 18.9117 96.3124 17.7365 96.2147 16.5597C96.2147 13.9668 95.026 12.6704 92.6486 12.6704C92.2946 12.6387 91.9381 12.6862 91.6045 12.8095C91.2709 12.9328 90.9685 13.1287 90.7188 13.3834L90.7201 13.3978ZM108.058 21.9655C107.734 22.4672 107.261 22.8528 106.706 23.0672C106.069 23.3513 105.381 23.4971 104.685 23.4953C103.55 23.5614 102.435 23.1853 101.568 22.4448C101.182 22.0584 100.882 21.5941 100.687 21.0825C100.491 20.5708 100.406 20.0233 100.435 19.476C100.405 18.803 100.534 18.1325 100.812 17.5196C101.089 16.9067 101.507 16.3689 102.031 15.9504C103.353 15.016 104.95 14.5593 106.562 14.6544C106.963 14.6646 107.361 14.7255 107.746 14.8356C107.746 13.3063 106.837 12.5417 105.017 12.5417C104.088 12.5119 103.166 12.7074 102.327 13.1116L101.709 10.8045C102.806 10.2794 104.009 10.0216 105.223 10.0521C105.959 9.9791 106.702 10.0562 107.408 10.2789C108.114 10.5016 108.767 10.8652 109.33 11.3481C110.188 12.2121 110.617 13.9191 110.617 16.4691V19.2436C110.617 20.9676 110.939 22.0561 111.595 22.4973C111.439 22.8519 111.16 23.1368 110.81 23.3009C110.491 23.4082 110.156 23.4606 109.819 23.4559C109.4 23.4493 109.001 23.272 108.711 22.9635C108.414 22.69 108.189 22.3473 108.055 21.9655H108.058ZM107.775 17.1558C107.416 17.0674 107.049 17.0155 106.68 17.0009C104.423 17.0009 103.295 17.783 103.295 19.3473C103.295 20.5054 103.929 21.0889 105.198 21.0976C106.914 21.0976 107.772 20.1903 107.772 18.3756L107.775 17.1558ZM112.331 26.6322L114.133 24.2726C114.819 24.9701 115.698 25.4443 116.655 25.6339C117.612 25.8235 118.603 25.7198 119.501 25.3362C119.725 25.2603 119.92 25.1183 120.063 24.9285C120.205 24.7388 120.287 24.5102 120.299 24.2726C120.299 23.5084 119.707 23.1171 118.523 23.1171C118.045 23.128 117.567 23.1671 117.094 23.234C116.62 23.2996 116.142 23.339 115.665 23.3653C113.7 23.3653 112.718 22.6177 112.718 21.1226C112.723 20.6458 112.896 20.1865 113.207 19.8266C113.511 19.436 113.904 19.1249 114.353 18.9192C113.682 18.4821 113.135 17.8775 112.764 17.1642C112.394 16.4508 112.214 15.6531 112.241 14.8487C112.204 13.5436 112.73 12.2883 113.683 11.4006C114.161 10.9475 114.723 10.5939 115.337 10.3602C115.951 10.1265 116.605 10.0173 117.261 10.039C118.202 10.0127 119.134 10.2359 119.964 10.6876L121.085 9.30104L123.067 11.205L121.703 12.2554C122.206 13.067 122.465 14.0077 122.45 14.9643C122.479 15.6106 122.38 16.2562 122.159 16.8637C121.938 17.4711 121.6 18.0284 121.163 18.503C120.32 19.3722 119.151 19.8423 117.945 19.799C117.671 19.8148 117.396 19.8148 117.121 19.799L116.645 19.7333C116.435 19.797 116.232 19.8837 116.04 19.992C115.68 20.1601 115.512 20.3426 115.512 20.5369C115.512 20.7313 115.782 21.0162 116.297 21.0162C116.696 20.9926 117.079 20.9322 117.481 20.835C117.95 20.726 118.429 20.6653 118.91 20.6538C121.692 20.6538 123.082 21.8377 123.082 24.2056C123.095 24.8223 122.948 25.4316 122.654 25.973C122.361 26.5143 121.932 26.9689 121.41 27.2913C120.208 28.0619 118.804 28.4503 117.381 28.4061C115.548 28.4025 113.771 27.7771 112.335 26.6309L112.331 26.6322ZM115.189 14.8881C115.158 15.556 115.373 16.2118 115.794 16.729C115.993 16.9598 116.24 17.1426 116.519 17.2638C116.798 17.3849 117.1 17.4414 117.403 17.4289C117.698 17.4474 117.994 17.3961 118.267 17.2792C118.539 17.1622 118.781 16.9829 118.973 16.7553C119.367 16.2167 119.563 15.5563 119.525 14.8881C119.541 14.2802 119.33 13.688 118.934 13.2284C118.747 12.9987 118.511 12.815 118.243 12.6914C117.975 12.5678 117.683 12.5076 117.388 12.5154C117.091 12.5062 116.795 12.5603 116.52 12.6741C116.245 12.7879 115.997 12.9589 115.792 13.1759C115.378 13.635 115.16 14.2406 115.187 14.8606L115.189 14.8881ZM135.399 17.7152H126.697C126.69 18.1665 126.774 18.6146 126.942 19.0331C127.109 19.4516 127.359 19.8321 127.675 20.1522C128.366 20.7523 129.262 21.0713 130.172 21.0083C130.714 21.0504 131.26 20.9763 131.772 20.7909C132.285 20.6056 132.752 20.3132 133.145 19.9329L134.253 22.24C132.952 23.1984 131.355 23.6579 129.748 23.536C128.93 23.5784 128.112 23.4455 127.349 23.146C126.585 22.8465 125.894 22.3874 125.32 21.7988C124.173 20.4568 123.591 18.7183 123.698 16.951C123.619 15.123 124.262 13.3379 125.487 11.9863C126.033 11.3931 126.692 10.9158 127.424 10.5822C128.156 10.2487 128.947 10.0657 129.75 10.0439C130.553 10.0221 131.353 10.1621 132.101 10.4555C132.85 10.7489 133.533 11.1898 134.111 11.7525C134.648 12.3245 135.067 12.9985 135.343 13.7352C135.62 14.4719 135.748 15.2566 135.72 16.0436C135.666 16.6099 135.558 17.1696 135.398 17.7152H135.399ZM126.762 15.4344H132.825C132.854 14.6439 132.545 13.8797 131.978 13.3335C131.41 12.7872 130.635 12.5141 129.852 12.5824C128.204 12.5955 127.2 13.5409 126.788 15.4475L126.762 15.4344Z" fill="#99C82A"/>
</svg>
